<?xml version="1.0" encoding="utf-8"?>
<!-- Generator: Adobe Illustrator 23.0.0, SVG Export Plug-In . SVG Version: 6.00 Build 0)  -->
<svg version="1.1" id="Layer_1" xmlns="http://www.w3.org/2000/svg" xmlns:xlink="http://www.w3.org/1999/xlink" x="0px" y="0px"
	 viewBox="0 0 64 64" style="enable-background:new 0 0 64 64;" xml:space="preserve">
<style type="text/css">
	.st0{fill:#606060;}
</style>
<path class="st0" d="M49.3,18.4c-0.3-0.3-0.5-0.7-0.8-1c-4-4.5-9.9-7.4-16.5-7.4c-12.2,0-22,9.8-22,22c0,4.3,1.2,8.3,3.3,11.6
	c0.5,0.7,0.9,1.4,1.5,2.1C18.8,50.8,25,54,32,54c6.4,0,12.2-2.8,16.3-7.2c1.3-1.5,2.5-3.1,3.4-4.9c1.5-3,2.3-6.3,2.3-9.9
	C54,26.8,52.2,22.1,49.3,18.4z M32,12.5c3.8,0,7.3,1.1,10.3,3c-4.2-0.9-7.8-0.5-10.9,1c-5.5,2.7-7.3,8.2-7.6,9.1
	c-1.5,3.2-3.4,5.1-5.7,5.9c-2.2,0.7-4.4,0.2-5.6-0.2C12.9,20.9,21.5,12.5,32,12.5z M12.6,33.9c0.9,0.3,1.9,0.4,3.1,0.4
	c1,0,2.1-0.1,3.1-0.5c3.1-1,5.5-3.5,7.3-7.4l0.1-0.2c0,0,1.4-5.2,6.3-7.6c3.8-1.8,8.6-1.5,14.5,0.8c2.9,3.4,4.6,7.8,4.6,12.5
	c0,4.8-1.8,9.3-4.7,12.7c-0.3,0.1-0.7,0.2-1.1,0.2c-2.5,0.3-5-0.7-7.7-3c-0.6-0.7-4.5-5-10.7-5.1c-4-0.1-8.1,1.6-12.1,5.1
	C13.8,39.5,12.9,36.8,12.6,33.9z M32,51.5c-6.3,0-11.8-3-15.4-7.6c3.6-3.2,7.1-4.7,10.6-4.7c5.4,0.1,8.9,4.3,8.9,4.3l0.2,0.2
	c2.5,2.2,5.1,3.4,7.7,3.7C40.6,50,36.5,51.5,32,51.5z"/>
</svg>
