<?xml version="1.0" encoding="utf-8"?>
<!-- Generator: Adobe Illustrator 23.0.0, SVG Export Plug-In . SVG Version: 6.00 Build 0)  -->
<svg version="1.1" id="Layer_1" xmlns="http://www.w3.org/2000/svg" xmlns:xlink="http://www.w3.org/1999/xlink" x="0px" y="0px"
	 viewBox="0 0 64 64" style="enable-background:new 0 0 64 64;" xml:space="preserve">
<style type="text/css">
	.st0{fill:#606060;}
</style>
<path class="st0" d="M32,16c10.5,0,19,7.2,19,16s-8.5,16-19,16c-4.4,0-8.5-1.2-11.9-3.5l-1.4-1l-1.6,0.7l-1.9,0.9l0.8-2.3l0.5-1.5
	l-0.9-1.3C13.9,37.7,13,34.9,13,32C13,23.2,21.5,16,32,16 M32,13c-12.2,0-22,8.5-22,19c0,3.6,1.2,7,3.2,9.9L10,51l8.4-4
	c3.7,2.5,8.4,4,13.6,4c12.1,0,22-8.5,22-19S44.1,13,32,13L32,13z"/>
</svg>
