<?xml version="1.0" encoding="utf-8"?>
<!-- Generator: Adobe Illustrator 23.0.0, SVG Export Plug-In . SVG Version: 6.00 Build 0)  -->
<svg version="1.1" id="Layer_1" xmlns="http://www.w3.org/2000/svg" xmlns:xlink="http://www.w3.org/1999/xlink" x="0px" y="0px"
	 viewBox="0 0 64 64" style="enable-background:new 0 0 64 64;" xml:space="preserve">
<style type="text/css">
	.st0{fill:#606060;}
</style>
<path class="st0" d="M32,15.5c10.8,0,19.5,7.4,19.5,16.5S42.8,48.5,32,48.5c-4.5,0-8.7-1.3-12.2-3.6l-1.2-0.8l-1.3,0.6l-3,1.4
	l1.2-3.4l0.4-1.2l-0.7-1.1c-1.8-2.5-2.7-5.5-2.7-8.4C12.5,22.9,21.2,15.5,32,15.5 M32,13c-12.2,0-22,8.5-22,19c0,3.6,1.2,7,3.2,9.9
	L10,51l8.4-4c3.7,2.5,8.4,4,13.6,4c12.1,0,22-8.5,22-19S44.1,13,32,13L32,13z"/>
</svg>
