<?xml version="1.0" encoding="utf-8"?>
<!-- Generator: Adobe Illustrator 23.0.0, SVG Export Plug-In . SVG Version: 6.00 Build 0)  -->
<svg version="1.1" id="Layer_1" xmlns="http://www.w3.org/2000/svg" xmlns:xlink="http://www.w3.org/1999/xlink" x="0px" y="0px"
	 viewBox="0 0 64 64" style="enable-background:new 0 0 64 64;" xml:space="preserve">
<style type="text/css">
	.st0{display:none;fill:none;stroke:#606060;stroke-width:3;stroke-miterlimit:10;}
	.st1{fill:#606060;}
</style>
<line class="st0" x1="26" y1="37" x2="23" y2="37"/>
<g>
	<g>
		<g>
			<path class="st1" d="M17.9,17.9c-6,6-6,15.7,0,21.6C23.4,45,32,45.5,38,40.8l9.8,9.8l2.8-2.8L40.8,38c4.6-6,4.2-14.6-1.3-20.1
				C33.5,11.9,23.8,11.9,17.9,17.9z M36.7,36.7c-4.4,4.4-11.6,4.4-16,0c-4.4-4.4-4.4-11.6,0-16s11.6-4.4,16,0
				C41.1,25.1,41.1,32.3,36.7,36.7z"/>
		</g>
		<g>
			<polygon class="st1" points="32.9,21.6 35.8,24.4 31.5,28.7 35.8,32.9 32.9,35.8 28.7,31.5 24.4,35.8 21.6,32.9 25.9,28.7 
				21.6,24.4 24.4,21.6 28.7,25.9 			"/>
		</g>
	</g>
</g>
</svg>
