<?xml version="1.0" encoding="utf-8"?>
<!-- Generator: Adobe Illustrator 23.0.0, SVG Export Plug-In . SVG Version: 6.00 Build 0)  -->
<svg version="1.1" id="Layer_1" xmlns="http://www.w3.org/2000/svg" xmlns:xlink="http://www.w3.org/1999/xlink" x="0px" y="0px"
	 viewBox="0 0 64 64" style="enable-background:new 0 0 64 64;" xml:space="preserve">
<style type="text/css">
	.st0{fill:#606060;}
</style>
<path class="st0" d="M31.6,16.4l4.9,9.1l0.6,1.1l1.3,0.2l10.3,1.1l-7.1,7.5l-0.9,1l0.3,1.3l2.1,10.2l-9.3-4.5l-1.2-0.6l-1.1,0.6
	l-9,5.1l1.4-10.2l0.2-1.3l-1-0.9l-7.6-7l10.2-1.9l1.2-0.2l0.6-1.2L31.6,16.4 M31.4,10.8L31.4,10.8L31.4,10.8z M31.4,10.8l-6.3,14
	L9.9,27.5l11.4,10.4l-2.1,15.3l13.4-7.7l13.9,6.7l-3.1-15.1L54.1,26l-15.4-1.7L31.4,10.8L31.4,10.8z"/>
</svg>
