<?xml version="1.0" encoding="utf-8"?>
<!-- Generator: Adobe Illustrator 23.0.0, SVG Export Plug-In . SVG Version: 6.00 Build 0)  -->
<svg version="1.1" id="Layer_1" xmlns="http://www.w3.org/2000/svg" xmlns:xlink="http://www.w3.org/1999/xlink" x="0px" y="0px"
	 viewBox="0 0 64 64" style="enable-background:new 0 0 64 64;" xml:space="preserve">
<style type="text/css">
	.st0{fill:#606060;}
</style>
<g>
	<path class="st0" d="M32,12c11,0,20,9,20,20s-9,20-20,20s-20-9-20-20S21,12,32,12 M32,9C19.3,9,9,19.3,9,32s10.3,23,23,23
		s23-10.3,23-23S44.7,9,32,9L32,9z"/>
	<g>
		<g>
			<polygon class="st0" points="49.3,30.9 32,48.2 14.7,30.9 16.8,28.8 30.5,42.5 30.5,15.8 33.5,15.8 33.5,42.5 47.2,28.8 			"/>
		</g>
	</g>
</g>
</svg>
