<?xml version="1.0" encoding="utf-8"?>
<!-- Generator: Adobe Illustrator 23.0.0, SVG Export Plug-In . SVG Version: 6.00 Build 0)  -->
<svg version="1.1" id="Layer_1" xmlns="http://www.w3.org/2000/svg" xmlns:xlink="http://www.w3.org/1999/xlink" x="0px" y="0px"
	 viewBox="0 0 64 64" style="enable-background:new 0 0 64 64;" xml:space="preserve">
<style type="text/css">
	.st0{fill:#606060;}
</style>
<path class="st0" d="M48,30.6v-1.2c-0.3-3.9-3.6-6.9-7.5-6.9h-0.6c-0.4,0-0.9,0.1-1.3,0.2c-2.3-3.2-6-5.2-10.2-5.2
	C21.6,17.5,16,23.1,16,30v0.6c-1.6,0.3-3.1,1.1-4.2,2.2c-1.4,1.5-2.3,3.5-2.3,5.7c0,4.4,3.6,8,8,8h29c2.2,0,4.2-0.9,5.7-2.3
	c1.4-1.5,2.3-3.5,2.3-5.7C54.5,34.6,51.7,31.3,48,30.6z M50,42c-1,1-2.2,1.5-3.5,1.5H32.9V36l4.3,4.3l1.3-1.3L32,32.5L25.5,39
	l1.3,1.3l4.3-4.3v7.5H17.5c-2.8,0-5-2.2-5-5c0-1.3,0.5-2.6,1.5-3.5c0.7-0.7,1.6-1.2,2.6-1.4l2.6-0.5L19,30.5V30
	c0-5.2,4.3-9.5,9.5-9.5c3.1,0,6,1.5,7.7,4l1.2,1.7l2-0.5c0.2-0.1,0.5-0.1,0.7-0.1h0.4c2.3,0,4.3,1.8,4.5,4.2v0.7l-0.3,2.8l2.7,0.5
	c2.4,0.4,4.1,2.5,4.1,4.9C51.5,39.8,51,41.1,50,42z"/>
</svg>
