<?xml version="1.0" encoding="utf-8"?>
<!-- Generator: Adobe Illustrator 23.0.0, SVG Export Plug-In . SVG Version: 6.00 Build 0)  -->
<svg version="1.1" id="Layer_1" xmlns="http://www.w3.org/2000/svg" xmlns:xlink="http://www.w3.org/1999/xlink" x="0px" y="0px"
	 viewBox="0 0 64 64" style="enable-background:new 0 0 64 64;" xml:space="preserve">
<style type="text/css">
	.st0{fill:#606060;}
</style>
<g>
	<path class="st0" d="M32,52.5c-11.3,0-20.5-9.2-20.5-20.5S20.7,11.5,32,11.5S52.5,20.7,52.5,32S43.3,52.5,32,52.5 M32,55
		c12.7,0,23-10.3,23-23S44.7,9,32,9S9,19.3,9,32S19.3,55,32,55L32,55z"/>
	<g>
		<g>
			<polygon class="st0" points="47.4,34.9 33.3,20.8 33.3,48 30.8,48 30.8,20.8 16.6,34.9 14.9,33.1 32,16 49.1,33.1 			"/>
		</g>
	</g>
</g>
</svg>
