<?xml version="1.0" encoding="utf-8"?>
<!-- Generator: Adobe Illustrator 23.0.0, SVG Export Plug-In . SVG Version: 6.00 Build 0)  -->
<svg version="1.1" id="Layer_1" xmlns="http://www.w3.org/2000/svg" xmlns:xlink="http://www.w3.org/1999/xlink" x="0px" y="0px"
	 viewBox="0 0 64 64" style="enable-background:new 0 0 64 64;" xml:space="preserve">
<style type="text/css">
	.st0{fill:#606060;}
</style>
<g>
	<path class="st0" d="M32,52c-11,0-20-9-20-20s9-20,20-20s20,9,20,20S43,52,32,52 M32,55c12.7,0,23-10.3,23-23S44.7,9,32,9
		S9,19.3,9,32S19.3,55,32,55L32,55z"/>
	<g>
		<g>
			<polygon class="st0" points="47.2,35.2 33.5,21.5 33.5,48.2 30.5,48.2 30.5,21.5 16.8,35.2 14.7,33.1 32,15.8 49.3,33.1 			"/>
		</g>
	</g>
</g>
</svg>
