<?xml version="1.0" encoding="utf-8"?>
<!-- Generator: Adobe Illustrator 23.0.0, SVG Export Plug-In . SVG Version: 6.00 Build 0)  -->
<svg version="1.1" id="Layer_1" xmlns="http://www.w3.org/2000/svg" xmlns:xlink="http://www.w3.org/1999/xlink" x="0px" y="0px"
	 viewBox="0 0 64 64" style="enable-background:new 0 0 64 64;" xml:space="preserve">
<style type="text/css">
	.st0{fill:#606060;}
</style>
<path class="st0" d="M40.6,28.1l15.2-15.2l-2.1-2.1L37.9,26.5c-1.8-0.8-3.8-1.3-5.9-1.3s-4.1,0.5-5.9,1.3L10.3,10.7l-2.1,2.1
	l15.2,15.2c-3.3,2.6-5.5,6.6-5.5,11.1c0,7.8,6.3,14.1,14.1,14.1S46.1,47,46.1,39.2C46.1,34.7,43.9,30.6,40.6,28.1z M32,50.3
	c-6.1,0-11.1-5-11.1-11.1c0-3.7,1.8-7,4.6-9c0.8-0.6,1.8-1.1,2.8-1.5c1.1-0.4,2.3-0.6,3.6-0.6s2.5,0.2,3.6,0.6c1,0.4,2,0.8,2.8,1.5
	c2.8,2,4.6,5.3,4.6,9C43.1,45.3,38.1,50.3,32,50.3z"/>
</svg>
