<?xml version="1.0" encoding="utf-8"?>
<!-- Generator: Adobe Illustrator 23.0.0, SVG Export Plug-In . SVG Version: 6.00 Build 0)  -->
<svg version="1.1" id="Layer_1" xmlns="http://www.w3.org/2000/svg" xmlns:xlink="http://www.w3.org/1999/xlink" x="0px" y="0px"
	 viewBox="0 0 64 64" style="enable-background:new 0 0 64 64;" xml:space="preserve">
<style type="text/css">
	.st0{fill:#606060;}
</style>
<path class="st0" d="M40.2,28.1l15.4-15.4l-1.8-1.8L38,26.8c-1.8-0.9-3.8-1.4-6-1.4s-4.2,0.5-6,1.4L10.2,10.9l-1.8,1.8l15.4,15.4
	c-3.4,2.5-5.6,6.6-5.6,11.1c0,7.6,6.2,13.8,13.8,13.8s13.8-6.2,13.8-13.8C45.8,34.7,43.6,30.7,40.2,28.1z M32,50.6
	c-6.2,0-11.3-5.1-11.3-11.3c0-3.9,2-7.3,4.9-9.3c0.7-0.5,1.5-0.9,2.3-1.2c1.3-0.5,2.6-0.8,4.1-0.8s2.8,0.3,4.1,0.8
	c0.8,0.3,1.6,0.7,2.3,1.2c3,2,4.9,5.5,4.9,9.3C43.3,45.5,38.2,50.6,32,50.6z"/>
</svg>
