<?xml version="1.0" encoding="utf-8"?>
<!-- Generator: Adobe Illustrator 23.0.0, SVG Export Plug-In . SVG Version: 6.00 Build 0)  -->
<svg version="1.1" id="Layer_1" xmlns="http://www.w3.org/2000/svg" xmlns:xlink="http://www.w3.org/1999/xlink" x="0px" y="0px"
	 viewBox="0 0 64 64" style="enable-background:new 0 0 64 64;" xml:space="preserve">
<style type="text/css">
	.st0{fill:#606060;}
</style>
<g>
	<g>
		<path class="st0" d="M32,26.3c-6.3,0-12.1,2.6-16.2,6.7l2.5,2.5c3.5-3.5,8.4-5.7,13.7-5.7c5.4,0,10.2,2.2,13.7,5.7l2.5-2.5
			C44,28.9,38.3,26.3,32,26.3z"/>
		<path class="st0" d="M32,16.3c-8.7,0-16.6,3.5-22.3,9.2l2.6,2.6c5.1-5.1,12.1-8.2,19.8-8.2s14.7,3.1,19.8,8.2l0,0l2.5-2.6
			C48.5,19.8,40.7,16.3,32,16.3z"/>
		<path class="st0" d="M32,36.4c-3.2,0-6,1.3-8.1,3.4l2.5,2.5c1.4-1.4,3.4-2.3,5.6-2.3s4.1,0.9,5.6,2.3l2.5-2.5
			C38,37.7,35.2,36.4,32,36.4z"/>
	</g>
	<polygon class="st0" points="34,45.7 32,47.7 30,45.7 	"/>
</g>
</svg>
