<?xml version="1.0" encoding="utf-8"?>
<!-- Generator: Adobe Illustrator 23.0.0, SVG Export Plug-In . SVG Version: 6.00 Build 0)  -->
<svg version="1.1" id="Layer_1" xmlns="http://www.w3.org/2000/svg" xmlns:xlink="http://www.w3.org/1999/xlink" x="0px" y="0px"
	 viewBox="0 0 64 64" style="enable-background:new 0 0 64 64;" xml:space="preserve">
<style type="text/css">
	.st0{fill:#606060;}
	.st1{fill-rule:evenodd;clip-rule:evenodd;fill:#606060;}
</style>
<path class="st0" d="M42,9.3L41.7,9H10v46h44V21.8L42,9.3z M51,52H13V12h26v13h12V52z M42,22v-8.4l8,8.4H42z"/>
<g>
	<path class="st0" d="M32,31c2.6,0,5,0.7,7.1,2.1c2.2,1.4,3.9,3.5,4.9,5.9c-2,4.8-6.7,8-12,8s-10-3.2-12-8c1-2.4,2.7-4.5,4.9-5.9
		C27,31.7,29.4,31,32,31 M32,28c-3.2,0-6.2,0.9-8.7,2.6c-3,2-5.3,4.9-6.4,8.4c2.1,6.4,8.1,11,15.2,11s13.1-4.6,15.2-11
		c-1.1-3.5-3.4-6.4-6.4-8.4C38.2,28.9,35.2,28,32,28L32,28z"/>
	<circle class="st1" cx="32" cy="39" r="5"/>
</g>
</svg>
