<?xml version="1.0" encoding="utf-8"?>
<!-- Generator: Adobe Illustrator 23.0.0, SVG Export Plug-In . SVG Version: 6.00 Build 0)  -->
<svg version="1.1" id="Layer_1" xmlns="http://www.w3.org/2000/svg" xmlns:xlink="http://www.w3.org/1999/xlink" x="0px" y="0px"
	 viewBox="0 0 64 64" style="enable-background:new 0 0 64 64;" xml:space="preserve">
<style type="text/css">
	.st0{fill:#606060;}
</style>
<g>
	<g>
		<path class="st0" d="M39,25V9H10v46h44V25H39z M32,50c-7.1,0-13.1-4.6-15.2-11c1.2-3.5,3.5-6.4,6.5-8.4c2.5-1.7,5.5-2.6,8.8-2.6
			s6.2,0.9,8.8,2.6c3,2,5.3,4.9,6.5,8.4C45.1,45.4,39.1,50,32,50z M39.4,32.7c-2.2-1.4-4.7-2.2-7.4-2.2s-5.2,0.8-7.4,2.2
			c-2.3,1.5-4.2,3.7-5.2,6.3c2,5.1,7,8.5,12.5,8.5s10.5-3.4,12.5-8.5C43.5,36.4,41.7,34.2,39.4,32.7z M32,44c-2.8,0-5-2.3-5-5
			s2.3-5,5-5s5,2.3,5,5S34.8,44,32,44z"/>
	</g>
	<polygon class="st0" points="54,19.3 54,21.8 42,21.8 42,9 44.2,9 	"/>
</g>
</svg>
