<?xml version="1.0" encoding="utf-8"?>
<!-- Generator: Adobe Illustrator 23.0.0, SVG Export Plug-In . SVG Version: 6.00 Build 0)  -->
<svg version="1.1" id="Layer_1" xmlns="http://www.w3.org/2000/svg" xmlns:xlink="http://www.w3.org/1999/xlink" x="0px" y="0px"
	 viewBox="0 0 64 64" style="enable-background:new 0 0 64 64;" xml:space="preserve">
<style type="text/css">
	.st0{fill:#606060;}
</style>
<path class="st0" d="M32,12.4c0,0,6,1,4,12l15,8v3l-16-4l-1,12l5,5v2l-7-3l-7,3v-3l5-4l-1-12l-16,5v-3l15-9C28,24.4,26,14.4,32,12.4
	 M31.8,9.8L31.2,10c-5.6,1.9-6.4,8.5-5.9,13.1l-13.6,8.1L10.5,32v1.4v3v3.4l3.2-1l13-4.1l0.6,7.6l-4,3.2l-0.9,0.8v1.2v3v3.8l3.5-1.5
	l6-2.6l6,2.6l3.5,1.5v-3.8v-2v-1l-0.7-0.7l-4.2-4.2l0.7-7.9l13.1,3.3l3.1,0.8v-3.2v-3v-1.5l-1.3-0.7L38.7,23c0.5-4.2-0.1-7.6-1.8-10
	c-1.8-2.6-4.3-3.1-4.5-3.1L31.8,9.8L31.8,9.8z"/>
</svg>
