<?xml version="1.0" encoding="utf-8"?>
<!-- Generator: Adobe Illustrator 23.0.0, SVG Export Plug-In . SVG Version: 6.00 Build 0)  -->
<svg version="1.1" id="Layer_1" xmlns="http://www.w3.org/2000/svg" xmlns:xlink="http://www.w3.org/1999/xlink" x="0px" y="0px"
	 viewBox="0 0 64 64" style="enable-background:new 0 0 64 64;" xml:space="preserve">
<style type="text/css">
	.st0{fill:#606060;}
</style>
<g>
	<g>
		<path class="st0" d="M32,10c-12.2,0-22,9.8-22,22s9.8,22,22,22s22-9.8,22-22S44.2,10,32,10z M32,51c-10.5,0-19-8.5-19-19
			s8.5-19,19-19s19,8.5,19,19S42.5,51,32,51z"/>
	</g>
	<g>
		<polygon class="st0" points="34.1,32 44.2,42 42,44.2 32,34.1 22,44.2 19.8,42 29.9,32 19.8,22 22,19.8 32,29.9 42,19.8 44.2,22 
					"/>
	</g>
</g>
</svg>
