<?xml version="1.0" encoding="utf-8"?>
<!-- Generator: Adobe Illustrator 23.0.0, SVG Export Plug-In . SVG Version: 6.00 Build 0)  -->
<svg version="1.1" id="Layer_1" xmlns="http://www.w3.org/2000/svg" xmlns:xlink="http://www.w3.org/1999/xlink" x="0px" y="0px"
	 viewBox="0 0 64 64" style="enable-background:new 0 0 64 64;" xml:space="preserve">
<style type="text/css">
	.st0{fill:#606060;}
</style>
<g>
	<g>
		<path class="st0" d="M32,10c-12.2,0-22,9.8-22,22s9.8,22,22,22s22-9.8,22-22S44.2,10,32,10z M32,51.5c-10.8,0-19.5-8.8-19.5-19.5
			S21.3,12.5,32,12.5S51.5,21.3,51.5,32S42.8,51.5,32,51.5z"/>
	</g>
	<g>
		<polygon class="st0" points="33.8,32 44,42.2 42.2,44 32,33.8 21.8,44 20,42.2 30.2,32 20,21.8 21.8,20 32,30.2 42.2,20 44,21.8 
					"/>
	</g>
</g>
</svg>
