<?xml version="1.0" encoding="utf-8"?>
<!-- Generator: Adobe Illustrator 23.0.0, SVG Export Plug-In . SVG Version: 6.00 Build 0)  -->
<svg version="1.1" id="Layer_1" xmlns="http://www.w3.org/2000/svg" xmlns:xlink="http://www.w3.org/1999/xlink" x="0px" y="0px"
	 viewBox="0 0 64 64" style="enable-background:new 0 0 64 64;" xml:space="preserve">
<style type="text/css">
	.st0{fill:#606060;}
</style>
<g>
	<path class="st0" d="M45,36c2.7,2.7,2.4,7-0.4,9.4c-2.5,2.1-6.3,1.7-8.7-0.6L31,40.1c-0.8-0.8-2.1-0.8-3,0l0,0
		c-0.8,0.8-0.8,2.1,0,3l4.6,4.6c3.9,3.9,10.4,4.5,14.6,0.8c2.4-2.1,3.7-5.1,3.7-8c0-2.7-1-5.3-3.1-7.5L43,28.1c-0.8-0.8-2.1-0.8-3,0
		l0,0c-0.8,0.8-0.8,2.1,0,3L45,36z M15.1,17.2c-3.2,4.2-2.7,10.4,1.1,14.1L21,36c0.8,0.8,2.1,0.8,3,0l0,0c0.8-0.8,0.8-2.1,0-3
		l-4.8-4.8c-2.4-2.4-2.7-6.2-0.6-8.7c2.4-3,6.8-3.1,9.4-0.4L33,24c0.8,0.8,2.1,0.8,3,0l0,0c0.8-0.8,0.8-2.1,0-3L31,16.2
		C26.5,11.7,19,11.9,15.1,17.2z"/>
	<g>
		<path class="st0" d="M39.9,40L39.9,40c-0.8,0.8-2.1,0.8-3,0L24,27c-0.8-0.8-0.8-2.1,0-3l0,0c0.8-0.8,2.1-0.8,3,0l13,13
			C40.7,37.8,40.7,39.1,39.9,40z"/>
	</g>
</g>
</svg>
