<?xml version="1.0" encoding="utf-8"?>
<!-- Generator: Adobe Illustrator 23.0.0, SVG Export Plug-In . SVG Version: 6.00 Build 0)  -->
<svg version="1.1" id="Layer_1" xmlns="http://www.w3.org/2000/svg" xmlns:xlink="http://www.w3.org/1999/xlink" x="0px" y="0px"
	 viewBox="0 0 64 64" style="enable-background:new 0 0 64 64;" xml:space="preserve">
<style type="text/css">
	.st0{fill:#606060;}
</style>
<g>
	<path class="st0" d="M45,35.9c2.5,2.5,2.5,6.5,0,9c-2.5,2.5-6.5,2.5-9,0l-6.5-6.5l-3,3l6.5,6.5c4.1,4.1,10.9,4.1,14.9,0
		c2.1-2.1,3.1-4.8,3.1-7.5s-1-5.4-3.1-7.5l-6.5-6.5l-3,3L45,35.9z M16,16.1C12,20.2,12,26.9,16,31l6.5,6.5l3-3L19,28.1
		c-2.5-2.5-2.5-6.5,0-9s6.5-2.5,9,0l6.5,6.5l3-3L31,16.1C26.9,12,20.1,12,16,16.1z"/>
	<g>
		
			<rect x="29.9" y="20.7" transform="matrix(0.7071 -0.7071 0.7071 0.7071 -13.2613 31.9882)" class="st0" width="4.2" height="22.6"/>
	</g>
</g>
</svg>
