<?xml version="1.0" standalone="no"?>
<!DOCTYPE svg PUBLIC "-//W3C//DTD SVG 1.1//EN" "http://www.w3.org/Graphics/SVG/1.1/DTD/svg11.dtd" >
<svg xmlns="http://www.w3.org/2000/svg">
<metadata>Generated by IcoMoon</metadata>
<defs>
<font id="neon" horiz-adv-x="1024">
<font-face units-per-em="1024" ascent="980.48" descent="-43.52" />
<missing-glyph horiz-adv-x="1024" />
<glyph unicode="&#x20;" horiz-adv-x="0" d="" />
<glyph unicode="&#xe900;" glyph-name="add-1-bold-rounded" d="M1024 448c0-16-6.4-32-19.2-44.8s-28.8-19.2-44.8-19.2h-384v-384c0-35.2-28.8-64-64-64s-64 28.8-64 64v384h-384c-35.2 0-64 28.8-64 64 0 16 6.4 32 19.2 44.8s28.8 19.2 44.8 19.2h384v384c0 35.2 28.8 64 64 64 16 0 32-6.4 44.8-19.2s19.2-28.8 19.2-44.8v-384h384c35.2 0 64-28.8 64-64z" />
<glyph unicode="&#xe901;" glyph-name="add-1-bold" d="M1024 512v-128h-448v-448h-128v448h-448v128h448v448h128v-448z" />
<glyph unicode="&#xe902;" glyph-name="add-1-light-rounded" d="M1022.405 448c0-22.33-19.14-41.47-41.47-41.47h-427.464v-430.654c0-22.33-19.14-41.47-41.47-41.47s-41.47 19.14-41.47 41.47v430.654h-427.464c-22.33 0-41.47 19.14-41.47 41.47s19.14 41.47 41.47 41.47h430.654v427.464c0 22.33 19.14 41.47 41.47 41.47s41.47-19.14 41.47-41.47v-430.654h430.654c15.95 0 35.090-15.95 35.090-38.28z" />
<glyph unicode="&#xe903;" glyph-name="add-1-light" d="M1024 486.4v-80h-470.4v-470.4h-80v470.4h-473.6v80h473.6v473.6h80v-473.6z" />
<glyph unicode="&#xe904;" glyph-name="add-1-medium-rounded" d="M1024 448c0-25.6-22.4-48-48-48h-416v-416c0-25.6-22.4-48-48-48s-48 22.4-48 48v416h-416c-25.6 0-48 22.4-48 48s22.4 48 48 48h416v416c0 25.6 22.4 48 48 48s48-22.4 48-48v-416h416c25.6 0 48-22.4 48-48z" />
<glyph unicode="&#xe905;" glyph-name="add-1-medium" d="M1024 496v-96h-464v-464h-96v464h-464v96h464v464h96v-464z" />
<glyph unicode="&#xe906;" glyph-name="add-bold-rounded" d="M874.852 810.852c-93.496 91.27-222.609 149.148-362.852 149.148-282.713 0-512-229.287-512-512 0-140.243 57.878-269.357 149.148-362.852 93.496-91.27 222.609-149.148 362.852-149.148s269.357 57.878 362.852 149.148c91.27 93.496 149.148 222.609 149.148 362.852s-57.878 269.357-149.148 362.852zM834.783 414.609h-289.391v-289.391c0-17.809-15.583-33.391-33.391-33.391s-33.391 15.583-33.391 33.391v289.391h-289.391c-17.809 0-33.391 15.583-33.391 33.391s15.583 33.391 33.391 33.391h289.391v289.391c0 17.809 15.583 33.391 33.391 33.391s33.391-15.583 33.391-33.391v-289.391h289.391c17.809 0 33.391-15.583 33.391-33.391s-15.583-33.391-33.391-33.391z" />
<glyph unicode="&#xe907;" glyph-name="add-bold" d="M0 960v-1024h1024v1024h-1024zM834.783 414.609h-289.391v-289.391c0-17.809-15.583-33.391-33.391-33.391s-33.391 15.583-33.391 33.391v289.391h-289.391c-17.809 0-33.391 15.583-33.391 33.391s15.583 33.391 33.391 33.391h289.391v289.391c0 17.809 15.583 33.391 33.391 33.391s33.391-15.583 33.391-33.391v-289.391h289.391c17.809 0 33.391-15.583 33.391-33.391s-15.583-33.391-33.391-33.391z" />
<glyph unicode="&#xe908;" glyph-name="add-light-rounded" d="M868.174 448c0-15.583-13.357-28.939-28.939-28.939h-298.296v-300.522c0-15.583-13.357-28.939-28.939-28.939s-28.939 13.357-28.939 28.939v300.522h-298.296c-15.583 0-28.939 13.357-28.939 28.939s13.357 28.939 28.939 28.939h300.522v298.296c0 15.583 13.357 28.939 28.939 28.939s28.939-13.357 28.939-28.939v-300.522h300.522c11.13 0 24.487-11.13 24.487-26.713zM512 904.348c251.548 0 456.348-204.8 456.348-456.348s-204.8-456.348-456.348-456.348c-251.548 0-456.348 204.8-456.348 456.348s204.8 456.348 456.348 456.348zM512 960v0c-282.713 0-512-229.287-512-512v0c0-282.713 229.287-512 512-512v0c282.713 0 512 229.287 512 512v0c0 282.713-229.287 512-512 512v0z" />
<glyph unicode="&#xe909;" glyph-name="add-light" d="M968.348 904.348v-912.696h-912.696v912.696h912.696zM1024 960h-1024v-1024h1024v1024zM868.174 481.391v-66.783h-322.783v-322.783h-66.783v322.783h-322.783v66.783h322.783v322.783h66.783v-322.783z" />
<glyph unicode="&#xe90a;" glyph-name="add-medium-rounded" d="M868.174 448c0-17.809-15.583-33.391-33.391-33.391h-289.391v-289.391c0-17.809-15.583-33.391-33.391-33.391s-33.391 15.583-33.391 33.391v289.391h-289.391c-17.809 0-33.391 15.583-33.391 33.391s15.583 33.391 33.391 33.391h289.391v289.391c0 17.809 15.583 33.391 33.391 33.391s33.391-15.583 33.391-33.391v-289.391h289.391c17.809 0 33.391-15.583 33.391-33.391zM512 893.217c244.87 0 445.217-200.348 445.217-445.217s-200.348-445.217-445.217-445.217c-244.87 0-445.217 200.348-445.217 445.217s200.348 445.217 445.217 445.217zM512 960v0c-282.713 0-512-229.287-512-512v0c0-282.713 229.287-512 512-512v0c282.713 0 512 229.287 512 512v0c0 282.713-229.287 512-512 512v0z" />
<glyph unicode="&#xe90b;" glyph-name="add-medium" d="M957.217 893.217v-890.435h-890.435v890.435h890.435zM1024 960h-1024v-1024h1024v1024zM868.174 481.391v-66.783h-322.783v-322.783h-66.783v322.783h-322.783v66.783h322.783v322.783h66.783v-322.783z" />
<glyph unicode="&#xe90c;" glyph-name="airplane-bold" d="M617.34 411.254l-19.598-232.727 122.488-122.488v-120.038l-208.23 88.191-208.23-88.191v146.986l120.038 97.99-19.598 227.828-396.861-122.488v144.536l365.014 218.029c-7.349 68.593-17.148 259.675 127.388 308.67l7.349 2.45 9.799-2.45c4.9 0 56.344-9.799 95.541-66.144s51.445-139.636 36.746-244.976l362.565-193.531v-142.086l-394.411 100.44z" />
<glyph unicode="&#xe90d;" glyph-name="airplane-light" d="M512 899.020c0 0 138.067-23.011 92.045-276.135l345.168-184.090v-69.034l-368.18 92.045-23.011-276.135 115.056-115.056v-46.022l-161.079 69.034-161.079-69.034v69.034l115.056 92.045-23.011 276.135-368.18-115.056v69.034l345.168 207.101c0 0-46.022 230.112 92.045 276.135zM507.398 958.849l-13.807-4.602c-128.863-43.721-147.272-195.595-135.766-301.447l-312.953-186.391-27.613-18.409v-179.488l73.636 23.011 299.146 94.346 13.807-174.885-92.045-73.636-20.71-18.409v-184.090l80.539 34.517 138.067 59.829 138.067-59.829 80.539-34.517v156.476l-112.755 112.755 16.108 181.789 301.447-75.937 71.335-18.409v177.186l-29.915 16.108-308.35 170.283c11.506 96.647-2.301 174.885-41.42 230.112-41.42 59.829-98.948 71.335-103.551 71.335l-13.807 2.301z" />
<glyph unicode="&#xe90e;" glyph-name="airplane-medium" d="M512 891.358c0 0 135.033-22.505 90.022-270.066l337.582-180.044v-67.516l-360.088 90.022-22.505-270.066 112.527-112.527v-45.011l-157.538 67.516-157.538-67.516v67.516l112.527 90.022-22.505 270.066-360.088-112.527v67.516l337.582 202.549c0 0-45.011 225.055 90.022 270.066zM507.499 961.125l-15.754-4.501c-130.532-42.76-150.787-191.297-141.785-299.323l-333.081-200.299v-198.048l87.771 27.007 279.068 87.771 13.503-150.787-85.521-67.516-24.756-18.004v-200.299l94.523 40.51 130.532 56.264 130.532-56.264 94.523-40.51v173.292l-110.277 110.277 13.503 159.789 366.84-90.022v193.547l-36.009 18.004-294.822 157.538c9.002 94.523-4.501 168.791-42.76 225.055-42.76 60.765-99.024 72.018-110.277 74.268l-15.754 2.251z" />
<glyph unicode="&#xe90f;" glyph-name="align-bottom-bold" d="M300.994 401.455h124.121v-465.455h-124.121v465.455zM899.879 401.455h124.121v-465.455h-124.121v465.455zM0 960h124.121v-1024h-124.121v1024zM598.885 960h124.121v-1024h-124.121v1024z" />
<glyph unicode="&#xe910;" glyph-name="align-bottom-light" d="M322.715 401.455h77.576v-465.455h-77.576v465.455zM924.703 401.455h77.576v-465.455h-77.576v465.455zM24.824 960h77.576v-1024h-77.576v1024zM620.606 960h77.576v-1024h-77.576v1024z" />
<glyph unicode="&#xe911;" glyph-name="align-bottom-medium" d="M316.509 401.455h93.091v-465.455h-93.091v465.455zM915.394 401.455h93.091v-465.455h-93.091v465.455zM15.515 960h93.091v-1024h-93.091v1024zM614.4 960h93.091v-1024h-93.091v1024z" />
<glyph unicode="&#xe912;" glyph-name="align-center-bold" d="M279.273 659.006h465.455v-124.121h-465.455v124.121zM279.273 60.121h465.455v-124.121h-465.455v124.121zM0 960h1024v-124.121h-1024v124.121zM0 361.115h1024v-124.121h-1024v124.121z" />
<glyph unicode="&#xe913;" glyph-name="align-center-light" d="M279.273 637.285h465.455v-77.576h-465.455v77.576zM279.273 35.297h465.455v-77.576h-465.455v77.576zM0 935.176h1024v-77.576h-1024v77.576zM0 339.394h1024v-77.576h-1024v77.576z" />
<glyph unicode="&#xe914;" glyph-name="align-center-medium" d="M316.509 680.727h93.091v-465.455h-93.091v465.455zM915.394 680.727h93.091v-465.455h-93.091v465.455zM15.515 960h93.091v-1024h-93.091v1024zM614.4 960h93.091v-1024h-93.091v1024z" />
<glyph unicode="&#xe915;" glyph-name="align-center-vertical-bold" d="M300.994 680.727h124.121v-465.455h-124.121v465.455zM899.879 680.727h124.121v-465.455h-124.121v465.455zM0 960h124.121v-1024h-124.121v1024zM598.885 960h124.121v-1024h-124.121v1024z" />
<glyph unicode="&#xe916;" glyph-name="align-center-vertical-light" d="M322.715 680.727h77.576v-465.455h-77.576v465.455zM924.703 680.727h77.576v-465.455h-77.576v465.455zM24.824 960h77.576v-1024h-77.576v1024zM623.709 960h77.576v-1024h-77.576v1024z" />
<glyph unicode="&#xe917;" glyph-name="align-left-bold" d="M0 659.006h465.454v-124.121h-465.454v124.121zM0 60.119h465.454v-124.119h-465.454v124.119zM0 960h1024v-124.121h-1024v124.121zM0 361.113h1024v-124.121h-1024v124.121z" />
<glyph unicode="&#xe918;" glyph-name="align-left-light" d="M0 637.287h465.452v-77.573h-465.452v77.573zM0 35.3h465.452v-77.573h-465.452v77.573zM0 935.171h1024v-77.573h-1024v77.573zM0 336.293h1024v-77.573h-1024v77.573z" />
<glyph unicode="&#xe919;" glyph-name="align-left-medium" d="M0 643.491h465.455v-93.091h-465.455v93.091zM0 44.606h465.455v-93.091h-465.455v93.091zM0 944.485h1024v-93.091h-1024v93.091zM0 345.6h1024v-93.091h-1024v93.091z" />
<glyph unicode="&#xe91a;" glyph-name="align-light" d="M0 925.867h1024v-77.576h-1024v77.576zM0 339.394h1024v-77.576h-1024v77.576zM0 47.709h1024v-77.576h-1024v77.576zM0 634.182h1024v-77.576h-1024v77.576z" />
<glyph unicode="&#xe91b;" glyph-name="align-right-bold" d="M558.545 659.006h465.455v-124.121h-465.455v124.121zM558.545 60.121h465.455v-124.121h-465.455v124.121zM0 960h1024v-124.121h-1024v124.121zM0 361.115h1024v-124.121h-1024v124.121z" />
<glyph unicode="&#xe91c;" glyph-name="align-right-light" d="M558.545 637.285h465.455v-77.576h-465.455v77.576zM558.545 35.297h465.455v-77.576h-465.455v77.576zM0 935.176h1024v-77.576h-1024v77.576zM0 339.394h1024v-77.576h-1024v77.576z" />
<glyph unicode="&#xe91d;" glyph-name="align-right-medium" d="M558.545 643.491h465.455v-93.091h-465.455v93.091zM558.545 44.606h465.455v-93.091h-465.455v93.091zM0 944.485h1024v-93.091h-1024v93.091zM0 345.6h1024v-93.091h-1024v93.091z" />
<glyph unicode="&#xe91e;" glyph-name="align-top-bold" d="M300.994 960h124.121v-465.455h-124.121v465.455zM899.879 960h124.121v-465.455h-124.121v465.455zM0 960h124.121v-1024h-124.121v1024zM598.885 960h124.121v-1024h-124.121v1024z" />
<glyph unicode="&#xe91f;" glyph-name="align-top-light" d="M322.715 960h77.576v-465.455h-77.576v465.455zM924.703 960h77.576v-465.455h-77.576v465.455zM24.824 960h77.576v-1024h-77.576v1024zM623.709 960h77.576v-1024h-77.576v1024z" />
<glyph unicode="&#xe920;" glyph-name="align-top-medium" d="M316.509 960h93.091v-465.455h-93.091v465.455zM915.394 960h93.091v-465.455h-93.091v465.455zM15.515 960h93.091v-1024h-93.091v1024zM614.4 960h93.091v-1024h-93.091v1024z" />
<glyph unicode="&#xe921;" glyph-name="arrow-down-1-bold" d="M512 960c-282.713 0-512-229.287-512-512s229.287-512 512-512 512 229.287 512 512-229.287 512-512 512zM512 87.374l-385.113 385.113 46.748 46.748 304.974-304.974v594.365h66.783v-592.139l304.974 304.974 46.748-46.748-385.113-387.339z" />
<glyph unicode="&#xe922;" glyph-name="arrow-down-1-light" d="M512 904.348c251.548 0 456.348-204.8 456.348-456.348s-204.8-456.348-456.348-456.348-456.348 204.8-456.348 456.348 204.8 456.348 456.348 456.348zM512 960c-282.713 0-512-229.287-512-512s229.287-512 512-512 512 229.287 512 512-229.287 512-512 512v0zM892.661 472.487l-380.661-380.661-380.661 380.661 37.843 40.070 316.104-313.878v605.496h55.652v-605.496l313.878 313.878z" />
<glyph unicode="&#xe923;" glyph-name="arrow-down-1-medium" d="M512 893.217c244.87 0 445.217-200.348 445.217-445.217s-200.348-445.217-445.217-445.217-445.217 200.348-445.217 445.217 200.348 445.217 445.217 445.217zM512 960c-282.713 0-512-229.287-512-512s229.287-512 512-512 512 229.287 512 512-229.287 512-512 512v0zM897.113 472.487l-385.113-385.113-385.113 385.113 46.748 46.748 304.974-304.974v594.365h66.783v-594.365l304.974 304.974z" />
<glyph unicode="&#xe924;" glyph-name="arrow-down-bold" d="M1024 465.504l-61.265 63.453-406.974-406.974v820.513h-87.521v-820.513l-406.974 406.974-61.265-63.453 512-512 43.761 43.761z" />
<glyph unicode="&#xe925;" glyph-name="arrow-down-light" d="M1024 465.886l-512-509.764-512 509.764 40.245 40.245 444.926-444.926v878.672h55.895v-878.672l442.69 444.926z" />
<glyph unicode="&#xe926;" glyph-name="arrow-down-medium" d="M1024 465.732l-512-509.784-512 509.784 48.762 48.762 429.991-432.208v857.766h66.494v-857.766l429.991 432.208z" />
<glyph unicode="&#xe927;" glyph-name="arrow-left-1-bold" d="M1024 448c0 282.713-229.287 512-512 512s-512-229.287-512-512 229.287-512 512-512 512 229.287 512 512zM151.374 448l385.113 385.113 46.748-46.748-304.974-304.974h594.365v-66.783h-592.139l304.974-304.974-46.748-46.748-387.339 385.113z" />
<glyph unicode="&#xe928;" glyph-name="arrow-left-1-light" d="M968.348 448c0-251.548-204.8-456.348-456.348-456.348s-456.348 204.8-456.348 456.348 204.8 456.348 456.348 456.348 456.348-204.8 456.348-456.348zM1024 448c0 282.713-229.287 512-512 512s-512-229.287-512-512 229.287-512 512-512 512 229.287 512 512v0zM536.487 67.339l-380.661 380.661 380.661 380.661 40.070-37.843-313.878-316.104h605.496v-55.652h-605.496l313.878-313.878z" />
<glyph unicode="&#xe929;" glyph-name="arrow-left-1-medium" d="M957.217 448c0-244.87-200.348-445.217-445.217-445.217s-445.217 200.348-445.217 445.217 200.348 445.217 445.217 445.217 445.217-200.348 445.217-445.217zM1024 448c0 282.713-229.287 512-512 512s-512-229.287-512-512 229.287-512 512-512 512 229.287 512 512v0zM536.487 62.887l-385.113 385.113 385.113 385.113 46.748-46.748-304.974-304.974h594.365v-66.783h-594.365l304.974-304.974z" />
<glyph unicode="&#xe92a;" glyph-name="arrow-left-bold" d="M529.504-64l63.453 61.265-406.974 406.974h820.513v87.521h-820.513l406.974 406.974-63.453 61.265-512-512 43.761-43.761z" />
<glyph unicode="&#xe92b;" glyph-name="arrow-left-light" d="M529.886-64l-509.764 512 509.764 512 40.245-40.245-444.926-444.926h878.672v-55.895h-878.672l444.926-442.69z" />
<glyph unicode="&#xe92c;" glyph-name="arrow-left-medium" d="M529.732-64l-509.784 512 509.784 512 48.762-48.762-432.208-429.991h857.766v-66.494h-857.766l432.208-429.991z" />
<glyph unicode="&#xe92d;" glyph-name="arrow-right-1-bold" d="M512-64c282.713 0 512 229.287 512 512s-229.287 512-512 512-512-229.287-512-512 229.287-512 512-512zM485.287 62.887l-46.748 46.748 304.974 304.974h-592.139v66.783h594.365l-304.974 304.974 46.748 46.748 385.113-385.113-387.339-385.113z" />
<glyph unicode="&#xe92e;" glyph-name="arrow-right-1-light" d="M55.652 448c0 251.548 204.8 456.348 456.348 456.348s456.348-204.8 456.348-456.348-204.8-456.348-456.348-456.348-456.348 204.8-456.348 456.348zM0 448c0-282.713 229.287-512 512-512s512 229.287 512 512-229.287 512-512 512-512-229.287-512-512v0zM447.443 105.183l313.878 313.878h-605.496v55.652h605.496l-313.878 316.104 40.070 37.843 380.661-380.661-380.661-380.661z" />
<glyph unicode="&#xe92f;" glyph-name="arrow-right-1-medium" d="M66.783 448c0 244.87 200.348 445.217 445.217 445.217s445.217-200.348 445.217-445.217-200.348-445.217-445.217-445.217-445.217 200.348-445.217 445.217zM0 448c0-282.713 229.287-512 512-512s512 229.287 512 512-229.287 512-512 512-512-229.287-512-512v0zM440.765 109.635l304.974 304.974h-594.365v66.783h594.365l-304.974 304.974 46.748 46.748 385.113-385.113-385.113-385.113z" />
<glyph unicode="&#xe930;" glyph-name="arrow-right-bold" d="M962.735 404.239l43.761 43.761-512 512-63.453-61.265 406.974-406.974h-820.513v-87.521h820.513l-406.974-406.974 63.453-61.265z" />
<glyph unicode="&#xe931;" glyph-name="arrow-right-light" d="M453.869-23.755l444.926 442.69h-878.672v55.895h878.672l-444.926 444.926 40.245 40.245 509.764-512-509.764-512z" />
<glyph unicode="&#xe932;" glyph-name="arrow-right-medium" d="M445.506-15.238l432.208 429.991h-857.766v66.494h857.766l-432.208 429.991 48.762 48.762 509.784-512-509.784-512z" />
<glyph unicode="&#xe933;" glyph-name="arrow-up-1-bold" d="M1024 448c0 282.713-229.287 512-512 512s-512-229.287-512-512 229.287-512 512-512 512 229.287 512 512zM897.113 421.287l-46.748-46.748-304.974 304.974v-592.139h-66.783v594.365l-304.974-304.974-46.748 46.748 385.113 385.113 385.113-387.339z" />
<glyph unicode="&#xe934;" glyph-name="arrow-up-1-light" d="M512-8.348c-251.548 0-456.348 204.8-456.348 456.348s204.8 456.348 456.348 456.348 456.348-204.8 456.348-456.348-204.8-456.348-456.348-456.348zM512-64c282.713 0 512 229.287 512 512s-229.287 512-512 512-512-229.287-512-512 229.287-512 512-512v0zM854.817 383.443l-313.878 313.878v-605.496h-55.652v605.496l-316.104-313.878-37.843 40.070 380.661 380.661 380.661-380.661z" />
<glyph unicode="&#xe935;" glyph-name="arrow-up-1-medium" d="M512 2.783c-244.87 0-445.217 200.348-445.217 445.217s200.348 445.217 445.217 445.217 445.217-200.348 445.217-445.217-200.348-445.217-445.217-445.217zM512-64c282.713 0 512 229.287 512 512s-229.287 512-512 512-512-229.287-512-512 229.287-512 512-512v0zM850.365 376.765l-304.974 304.974v-594.365h-66.783v594.365l-304.974-304.974-46.748 46.748 385.113 385.113 385.113-385.113z" />
<glyph unicode="&#xe936;" glyph-name="arrow-up-bold" d="M555.761 898.735l-43.761 43.761-512-512 61.265-63.453 406.974 406.974v-820.513h87.521v820.513l406.974-406.974 61.265 63.453z" />
<glyph unicode="&#xe937;" glyph-name="arrow-up-light" d="M983.755 389.869l-442.69 444.926v-878.672h-55.895v878.672l-444.926-444.926-40.245 40.245 512 509.764 512-509.764z" />
<glyph unicode="&#xe938;" glyph-name="arrow-up-medium" d="M975.238 381.506l-429.991 432.208v-857.766h-66.494v857.766l-429.991-432.208-48.762 48.762 512 509.784 512-509.784z" />
<glyph unicode="&#xe939;" glyph-name="bin-bold" d="M690.087 853.148v66.783h-356.174v-66.783h-333.913v-66.783h93.496l84.591-812.522h667.826l84.591 812.522h93.496v66.783h-333.913zM389.565 185.322h-66.783v489.739h66.783v-489.739zM545.391 185.322h-66.783v489.739h66.783v-489.739zM701.217 185.322h-66.783v489.739h66.783v-489.739z" />
<glyph unicode="&#xe93a;" glyph-name="bin-light" d="M690.087 873.183v44.522h-356.174v-44.522h-333.913v-55.652h91.27l86.817-839.235h667.826l86.817 841.461h91.27v55.652h-333.913zM794.713 33.948h-565.426l-77.913 756.87h723.478l-80.139-756.87zM485.287 679.513h55.652v-489.739h-55.652v489.739zM641.113 679.513h55.652v-489.739h-55.652v489.739zM329.461 679.513h55.652v-489.739h-55.652v489.739z" />
<glyph unicode="&#xe93b;" glyph-name="bin-medium" d="M690.087 853.148v66.783h-356.174v-66.783h-333.913v-66.783h93.496l84.591-812.522h667.826l84.591 812.522h93.496v66.783h-333.913zM785.809 40.626h-547.617l-75.687 712.348h696.765l-73.461-712.348zM478.609 675.061h66.783v-489.739h-66.783v489.739zM634.435 675.061h66.783v-489.739h-66.783v489.739zM322.783 675.061h66.783v-489.739h-66.783v489.739z" />
<glyph unicode="&#xe93c;" glyph-name="book-bold" d="M238.933 960c-93.298 0-170.667-75.093-170.667-170.667v-682.667c0-65.991 36.409-122.88 91.022-150.187 22.756-11.378 50.062-20.48 79.644-20.48h716.8v1024h-716.8zM864.711 27.022h-625.778c-43.236 0-79.644 36.409-79.644 79.644v0c0 43.236 36.409 79.644 79.644 79.644h625.778v-159.289zM238.933 277.333c-29.582 0-56.889-6.827-79.644-20.48v532.48c0 43.236 36.409 79.644 79.644 79.644h625.778v-591.644h-625.778z" />
<glyph unicode="&#xe93d;" glyph-name="book-light" d="M238.933 960c-93.298 0-170.667-75.093-170.667-170.667v-682.667c0-50.062 22.756-95.573 56.889-127.431 29.582-27.307 70.542-43.236 113.778-43.236h716.8v1024h-716.8zM898.844-7.111h-659.911c-63.716 0-113.778 50.062-113.778 113.778v0c0 63.716 50.062 113.778 113.778 113.778h659.911v-227.556zM238.933 277.333c-43.236 0-84.196-15.929-113.778-43.236v555.236c0 63.716 50.062 113.778 113.778 113.778h659.911v-625.778h-659.911z" />
<glyph unicode="&#xe93e;" glyph-name="book-medium" d="M238.933 960c-93.298 0-170.667-75.093-170.667-170.667v-682.667c0-56.889 27.307-104.676 68.267-136.533 29.582-20.48 63.716-34.133 102.4-34.133h716.8v1024h-716.8zM887.467 4.267h-648.533c-56.889 0-102.4 45.511-102.4 102.4v0c0 56.889 45.511 102.4 102.4 102.4h648.533v-204.8zM238.933 277.333c-38.684 0-72.818-13.653-102.4-34.133v546.133c0 56.889 45.511 102.4 102.4 102.4h648.533v-614.4h-648.533z" />
<glyph unicode="&#xe93f;" glyph-name="books-bold" d="M-0.149 809.793h270.17v-129.212h-270.17v129.212zM-0.149 610.102h270.17v-399.382h-270.17v399.382zM-0.149 140.241h270.17v-82.226h-270.17v82.226zM375.74 809.793h270.17v-129.212h-270.17v129.212zM375.74 610.102h270.17v-399.382h-270.17v399.382zM375.74 140.241h270.17v-82.226h-270.17v82.226zM654.829 802.656l267.712 36.392 17.405-128.036-267.712-36.392-17.405 128.036zM1003.005 245.96l-267.821-37.589-54.034 397.033 267.821 35.24zM745.063 138.028l267.712 36.392 11.076-81.477-267.712-36.392-11.076 81.477z" />
<glyph unicode="&#xe940;" glyph-name="books-light" d="M-1.177 810.52v-753.287h270.713v753.287h-270.713zM210.685 116.083h-153.012v30.602h153.012v-30.602zM210.685 203.182h-153.012v411.954h153.012v-411.954zM57.674 673.986v77.683h153.012v-77.683h-153.012zM375.467 810.52v-753.287h270.713v753.287h-270.713zM587.329 116.083h-153.012v30.602h153.012v-30.602zM587.329 203.182h-153.012v411.954h153.012v-411.954zM434.317 673.986v77.683h153.012v-77.683h-153.012zM1013.407 179.641l-7.062 58.851-56.497 407.246-7.062 58.851-18.832 134.179-268.359-35.31 18.832-134.179 7.062-58.851 54.143-407.246 7.062-58.851 11.77-87.099 268.359 35.31-9.416 87.099zM721.508 751.669l150.657 21.186 9.416-75.329-150.657-21.186-9.416 75.329zM740.34 617.49l150.657 21.186 56.497-407.246-153.012-21.186-54.143 407.246zM806.253 123.145l-4.708 30.602 150.657 21.186 4.708-28.248-150.657-23.54z" />
<glyph unicode="&#xe941;" glyph-name="books-medium" d="M-44.624 809.688v-751.56h270.092v751.56h-270.092zM155.009 128.587h-129.174v11.743h129.174v-11.743zM155.009 210.789h-129.174v399.266h129.174v-399.266zM25.835 680.514v58.716h129.174v-58.716h-129.174zM331.156 809.688v-751.56h270.092v751.56h-270.092zM530.789 128.587h-129.174v11.743h129.174v-11.743zM530.789 210.789h-129.174v399.266h129.174v-399.266zM401.615 680.514v58.716h129.174v-58.716h-129.174zM967.633 175.56l-9.394 70.459-54.018 394.569-9.394 70.459-16.44 129.174-267.743-35.229 16.44-129.174 9.394-70.459 54.018-396.917 9.394-70.459 11.743-82.202 267.743 35.229-11.743 84.55zM688.147 741.578l126.826 16.44 7.046-58.716-124.477-16.44-9.394 58.716zM706.936 614.752l126.826 16.44 54.018-394.569-129.174-16.44-51.67 394.569zM770.349 135.633v11.743l129.174 18.789 2.349-11.743-131.523-18.789z" />
<glyph unicode="&#xe942;" glyph-name="briefcase-bold" d="M757.76 657.351v238.933h-489.244v-238.933h-268.516v-659.911h1024v659.911h-266.24zM336.782 828.018h352.711v-170.667h-352.711v170.667z" />
<glyph unicode="&#xe943;" glyph-name="briefcase-light" d="M757.76 657.351v238.933h-489.244v-238.933h-268.516v-659.911h1024v659.911h-266.24zM325.404 839.396h375.467v-182.044h-375.467v182.044zM967.111 54.329h-910.222v546.133h910.222v-546.133z" />
<glyph unicode="&#xe944;" glyph-name="briefcase-medium" d="M757.76 657.351v238.933h-489.244v-238.933h-268.516v-659.911h1024v659.911h-266.24zM336.782 828.018h352.711v-170.667h-352.711v170.667zM955.733 65.707h-887.467v523.378h887.467v-523.378z" />
<glyph unicode="&#xe945;" glyph-name="browser-outline-bold" d="M0 960v-334.507h1024v334.507h-1024zM191.147 725.618c-22.756 0-43.236 18.204-43.236 43.236 0 22.756 18.204 43.236 43.236 43.236 22.756 0 43.236-18.204 43.236-43.236 0-22.756-20.48-43.236-43.236-43.236zM352.711 725.618c-22.756 0-43.236 18.204-43.236 43.236 0 22.756 18.204 43.236 43.236 43.236s43.236-18.204 43.236-43.236c0-22.756-20.48-43.236-43.236-43.236zM514.276 725.618c-22.756 0-43.236 18.204-43.236 43.236 0 22.756 18.204 43.236 43.236 43.236 22.756 0 43.236-18.204 43.236-43.236 0-22.756-18.204-43.236-43.236-43.236zM0 557.227v-621.227h1024v621.227h-1024z" />
<glyph unicode="&#xe946;" glyph-name="browser-outline-light" d="M0 960v-1024h1024v1024h-1024zM56.889 903.111h910.222v-282.169h-910.222v282.169zM967.111-7.111h-910.222v571.164h910.222v-571.164zM234.382 746.098c0-23.878-19.358-43.236-43.236-43.236s-43.236 19.358-43.236 43.236c0 23.878 19.358 43.236 43.236 43.236s43.236-19.358 43.236-43.236zM395.947 746.098c0-23.878-19.358-43.236-43.236-43.236s-43.236 19.358-43.236 43.236c0 23.878 19.358 43.236 43.236 43.236s43.236-19.358 43.236-43.236zM557.511 746.098c0-23.878-19.358-43.236-43.236-43.236s-43.236 19.358-43.236 43.236c0 23.878 19.358 43.236 43.236 43.236s43.236-19.358 43.236-43.236z" />
<glyph unicode="&#xe947;" glyph-name="browser-outline-medium" d="M0 960v-1024h1024v1024h-1024zM68.267 891.733h887.467v-266.24h-887.467v266.24zM955.733 4.267h-887.467v552.96h887.467v-552.96zM234.382 746.098c0-23.878-19.358-43.236-43.236-43.236s-43.236 19.358-43.236 43.236c0 23.878 19.358 43.236 43.236 43.236s43.236-19.358 43.236-43.236zM395.947 746.098c0-23.878-19.358-43.236-43.236-43.236s-43.236 19.358-43.236 43.236c0 23.878 19.358 43.236 43.236 43.236s43.236-19.358 43.236-43.236zM557.511 746.098c0-23.878-19.358-43.236-43.236-43.236s-43.236 19.358-43.236 43.236c0 23.878 19.358 43.236 43.236 43.236s43.236-19.358 43.236-43.236z" />
<glyph unicode="&#xe948;" glyph-name="brush-bold-rounded" d="M77.704-54.713c2.975-11.899 17.848-14.873 26.772-5.949 35.696 41.645 113.036 124.935 193.351 151.706 0 0 249.869 62.467 246.894 243.92l392.651 392.651c53.543 53.543 53.543 136.833 0 190.376v0c-53.543 53.543-136.833 53.543-190.376 0l-413.474-413.474c-98.163-26.772-380.753-142.782-255.818-559.231z" />
<glyph unicode="&#xe949;" glyph-name="brush-bold" d="M90.19-62.612c0 0 97.127 130.428 197.030 163.729 0 0 233.106 58.276 230.331 227.556l455.111 455.111-177.604 177.604-474.537-477.312c-94.352-24.976-366.309-138.753-230.331-546.688z" />
<glyph unicode="&#xe94a;" glyph-name="brush-light-rounded" d="M841.461 884.313c14.841 0 29.681-5.936 41.554-17.809 23.745-23.745 23.745-62.33 0-86.075l-412.568-409.6v-32.649c2.968-118.725-186.991-169.183-189.959-169.183h-5.936c-53.426-17.809-106.852-56.394-148.406-94.98-11.872 86.075-2.968 160.278 29.681 219.641 53.426 94.98 154.342 130.597 195.896 142.47l20.777 5.936 14.841 14.841 412.568 415.536c11.872 5.936 26.713 11.872 41.554 11.872zM841.461 958.516c-35.617 0-68.267-11.872-94.98-38.586l-412.568-415.536c-97.948-26.713-379.919-142.47-255.258-558.006 2.968-5.936 8.904-11.872 14.841-11.872 2.968 0 8.904 2.968 11.872 5.936 35.617 41.554 112.788 124.661 192.928 151.374 0 0 249.322 62.33 246.354 243.386l391.791 391.791c53.426 53.426 53.426 136.533 0 189.959v0c-26.713 29.681-59.362 41.554-94.98 41.554v0z" />
<glyph unicode="&#xe94b;" glyph-name="brush-light" d="M795.057 864.26l77.702-77.702-424.585-427.36v-27.751c0-113.778-177.604-160.954-180.379-160.954h-5.55c-49.951-16.65-99.902-52.726-138.753-86.027-11.1 80.477-2.775 147.079 27.751 199.805 49.951 91.577 147.079 127.653 185.93 138.753l16.65 5.55 13.875 13.875 427.36 421.81zM795.057 958.612l-474.537-474.537c-94.352-24.976-366.309-138.753-230.331-549.463 0 0 97.127 130.428 197.030 163.729 0 0 233.106 58.276 230.331 227.556l455.111 455.111-177.604 177.604z" />
<glyph unicode="&#xe94c;" glyph-name="brush-medium-rounded" d="M841.461 869.472c5.936 0 20.777-2.968 32.649-11.872 17.809-17.809 17.809-47.49 0-62.33l-418.504-421.472v-38.586c2.968-106.852-178.087-154.342-178.087-154.342h-5.936c-47.49-14.841-92.012-44.522-130.597-77.171-5.936 71.235 5.936 133.565 32.649 181.055 50.458 92.012 145.438 124.661 186.991 133.565l23.745 5.936 17.809 17.809 412.568 415.536c5.936 11.872 20.777 11.872 26.713 11.872zM841.461 958.516c-35.617 0-68.267-11.872-94.98-38.586l-412.568-415.536c-97.948-26.713-379.919-142.47-255.258-558.006 2.968-5.936 8.904-11.872 14.841-11.872 2.968 0 8.904 2.968 11.872 5.936 35.617 41.554 112.788 124.661 192.928 151.374 0 0 249.322 62.33 246.354 243.386l391.791 391.791c53.426 53.426 53.426 136.533 0 189.959v0c-26.713 29.681-59.362 41.554-94.98 41.554v0z" />
<glyph unicode="&#xe94d;" glyph-name="brush-medium" d="M795.057 842.060l58.276-58.276-419.035-421.81v-33.301c0-102.678-166.504-147.079-169.279-147.079h-5.55c-44.401-13.875-86.027-41.626-122.103-72.152-5.55 63.827 2.775 122.103 27.751 166.504 47.176 86.027 138.753 122.103 177.604 133.203l22.201 5.55 16.65 16.65 413.485 410.71zM795.057 958.612l-474.537-474.537c-94.352-24.976-366.309-138.753-230.331-549.463 0 0 97.127 130.428 197.030 163.729 0 0 233.106 58.276 230.331 227.556l455.111 455.111-177.604 177.604z" />
<glyph unicode="&#xe94e;" glyph-name="bubble-chat-bold-2" d="M1024 914.489v-728.178h-669.013l-207.076-204.8 2.276 204.8h-150.187v728.178z" />
<glyph unicode="&#xe94f;" glyph-name="bubble-chat-bold" d="M1024 448c0-244.364-230.4-442.182-512-442.182-118.691 0-228.073 34.909-316.509 93.091l-195.491-93.091 74.473 211.782c-46.545 67.491-74.473 146.618-74.473 230.4 0 244.364 228.073 442.182 512 442.182 281.6 0 512-197.818 512-442.182z" />
<glyph unicode="&#xe950;" glyph-name="bubble-chat-light-2" d="M967.111 857.6v-614.4h-634.88l-125.156-125.156v125.156h-150.187v614.4h910.222zM1024 914.489h-1024v-728.178h150.187l-2.276-204.8 207.076 204.8h669.013v728.178z" />
<glyph unicode="&#xe951;" glyph-name="bubble-chat-light" d="M512 832c251.345 0 453.818-172.218 453.818-384s-202.473-384-453.818-384c-104.727 0-202.473 30.255-283.927 83.782l-27.927 18.618-30.255-13.964-69.818-32.582 27.927 79.127 9.309 27.927-16.291 25.6c-41.891 58.182-62.836 128-62.836 195.491 0 211.782 202.473 384 453.818 384zM512 890.182c-283.927 0-512-197.818-512-442.182 0-83.782 27.927-162.909 74.473-230.4l-74.473-211.782 195.491 93.091c86.109-58.182 195.491-93.091 316.509-93.091 281.6 0 512 197.818 512 442.182s-230.4 442.182-512 442.182v0z" />
<glyph unicode="&#xe952;" glyph-name="bubble-chat-medium-2" d="M955.733 846.222v-591.644h-628.053l-20.48-18.204-91.022-88.747v109.227h-150.187v591.644h889.742zM1024 914.489h-1024v-728.178h150.187l-2.276-204.8 207.076 204.8h669.013v728.178z" />
<glyph unicode="&#xe953;" glyph-name="bubble-chat-medium" d="M512 820.364c244.364 0 442.182-167.564 442.182-372.364s-197.818-372.364-442.182-372.364c-102.4 0-197.818 27.927-276.945 81.455l-32.582 23.273-37.236-16.291-44.218-20.945 18.618 53.527 11.636 34.909-20.945 30.255c-39.564 53.527-60.509 118.691-60.509 186.182 0 204.8 197.818 372.364 442.182 372.364zM512 890.182c-283.927 0-512-197.818-512-442.182 0-83.782 27.927-162.909 74.473-230.4l-74.473-211.782 195.491 93.091c86.109-58.182 195.491-93.091 316.509-93.091 281.6 0 512 197.818 512 442.182s-230.4 442.182-512 442.182v0z" />
<glyph unicode="&#xe954;" glyph-name="bucket-bold" d="M633.018 960h-242.036c-204.8 0-370.036-165.236-370.036-370.036v-13.964h65.164l58.182-640h735.418l58.182 640h65.164v13.964c0 204.8-165.236 370.036-370.036 370.036zM390.982 880.873h242.036c137.309 0 253.673-97.745 283.927-225.745h-809.891c30.255 128 146.618 225.745 283.927 225.745z" />
<glyph unicode="&#xe955;" glyph-name="bucket-light" d="M626.512 958.899h-229.024c-209.204 0-376.568-169.566-376.568-378.77v-39.639h63.862l55.054-605.591h746.529l55.054 605.591h63.862v39.639c-2.202 211.406-169.566 378.77-378.77 378.77zM397.488 903.845h229.024c171.768 0 310.503-134.331 321.514-301.695h-872.052c11.011 169.566 149.746 301.695 321.514 301.695zM835.716-10.047h-647.432l-50.649 557.144h748.731l-50.649-557.144z" />
<glyph unicode="&#xe956;" glyph-name="bucket-medium" d="M625.294 960h-226.587c-209.157 0-379.098-169.94-379.098-379.098v-45.753h63.183l54.468-599.149h747.302l56.647 599.149h63.183v45.753c0 209.157-169.94 379.098-379.098 379.098zM398.706 894.638h226.587c163.404 0 298.485-126.366 311.557-287.591h-849.702c13.072 161.226 148.153 287.591 311.557 287.591zM825.736 1.362h-627.472l-50.111 540.323h727.694l-50.111-540.323z" />
<glyph unicode="&#xe957;" glyph-name="calendar-bold" d="M819.2 816.64v136.533h-91.022v-136.533h-170.667v136.533h-91.022v-136.533h-170.667v136.533h-91.022v-136.533h-204.8v-876.089h1024v876.089h-204.8zM932.978 31.573h-841.956v466.489h841.956v-466.489zM91.022 589.084v136.533h113.778v-68.267h91.022v68.267h170.667v-68.267h91.022v68.267h170.667v-68.267h91.022v68.267h113.778v-136.533h-841.956zM466.489 407.040h91.022v-75.093h-91.022v75.093zM728.178 407.040h91.022v-75.093h-91.022v75.093zM204.8 407.040h91.022v-75.093h-91.022v75.093zM466.489 224.996h91.022v-75.093h-91.022v75.093zM728.178 224.996h91.022v-75.093h-91.022v75.093zM204.8 224.996h91.022v-75.093h-91.022v75.093z" />
<glyph unicode="&#xe958;" glyph-name="calendar-light" d="M803.271 816.64v136.533h-56.889v-136.533h-204.8v136.533h-56.889v-136.533h-204.8v136.533h-56.889v-136.533h-223.004v-876.089h1024v876.089h-220.729zM967.111-2.56h-910.222v534.756h910.222v-534.756zM56.889 589.084v170.667h166.116v-102.4h56.889v102.4h204.8v-102.4h56.889v102.4h204.8v-102.4h56.889v102.4h163.84v-170.667h-910.222zM484.693 407.040h56.889v-75.093h-56.889v75.093zM746.382 407.040h56.889v-75.093h-56.889v75.093zM223.004 407.040h56.889v-75.093h-56.889v75.093zM484.693 224.996h56.889v-75.093h-56.889v75.093zM746.382 224.996h56.889v-75.093h-56.889v75.093zM223.004 224.996h56.889v-75.093h-56.889v75.093z" />
<glyph unicode="&#xe959;" glyph-name="calendar-medium" d="M807.822 816.64v136.533h-68.267v-136.533h-193.422v136.533h-68.267v-136.533h-193.422v136.533h-68.267v-136.533h-216.178v-876.089h1024v876.089h-216.178zM955.733 8.818h-887.467v512h887.467v-512zM68.267 589.084v159.289h147.911v-91.022h68.267v91.022h193.422v-91.022h68.267v91.022h193.422v-91.022h68.267v91.022h147.911v-159.289h-887.467zM477.867 407.040h68.267v-75.093h-68.267v75.093zM739.556 407.040h68.267v-75.093h-68.267v75.093zM216.178 407.040h68.267v-75.093h-68.267v75.093zM477.867 224.996h68.267v-75.093h-68.267v75.093zM739.556 224.996h68.267v-75.093h-68.267v75.093zM216.178 224.996h68.267v-75.093h-68.267v75.093z" />
<glyph unicode="&#xe95a;" glyph-name="camera-bold-rounded" d="M512 459.378c56.889 0 102.4-52.338 88.747-111.502-6.827-31.858-34.133-59.164-65.991-65.991-61.44-15.929-113.778 29.582-113.778 86.471 0 50.062 40.96 91.022 91.022 91.022v0zM512 550.4c-111.502 0-200.249-102.4-177.493-218.453 13.653-70.542 70.542-127.431 141.084-141.084 116.053-22.756 218.453 65.991 218.453 177.493 0 100.124-81.92 182.044-182.044 182.044v0zM735.004 732.444l-31.858 122.88c-4.551 20.48-25.031 36.409-45.511 36.409h-282.169c-27.307 0-50.062-18.204-54.613-43.236l-29.582-116.053h-243.484c-25.031 0-47.787-20.48-47.787-47.787v-634.88c0-25.031 20.48-45.511 45.511-45.511h932.978c25.031 0 45.511 20.48 45.511 45.511v637.156c0 25.031-20.48 45.511-45.511 45.511h-243.484zM427.804 800.711h170.667c15.929 0 29.582-11.378 34.133-25.031l11.378-43.236h-261.689l11.378 43.236c4.551 13.653 18.204 25.031 34.133 25.031zM887.467 95.289h-750.933c-25.031 0-45.511 20.48-45.511 45.511v452.836c0 25.031 20.48 47.787 47.787 47.787h748.658c25.031 0 45.511-20.48 45.511-45.511v-455.111c0-25.031-20.48-45.511-45.511-45.511zM978.489 800.711h-68.267c-25.031 0-45.511 20.48-45.511 45.511v0c0 25.031 20.48 45.511 45.511 45.511h68.267c25.031 0 45.511-20.48 45.511-45.511v0c0-25.031-20.48-45.511-45.511-45.511z" />
<glyph unicode="&#xe95b;" glyph-name="camera-bold" d="M512 459.378c50.062 0 91.022-40.96 91.022-91.022s-40.96-91.022-91.022-91.022-91.022 40.96-91.022 91.022 40.96 91.022 91.022 91.022v0zM512 550.4c-100.124 0-182.044-81.92-182.044-182.044s81.92-182.044 182.044-182.044 182.044 81.92 182.044 182.044-81.92 182.044-182.044 182.044v0zM735.004 732.444l-40.96 159.289h-364.089l-40.96-159.289h-288.996v-728.178h1024v728.178h-288.996zM400.498 800.711h223.004l18.204-68.267h-259.413l18.204 68.267zM932.978 95.289h-841.956v546.133h841.956v-546.133zM864.711 891.733h159.289v-91.022h-159.289v91.022z" />
<glyph unicode="&#xe95c;" glyph-name="camera-light-rounded" d="M734.51 731.814l-36.328 140.772c-2.271 9.082-11.353 18.164-22.705 18.164h-326.953c-11.353 0-20.435-6.812-22.705-15.894l-36.328-143.042h-263.379c-13.623 0-24.976-11.353-24.976-24.976v-678.882c0-13.623 11.353-22.705 22.705-22.705h974.049c13.623 0 22.705 11.353 22.705 22.705v681.153c0 13.623-11.353 22.705-22.705 22.705h-263.379zM391.663 833.987h238.404c11.353 0 20.435-6.812 22.705-18.164l22.705-84.009h-326.953l20.435 84.009c2.271 11.353 11.353 18.164 22.705 18.164zM943.397 62.013h-862.794c-13.623 0-22.705 11.353-22.705 22.705v565.357c0 13.623 11.353 24.976 24.976 24.976h883.228v-590.333c0-11.353-11.353-22.705-22.705-22.705zM512 493.41c81.738 0 145.313-79.468 118.067-165.747-11.353-36.328-40.869-65.845-79.468-79.468-84.009-27.246-165.747 36.328-165.747 118.067 2.271 70.386 59.033 127.149 127.149 127.149v0zM512 550.173c-111.255 0-202.075-102.173-177.1-217.969 13.623-70.386 70.386-127.149 140.772-140.772 115.796-22.705 217.969 65.845 217.969 177.1 0 99.902-81.738 181.641-181.641 181.641v0zM893.446 895.29h102.173c15.894 0 29.517-13.623 29.517-27.246v0c0-15.894-13.623-27.246-29.517-27.246h-102.173c-15.894 0-29.517 13.623-29.517 27.246v0c0 13.623 13.623 27.246 29.517 27.246z" />
<glyph unicode="&#xe95d;" glyph-name="camera-light" d="M735.004 732.444l-40.96 159.289h-364.089l-40.96-159.289h-288.996v-728.178h1024v728.178h-288.996zM373.191 834.844h275.342l27.307-102.4h-327.68l25.031 102.4zM967.111 61.156h-910.222v614.4h910.222v-614.4zM512 493.511c68.267 0 125.156-56.889 125.156-125.156s-56.889-125.156-125.156-125.156-125.156 56.889-125.156 125.156 56.889 125.156 125.156 125.156v0zM512 550.4c-100.124 0-182.044-81.92-182.044-182.044s81.92-182.044 182.044-182.044 182.044 81.92 182.044 182.044-81.92 182.044-182.044 182.044v0zM864.711 896.284h159.289v-56.889h-159.289v56.889z" />
<glyph unicode="&#xe95e;" glyph-name="camera-medium-rounded" d="M735.004 732.444l-31.858 125.156c-4.551 20.48-22.756 34.133-43.236 34.133h-293.547c-20.48 0-38.684-13.653-43.236-34.133l-31.858-125.156h-245.76c-25.031 0-45.511-20.48-45.511-45.511v-637.155c0-25.031 20.48-45.511 45.511-45.511h932.978c25.031 0 45.511 20.48 45.511 45.511v637.155c0 25.031-20.48 45.511-45.511 45.511h-243.484zM418.702 823.467h184.32c20.48 0 38.684-13.653 43.236-34.133l13.653-56.889h-300.373l13.653 56.889c4.551 20.48 22.756 34.133 45.511 34.133zM910.222 72.533h-796.444c-25.031 0-45.511 20.48-45.511 45.511v500.622c0 25.031 20.48 45.511 45.511 45.511h796.444c25.031 0 45.511-20.48 45.511-45.511v-500.622c0-25.031-20.48-45.511-45.511-45.511zM512 482.133c63.716 0 113.778-50.062 113.778-113.778s-50.062-113.778-113.778-113.778-113.778 50.062-113.778 113.778 50.062 113.778 113.778 113.778v0zM512 550.4c-100.124 0-182.044-81.92-182.044-182.044s81.92-182.044 182.044-182.044 182.044 81.92 182.044 182.044-81.92 182.044-182.044 182.044v0zM898.844 903.111h91.022c18.204 0 34.133-15.929 34.133-34.133v0c0-18.204-15.929-34.133-34.133-34.133h-91.022c-18.204 0-34.133 15.929-34.133 34.133v0c0 18.204 15.929 34.133 34.133 34.133z" />
<glyph unicode="&#xe95f;" glyph-name="camera-medium" d="M735.004 732.444l-40.96 159.289h-364.089l-40.96-159.289h-288.996v-728.178h1024v728.178h-288.996zM382.293 823.467h257.138l22.756-91.022h-302.649l22.756 91.022zM955.733 72.533h-887.467v591.644h887.467v-591.644zM512 482.133c63.716 0 113.778-50.062 113.778-113.778s-50.062-113.778-113.778-113.778-113.778 50.062-113.778 113.778 50.062 113.778 113.778 113.778v0zM512 550.4c-100.124 0-182.044-81.92-182.044-182.044s81.92-182.044 182.044-182.044 182.044 81.92 182.044 182.044-81.92 182.044-182.044 182.044v0zM864.711 903.111h159.289v-68.267h-159.289v68.267z" />
<glyph unicode="&#xe960;" glyph-name="cancel-1-bold-rounded" d="M998.185 934.185c17.21-17.21 25.815-34.42 25.815-60.235s-8.605-47.328-25.815-60.235l-365.714-365.714 365.714-365.714c34.42-34.42 34.42-90.353 0-120.471s-90.353-34.42-120.471 0l-365.714 365.714-365.714-365.714c-34.42-34.42-90.353-34.42-120.471 0-17.21 17.21-25.815 34.42-25.815 60.235s8.605 47.328 25.815 60.235l365.714 365.714-365.714 365.714c-34.42 34.42-34.42 90.353 0 120.471 17.21 17.21 34.42 25.815 60.235 25.815s47.328-8.605 60.235-25.815l365.714-365.714 365.714 365.714c34.42 34.42 86.050 34.42 120.471 0z" />
<glyph unicode="&#xe961;" glyph-name="cancel-1-bold" d="M911.118 960l112.882-112.882-399.118-399.118 399.118-399.118-112.882-112.882-399.118 399.118-399.118-399.118-112.882 112.882 399.118 399.118-399.118 399.118 112.882 112.882 399.118-399.118z" />
<glyph unicode="&#xe962;" glyph-name="cancel-1-light-rounded" d="M1007.555 943.555c21.927-21.927 21.927-57.011 0-78.938l-416.617-416.617 416.617-416.617c21.927-21.927 21.927-57.011 0-78.938s-57.011-21.927-78.938 0l-416.617 416.617-416.617-416.617c-21.927-21.927-57.011-21.927-78.938 0s-21.927 57.011 0 78.938l416.617 416.617-416.617 416.617c-21.927 21.927-21.927 57.011 0 78.938s57.011 21.927 78.938 0l416.617-416.617 416.617 416.617c21.927 17.542 57.011 21.927 78.938 0z" />
<glyph unicode="&#xe963;" glyph-name="cancel-1-light" d="M948.459 960l75.541-75.541-436.459-436.459 436.459-436.459-75.541-75.541-436.459 436.459-436.459-436.459-75.541 71.344 440.656 440.656-440.656 440.656 75.541 71.344 436.459-436.459z" />
<glyph unicode="&#xe964;" glyph-name="cancel-1-medium-rounded" d="M1004.391 940.391c26.145-26.145 26.145-69.719 0-91.506l-400.885-400.885 400.885-400.885c26.145-26.145 26.145-69.719 0-91.506s-69.719-26.145-91.506 0l-400.885 400.885-400.885-400.885c-26.145-26.145-69.719-26.145-91.506 0-26.145 26.145-26.145 69.719 0 91.506l400.885 400.885-400.885 400.885c-26.145 26.145-26.145 69.719 0 91.506 26.145 26.145 69.719 26.145 91.506 0l400.885-400.885 400.885 400.885c26.145 26.145 65.362 26.145 91.506 0z" />
<glyph unicode="&#xe965;" glyph-name="cancel-1-medium" d="M937.29 960l86.71-86.71-425.29-425.29 425.29-425.29-86.71-86.71-425.29 425.29-425.29-425.29-86.71 86.71 425.29 425.29-425.29 425.29 86.71 86.71 425.29-425.29z" />
<glyph unicode="&#xe966;" glyph-name="cancel-bold" d="M512 960c-283.927 0-512-228.073-512-512s228.073-512 512-512 512 228.073 512 512-228.073 512-512 512zM795.927 215.273l-51.2-51.2-232.727 232.727-232.727-232.727-51.2 51.2 232.727 232.727-232.727 232.727 48.873 48.873 232.727-232.727 232.727 232.727 48.873-48.873-232.727-232.727 237.382-232.727z" />
<glyph unicode="&#xe967;" glyph-name="cancel-light" d="M512 960c-283.927 0-512-228.073-512-512s228.073-512 512-512 512 228.073 512 512-228.073 512-512 512zM512-5.818c-251.345 0-453.818 204.8-453.818 453.818s204.8 453.818 453.818 453.818 453.818-204.8 453.818-453.818-202.473-453.818-453.818-453.818zM553.891 448l237.382-237.382-41.891-41.891-237.382 237.382-237.382-237.382-41.891 41.891 237.382 237.382-237.382 237.382 41.891 41.891 237.382-237.382 237.382 237.382 41.891-41.891z" />
<glyph unicode="&#xe968;" glyph-name="cancel-medium" d="M512 960c-283.927 0-512-228.073-512-512s228.073-512 512-512 512 228.073 512 512-228.073 512-512 512zM512 5.818c-244.364 0-442.182 197.818-442.182 442.182s197.818 442.182 442.182 442.182 442.182-197.818 442.182-442.182-197.818-442.182-442.182-442.182zM560.873 448l235.055-232.727-51.2-51.2-232.727 235.055-232.727-235.055-51.2 51.2 235.055 232.727-235.055 232.727 51.2 51.2 232.727-235.055 232.727 235.055 51.2-51.2z" />
<glyph unicode="&#xe969;" glyph-name="car-bold" d="M1024 620.032v-272.384l-18.432-18.432c-6.144-6.144-45.056-43.008-100.352-57.344 2.048 8.192 2.048 16.384 2.048 24.576 0 45.056-22.528 83.968-57.344 106.496-20.48 14.336-45.056 22.528-71.68 22.528s-51.2-8.192-71.68-22.528c-34.816-22.528-57.344-61.44-57.344-106.496 0-10.24 2.048-20.48 4.096-30.72h-280.576c2.048 10.24 4.096 20.48 4.096 30.72 0 45.056-22.528 83.968-57.344 106.496-20.48 14.336-45.056 22.528-71.68 22.528s-51.2-8.192-71.68-22.528c-34.816-22.528-57.344-61.44-57.344-106.496 0-10.24 2.048-20.48 4.096-30.72h-122.88v178.176c2.048 24.576 30.72 147.456 309.248 147.456h4.096l137.216 83.968 14.336 8.192h294.912l16.384-12.288 71.68-53.248h176.128zM962.56 374.272c0 0 0-2.048 0 0 0-2.048 0 0 0 0zM335.872 298.496c0-8.192 0-14.336-2.048-20.48s-4.096-10.24-6.144-16.384c-4.096-8.192-8.192-16.384-14.336-22.528-16.384-18.432-40.96-28.672-65.536-28.672s-51.2 12.288-65.536 28.672c-6.144 6.144-10.24 14.336-14.336 22.528-2.048 4.096-4.096 10.24-6.144 16.384s-2.048 14.336-2.048 20.48c0 30.72 16.384 57.344 38.912 73.728 14.336 10.24 30.72 14.336 49.152 14.336s34.816-6.144 49.152-14.336c22.528-16.384 38.912-43.008 38.912-73.728zM868.352 298.496c0-8.192 0-14.336-2.048-20.48s-4.096-10.24-6.144-16.384c-4.096-8.192-8.192-16.384-14.336-22.528-16.384-18.432-40.96-28.672-65.536-28.672-26.624 0-51.2 12.288-65.536 28.672-6.144 6.144-10.24 14.336-14.336 22.528-2.048 4.096-4.096 10.24-6.144 16.384s-2.048 14.336-2.048 20.48c0 30.72 16.384 57.344 38.912 73.728 14.336 10.24 30.72 14.336 49.152 14.336s34.816-6.144 49.152-14.336c22.528-16.384 38.912-43.008 38.912-73.728z" />
<glyph unicode="&#xe96a;" glyph-name="car-light" d="M330.188 268.278h348.996c-4.18 10.449-4.18 20.898-4.18 33.437 0 6.269 0 12.539 2.090 18.808h-342.727c0-4.18 0-6.269 0-10.449 0 0 0 0 0 0 0-4.18 0-6.269 0-8.359v-2.090c0-10.449-2.090-20.898-4.18-31.347zM850.547 606.824l-75.233 56.424-14.629 10.449h-294.661l-12.539-8.359-142.106-87.771h-6.269c-275.853 0-303.020-117.029-305.11-142.106v-169.273h114.939c-4.18 10.449-4.18 20.898-4.18 31.347v4.18c0 4.18 0 6.269 0 8.359 0 0 0 0 0 0 0 2.090 0 6.269 0 10.449h-58.514v110.759c0 0 10.449 94.041 252.865 94.041 6.269 0 12.539 0 20.898 0l156.735 94.041h261.224l89.861-66.873h137.927v-188.082c0 0-31.347-31.347-73.143-41.796 0 0-2.090 0-2.090 0 2.090-6.269 2.090-14.629 2.090-22.988 0-10.449-2.090-20.898-4.18-31.347 62.694 8.359 108.669 52.245 114.939 58.514l14.629 14.629v265.404h-173.453zM300.931 301.714v0c0-8.359-2.090-16.718-4.18-22.988-2.090-4.18-4.18-10.449-6.269-14.629-12.539-25.078-39.706-41.796-68.963-41.796s-56.424 16.718-68.963 41.796c-2.090 4.18-4.18 10.449-6.269 14.629-2.090 6.269-4.18 14.629-4.18 22.988v0c0 2.090 0 4.18 0 6.269 0 0 0 0 0 0 4.18 39.706 37.616 73.143 79.412 73.143s75.233-31.347 79.412-73.143c0 0 0 0 0 0 0-2.090 0-4.18 0-6.269zM865.176 301.714v0c0-8.359-2.090-16.718-4.18-22.988-2.090-4.18-4.18-10.449-6.269-14.629-12.539-25.078-39.706-41.796-68.963-41.796s-56.424 16.718-68.963 41.796c-2.090 4.18-4.18 10.449-6.269 14.629-2.090 6.269-4.18 14.629-4.18 22.988v0c0 2.090 0 4.18 0 6.269 0 0 0 0 0 0 4.18 39.706 37.616 73.143 79.412 73.143s75.233-31.347 79.412-73.143c0 0 0 0 0 0 0-2.090 0-4.18 0-6.269z" />
<glyph unicode="&#xe96b;" glyph-name="car-medium" d="M845.824 628.224l-71.68 53.248-14.336 12.288h-294.912l-14.336-10.24-137.216-83.968h-4.096c-278.528 0-305.152-122.88-309.248-147.456v-178.176h114.688c-2.048 8.192-2.048 14.336-2.048 22.528v2.048c0 12.288 2.048 24.576 6.144 36.864h-57.344v108.544c0 0 10.24 92.16 247.808 92.16 6.144 0 12.288 0 20.48 0l153.6 92.16h256l88.064-65.536h135.168v-186.368c0 0-30.72-30.72-71.68-40.96 4.096-12.288 6.144-26.624 6.144-40.96v-2.048c0-6.144 0-12.288-2.048-18.432 61.44 10.24 106.496 53.248 110.592 59.392l18.432 18.432v276.48h-178.176zM645.12 300.544c0 12.288 2.048 24.576 6.144 36.864h-292.864c4.096-12.288 6.144-24.576 6.144-36.864v-2.048c0-8.192 0-14.336-2.048-22.528h284.672c-2.048 8.192-2.048 14.336-2.048 22.528v2.048zM335.872 294.4v0c0-6.144 0-12.288-2.048-18.432-4.096-18.432-12.288-32.768-24.576-45.056-16.384-16.384-38.912-26.624-65.536-26.624s-49.152 10.24-65.536 26.624c-12.288 12.288-20.48 28.672-24.576 45.056-2.048 6.144-2.048 10.24-2.048 16.384v2.048c0 10.24 2.048 18.432 4.096 26.624 12.288 36.864 47.104 65.536 88.064 65.536s75.776-26.624 88.064-65.536c2.048-8.192 4.096-18.432 4.096-26.624zM868.352 294.4v0c0-6.144 0-12.288-2.048-18.432-4.096-18.432-12.288-32.768-24.576-45.056-16.384-16.384-38.912-26.624-65.536-26.624s-49.152 10.24-65.536 26.624c-12.288 12.288-20.48 28.672-24.576 45.056-2.048 6.144-2.048 10.24-2.048 16.384v2.048c0 10.24 2.048 18.432 4.096 26.624 12.288 36.864 47.104 65.536 88.064 65.536s75.776-26.624 88.064-65.536c2.048-8.192 4.096-18.432 4.096-26.624z" />
<glyph unicode="&#xe96c;" glyph-name="chart-bold-rounded" d="M512-64v0c-35.2 0-64 28.8-64 64v592c0 35.2 28.8 64 64 64v0c35.2 0 64-28.8 64-64v-592c0-35.2-28.8-64-64-64zM928-64v0c-35.2 0-64 28.8-64 64v272c0 35.2 28.8 64 64 64v0c35.2 0 64-28.8 64-64v-272c0-35.2-28.8-64-64-64zM96-64v0c-35.2 0-64 28.8-64 64v896c0 35.2 28.8 64 64 64v0c35.2 0 64-28.8 64-64v-896c0-35.2-28.8-64-64-64z" />
<glyph unicode="&#xe96d;" glyph-name="chart-bold" d="M448 656h128v-720h-128v720zM864 336h128v-400h-128v400zM32 960h128v-1024h-128v1024z" />
<glyph unicode="&#xe96e;" glyph-name="chart-light-rounded" d="M512 655.352v0c22.33 0 41.47-19.14 41.47-38.28v-638.006c0-22.33-19.14-41.47-41.47-41.47v0c-22.33 0-38.28 19.14-38.28 41.47v638.006c0 19.14 15.95 38.28 38.28 38.28zM926.704 336.349v0c22.33 0 41.47-19.14 41.47-41.47v-319.003c0-22.33-19.14-41.47-41.47-41.47v0c-22.33 0-41.47 19.14-41.47 41.47v319.003c3.19 22.33 19.14 41.47 41.47 41.47zM97.296 958.405v0c22.33 0 41.47-19.14 41.47-38.28v-941.059c0-22.33-19.14-41.47-38.28-41.47v0c-22.33 0-38.28 19.14-38.28 41.47v941.059c-3.19 19.14 12.76 38.28 35.090 38.28z" />
<glyph unicode="&#xe96f;" glyph-name="chart-light" d="M473.6 656h80v-720h-80v720zM889.6 336h80v-400h-80v400zM57.6 960h80v-1024h-80v1024z" />
<glyph unicode="&#xe970;" glyph-name="chart-medium-rounded" d="M512-64v0c-25.6 0-48 22.4-48 48v624c0 25.6 22.4 48 48 48v0c25.6 0 48-22.4 48-48v-624c0-25.6-22.4-48-48-48zM928-64v0c-25.6 0-48 22.4-48 48v304c0 25.6 22.4 48 48 48v0c25.6 0 48-22.4 48-48v-304c0-25.6-22.4-48-48-48zM96-64v0c-25.6 0-48 22.4-48 48v928c0 25.6 22.4 48 48 48v0c25.6 0 48-22.4 48-48v-928c0-25.6-22.4-48-48-48z" />
<glyph unicode="&#xe971;" glyph-name="chart-medium" d="M464 656h96v-720h-96v720zM880 336h96v-400h-96v400zM48 960h96v-1024h-96v1024z" />
<glyph unicode="&#xe972;" glyph-name="clipboard-bold" d="M905.66 877.887v-941.887h-784.906v941.887h198.038v-169.057h386.415v169.057zM398.491 960v-183.547h227.019v183.547h-227.019zM441.962 873.057v43.472h142.491v-43.472h-142.491z" />
<glyph unicode="&#xe973;" glyph-name="clipboard-light" d="M702.512 864.744v95.256h-381.023v-95.256h-197.656v-928.744h773.953v928.744h-195.274zM381.023 900.465h261.953v-95.256h-261.953v95.256zM840.633-4.465h-654.884v809.674h135.74v-59.535h381.023v59.535h138.121v-809.674z" />
<glyph unicode="&#xe974;" glyph-name="clipboard-medium" d="M702.512 864.744v95.256h-381.023v-95.256h-197.656v-928.744h773.953v928.744h-195.274zM392.93 888.558h238.14v-71.442h-238.14v71.442zM828.726 7.442h-631.070v785.86h123.833v-47.628h381.023v47.628h126.214v-785.86z" />
<glyph unicode="&#xe975;" glyph-name="clock-bold" d="M512 960c-283.927 0-512-228.073-512-512s228.073-512 512-512 512 228.073 512 512-228.073 512-512 512zM498.036 308.364h-48.873v279.273h69.818v-160.582l102.4 102.4 48.873-48.873-172.218-172.218z" />
<glyph unicode="&#xe976;" glyph-name="clock-light" d="M512 901.818c251.345 0 453.818-202.473 453.818-453.818s-202.473-453.818-453.818-453.818-453.818 202.473-453.818 453.818 202.473 453.818 453.818 453.818zM512 960c-283.927 0-512-228.073-512-512s228.073-512 512-512 512 228.073 512 512-228.073 512-512 512v0zM665.6 485.236l-176.873-176.873h-34.909v279.273h58.182v-174.545l114.036 114.036z" />
<glyph unicode="&#xe977;" glyph-name="clock-medium" d="M512 890.182c244.364 0 442.182-197.818 442.182-442.182s-197.818-442.182-442.182-442.182-442.182 197.818-442.182 442.182 197.818 442.182 442.182 442.182zM512 960c-283.927 0-512-228.073-512-512s228.073-512 512-512 512 228.073 512 512-228.073 512-512 512v0zM670.255 480.582l-172.218-172.218h-48.873v279.273h69.818v-160.582l102.4 102.4z" />
<glyph unicode="&#xe978;" glyph-name="closed-eye-bold" d="M806.226 730.643c-85.719 55.602-185.339 88.036-294.226 88.036s-210.824-32.434-294.226-88.036c-101.937-67.186-178.389-164.489-217.774-282.643 71.819-215.457 273.376-370.679 512-370.679s440.181 155.222 512 370.679c-39.385 118.154-115.837 217.774-217.774 282.643zM512 169.991c-183.023 0-345.195 111.204-412.38 278.009 27.801 67.186 71.819 127.421 127.421 173.756 34.751-125.104 150.588-217.774 284.959-217.774s250.208 92.67 284.959 217.774c55.602-46.335 99.62-106.57 127.421-173.756-67.186-166.805-229.357-278.009-412.38-278.009z" />
<glyph unicode="&#xe979;" glyph-name="closed-eye-light" d="M806.226 730.643c-85.719 55.602-185.339 88.036-294.226 88.036s-210.824-32.434-294.226-88.036c-101.937-67.186-178.389-164.489-217.774-282.643 71.819-215.457 273.376-370.679 512-370.679s440.181 155.222 512 370.679c-39.385 118.154-115.837 217.774-217.774 282.643zM512 135.24c-201.557 0-379.946 125.104-451.765 312.76 32.434 83.403 85.719 157.538 157.538 213.14 20.851-143.638 143.638-254.842 294.226-254.842s273.376 111.204 294.226 254.842c71.819-55.602 125.104-129.738 157.538-213.14-71.819-187.656-250.208-312.76-451.765-312.76z" />
<glyph unicode="&#xe97a;" glyph-name="closed-eye-medium" d="M806.226 730.643c-85.719 55.602-185.339 88.036-294.226 88.036s-210.824-32.434-294.226-88.036c-101.937-67.186-178.389-164.489-217.774-282.643 71.819-215.457 273.376-370.679 512-370.679s440.181 155.222 512 370.679c-39.385 118.154-115.837 217.774-217.774 282.643zM512 146.824c-196.923 0-368.362 120.471-437.864 301.176 30.118 78.769 81.086 148.271 145.955 199.24 25.484-139.005 145.955-240.941 291.91-240.941s266.425 104.253 291.91 243.258c64.869-50.968 115.837-120.471 145.955-199.24-69.502-183.023-240.941-303.493-437.864-303.493z" />
<glyph unicode="&#xe97b;" glyph-name="cloud-bold-01" d="M1024 300.089c0-50.062-20.48-95.573-52.338-129.707-31.858-31.858-77.369-52.338-129.707-52.338h-659.911c-100.124 0-182.044 81.92-182.044 182.044 0 50.062 20.48 95.573 52.338 129.707 25.031 25.031 59.164 43.236 95.573 50.062 0 4.551 0 9.102 0 13.653 0 157.013 127.431 284.444 284.444 284.444 95.573 0 179.769-47.787 232.107-118.329 9.102 2.276 18.204 4.551 29.582 4.551 93.298 6.827 175.218-63.716 182.044-157.013 0-9.102 0-18.204 0-27.307 84.196-15.929 147.911-91.022 147.911-179.769z" />
<glyph unicode="&#xe97c;" glyph-name="cloud-download-bold-rounded" d="M1024 356.978c0-50.062-20.48-95.573-52.338-129.707-31.858-31.858-77.369-52.338-129.707-52.338h-329.956c4.551 0 9.102 2.276 13.653 6.827l116.053 116.053c9.102 6.827 9.102 20.48 0 27.307-9.102 9.102-20.48 9.102-27.307 0l-81.92-81.92v216.178c0 11.378-9.102 20.48-20.48 20.48s-20.48-9.102-20.48-20.48v-216.178l-81.92 81.92c-6.827 9.102-20.48 9.102-27.307 0-9.102-6.827-9.102-20.48 0-27.307l116.053-116.053c4.551-4.551 9.102-6.827 13.653-6.827h-329.956c-100.124 0-182.044 81.92-182.044 182.044 0 50.062 20.48 95.573 52.338 129.707 25.031 25.031 59.164 43.236 95.573 50.062 0 4.551 0 9.102 0 13.653 0 157.013 127.431 284.444 284.444 284.444 95.573 0 179.769-47.787 232.107-118.329 9.102 2.276 18.204 4.551 29.582 4.551 93.298 6.827 175.218-63.716 182.044-157.013 0-9.102 0-18.204 0-27.307 84.196-15.929 147.911-91.022 147.911-179.769z" />
<glyph unicode="&#xe97d;" glyph-name="cloud-download-bold" d="M1024 300.089c0-50.062-20.48-95.573-52.338-129.707-31.858-31.858-77.369-52.338-129.707-52.338h-329.956l147.911 147.911-29.582 29.582-97.849-97.849v238.933h-40.96v-238.933l-97.849 97.849-29.582-29.582 147.911-147.911h-329.956c-100.124 0-182.044 81.92-182.044 182.044 0 50.062 20.48 95.573 52.338 129.707 25.031 25.031 59.164 43.236 95.573 50.062 0 4.551 0 9.102 0 13.653 0 157.013 127.431 284.444 284.444 284.444 95.573 0 179.769-47.787 232.107-118.329 9.102 2.276 18.204 4.551 29.582 4.551 93.298 6.827 175.218-63.716 182.044-157.013 0-9.102 0-18.204 0-27.307 84.196-15.929 147.911-91.022 147.911-179.769z" />
<glyph unicode="&#xe97e;" glyph-name="cloud-download-light-rounded" d="M876.089 479.858c0 9.102 0 18.204 0 27.307-6.827 88.747-81.92 157.013-170.667 157.013-4.551 0-9.102 0-13.653 0-9.102 0-20.48-2.276-29.582-4.551-52.338 72.818-136.533 118.329-232.107 118.329-154.738 0-282.169-127.431-282.169-284.444 0-4.551 0-9.102 0-13.653-36.409-6.827-70.542-25.031-95.573-50.062-31.858-31.858-52.338-77.369-52.338-129.707 0-100.124 81.92-182.044 182.044-182.044h273.067l-56.889 56.889h-216.178c-68.267 0-125.156 56.889-125.156 125.156 0 34.133 13.653 63.716 36.409 88.747 18.204 18.204 40.96 29.582 65.991 34.133l47.787 9.102-2.276 50.062c0 4.551 0 6.827 0 11.378 0 125.156 102.4 227.556 227.556 227.556 72.818 0 143.36-36.409 184.32-95.573l22.756-31.858 38.684 11.378c6.827 2.276 11.378 2.276 18.204 2.276 2.276 0 6.827 0 9.102 0 59.164 0 109.227-45.511 113.778-104.676 0-6.827 0-11.378 0-18.204l-4.551-52.338 52.338-9.102c59.164-11.378 102.4-63.716 102.4-122.88 0-34.133-13.653-63.716-36.409-88.747-25.031-22.756-54.613-36.409-88.747-36.409h-218.453l-56.889-56.889h273.067c50.062 0 95.573 20.48 129.707 52.338 31.858 31.858 52.338 77.369 52.338 129.707 0 88.747-63.716 163.84-147.911 179.769zM641.707 240.924l-116.053-116.053c-6.827-6.827-20.48-6.827-27.307 0l-116.053 116.053c-9.102 6.827-9.102 20.48 0 27.307 6.827 9.102 20.48 9.102 27.307 0l81.92-81.92v216.178c0 11.378 9.102 20.48 20.48 20.48s20.48-9.102 20.48-20.48v-216.178l81.92 81.92c9.102 9.102 20.48 9.102 27.307 0 9.102-6.827 9.102-20.48 0-27.307z" />
<glyph unicode="&#xe97f;" glyph-name="cloud-download-light" d="M876.089 479.858c0 9.102 0 18.204 0 27.307-6.827 88.747-81.92 157.013-170.667 157.013-4.551 0-9.102 0-13.653 0-9.102 0-20.48-2.276-29.582-4.551-52.338 72.818-136.533 118.329-232.107 118.329-154.738 0-282.169-127.431-282.169-284.444 0-4.551 0-9.102 0-13.653-36.409-6.827-70.542-25.031-95.573-50.062-31.858-31.858-52.338-77.369-52.338-129.707 0-100.124 81.92-182.044 182.044-182.044h273.067l-56.889 56.889h-216.178c-68.267 0-125.156 56.889-125.156 125.156 0 34.133 13.653 63.716 36.409 88.747 18.204 18.204 40.96 29.582 65.991 34.133l47.787 9.102-2.276 50.062c0 4.551 0 6.827 0 11.378 0 125.156 102.4 227.556 227.556 227.556 72.818 0 143.36-36.409 184.32-95.573l22.756-31.858 38.684 11.378c6.827 2.276 11.378 2.276 18.204 2.276 2.276 0 6.827 0 9.102 0 59.164 0 109.227-45.511 113.778-104.676 0-6.827 0-11.378 0-18.204l-4.551-52.338 52.338-9.102c59.164-11.378 102.4-63.716 102.4-122.88 0-34.133-13.653-63.716-36.409-88.747-25.031-22.756-54.613-36.409-88.747-36.409h-218.453l-56.889-56.889h273.067c50.062 0 95.573 20.48 129.707 52.338 31.858 31.858 52.338 77.369 52.338 129.707 0 88.747-63.716 163.84-147.911 179.769zM659.911 265.956l-147.911-147.911-147.911 147.911 29.582 29.582 97.849-97.849v238.933h40.96v-238.933l97.849 97.849z" />
<glyph unicode="&#xe980;" glyph-name="cloud-download-medium-rounded" d="M876.089 479.858v27.307c-6.827 88.747-81.92 157.013-170.667 157.013h-13.653c-9.102 0-20.48-2.276-29.582-4.551-52.338 72.818-136.533 118.329-232.107 118.329-154.738 0-282.169-127.431-282.169-284.444v-13.653c-36.409-6.827-70.542-25.031-95.573-50.062-31.858-34.133-52.338-79.644-52.338-129.707 0-100.124 81.92-182.044 182.044-182.044h273.067l-68.267 68.267h-204.8c-63.716 0-113.778 50.062-113.778 113.778 0 29.582 11.378 59.164 34.133 79.644 15.929 15.929 36.409 27.307 59.164 31.858l59.164 11.378-4.551 59.164v11.378c0 118.329 97.849 216.178 216.178 216.178 70.542 0 136.533-34.133 175.218-91.022l27.307-38.684 45.511 11.378c4.551 2.276 11.378 2.276 15.929 2.276h9.102c52.338 0 97.849-40.96 102.4-95.573v-15.929l-6.827-63.716 61.44-11.378c54.613-9.102 93.298-56.889 93.298-111.502 0-25.031-11.378-54.613-34.133-75.093-22.756-22.756-50.062-34.133-79.644-34.133h-204.8l-68.267-68.267h273.067c50.062 0 95.573 20.48 129.707 52.338 31.858 34.133 52.338 79.644 52.338 129.707 0 88.747-63.716 163.84-147.911 179.769zM641.707 238.649l-116.053-116.053c-9.102-6.827-20.48-6.827-27.307 0l-116.053 116.053c-9.102 9.102-9.102 20.48 0 27.307 9.102 9.102 20.48 9.102 27.307 0l81.92-81.92v216.178c0 11.378 9.102 20.48 20.48 20.48s20.48-9.102 20.48-20.48v-216.178l81.92 81.92c6.827 9.102 20.48 9.102 27.307 0 9.102-6.827 9.102-20.48 0-27.307z" />
<glyph unicode="&#xe981;" glyph-name="cloud-download-medium" d="M876.089 482.133v27.307c-6.827 88.747-81.92 157.013-170.667 157.013h-13.653c-9.102 0-20.48-2.276-29.582-4.551-52.338 72.818-136.533 118.329-232.107 118.329-154.738-2.276-282.169-129.707-282.169-286.72v-13.653c-36.409-6.827-70.542-25.031-95.573-50.062-31.858-34.133-52.338-79.644-52.338-131.982 0-100.124 81.92-182.044 182.044-182.044h273.067l-68.267 68.267h-204.8c-63.716 0-113.778 50.062-113.778 113.778 0 29.582 11.378 59.164 34.133 79.644 15.929 15.929 36.409 27.307 59.164 31.858l59.164 11.378-4.551 61.44v11.378c0 118.329 97.849 216.178 216.178 216.178 70.542 0 136.533-34.133 175.218-91.022l27.307-38.684 45.511 11.378c4.551 2.276 11.378 2.276 15.929 2.276h9.102c52.338 0 97.849-40.96 102.4-95.573v-15.929l-6.827-61.44 61.44-11.378c54.613-9.102 93.298-56.889 93.298-111.502 0-25.031-11.378-54.613-34.133-75.093-22.756-22.756-50.062-34.133-79.644-34.133h-204.8l-68.267-68.267h273.067c50.062 0 95.573 20.48 129.707 52.338 31.858 34.133 52.338 79.644 52.338 129.707 0 88.747-63.716 161.564-147.911 179.769zM659.911 265.956l-147.911-147.911-147.911 147.911 29.582 27.307 97.849-95.573v238.933h40.96v-238.933l97.849 95.573z" />
<glyph unicode="&#xe982;" glyph-name="cloud-light-01" d="M432.356 721.067c72.818 0 143.36-36.409 184.32-95.573l22.756-31.858 38.684 9.102c6.827 2.276 11.378 2.276 18.204 2.276 2.276 0 6.827 0 9.102 0 59.164 0 109.227-45.511 113.778-104.676 0-6.827 0-11.378 0-18.204l-4.551-52.338 52.338-9.102c59.164-11.378 102.4-63.716 102.4-122.88 0-34.133-13.653-65.991-36.409-88.747s-54.613-36.409-88.747-36.409h-659.911c-68.267 0-125.156 56.889-125.156 125.156 0 34.133 13.653 65.991 36.409 88.747 18.204 18.204 40.96 29.582 65.991 34.133l47.787 9.102-2.276 50.062c0 4.551 0 6.827 0 11.378-2.276 127.431 100.124 229.831 225.28 229.831zM432.356 777.956c-157.013 0-284.444-127.431-284.444-284.444 0-4.551 0-9.102 0-13.653-36.409-6.827-70.542-25.031-95.573-50.062-31.858-34.133-52.338-79.644-52.338-129.707 0-100.124 81.92-182.044 182.044-182.044h659.911c50.062 0 95.573 20.48 129.707 52.338 31.858 34.133 52.338 79.644 52.338 129.707 0 88.747-63.716 163.84-147.911 179.769 0 9.102 0 18.204 0 27.307-6.827 88.747-81.92 157.013-170.667 157.013-4.551 0-9.102 0-13.653 0-9.102 0-20.48-2.276-29.582-4.551-50.062 70.542-134.258 118.329-229.831 118.329v0z" />
<glyph unicode="&#xe983;" glyph-name="cloud-medium-01" d="M432.356 709.689c70.542 0 134.258-34.133 175.218-91.022l27.307-38.684 45.511 11.378c4.551 2.276 11.378 2.276 15.929 2.276 2.276 0 4.551 0 6.827 0 52.338 0 97.849-40.96 102.4-95.573 0-6.827 0-11.378 0-15.929l-6.827-63.716 61.44-11.378c54.613-9.102 93.298-56.889 93.298-111.502 0-29.582-11.378-59.164-34.133-79.644s-50.062-34.133-79.644-34.133h-659.911c-63.716 0-113.778 50.062-113.778 113.778 0 29.582 11.378 59.164 34.133 79.644 15.929 15.929 36.409 27.307 59.164 31.858l59.164 11.378-2.276 63.716c0 4.551 0 6.827 0 11.378 0 118.329 97.849 216.178 216.178 216.178zM432.356 777.956c-157.013 0-284.444-127.431-284.444-284.444 0-4.551 0-9.102 0-13.653-36.409-6.827-70.542-25.031-95.573-50.062-31.858-34.133-52.338-79.644-52.338-129.707 0-100.124 81.92-182.044 182.044-182.044h659.911c50.062 0 95.573 20.48 129.707 52.338 31.858 34.133 52.338 79.644 52.338 129.707 0 88.747-63.716 163.84-147.911 179.769 0 9.102 0 18.204 0 27.307-6.827 88.747-81.92 157.013-170.667 157.013-4.551 0-9.102 0-13.653 0-9.102 0-20.48-2.276-29.582-4.551-50.062 70.542-134.258 118.329-229.831 118.329v0z" />
<glyph unicode="&#xe984;" glyph-name="cloud-upload-bold-rounded" d="M1024 300.089c0-50.062-20.48-95.573-52.338-129.707-31.858-31.858-77.369-52.338-129.707-52.338h-309.476v213.902l81.92-81.92c6.827-6.827 20.48-6.827 27.307 0 9.102 6.827 9.102 20.48 0 27.307l-116.053 116.053c-9.102 6.827-20.48 6.827-27.307 0l-116.053-116.053c-9.102-9.102-9.102-20.48 0-27.307s20.48-6.827 27.307 0l81.92 81.92v-213.902h-309.476c-100.124 0-182.044 81.92-182.044 182.044 0 50.062 20.48 95.573 52.338 129.707 25.031 25.031 59.164 43.236 95.573 50.062 0 4.551 0 9.102 0 13.653 0 157.013 127.431 284.444 284.444 284.444 95.573 0 179.769-47.787 232.107-118.329 9.102 2.276 18.204 4.551 29.582 4.551 93.298 6.827 175.218-63.716 182.044-157.013 0-9.102 0-18.204 0-27.307 84.196-15.929 147.911-91.022 147.911-179.769z" />
<glyph unicode="&#xe985;" glyph-name="cloud-upload-bold" d="M1024 300.089c0-50.062-20.48-95.573-52.338-129.707-31.858-31.858-77.369-52.338-129.707-52.338h-309.476v238.933l97.849-97.849 29.582 29.582-147.911 147.911-147.911-147.911 29.582-29.582 97.849 97.849v-238.933h-309.476c-100.124 0-182.044 81.92-182.044 182.044 0 50.062 20.48 95.573 52.338 129.707 25.031 25.031 59.164 43.236 95.573 50.062 0 4.551 0 9.102 0 13.653 0 157.013 127.431 284.444 284.444 284.444 95.573 0 179.769-47.787 232.107-118.329 9.102 2.276 18.204 4.551 29.582 4.551 93.298 6.827 175.218-63.716 182.044-157.013 0-9.102 0-18.204 0-27.307 84.196-15.929 147.911-91.022 147.911-179.769z" />
<glyph unicode="&#xe986;" glyph-name="cloud-upload-light-rounded" d="M876.089 479.858v27.307c-6.827 88.747-81.92 157.013-170.667 157.013h-13.653c-9.102 0-20.48-2.276-29.582-4.551-52.338 72.818-136.533 118.329-232.107 118.329-154.738 0-282.169-127.431-282.169-284.444v-13.653c-36.409-6.827-70.542-25.031-95.573-50.062-31.858-34.133-52.338-79.644-52.338-129.707 0-100.124 81.92-182.044 182.044-182.044h659.911c50.062 0 95.573 20.48 129.707 52.338 31.858 34.133 52.338 79.644 52.338 129.707 0 88.747-63.716 163.84-147.911 179.769zM930.702 211.342c-25.031-22.756-54.613-36.409-88.747-36.409h-309.476v179.769l81.92-81.92c6.827-6.827 20.48-6.827 27.307 0 9.102 6.827 9.102 20.48 0 27.307l-116.053 116.053c-9.102 6.827-20.48 6.827-27.307 0l-116.053-116.053c-9.102-9.102-9.102-20.48 0-27.307s20.48-6.827 27.307 0l81.92 81.92v-179.769h-309.476c-68.267 0-125.156 56.889-125.156 125.156 0 34.133 13.653 65.991 36.409 88.747 18.204 18.204 40.96 29.582 65.991 34.133l47.787 9.102-2.276 50.062v11.378c0 125.156 102.4 227.556 227.556 227.556 72.818 0 143.36-36.409 184.32-95.573l22.756-31.858 38.684 9.102c6.827 2.276 11.378 2.276 18.204 2.276h9.102c59.164 0 109.227-45.511 113.778-104.676v-18.204l-4.551-52.338 52.338-9.102c59.164-11.378 102.4-63.716 102.4-122.88-2.276-31.858-15.929-61.44-38.684-86.471z" />
<glyph unicode="&#xe987;" glyph-name="cloud-upload-light" d="M876.089 479.858v27.307c-6.827 88.747-81.92 157.013-170.667 157.013h-13.653c-9.102 0-20.48-2.276-29.582-4.551-52.338 72.818-136.533 118.329-232.107 118.329-154.738 0-282.169-127.431-282.169-284.444v-13.653c-36.409-6.827-70.542-25.031-95.573-50.062-31.858-34.133-52.338-79.644-52.338-129.707 0-100.124 81.92-182.044 182.044-182.044h659.911c50.062 0 95.573 20.48 129.707 52.338 31.858 34.133 52.338 79.644 52.338 129.707 0 88.747-63.716 163.84-147.911 179.769zM930.702 211.342c-25.031-22.756-54.613-36.409-88.747-36.409h-309.476v182.044l97.849-97.849 29.582 29.582-147.911 147.911-147.911-147.911 29.582-29.582 97.849 97.849v-182.044h-309.476c-68.267 0-125.156 56.889-125.156 125.156 0 34.133 13.653 65.991 36.409 88.747 18.204 18.204 40.96 29.582 65.991 34.133l47.787 9.102-2.276 50.062v11.378c0 125.156 102.4 227.556 227.556 227.556 72.818 0 143.36-36.409 184.32-95.573l22.756-31.858 38.684 9.102c6.827 2.276 11.378 2.276 18.204 2.276h9.102c59.164 0 109.227-45.511 113.778-104.676v-18.204l-4.551-52.338 52.338-9.102c59.164-11.378 102.4-63.716 102.4-122.88-2.276-31.858-15.929-61.44-38.684-86.471z" />
<glyph unicode="&#xe988;" glyph-name="cloud-upload-medium-rounded" d="M876.089 479.858v27.307c-6.827 88.747-81.92 157.013-170.667 157.013h-13.653c-9.102 0-20.48-2.276-29.582-4.551-52.338 72.818-136.533 118.329-232.107 118.329-154.738 0-282.169-127.431-282.169-284.444v-13.653c-36.409-6.827-70.542-25.031-95.573-50.062-31.858-34.133-52.338-79.644-52.338-129.707 0-100.124 81.92-182.044 182.044-182.044h659.911c50.062 0 95.573 20.48 129.707 52.338 31.858 34.133 52.338 79.644 52.338 129.707 0 88.747-63.716 163.84-147.911 179.769zM921.6 220.444c-22.756-22.756-50.062-34.133-79.644-34.133h-309.476v168.391l81.92-81.92c6.827-6.827 20.48-6.827 27.307 0 9.102 6.827 9.102 20.48 0 27.307l-116.053 116.053c-9.102 6.827-20.48 6.827-27.307 0l-116.053-116.053c-9.102-9.102-9.102-20.48 0-27.307s20.48-6.827 27.307 0l81.92 81.92v-168.391h-309.476c-63.716 0-113.778 50.062-113.778 113.778 0 29.582 11.378 59.164 34.133 79.644 15.929 15.929 36.409 27.307 59.164 31.858l59.164 11.378-4.551 59.164v11.378c0 118.329 97.849 216.178 216.178 216.178 70.542 0 136.533-34.133 175.218-91.022l27.307-38.684 45.511 11.378c4.551 2.276 11.378 2.276 15.929 2.276h9.102c52.338 0 97.849-40.96 102.4-95.573v-15.929l-6.827-63.716 61.44-11.378c54.613-9.102 93.298-56.889 93.298-111.502 0-25.031-11.378-54.613-34.133-75.093z" />
<glyph unicode="&#xe989;" glyph-name="cloud-upload-medium" d="M876.089 479.858v27.307c-6.827 88.747-81.92 157.013-170.667 157.013h-13.653c-9.102 0-20.48-2.276-29.582-4.551-52.338 72.818-136.533 118.329-232.107 118.329-154.738 0-282.169-127.431-282.169-284.444v-13.653c-36.409-6.827-70.542-25.031-95.573-50.062-31.858-34.133-52.338-79.644-52.338-129.707 0-100.124 81.92-182.044 182.044-182.044h659.911c50.062 0 95.573 20.48 129.707 52.338 31.858 34.133 52.338 79.644 52.338 129.707 0 88.747-63.716 163.84-147.911 179.769zM921.6 220.444c-22.756-22.756-50.062-34.133-79.644-34.133h-309.476v170.667l97.849-97.849 29.582 29.582-147.911 147.911-147.911-147.911 29.582-29.582 97.849 97.849v-170.667h-309.476c-63.716 0-113.778 50.062-113.778 113.778 0 29.582 11.378 59.164 34.133 79.644 15.929 15.929 36.409 27.307 59.164 31.858l59.164 11.378-4.551 59.164v11.378c0 118.329 97.849 216.178 216.178 216.178 70.542 0 136.533-34.133 175.218-91.022l27.307-38.684 45.511 11.378c4.551 2.276 11.378 2.276 15.929 2.276h9.102c52.338 0 97.849-40.96 102.4-95.573v-15.929l-6.827-63.716 61.44-11.378c54.613-9.102 93.298-56.889 93.298-111.502 0-25.031-11.378-54.613-34.133-75.093z" />
<glyph unicode="&#xe98a;" glyph-name="computer-bold" d="M1024 189.774v712.348h-1024v-712.348h418.504v-140.243h-155.826v-55.652h500.87v55.652h-155.826v140.243h416.278zM66.783 835.339h890.435v-451.896h-890.435v451.896z" />
<glyph unicode="&#xe98b;" glyph-name="computer-light" d="M1024 189.774v712.348h-1024v-712.348h418.504v-140.243h-155.826v-55.652h500.87v55.652h-155.826v140.243h416.278zM55.652 846.47h912.696v-463.026h-912.696v463.026zM55.652 245.426v84.591h912.696v-84.591h-912.696zM552.070 49.53h-77.913v140.243h77.913v-140.243z" />
<glyph unicode="&#xe98c;" glyph-name="computer-medium" d="M1024 192v712.348h-1024v-712.348h411.826v-133.565h-151.374v-66.783h500.87v66.783h-151.374v133.565h414.052zM66.783 837.565h890.435v-445.217h-890.435v445.217zM66.783 258.783v66.783h890.435v-66.783h-890.435zM545.391 58.435h-66.783v133.565h66.783v-133.565z" />
<glyph unicode="&#xe98d;" glyph-name="copy-bold" d="M637.156 736.996v147.911h-637.156v-728.178h386.844v-147.911h637.156v728.178h-386.844zM125.156 691.484h193.422v-68.267h-193.422v68.267zM125.156 570.88h261.689v-68.267h-261.689v68.267zM125.156 450.276h261.689v-68.267h-261.689v68.267zM125.156 259.129v68.267h261.689v-68.267h-261.689z" />
<glyph unicode="&#xe98e;" glyph-name="copy-light" d="M637.156 736.996v147.911h-637.156v-728.178h386.844v-147.911h637.156v728.178h-386.844zM56.889 213.618v614.4h523.378v-91.022h-193.422v-172.942h-261.689v-56.889h261.689v-63.716h-261.689v-56.889h261.689v-63.716h-261.689v-56.889h261.689v-52.338h-329.956zM967.111 65.707h-523.378v614.4h523.378v-614.4zM125.156 686.933h193.422v-56.889h-193.422v56.889z" />
<glyph unicode="&#xe98f;" glyph-name="copy-medium" d="M637.156 736.996v147.911h-637.156v-728.178h386.844v-147.911h637.156v728.178h-386.844zM68.267 224.996v591.644h500.622v-79.644h-182.044v-166.116h-261.689v-68.267h261.689v-52.338h-261.689v-68.267h261.689v-52.338h-261.689v-68.267h261.689v-34.133h-318.578zM955.733 77.084h-500.622v591.644h500.622v-591.644zM125.156 691.484h193.422v-68.267h-193.422v68.267z" />
<glyph unicode="&#xe990;" glyph-name="crop-bold" d="M795.386 733.767v226.233h-138.121v-226.233h-428.651v-435.795h-228.614v-135.74h228.614v-226.233h138.121v226.233h428.651v435.795h228.614v135.74h-228.614zM657.265 297.972h-290.53v300.056h290.53v-300.056z" />
<glyph unicode="&#xe991;" glyph-name="crop-light" d="M776.904 748.522v211.478h-80.139v-211.478h-449.67v-520.904h-247.096v-80.139h247.096v-211.478h80.139v211.478h447.443v520.904h249.322v80.139h-247.096zM696.765 227.617h-369.53v440.765h367.304v-440.765z" />
<glyph unicode="&#xe992;" glyph-name="crop-medium" d="M774.982 715.636v244.364h-95.418v-244.364h-430.545v-439.855h-249.018v-95.418h249.018v-244.364h95.418v244.364h432.873v439.855h246.691v95.418h-249.018zM679.564 275.782h-335.127v344.436h335.127v-344.436z" />
<glyph unicode="&#xe993;" glyph-name="cursor-bold" d="M210.335 5.189l-210.335 954.811 954.811-210.335-304.432-163.286 373.622-370.854-279.524-279.524-370.854 373.622z" />
<glyph unicode="&#xe994;" glyph-name="cursor-light" d="M91.33 868.67l664.216-146.681-138.378-74.724-83.027-44.281 390.227-390.227-179.892-179.892-390.227 390.227-44.281-83.027-74.724-138.378-143.914 666.984zM0 960l210.335-954.811 163.286 304.432 370.854-370.854 279.524 279.524-373.622 368.086 304.432 163.286-954.811 210.335z" />
<glyph unicode="&#xe995;" glyph-name="cursor-medium" d="M110.703 849.297l606.097-132.843-204.8-107.935 392.995-392.995-160.519-160.519-392.995 392.995-52.584-99.632-55.351-105.168-132.843 606.097zM0 960l210.335-954.811 163.286 304.432 370.854-370.854 279.524 279.524-373.622 368.086 304.432 163.286-954.811 210.335z" />
<glyph unicode="&#xe996;" glyph-name="database-bold" d="M1006.191 581.565c11.13 22.261 17.809 44.522 17.809 66.783 0 140.243-229.287 256-512 256s-512-115.757-512-256c0-22.261 6.678-44.522 17.809-66.783-11.13-22.261-17.809-44.522-17.809-66.783s6.678-44.522 17.809-66.783c-11.13-22.261-17.809-44.522-17.809-66.783s6.678-44.522 17.809-66.783c-11.13-22.261-17.809-44.522-17.809-66.783 0-140.243 229.287-256 512-256s512 115.757 512 256c0 22.261-6.678 44.522-17.809 66.783 11.13 22.261 17.809 44.522 17.809 66.783s-6.678 44.522-17.809 66.783c11.13 22.261 17.809 44.522 17.809 66.783s-6.678 44.522-17.809 66.783zM66.783 521.461c2.226-2.226 4.452-4.452 8.904-6.678 17.809-13.357 37.843-26.713 57.878-40.070 17.809-11.13 37.843-20.035 60.104-28.939 33.391-13.357 73.461-24.487 113.53-33.391 62.33-13.357 131.339-22.261 204.8-22.261s142.47 6.678 204.8 22.261c40.070 8.904 77.913 20.035 113.53 33.391 22.261 8.904 42.296 17.809 60.104 28.939 22.261 11.13 42.296 24.487 57.878 40.070 2.226 2.226 6.678 4.452 8.904 6.678 0-2.226 0-4.452 0-6.678s0-4.452 0-6.678c-2.226-20.035-13.357-40.070-33.391-60.104-8.904-8.904-20.035-17.809-33.391-28.939-20.035-13.357-44.522-26.713-73.461-40.070-77.913-33.391-184.765-55.652-304.974-55.652s-227.061 22.261-304.974 55.652c-28.939 11.13-53.426 24.487-73.461 40.070-13.357 8.904-24.487 17.809-33.391 28.939-20.035 20.035-31.165 40.070-33.391 60.104 0 2.226 0 4.452 0 6.678s0 4.452 0 6.678zM957.217 381.217c0-2.226 0-4.452 0-6.678-2.226-20.035-13.357-40.070-33.391-60.104-64.557-66.783-220.383-122.435-411.826-122.435s-347.27 55.652-411.826 122.435c-20.035 20.035-31.165 40.070-33.391 60.104 0 2.226 0 4.452 0 6.678s0 4.452 0 6.678c2.226-2.226 4.452-4.452 8.904-6.678 17.809-13.357 37.843-26.713 57.878-40.070 93.496-51.2 229.287-84.591 378.435-84.591s284.939 31.165 378.435 84.591c22.261 11.13 42.296 24.487 57.878 40.070 2.226 2.226 6.678 4.452 8.904 6.678 0-2.226 0-4.452 0-6.678zM512 58.435c-256 0-445.217 100.174-445.217 189.217 0 2.226 0 4.452 0 6.678 86.817-77.913 253.774-129.113 445.217-129.113s356.174 51.2 445.217 129.113c0-2.226 0-4.452 0-6.678 0-89.043-189.217-189.217-445.217-189.217z" />
<glyph unicode="&#xe997;" glyph-name="database-light" d="M1006.191 581.565c11.13 22.261 17.809 44.522 17.809 66.783 0 140.243-229.287 256-512 256s-512-115.757-512-256c0-22.261 6.678-44.522 17.809-66.783-11.13-22.261-17.809-44.522-17.809-66.783s6.678-44.522 17.809-66.783c-11.13-22.261-17.809-44.522-17.809-66.783s6.678-44.522 17.809-66.783c-11.13-22.261-17.809-44.522-17.809-66.783 0-140.243 229.287-256 512-256s512 115.757 512 256c0 22.261-6.678 44.522-17.809 66.783 11.13 22.261 17.809 44.522 17.809 66.783s-6.678 44.522-17.809 66.783c11.13 22.261 17.809 44.522 17.809 66.783s-6.678 44.522-17.809 66.783zM55.652 648.348c0 95.722 186.991 200.348 456.348 200.348s456.348-104.626 456.348-200.348c0-4.452 0-11.13-2.226-15.583-4.452-17.809-13.357-33.391-28.939-51.2-11.13-11.13-22.261-22.261-37.843-33.391s-33.391-22.261-55.652-33.391c-28.939-15.583-64.557-28.939-104.626-37.843-64.557-17.809-142.47-28.939-227.061-28.939s-162.504 11.13-229.287 28.939c-37.843 8.904-73.461 22.261-104.626 37.843-20.035 11.13-40.070 22.261-55.652 33.391s-28.939 22.261-37.843 33.391c-15.583 17.809-24.487 33.391-28.939 51.2 0 4.452 0 11.13 0 15.583zM968.348 247.652c0-95.722-186.991-200.348-456.348-200.348s-456.348 104.626-456.348 200.348c0 4.452 0 11.13 2.226 15.583 84.591-82.365 256-138.017 454.122-138.017s369.53 55.652 454.122 138.017c2.226-4.452 2.226-11.13 2.226-15.583zM968.348 381.217c0-4.452 0-11.13-2.226-15.583-4.452-17.809-13.357-33.391-28.939-51.2-62.33-71.235-220.383-133.565-427.409-133.565s-365.078 62.33-427.409 133.565c-15.583 17.809-24.487 33.391-28.939 51.2 0 4.452-2.226 11.13-2.226 15.583s0 11.13 2.226 15.583c6.678-6.678 11.13-11.13 17.809-15.583 13.357-11.13 31.165-22.261 48.974-33.391 93.496-55.652 233.739-89.043 389.565-89.043s293.843 35.617 389.565 89.043c17.809 8.904 33.391 20.035 48.974 33.391 6.678 4.452 11.13 11.13 17.809 15.583 2.226-4.452 2.226-11.13 2.226-15.583zM939.409 448c-11.13-11.13-22.261-22.261-37.843-33.391s-33.391-22.261-55.652-33.391c-80.139-40.070-195.896-66.783-333.913-66.783s-253.774 26.713-333.913 66.783c-20.035 11.13-40.070 22.261-55.652 33.391s-28.939 22.261-37.843 33.391c-15.583 17.809-24.487 33.391-28.939 51.2 0 4.452-2.226 11.13-2.226 15.583s0 11.13 2.226 15.583c6.678-6.678 11.13-11.13 17.809-15.583 13.357-11.13 31.165-22.261 48.974-33.391 22.261-13.357 44.522-24.487 71.235-33.391 26.713-11.13 57.878-20.035 89.043-28.939 69.009-17.809 146.922-26.713 229.287-26.713s160.278 8.904 229.287 26.713c31.165 8.904 62.33 17.809 89.043 28.939s48.974 22.261 71.235 33.391c17.809 8.904 33.391 20.035 48.974 33.391 6.678 4.452 11.13 11.13 17.809 15.583 0-4.452 2.226-11.13 2.226-15.583s0-11.13-2.226-15.583c-4.452-17.809-15.583-35.617-28.939-51.2z" />
<glyph unicode="&#xe998;" glyph-name="database-medium" d="M1006.191 581.565c11.13 22.261 17.809 44.522 17.809 66.783 0 140.243-229.287 256-512 256s-512-115.757-512-256c0-22.261 6.678-44.522 17.809-66.783-11.13-22.261-17.809-44.522-17.809-66.783s6.678-44.522 17.809-66.783c-11.13-22.261-17.809-44.522-17.809-66.783s6.678-44.522 17.809-66.783c-11.13-22.261-17.809-44.522-17.809-66.783 0-140.243 229.287-256 512-256s512 115.757 512 256c0 22.261-6.678 44.522-17.809 66.783 11.13 22.261 17.809 44.522 17.809 66.783s-6.678 44.522-17.809 66.783c11.13 22.261 17.809 44.522 17.809 66.783s-6.678 44.522-17.809 66.783zM957.217 514.783c0-2.226 0-4.452 0-6.678-2.226-20.035-13.357-40.070-33.391-60.104-8.904-8.904-20.035-17.809-33.391-28.939-20.035-13.357-44.522-26.713-73.461-40.070-77.913-33.391-184.765-55.652-304.974-55.652s-227.061 22.261-304.974 55.652c-28.939 11.13-53.426 24.487-73.461 40.070-13.357 8.904-24.487 17.809-33.391 28.939-20.035 20.035-31.165 40.070-33.391 60.104 0 2.226 0 4.452 0 6.678s0 4.452 0 6.678c2.226-2.226 4.452-4.452 8.904-6.678 17.809-13.357 37.843-26.713 57.878-40.070 17.809-11.13 37.843-20.035 60.104-28.939 33.391-13.357 73.461-24.487 113.53-33.391 62.33-13.357 131.339-22.261 204.8-22.261s142.47 6.678 204.8 22.261c40.070 8.904 77.913 20.035 113.53 33.391 22.261 8.904 42.296 17.809 60.104 28.939 22.261 11.13 42.296 24.487 57.878 40.070 2.226 2.226 6.678 4.452 8.904 6.678 0-2.226 0-4.452 0-6.678zM957.217 381.217c0-2.226 0-4.452 0-6.678-2.226-20.035-13.357-40.070-33.391-60.104-64.557-66.783-220.383-122.435-411.826-122.435s-347.27 55.652-411.826 122.435c-20.035 20.035-31.165 40.070-33.391 60.104 0 2.226 0 4.452 0 6.678s0 4.452 0 6.678c2.226-2.226 4.452-4.452 8.904-6.678 17.809-13.357 37.843-26.713 57.878-40.070 93.496-51.2 229.287-84.591 378.435-84.591s284.939 31.165 378.435 84.591c22.261 11.13 42.296 24.487 57.878 40.070 2.226 2.226 6.678 4.452 8.904 6.678 0-2.226 0-4.452 0-6.678zM512 837.565c256 0 445.217-100.174 445.217-189.217 0-2.226 0-4.452 0-6.678-2.226-20.035-13.357-40.070-33.391-60.104-8.904-8.904-20.035-17.809-33.391-28.939-20.035-13.357-44.522-26.713-73.461-40.070s-62.33-24.487-100.174-33.391c-60.104-13.357-129.113-22.261-204.8-22.261s-144.696 8.904-204.8 22.261c-37.843 8.904-71.235 20.035-100.174 33.391-28.939 11.13-53.426 24.487-73.461 40.070-13.357 8.904-24.487 17.809-33.391 28.939-20.035 20.035-31.165 40.070-33.391 60.104 0 2.226 0 4.452 0 6.678 0 89.043 189.217 189.217 445.217 189.217zM512 58.435c-256 0-445.217 100.174-445.217 189.217 0 2.226 0 4.452 0 6.678 86.817-77.913 253.774-129.113 445.217-129.113s356.174 51.2 445.217 129.113c0-2.226 0-4.452 0-6.678 0-89.043-189.217-189.217-445.217-189.217z" />
<glyph unicode="&#xe999;" glyph-name="drop-bold" d="M929.014 353.014c0 229.357-417.014 606.986-417.014 606.986s-417.014-375.312-417.014-606.986 187.656-417.014 417.014-417.014 417.014 187.656 417.014 417.014z" />
<glyph unicode="&#xe99a;" glyph-name="drop-light" d="M512 881.231c127.421-122.787 359.095-377.629 359.095-528.217 0-196.923-162.172-359.095-359.095-359.095s-359.095 162.172-359.095 359.095c0 150.588 231.674 405.43 359.095 528.217zM512 960c0 0-417.014-375.312-417.014-606.986 0-229.357 187.656-417.014 417.014-417.014s417.014 187.656 417.014 417.014c0 231.674-417.014 606.986-417.014 606.986v0z" />
<glyph unicode="&#xe99b;" glyph-name="drop-medium" d="M512 832.579c150.588-148.271 324.344-363.729 324.344-479.566 0-178.389-145.955-324.344-324.344-324.344s-324.344 145.955-324.344 324.344c0 113.52 173.756 328.977 324.344 479.566zM512 960c0 0-417.014-375.312-417.014-606.986s187.656-417.014 417.014-417.014 417.014 187.656 417.014 417.014-417.014 606.986-417.014 606.986v0z" />
<glyph unicode="&#xe99c;" glyph-name="dropper-bold-rounded" d="M785.384 524.793l-21.502-21.502zM763.882 503.291v0 0l58.363-58.363-43.004-43.004-58.363 58.363-451.544-448.472c-58.363-58.363-144.371-86.008-224.236-70.65-18.43 3.072-30.717 18.43-36.861 33.789-18.43 86.008 9.215 175.088 70.65 236.523l445.4 445.4-61.435 61.435 43.004 43.004 61.435-61.435 218.093 218.093c27.646 27.646 61.435 43.004 98.295 43.004s70.65-15.359 98.295-43.004c55.291-55.291 55.291-141.299 0-196.591l-218.093-218.093zM763.882 503.291v0 0z" />
<glyph unicode="&#xe99d;" glyph-name="dropper-bold" d="M765.361 514.356v0l57.308-60.324-39.211-42.227-60.324 60.324-533.867-533.867-156.842 27.146-33.178 162.875 533.867 530.851-60.324 60.324 42.227 42.227 60.324-60.324 214.15 214.15c27.146 27.146 60.324 42.227 96.518 42.227s69.373-15.081 96.518-42.227c54.292-54.292 54.292-138.745 0-193.037l-214.15-214.15-3.016 6.032z" />
<glyph unicode="&#xe99e;" glyph-name="dropper-light-rounded" d="M768 511.247l213.835 213.835c54.212 54.212 54.212 138.541 0 192.753-27.106 27.106-60.235 42.165-96.376 42.165s-69.271-15.059-96.376-42.165l-213.835-213.835-60.235 60.235-42.165-42.165 60.235-60.235-533.082-533.082 30.118-144.565c3.012-9.035 9.035-18.071 21.082-21.082l138.541-27.106 533.082 533.082 57.224-57.224 42.165 42.165-54.212 57.224zM171.671 2.259l-87.341 15.059-18.071 90.353 508.988 512 105.412-105.412-508.988-512z" />
<glyph unicode="&#xe99f;" glyph-name="dropper-light" d="M981.835 725.082c54.212 54.212 54.212 138.541 0 192.753-27.106 27.106-60.235 42.165-96.376 42.165s-69.271-15.059-96.376-42.165l-213.835-213.835-60.235 60.235-42.165-42.165 60.235-60.235-533.082-533.082 36.141-162.635 156.612-30.118 533.082 533.082 57.224-57.224 42.165 42.165-57.224 57.224 213.835 213.835zM171.671 2.259l-87.341 15.059-18.071 90.353 508.988 512 105.412-105.412-508.988-512z" />
<glyph unicode="&#xe9a0;" glyph-name="dropper-medium-rounded" d="M768.377 511.34l214.15 214.15c54.292 54.292 54.292 138.745 0 193.037-27.146 27.146-60.324 42.227-96.518 42.227s-69.373-15.081-96.518-42.227l-214.15-214.15-60.324 60.324-42.227-45.243 60.324-60.324-533.867-530.851 30.162-141.761c3.016-12.065 12.065-24.13 27.146-24.13l135.729-24.13 530.851 530.851 57.308-57.308 42.227 42.227-54.292 57.308zM159.105 34.781l-51.275 9.049-12.065 54.292 500.689 497.673 63.34-63.34-500.689-497.673z" />
<glyph unicode="&#xe9a1;" glyph-name="dropper-medium" d="M984.847 917.835c-27.106 27.106-60.235 42.165-96.376 42.165s-69.271-15.059-96.376-42.165l-213.835-213.835-60.235 60.235-42.165-45.176 60.235-60.235-533.082-530.071 36.141-162.635 156.612-30.118 533.082 533.082 57.224-57.224 42.165 42.165-57.224 57.224 213.835 213.835c54.212 54.212 54.212 138.541 0 192.753zM162.635 35.388l-51.2 9.035-12.047 54.212 499.953 499.953 63.247-63.247-499.953-499.953z" />
<glyph unicode="&#xe9a2;" glyph-name="earth-bold" d="M1019.367 482.751c-4.633 57.919-16.217 111.204-37.068 162.172-9.267 23.167-23.167 46.335-34.751 69.502-25.484 41.701-55.602 78.769-90.353 111.204 0 0 0 0 0 0-76.452 69.502-176.072 118.154-284.959 129.738 0 0 0 0 0 0-6.95 0-16.217 2.317-23.167 2.317-13.9 0-25.484 0-37.068 0s-23.167 0-34.751-2.317c-6.95 0-16.217 0-23.167-2.317-108.887-11.584-208.507-60.235-284.959-129.738 0 0 0 0 0 0-34.751-32.434-64.869-69.502-90.353-111.204-13.9-23.167-25.484-46.335-34.751-69.502-20.851-50.968-34.751-104.253-37.068-162.172 0-11.584-2.317-23.167-2.317-34.751s0-23.167 2.317-34.751c4.633-57.919 16.217-111.204 37.068-162.172 9.267-23.167 23.167-46.335 34.751-69.502 25.484-41.701 55.602-76.452 90.353-111.204 0 0 0 0 0 0 76.452-69.502 176.072-118.154 284.959-129.738 6.95 0 16.217-2.317 23.167-2.317 11.584 0 23.167-2.317 34.751-2.317s23.167 0 34.751 2.317c6.95 0 16.217 0 23.167 2.317 0 0 0 0 0 0 108.887 11.584 208.507 60.235 284.959 129.738 0 0 0 0 0 0 34.751 32.434 64.869 69.502 90.353 111.204 13.9 23.167 25.484 46.335 34.751 69.502 20.851 50.968 34.751 104.253 37.068 162.172 0 11.584 2.317 23.167 2.317 34.751s2.317 25.484 0 37.068zM284.959 823.312c-34.751-32.434-64.869-69.502-90.353-111.204h-30.118c30.118 46.335 71.819 83.403 120.471 111.204zM118.154 251.077c-25.484 48.652-41.701 104.253-46.335 162.172h46.335c4.633-57.919 16.217-111.204 37.068-162.172h-37.068zM120.471 482.751h-46.335c4.633 57.919 20.851 113.52 46.335 162.172h39.385c-23.167-50.968-37.068-104.253-39.385-162.172zM162.172 181.575h30.118c25.484-41.701 55.602-76.452 90.353-111.204-46.335 30.118-88.036 67.186-120.471 111.204zM477.249 33.303c-78.769 30.118-148.271 81.086-199.24 148.271h199.24v-148.271zM477.249 251.077h-243.258c-25.484 48.652-41.701 104.253-46.335 162.172h287.276v-162.172zM477.249 482.751h-287.276c4.633 57.919 20.851 113.52 46.335 162.172h243.258v-162.172zM477.249 714.425h-199.24c50.968 67.186 120.471 118.154 199.24 148.271v-148.271zM546.751 862.697c78.769-30.118 148.271-81.086 199.24-148.271h-199.24v148.271zM546.751 644.923h243.258c25.484-48.652 41.701-104.253 46.335-162.172h-289.593v162.172zM546.751 413.249h287.276c-4.633-57.919-20.851-113.52-46.335-162.172h-240.941v162.172zM546.751 33.303v148.271h199.24c-50.968-67.186-120.471-118.154-199.24-148.271zM739.041 70.371c34.751 32.434 64.869 69.502 90.353 111.204h30.118c-30.118-44.018-71.819-81.086-120.471-111.204zM831.71 714.425c-25.484 41.701-55.602 78.769-90.353 111.204 46.335-27.801 88.036-67.186 122.787-111.204h-32.434zM905.846 251.077h-39.385c20.851 50.968 34.751 104.253 37.068 162.172h46.335c-2.317-57.919-18.534-113.52-44.018-162.172zM903.529 482.751c-4.633 57.919-16.217 111.204-37.068 162.172h39.385c25.484-48.652 41.701-104.253 46.335-162.172h-48.652z" />
<glyph unicode="&#xe9a3;" glyph-name="earth-light" d="M1024 471.273c-2.327 65.164-18.618 128-44.218 186.182-6.982 16.291-13.964 32.582-23.273 46.545-46.545 79.127-111.709 144.291-190.836 188.509 0 0 0 0 0 0-58.182 32.582-123.345 55.855-195.491 62.836 0 0 0 0 0 0-11.636 2.327-23.273 4.655-34.909 4.655-6.982 0-16.291 0-23.273 0s-16.291 0-23.273 0c-11.636 0-23.273 0-34.909-2.327-69.818-6.982-137.309-30.255-195.491-65.164-79.127-44.218-144.291-109.382-190.836-188.509-9.309-13.964-16.291-30.255-23.273-46.545-25.6-58.182-41.891-121.018-44.218-186.182 0-6.982 0-16.291 0-23.273s0-16.291 0-23.273c2.327-65.164 18.618-128 44.218-186.182 6.982-16.291 13.964-30.255 23.273-46.545 46.545-79.127 111.709-144.291 190.836-188.509 58.182-34.909 125.673-55.855 195.491-65.164 11.636-2.327 23.273-2.327 34.909-2.327 6.982 0 16.291 0 23.273 0s16.291 0 23.273 0c11.636 0 23.273 0 34.909 2.327 0 0 0 0 0 0 69.818 6.982 137.309 30.255 195.491 62.836 0 0 0 0 0 0 79.127 44.218 144.291 109.382 190.836 188.509 9.309 16.291 16.291 30.255 23.273 46.545 25.6 58.182 41.891 121.018 44.218 186.182 0 6.982 0 16.291 0 23.273 0 9.309 0 18.618 0 25.6zM374.691 892.509c-79.127-44.218-144.291-109.382-188.509-188.509h-60.509c55.855 88.436 144.291 155.927 249.018 188.509zM160.582 657.455c-25.6-58.182-41.891-121.018-44.218-186.182h-69.818c2.327 67.491 20.945 130.327 48.873 186.182h65.164zM46.546 424.727h69.818c2.327-65.164 18.618-128 44.218-186.182h-65.164c-27.927 55.855-44.218 118.691-48.873 186.182zM123.345 192h60.509c46.545-79.127 111.709-144.291 188.509-188.509-102.4 32.582-190.836 100.073-249.018 188.509zM488.727 3.491c-102.4 32.582-190.836 100.073-249.018 188.509h249.018v-188.509zM488.727 238.545h-276.945c-27.927 55.855-46.545 118.691-48.873 186.182h325.818v-186.182zM488.727 471.273h-325.818c2.327 67.491 20.945 130.327 48.873 186.182h276.945v-186.182zM488.727 704h-249.018c58.182 88.436 146.618 155.927 249.018 188.509v-188.509zM900.655 704h-60.509c-46.545 79.127-111.709 144.291-190.836 188.509 104.727-32.582 193.164-100.073 251.345-188.509zM535.273 892.509c102.4-32.582 190.836-100.073 249.018-188.509h-249.018v188.509zM535.273 657.455h276.945c27.927-55.855 46.545-118.691 48.873-186.182h-325.818v186.182zM535.273 424.727h325.818c-2.327-67.491-20.945-130.327-48.873-186.182h-276.945v186.182zM535.273 3.491v188.509h249.018c-58.182-88.436-146.618-155.927-249.018-188.509zM649.309 3.491c79.127 44.218 144.291 109.382 190.836 188.509h60.509c-58.182-88.436-146.618-155.927-251.345-188.509zM928.582 238.545h-65.164c25.6 58.182 41.891 121.018 44.218 186.182h69.818c-4.655-67.491-20.945-130.327-48.873-186.182zM907.636 471.273c-2.327 65.164-18.618 128-44.218 186.182h65.164c27.927-55.855 46.545-118.691 48.873-186.182h-69.818z" />
<glyph unicode="&#xe9a4;" glyph-name="earth-medium" d="M1021.683 475.801c-2.317 62.552-18.534 120.471-41.701 173.756-9.267 20.851-18.534 39.385-30.118 57.919-34.751 60.235-83.403 111.204-139.005 152.905-69.502 50.968-150.588 83.403-240.941 92.67-9.267 2.317-18.534 2.317-30.118 2.317-9.267 0-18.534 0-30.118 0s-18.534 0-30.118 0c-9.267 0-18.534 0-30.118-2.317 0 0 0 0 0 0-90.353-9.267-171.439-44.018-240.941-92.67 0 0 0 0 0 0-55.602-41.701-104.253-92.67-139.005-150.588-11.584-18.534-20.851-37.068-30.118-57.919-23.167-53.285-37.068-111.204-41.701-173.756 0-9.267 0-18.534 0-30.118 0-9.267 0-18.534 0-30.118 2.317-62.552 18.534-120.471 41.701-173.756 9.267-20.851 18.534-39.385 30.118-57.919 34.751-60.235 83.403-111.204 139.005-150.588 0 0 0 0 0 0 69.502-50.968 150.588-83.403 240.941-92.67 0 0 0 0 0 0 9.267 0 18.534-2.317 30.118-2.317 9.267 0 18.534 0 30.118 0s18.534 0 30.118 0c9.267 0 18.534 0 30.118 2.317 90.353 9.267 171.439 44.018 240.941 92.67 55.602 41.701 104.253 92.67 139.005 152.905 11.584 18.534 20.851 37.068 30.118 57.919 23.167 53.285 37.068 111.204 41.701 173.756 0 9.267 0 18.534 0 30.118 0 6.95 0 16.217 0 25.484zM880.362 707.475h-46.335c-34.751 60.235-83.403 111.204-139.005 152.905 74.136-32.434 139.005-85.719 185.339-152.905zM847.928 475.801h-305.81v173.756h259.475c25.484-50.968 41.701-111.204 46.335-173.756zM542.118 417.882h305.81c-4.633-62.552-20.851-120.471-46.335-173.756h-259.475v173.756zM542.118 876.597c90.353-30.118 169.122-90.353 224.724-166.805h-224.724v166.805zM484.199 876.597v-166.805h-224.724c53.285 76.452 132.054 134.371 224.724 166.805zM328.977 860.38c-55.602-41.701-104.253-92.67-139.005-152.905h-46.335c46.335 67.186 111.204 120.471 185.339 152.905zM108.887 649.557h50.968c-23.167-53.285-37.068-111.204-41.701-173.756h-57.919c4.633 62.552 20.851 122.787 48.652 173.756zM108.887 244.127c-27.801 53.285-44.018 111.204-46.335 173.756h55.602c2.317-62.552 18.534-120.471 41.701-173.756h-50.968zM143.638 186.208h46.335c34.751-60.235 83.403-111.204 139.005-152.905-74.136 34.751-139.005 88.036-185.339 152.905zM484.199 19.403c-90.353 30.118-169.122 90.353-224.724 166.805h224.724v-166.805zM484.199 244.127h-259.475c-27.801 53.285-44.018 111.204-46.335 173.756h305.81v-173.756zM484.199 475.801h-308.127c4.633 62.552 20.851 120.471 46.335 173.756h259.475v-173.756zM542.118 19.403v166.805h224.724c-55.602-76.452-134.371-134.371-224.724-166.805zM695.023 35.62c55.602 41.701 104.253 92.67 139.005 152.905h46.335c-46.335-67.186-111.204-120.471-185.339-152.905zM915.113 244.127h-50.968c23.167 53.285 37.068 111.204 41.701 173.756h57.919c-4.633-60.235-20.851-120.471-48.652-173.756zM905.846 475.801c-2.317 62.552-18.534 120.471-41.701 173.756h50.968c27.801-53.285 44.018-111.204 46.335-173.756h-55.602z" />
<glyph unicode="&#xe9a5;" glyph-name="edit-bold" d="M923.826 592.696v-567.652h-823.652v845.913h567.652l89.043 89.043h-745.739v-1024h1001.739v745.739l-89.043-89.043zM500.87 261.009l-189.217 189.217-6.678-6.678v-2.226l-95.722-282.713 282.713 95.722h2.226zM1012.87 770.783l-111.304-111.304-338.365-336.139-186.991 186.991 447.443 449.67 144.696-144.696z" />
<glyph unicode="&#xe9a6;" glyph-name="edit-light" d="M957.217 826.435l-66.783 66.783-69.009 66.783-518.678-518.678v-2.226l-93.496-280.487 282.713 95.722h2.226l518.678 518.678-55.652 53.426zM498.643 338.922l-109.078 109.078 434.087 434.087 111.304-111.304-436.313-431.861zM957.217 650.574v-658.922h-890.435v912.696h632.209l55.652 55.652h-743.513v-1024h1001.739v770.226l-55.652-55.652z" />
<glyph unicode="&#xe9a7;" glyph-name="edit-medium" d="M946.087 837.565l-55.652 55.652-69.009 66.783-518.678-518.678v-2.226l-93.496-280.487 282.713 95.722h2.226l518.678 518.678-66.783 64.557zM498.643 354.504l-93.496 93.496 416.278 416.278 93.496-93.496-416.278-416.278zM946.087 639.443v-636.661h-868.174v890.435h609.948l66.783 66.783h-743.513v-1024h1001.739v770.226l-66.783-66.783z" />
<glyph unicode="&#xe9a8;" glyph-name="envelope-bold-rounded" d="M512 471.273l-432.873 314.182h865.745zM1024 727.273v-570.182c0-25.6-20.945-46.545-46.545-46.545h-930.909c-25.6 0-46.545 20.945-46.545 46.545v570.182l512-372.364 512 372.364z" />
<glyph unicode="&#xe9a9;" glyph-name="envelope-bold" d="M512 471.273l-432.873 314.182h865.745zM1024 727.273v-616.727h-1024v616.727l512-372.364z" />
<glyph unicode="&#xe9aa;" glyph-name="envelope-light-rounded" d="M0 738.909v-581.818c0-25.6 20.945-46.545 46.545-46.545h930.909c25.6 0 46.545 20.945 46.545 46.545v581.818c0 25.6-20.945 46.545-46.545 46.545h-930.909c-25.6 0-46.545-20.945-46.545-46.545zM907.636 180.364h-791.273c-25.6 0-46.545 20.945-46.545 46.545v442.182c0 25.6 20.945 46.545 46.545 46.545h791.273c25.6 0 46.545-20.945 46.545-46.545v-442.182c0-25.6-20.945-46.545-46.545-46.545zM954.182 715.636v-23.273l-414.255-302.545c-16.291-11.636-39.564-11.636-55.855 0l-414.255 302.545v23.273h69.818c9.309 0 18.618-2.327 27.927-9.309l316.509-230.4c16.291-11.636 39.564-11.636 55.855 0l316.509 230.4c6.982 6.982 18.618 9.309 27.927 9.309h69.818z" />
<glyph unicode="&#xe9ab;" glyph-name="envelope-light" d="M0 785.455v-674.909h1024v674.909h-1024zM954.182 180.364h-884.364v535.273h884.364v-535.273zM954.182 715.636v-23.273l-442.182-321.164-442.182 321.164v23.273h86.109l356.073-260.655 356.073 260.655z" />
<glyph unicode="&#xe9ac;" glyph-name="envelope-medium-rounded" d="M0 738.909v-581.818c0-25.6 20.945-46.545 46.545-46.545h930.909c25.6 0 46.545 20.945 46.545 46.545v581.818c0 25.6-20.945 46.545-46.545 46.545h-930.909c-25.6 0-46.545-20.945-46.545-46.545zM884.364 203.636h-744.727c-25.6 0-46.545 20.945-46.545 46.545v395.636c0 25.6 20.945 46.545 46.545 46.545h744.727c25.6 0 46.545-20.945 46.545-46.545v-395.636c0-25.6-20.945-46.545-46.545-46.545zM930.909 692.364v-11.636c0-11.636-6.982-23.273-16.291-32.582l-379.345-274.618c-13.964-9.309-32.582-9.309-46.545 0l-379.345 274.618c-9.309 6.982-16.291 18.618-16.291 32.582v11.636h102.4c9.309 0 16.291-2.327 23.273-6.982l269.964-197.818c13.964-9.309 32.582-9.309 46.545 0l272.291 197.818c6.982 4.655 13.964 6.982 23.273 6.982h100.073z" />
<glyph unicode="&#xe9ad;" glyph-name="envelope-medium" d="M0 785.455v-674.909h1024v674.909h-1024zM930.909 203.636h-837.818v488.727h837.818v-488.727zM930.909 692.364v-32.582l-418.909-304.873-418.909 304.873v32.582h114.036l304.873-221.091 304.873 221.091z" />
<glyph unicode="&#xe9ae;" glyph-name="file-add-bold" d="M667.826 603.826v356.174h-645.565v-1024h979.478v667.826h-333.913zM690.087 414.609h-144.696v-144.696h-66.783v144.696h-144.696v66.783h144.696v144.696h66.783v-144.696h144.696v-66.783zM1001.739 730.713v-55.652h-267.13v284.939h48.974z" />
<glyph unicode="&#xe9af;" glyph-name="file-add-light" d="M727.93 960h-705.67v-1024h979.478v739.061l-273.809 284.939zM946.087-8.348h-868.174v912.696h589.913v-300.522h278.261v-612.174zM723.478 659.478v224.835l215.93-224.835h-215.93zM690.087 474.713v-55.652h-149.148v-149.148h-55.652v149.148h-151.374v55.652h151.374v151.374h55.652v-151.374z" />
<glyph unicode="&#xe9b0;" glyph-name="file-add-medium" d="M734.609 953.322l-6.678 6.678h-705.67v-1024h979.478v739.061l-267.13 278.261zM934.957 2.783h-845.913v890.435h578.783v-289.391h267.13v-601.043zM734.609 670.609v186.991l178.087-186.991h-178.087zM690.087 481.391v-66.783h-144.696v-144.696h-66.783v144.696h-144.696v66.783h144.696v144.696h66.783v-144.696z" />
<glyph unicode="&#xe9b1;" glyph-name="file-bold" d="M1001.739 603.826v-667.826h-979.478v1024h645.565v-356.174zM1001.739 730.713v-55.652h-267.13v284.939h48.974z" />
<glyph unicode="&#xe9b2;" glyph-name="file-cancel-bold" d="M667.826 603.826v356.174h-645.565v-1024h979.478v667.826h-333.913zM661.148 345.6l-46.748-46.748-102.4 102.4-102.4-102.4-46.748 46.748 102.4 102.4-102.4 102.4 46.748 46.748 102.4-102.4 102.4 102.4 46.748-46.748-102.4-102.4 102.4-102.4zM1001.739 730.713v-55.652h-267.13v284.939h48.974z" />
<glyph unicode="&#xe9b3;" glyph-name="file-cancel-light" d="M727.93 960h-705.67v-1024h979.478v739.061l-273.809 284.939zM946.087-8.348h-868.174v912.696h589.913v-300.522h278.261v-612.174zM723.478 659.478v224.835l215.93-224.835h-215.93zM618.852 592.696l37.843-40.070-104.626-104.626 104.626-104.626-37.843-40.070-106.852 104.626-106.852-106.852-37.843 40.070 106.852 106.852-106.852 106.852 37.843 40.070 106.852-106.852z" />
<glyph unicode="&#xe9b4;" glyph-name="file-cancel-medium" d="M734.609 953.322l-6.678 6.678h-705.67v-1024h979.478v739.061l-267.13 278.261zM934.957 2.783h-845.913v890.435h578.783v-289.391h267.13v-601.043zM734.609 670.609v186.991l178.087-186.991h-178.087zM614.4 597.148l46.748-46.748-102.4-102.4 102.4-102.4-46.748-46.748-102.4 102.4-102.4-102.4-46.748 46.748 102.4 102.4-102.4 102.4 46.748 46.748 102.4-102.4z" />
<glyph unicode="&#xe9b5;" glyph-name="file-download-bold" d="M1001.739 603.826v-667.826h-483.061l160.278 171.409 40.070 42.296-24.487 24.487-24.487 22.261-20.035-22.261-62.33-66.783-42.296-44.522v304.974h-66.783v-302.748l-44.522 42.296-71.235 66.783-11.13 11.13-11.13-11.13-35.617-37.843 31.165-28.939 182.539-171.409h-496.417v1024h645.565v-356.174zM1001.739 730.713v-55.652h-267.13v284.939h48.974z" />
<glyph unicode="&#xe9b6;" glyph-name="file-download-light" d="M727.93 960h-705.67v-1024h387.339l-60.104 55.652h-271.583v912.696h589.913v-300.522h278.261v-612.174h-284.939l-51.2-55.652h391.791v739.061l-273.809 284.939zM723.478 659.478v224.835l215.93-224.835h-215.93zM714.574 145.252l-28.939-31.165-166.957-178.087-189.217 178.087-20.035 20.035 33.391 35.617 4.452 4.452 4.452-4.452 57.878-55.652 73.461-69.009v313.878h55.652v-318.33l71.235 73.461 51.2 55.652 13.357 13.357 15.583-13.357z" />
<glyph unicode="&#xe9b7;" glyph-name="file-download-medium" d="M734.609 953.322l-6.678 6.678h-705.67v-1024h411.826l-71.235 66.783h-273.809v890.435h578.783v-289.391h267.13v-601.043h-284.939l-62.33-66.783h414.052v739.061l-267.13 278.261zM734.609 670.609v186.991l178.087-186.991h-178.087zM719.026 149.704l-40.070-42.296-160.278-171.409-182.539 171.409-31.165 28.939 35.617 37.843 11.13 11.13 11.13-11.13 71.235-66.783 44.522-42.296v302.748h66.783v-304.974l42.296 44.522 62.33 66.783 20.035 22.261 24.487-22.261z" />
</font>
</defs>
</svg>
