<?xml version="1.0" encoding="utf-8"?>
<!-- Generator: Adobe Illustrator 23.0.0, SVG Export Plug-In . SVG Version: 6.00 Build 0)  -->
<svg version="1.1" id="Layer_1" xmlns="http://www.w3.org/2000/svg" xmlns:xlink="http://www.w3.org/1999/xlink" x="0px" y="0px"
	 viewBox="0 0 64 64" style="enable-background:new 0 0 64 64;" xml:space="preserve">
<style type="text/css">
	.st0{display:none;fill:none;stroke:#606060;stroke-width:3;stroke-miterlimit:10;}
	.st1{fill:#606060;}
</style>
<line class="st0" x1="26" y1="37" x2="23" y2="37"/>
<g>
	<path class="st1" d="M47.4,36.5h7.1v-9h-7.1c-0.3-1.1-0.8-2.2-1.3-3.2l5.1-5.1l-6.5-6.3l-5,5c-1-0.5-2.1-1-3.2-1.3V9.5h-9v7.1
		c-1.1,0.3-2.2,0.8-3.2,1.3c0,0,0,0-0.1,0L19.3,13l-6.4,6.4l5,5c-0.6,1-1,2-1.3,3.1H9.5v9h7.1c0.3,1.1,0.8,2.2,1.3,3.2
		c0,0,0,0,0,0.1l-5,4.9l6.4,6.4l5-5c1,0.5,2.1,1,3.2,1.3v7.1h9v-7.1c1.1-0.3,2.2-0.8,3.1-1.3l5.1,5.1l6.4-6.4l-5-5c0,0,0,0,0-0.1
		C46.7,38.7,47.1,37.6,47.4,36.5z M35.1,41.5c-1,0.3-2,0.5-3.1,0.5s-2.2-0.2-3.1-0.5c-0.5-0.2-0.9-0.3-1.4-0.6
		c-1.9-1-3.5-2.5-4.4-4.4c-0.2-0.4-0.4-0.9-0.6-1.4c-0.3-1-0.5-2-0.5-3.1s0.2-2.2,0.5-3.1c0.1-0.5,0.3-0.9,0.6-1.4
		c1-1.9,2.5-3.5,4.4-4.4c0.4-0.2,0.9-0.4,1.4-0.6c1-0.3,2-0.5,3.1-0.5s2.2,0.2,3.1,0.5c0.5,0.1,0.9,0.3,1.4,0.6
		c1.9,1,3.5,2.5,4.4,4.4c0.2,0.4,0.4,0.9,0.6,1.4c0.3,1,0.5,2,0.5,3.1s-0.2,2.1-0.5,3.1c-0.1,0.5-0.3,0.9-0.6,1.4
		c-0.9,1.9-2.5,3.5-4.4,4.4C36.1,41.1,35.6,41.3,35.1,41.5z"/>
</g>
</svg>
