<?xml version="1.0" encoding="utf-8"?>
<!-- Generator: Adobe Illustrator 23.0.0, SVG Export Plug-In . SVG Version: 6.00 Build 0)  -->
<svg version="1.1" id="Layer_1" xmlns="http://www.w3.org/2000/svg" xmlns:xlink="http://www.w3.org/1999/xlink" x="0px" y="0px"
	 viewBox="0 0 64 64" style="enable-background:new 0 0 64 64;" xml:space="preserve">
<style type="text/css">
	.st0{display:none;fill:none;stroke:#606060;stroke-width:3;stroke-miterlimit:10;}
	.st1{fill:#606060;}
</style>
<line class="st0" x1="26" y1="37" x2="23" y2="37"/>
<g>
	<g>
		<g>
			<path class="st1" d="M54.5,33.5v-3h-6.6c-0.3-3.3-1.6-6.3-3.6-8.7l4.7-4.7L46.9,15l-4.7,4.7c-2.4-2-5.4-3.3-8.7-3.7V9.5h-3v6.6
				c-3.3,0.3-6.3,1.6-8.7,3.6L17.2,15l-2.1,2.1l4.7,4.7c-2,2.4-3.3,5.4-3.7,8.7H9.5v3h6.6c0.3,3.3,1.6,6.3,3.7,8.7l-4.7,4.7l2.1,2.1
				l4.7-4.7c2.4,2,5.4,3.3,8.7,3.6v6.6h3v-6.6c3.3-0.3,6.3-1.6,8.7-3.7l4.7,4.7l2.1-2.1l-4.7-4.7c2-2.4,3.3-5.4,3.6-8.7h6.5V33.5z
				 M41.3,41.1L41.3,41.1l-0.2,0.2C38.7,43.5,35.5,45,32,45s-6.7-1.5-9.1-3.7l-0.1-0.1l-0.1-0.1C20.5,38.7,19,35.5,19,32
				s1.5-6.7,3.7-9.1l0.1-0.1c0.2-0.2,0.3-0.3,0.5-0.5c2.3-2.1,5.3-3.3,8.7-3.3c3.5,0,6.7,1.4,9,3.7c0.1,0,0.1,0.1,0.2,0.1
				c0.1,0.1,0.2,0.2,0.3,0.4c0,0,0,0.1,0.1,0.1c2.1,2.3,3.4,5.4,3.4,8.8C45,35.5,43.5,38.7,41.3,41.1z"/>
			<path class="st1" d="M23.3,22.3l-0.6,0.6l0.1-0.1C23,22.6,23.1,22.5,23.3,22.3z"/>
		</g>
		<g>
			<path class="st1" d="M41.5,23.2L41,22.7c0.1,0,0.1,0.1,0.2,0.1C41.3,22.9,41.4,23,41.5,23.2z"/>
		</g>
	</g>
	<path class="st1" d="M37.7,26.3C36.2,24.9,34.2,24,32,24s-4.2,0.9-5.7,2.3C24.9,27.8,24,29.8,24,32s0.9,4.2,2.3,5.7
		c1.4,1.4,3.4,2.3,5.7,2.3s4.2-0.9,5.7-2.3c1.4-1.5,2.3-3.5,2.3-5.7S39.1,27.8,37.7,26.3z M32,37c-1.4,0-2.6-0.6-3.5-1.5
		S27,33.4,27,32s0.6-2.6,1.5-3.5S30.7,27,32,27s2.6,0.6,3.5,1.5S37,30.7,37,32s-0.6,2.6-1.5,3.5S33.4,37,32,37z"/>
</g>
</svg>
