<?xml version="1.0" encoding="utf-8"?>
<!-- Generator: Adobe Illustrator 23.0.0, SVG Export Plug-In . SVG Version: 6.00 Build 0)  -->
<svg version="1.1" id="Layer_1" xmlns="http://www.w3.org/2000/svg" xmlns:xlink="http://www.w3.org/1999/xlink" x="0px" y="0px"
	 viewBox="0 0 64 64" style="enable-background:new 0 0 64 64;" xml:space="preserve">
<style type="text/css">
	.st0{display:none;fill:none;stroke:#606060;stroke-width:3;stroke-miterlimit:10;}
	.st1{fill:#606060;}
</style>
<line class="st0" x1="26" y1="37" x2="23" y2="37"/>
<g>
	<g>
		<path class="st1" d="M18.1,18.1c-6,6-6,15.7,0,21.6c5.7,5.7,14.7,6,20.7,0.8l9.7,9.7l1.8-1.8l-9.7-9.7c5.1-6,4.8-15-0.8-20.7
			C33.8,12.2,24.1,12.2,18.1,18.1z M38,38c-5,5-13.1,5-18.1,0s-5-13.1,0-18.1s13.1-5,18.1,0S43,33,38,38z"/>
	</g>
	<g>
		<rect x="21" y="27.7" transform="matrix(0.7071 -0.7071 0.7071 0.7071 -11.9942 28.9567)" class="st1" width="16" height="2.5"/>
	</g>
</g>
</svg>
