<?xml version="1.0" encoding="utf-8"?>
<!-- Generator: Adobe Illustrator 23.0.0, SVG Export Plug-In . SVG Version: 6.00 Build 0)  -->
<svg version="1.1" id="Layer_1" xmlns="http://www.w3.org/2000/svg" xmlns:xlink="http://www.w3.org/1999/xlink" x="0px" y="0px"
	 viewBox="0 0 64 64" style="enable-background:new 0 0 64 64;" xml:space="preserve">
<style type="text/css">
	.st0{fill:#606060;}
</style>
<g>
	<path class="st0" d="M22.9,27.5v-6c0-5,4-9,9-9s9,4,9,9v2h2.9v-2c0.2-6.6-5.2-12-11.8-12s-12,5.4-12,12v6h-4v27h32v-27H22.9z
		 M45,51.5H19v-21h26V51.5z"/>
	<path class="st0" d="M34,38c0,0.7-0.4,1.4-1,1.7V44h-2v-4.3c-0.6-0.3-1-1-1-1.7c0-1.1,0.9-2,2-2S34,36.9,34,38z"/>
</g>
</svg>
