<?xml version="1.0" standalone="no"?>
<!DOCTYPE svg PUBLIC "-//W3C//DTD SVG 1.1//EN" "http://www.w3.org/Graphics/SVG/1.1/DTD/svg11.dtd" >
<svg xmlns="http://www.w3.org/2000/svg">
<metadata>Generated by IcoMoon</metadata>
<defs>
<font id="neon" horiz-adv-x="1024">
<font-face units-per-em="1024" ascent="960" descent="-64" />
<missing-glyph horiz-adv-x="1024" />
<glyph unicode="&#x20;" horiz-adv-x="512" d="" />
<glyph unicode="&#xe900;" glyph-name="add-1-bold-rounded" d="M768 448c0-8-3.2-16-9.6-22.4s-14.4-9.6-22.4-9.6h-192v-192c0-17.6-14.4-32-32-32s-32 14.4-32 32v192h-192c-17.6 0-32 14.4-32 32 0 8 3.2 16 9.6 22.4s14.4 9.6 22.4 9.6h192v192c0 17.6 14.4 32 32 32 8 0 16-3.2 22.4-9.6s9.6-14.4 9.6-22.4v-192h192c17.6 0 32-14.4 32-32z" />
<glyph unicode="&#xe901;" glyph-name="add-1-bold" d="M768 480v-64h-224v-224h-64v224h-224v64h224v224h64v-224z" />
<glyph unicode="&#xe902;" glyph-name="add-1-light-rounded" d="M768 448c0-11.2-9.6-20.8-20.8-20.8h-214.4v-216c0-11.2-9.6-20.8-20.8-20.8s-20.8 9.6-20.8 20.8v216h-214.4c-11.2 0-20.8 9.6-20.8 20.8s9.6 20.8 20.8 20.8h216v214.4c0 11.2 9.6 20.8 20.8 20.8s20.8-9.6 20.8-20.8v-216h216c8 0 17.6-8 17.6-19.2z" />
<glyph unicode="&#xe903;" glyph-name="add-1-light" d="M768 467.2v-40h-235.2v-235.2h-40v235.2h-236.8v40h236.8v236.8h40v-236.8z" />
<glyph unicode="&#xe904;" glyph-name="add-1-medium-rounded" d="M768 448c0-12.8-11.2-24-24-24h-208v-208c0-12.8-11.2-24-24-24s-24 11.2-24 24v208h-208c-12.8 0-24 11.2-24 24s11.2 24 24 24h208v208c0 12.8 11.2 24 24 24s24-11.2 24-24v-208h208c12.8 0 24-11.2 24-24z" />
<glyph unicode="&#xe905;" glyph-name="add-1-medium" d="M768 472v-48h-232v-232h-48v232h-232v48h232v232h48v-232z" />
<glyph unicode="&#xe906;" glyph-name="add-bold-rounded" d="M772.8 708.8c-67.2 65.6-160 107.2-260.8 107.2-203.2 0-368-164.8-368-368 0-100.8 41.6-193.6 107.2-260.8 67.2-65.6 160-107.2 260.8-107.2s193.6 41.6 260.8 107.2c65.6 67.2 107.2 160 107.2 260.8s-41.6 193.6-107.2 260.8zM744 424h-208v-208c0-12.8-11.2-24-24-24s-24 11.2-24 24v208h-208c-12.8 0-24 11.2-24 24s11.2 24 24 24h208v208c0 12.8 11.2 24 24 24s24-11.2 24-24v-208h208c12.8 0 24-11.2 24-24s-11.2-24-24-24z" />
<glyph unicode="&#xe907;" glyph-name="add-bold" d="M144 816v-736h736v736h-736zM744 424h-208v-208c0-12.8-11.2-24-24-24s-24 11.2-24 24v208h-208c-12.8 0-24 11.2-24 24s11.2 24 24 24h208v208c0 12.8 11.2 24 24 24s24-11.2 24-24v-208h208c12.8 0 24-11.2 24-24s-11.2-24-24-24z" />
<glyph unicode="&#xe908;" glyph-name="add-light-rounded" d="M768 448c0-11.2-9.6-20.8-20.8-20.8h-214.4v-216c0-11.2-9.6-20.8-20.8-20.8s-20.8 9.6-20.8 20.8v216h-214.4c-11.2 0-20.8 9.6-20.8 20.8s9.6 20.8 20.8 20.8h216v214.4c0 11.2 9.6 20.8 20.8 20.8s20.8-9.6 20.8-20.8v-216h216c8 0 17.6-8 17.6-19.2zM512 776c180.8 0 328-147.2 328-328s-147.2-328-328-328c-180.8 0-328 147.2-328 328s147.2 328 328 328zM512 816v0c-203.2 0-368-164.8-368-368v0c0-203.2 164.8-368 368-368v0c203.2 0 368 164.8 368 368v0c0 203.2-164.8 368-368 368v0z" />
<glyph unicode="&#xe909;" glyph-name="add-light" d="M840 776v-656h-656v656h656zM880 816h-736v-736h736v736zM768 472v-48h-232v-232h-48v232h-232v48h232v232h48v-232z" />
<glyph unicode="&#xe90a;" glyph-name="add-medium-rounded" d="M768 448c0-12.8-11.2-24-24-24h-208v-208c0-12.8-11.2-24-24-24s-24 11.2-24 24v208h-208c-12.8 0-24 11.2-24 24s11.2 24 24 24h208v208c0 12.8 11.2 24 24 24s24-11.2 24-24v-208h208c12.8 0 24-11.2 24-24zM512 768c176 0 320-144 320-320s-144-320-320-320c-176 0-320 144-320 320s144 320 320 320zM512 816v0c-203.2 0-368-164.8-368-368v0c0-203.2 164.8-368 368-368v0c203.2 0 368 164.8 368 368v0c0 203.2-164.8 368-368 368v0z" />
<glyph unicode="&#xe90b;" glyph-name="add-medium" d="M832 768v-640h-640v640h640zM880 816h-736v-736h736v736zM768 472v-48h-232v-232h-48v232h-232v48h232v232h48v-232z" />
<glyph unicode="&#xe90c;" glyph-name="airplane-bold" d="M580.8 424l-12.8-152 80-80v-78.4l-136 57.6-136-57.6v96l78.4 64-12.8 148.8-259.2-80v94.4l238.4 142.4c-4.8 44.8-11.2 169.6 83.2 201.6l4.8 1.6 6.4-1.6c3.2 0 36.8-6.4 62.4-43.2s33.6-91.2 24-160l236.8-126.4v-92.8l-257.6 65.6z" />
<glyph unicode="&#xe90d;" glyph-name="airplane-light" d="M512 761.6c0 0 96-16 64-192l240-128v-48l-256 64-16-192 80-80v-32l-112 48-112-48v48l80 64-16 192-256-80v48l240 144c0 0-32 160 64 192zM508.8 803.2l-9.6-3.2c-89.6-30.4-102.4-136-94.4-209.6l-217.6-129.6-19.2-12.8v-124.8l51.2 16 208 65.6 9.6-121.6-64-51.2-14.4-12.8v-128l56 24 96 41.6 96-41.6 56-24v108.8l-78.4 78.4 11.2 126.4 209.6-52.8 49.6-12.8v123.2l-20.8 11.2-214.4 118.4c8 67.2-1.6 121.6-28.8 160-28.8 41.6-68.8 49.6-72 49.6l-9.6 1.6z" />
<glyph unicode="&#xe90e;" glyph-name="airplane-medium" d="M512 763.2c0 0 96-16 64-192l240-128v-48l-256 64-16-192 80-80v-32l-112 48-112-48v48l80 64-16 192-256-80v48l240 144c0 0-32 160 64 192zM508.8 812.8l-11.2-3.2c-92.8-30.4-107.2-136-100.8-212.8l-236.8-142.4v-140.8l62.4 19.2 198.4 62.4 9.6-107.2-60.8-48-17.6-12.8v-142.4l67.2 28.8 92.8 40 92.8-40 67.2-28.8v123.2l-78.4 78.4 9.6 113.6 260.8-64v137.6l-25.6 12.8-209.6 112c6.4 67.2-3.2 120-30.4 160-30.4 43.2-70.4 51.2-78.4 52.8l-11.2 1.6z" />
<glyph unicode="&#xe90f;" glyph-name="align-bottom-bold" d="M403.2 424h64v-240h-64v240zM712 424h64v-240h-64v240zM248 712h64v-528h-64v528zM556.8 712h64v-528h-64v528z" />
<glyph unicode="&#xe910;" glyph-name="align-bottom-light" d="M414.4 424h40v-240h-40v240zM724.8 424h40v-240h-40v240zM260.8 712h40v-528h-40v528zM568 712h40v-528h-40v528z" />
<glyph unicode="&#xe911;" glyph-name="align-bottom-medium" d="M411.2 424h48v-240h-48v240zM720 424h48v-240h-48v240zM256 712h48v-528h-48v528zM564.8 712h48v-528h-48v528z" />
<glyph unicode="&#xe912;" glyph-name="align-center-bold" d="M392 556.8h240v-64h-240v64zM392 248h240v-64h-240v64zM248 712h528v-64h-528v64zM248 403.2h528v-64h-528v64z" />
<glyph unicode="&#xe913;" glyph-name="align-center-light" d="M392 545.6h240v-40h-240v40zM392 235.2h240v-40h-240v40zM248 699.2h528v-40h-528v40zM248 392h528v-40h-528v40z" />
<glyph unicode="&#xe914;" glyph-name="align-center-medium" d="M411.2 568h48v-240h-48v240zM720 568h48v-240h-48v240zM256 712h48v-528h-48v528zM564.8 712h48v-528h-48v528z" />
<glyph unicode="&#xe915;" glyph-name="align-center-vertical-bold" d="M403.2 568h64v-240h-64v240zM712 568h64v-240h-64v240zM248 712h64v-528h-64v528zM556.8 712h64v-528h-64v528z" />
<glyph unicode="&#xe916;" glyph-name="align-center-vertical-light" d="M414.4 568h40v-240h-40v240zM724.8 568h40v-240h-40v240zM260.8 712h40v-528h-40v528zM569.6 712h40v-528h-40v528z" />
<glyph unicode="&#xe917;" glyph-name="align-left-bold" d="M248 556.8h240v-64h-240v64zM248 248h240v-64h-240v64zM248 712h528v-64h-528v64zM248 403.2h528v-64h-528v64z" />
<glyph unicode="&#xe918;" glyph-name="align-left-light" d="M248 545.6h240v-40h-240v40zM248 235.2h240v-40h-240v40zM248 699.2h528v-40h-528v40zM248 390.4h528v-40h-528v40z" />
<glyph unicode="&#xe919;" glyph-name="align-left-medium" d="M248 548.8h240v-48h-240v48zM248 240h240v-48h-240v48zM248 704h528v-48h-528v48zM248 395.2h528v-48h-528v48z" />
<glyph unicode="&#xe91a;" glyph-name="align-light" d="M248 694.4h528v-40h-528v40zM248 392h528v-40h-528v40zM248 241.6h528v-40h-528v40zM248 544h528v-40h-528v40z" />
<glyph unicode="&#xe91b;" glyph-name="align-right-bold" d="M536 556.8h240v-64h-240v64zM536 248h240v-64h-240v64zM248 712h528v-64h-528v64zM248 403.2h528v-64h-528v64z" />
<glyph unicode="&#xe91c;" glyph-name="align-right-light" d="M536 545.6h240v-40h-240v40zM536 235.2h240v-40h-240v40zM248 699.2h528v-40h-528v40zM248 392h528v-40h-528v40z" />
<glyph unicode="&#xe91d;" glyph-name="align-right-medium" d="M536 548.8h240v-48h-240v48zM536 240h240v-48h-240v48zM248 704h528v-48h-528v48zM248 395.2h528v-48h-528v48z" />
<glyph unicode="&#xe91e;" glyph-name="align-top-bold" d="M403.2 712h64v-240h-64v240zM712 712h64v-240h-64v240zM248 712h64v-528h-64v528zM556.8 712h64v-528h-64v528z" />
<glyph unicode="&#xe91f;" glyph-name="align-top-light" d="M414.4 712h40v-240h-40v240zM724.8 712h40v-240h-40v240zM260.8 712h40v-528h-40v528zM569.6 712h40v-528h-40v528z" />
<glyph unicode="&#xe920;" glyph-name="align-top-medium" d="M411.2 712h48v-240h-48v240zM720 712h48v-240h-48v240zM256 712h48v-528h-48v528zM564.8 712h48v-528h-48v528z" />
<glyph unicode="&#xe921;" glyph-name="arrow-down-1-bold" d="M512 816c-203.2 0-368-164.8-368-368s164.8-368 368-368 368 164.8 368 368-164.8 368-368 368zM512 188.8l-276.8 276.8 33.6 33.6 219.2-219.2v427.2h48v-425.6l219.2 219.2 33.6-33.6-276.8-278.4z" />
<glyph unicode="&#xe922;" glyph-name="arrow-down-1-light" d="M512 776c180.8 0 328-147.2 328-328s-147.2-328-328-328-328 147.2-328 328 147.2 328 328 328zM512 816c-203.2 0-368-164.8-368-368s164.8-368 368-368 368 164.8 368 368-164.8 368-368 368v0zM785.6 465.6l-273.6-273.6-273.6 273.6 27.2 28.8 227.2-225.6v435.2h40v-435.2l225.6 225.6z" />
<glyph unicode="&#xe923;" glyph-name="arrow-down-1-medium" d="M512 768c176 0 320-144 320-320s-144-320-320-320-320 144-320 320 144 320 320 320zM512 816c-203.2 0-368-164.8-368-368s164.8-368 368-368 368 164.8 368 368-164.8 368-368 368v0zM788.8 465.6l-276.8-276.8-276.8 276.8 33.6 33.6 219.2-219.2v427.2h48v-427.2l219.2 219.2z" />
<glyph unicode="&#xe924;" glyph-name="arrow-down-bold" d="M886.4 460.8l-44.8 46.4-297.6-297.6v600h-64v-600l-297.6 297.6-44.8-46.4 374.4-374.4 32 32z" />
<glyph unicode="&#xe925;" glyph-name="arrow-down-light" d="M878.4 460.8l-366.4-364.8-366.4 364.8 28.8 28.8 318.4-318.4v628.8h40v-628.8l316.8 318.4z" />
<glyph unicode="&#xe926;" glyph-name="arrow-down-medium" d="M881.6 460.8l-369.6-368-369.6 368 35.2 35.2 310.4-312v619.2h48v-619.2l310.4 312z" />
<glyph unicode="&#xe927;" glyph-name="arrow-left-1-bold" d="M880 448c0 203.2-164.8 368-368 368s-368-164.8-368-368 164.8-368 368-368 368 164.8 368 368zM252.8 448l276.8 276.8 33.6-33.6-219.2-219.2h427.2v-48h-425.6l219.2-219.2-33.6-33.6-278.4 276.8z" />
<glyph unicode="&#xe928;" glyph-name="arrow-left-1-light" d="M840 448c0-180.8-147.2-328-328-328s-328 147.2-328 328 147.2 328 328 328 328-147.2 328-328zM880 448c0 203.2-164.8 368-368 368s-368-164.8-368-368 164.8-368 368-368 368 164.8 368 368v0zM529.6 174.4l-273.6 273.6 273.6 273.6 28.8-27.2-225.6-227.2h435.2v-40h-435.2l225.6-225.6z" />
<glyph unicode="&#xe929;" glyph-name="arrow-left-1-medium" d="M832 448c0-176-144-320-320-320s-320 144-320 320 144 320 320 320 320-144 320-320zM880 448c0 203.2-164.8 368-368 368s-368-164.8-368-368 164.8-368 368-368 368 164.8 368 368v0zM529.6 171.2l-276.8 276.8 276.8 276.8 33.6-33.6-219.2-219.2h427.2v-48h-427.2l219.2-219.2z" />
<glyph unicode="&#xe92a;" glyph-name="arrow-left-bold" d="M524.8 73.6l46.4 44.8-297.6 297.6h600v64h-600l297.6 297.6-46.4 44.8-374.4-374.4 32-32z" />
<glyph unicode="&#xe92b;" glyph-name="arrow-left-light" d="M524.8 81.6l-364.8 366.4 364.8 366.4 28.8-28.8-318.4-318.4h628.8v-40h-628.8l318.4-316.8z" />
<glyph unicode="&#xe92c;" glyph-name="arrow-left-medium" d="M524.8 78.4l-368 369.6 368 369.6 35.2-35.2-312-310.4h619.2v-48h-619.2l312-310.4z" />
<glyph unicode="&#xe92d;" glyph-name="arrow-right-1-bold" d="M512 80c203.2 0 368 164.8 368 368s-164.8 368-368 368-368-164.8-368-368 164.8-368 368-368zM492.8 171.2l-33.6 33.6 219.2 219.2h-425.6v48h427.2l-219.2 219.2 33.6 33.6 276.8-276.8-278.4-276.8z" />
<glyph unicode="&#xe92e;" glyph-name="arrow-right-1-light" d="M184 448c0 180.8 147.2 328 328 328s328-147.2 328-328-147.2-328-328-328-328 147.2-328 328zM144 448c0-203.2 164.8-368 368-368s368 164.8 368 368-164.8 368-368 368-368-164.8-368-368v0zM465.6 201.6l225.6 225.6h-435.2v40h435.2l-225.6 227.2 28.8 27.2 273.6-273.6-273.6-273.6z" />
<glyph unicode="&#xe92f;" glyph-name="arrow-right-1-medium" d="M192 448c0 176 144 320 320 320s320-144 320-320-144-320-320-320-320 144-320 320zM144 448c0-203.2 164.8-368 368-368s368 164.8 368 368-164.8 368-368 368-368-164.8-368-368v0zM460.8 204.8l219.2 219.2h-427.2v48h427.2l-219.2 219.2 33.6 33.6 276.8-276.8-276.8-276.8z" />
<glyph unicode="&#xe930;" glyph-name="arrow-right-bold" d="M841.6 416l32 32-374.4 374.4-46.4-44.8 297.6-297.6h-600v-64h600l-297.6-297.6 46.4-44.8z" />
<glyph unicode="&#xe931;" glyph-name="arrow-right-light" d="M470.4 110.4l318.4 316.8h-628.8v40h628.8l-318.4 318.4 28.8 28.8 364.8-366.4-364.8-366.4z" />
<glyph unicode="&#xe932;" glyph-name="arrow-right-medium" d="M464 113.6l312 310.4h-619.2v48h619.2l-312 310.4 35.2 35.2 368-369.6-368-369.6z" />
<glyph unicode="&#xe933;" glyph-name="arrow-up-1-bold" d="M880 448c0 203.2-164.8 368-368 368s-368-164.8-368-368 164.8-368 368-368 368 164.8 368 368zM788.8 428.8l-33.6-33.6-219.2 219.2v-425.6h-48v427.2l-219.2-219.2-33.6 33.6 276.8 276.8 276.8-278.4z" />
<glyph unicode="&#xe934;" glyph-name="arrow-up-1-light" d="M512 120c-180.8 0-328 147.2-328 328s147.2 328 328 328 328-147.2 328-328-147.2-328-328-328zM512 80c203.2 0 368 164.8 368 368s-164.8 368-368 368-368-164.8-368-368 164.8-368 368-368v0zM758.4 401.6l-225.6 225.6v-435.2h-40v435.2l-227.2-225.6-27.2 28.8 273.6 273.6 273.6-273.6z" />
<glyph unicode="&#xe935;" glyph-name="arrow-up-1-medium" d="M512 128c-176 0-320 144-320 320s144 320 320 320 320-144 320-320-144-320-320-320zM512 80c203.2 0 368 164.8 368 368s-164.8 368-368 368-368-164.8-368-368 164.8-368 368-368v0zM755.2 396.8l-219.2 219.2v-427.2h-48v427.2l-219.2-219.2-33.6 33.6 276.8 276.8 276.8-276.8z" />
<glyph unicode="&#xe936;" glyph-name="arrow-up-bold" d="M544 777.6l-32 32-374.4-374.4 44.8-46.4 297.6 297.6v-600h64v600l297.6-297.6 44.8 46.4z" />
<glyph unicode="&#xe937;" glyph-name="arrow-up-light" d="M849.6 406.4l-316.8 318.4v-628.8h-40v628.8l-318.4-318.4-28.8 28.8 366.4 364.8 366.4-364.8z" />
<glyph unicode="&#xe938;" glyph-name="arrow-up-medium" d="M846.4 400l-310.4 312v-619.2h-48v619.2l-310.4-312-35.2 35.2 369.6 368 369.6-368z" />
<glyph unicode="&#xe939;" glyph-name="bin-bold" d="M640 739.2v48h-256v-48h-240v-48h67.2l60.8-584h480l60.8 584h67.2v48h-240zM424 259.2h-48v352h48v-352zM536 259.2h-48v352h48v-352zM648 259.2h-48v352h48v-352z" />
<glyph unicode="&#xe93a;" glyph-name="bin-light" d="M640 753.6v32h-256v-32h-240v-40h65.6l62.4-603.2h480l62.4 604.8h65.6v40h-240zM715.2 150.4h-406.4l-56 544h520l-57.6-544zM492.8 614.4h40v-352h-40v352zM604.8 614.4h40v-352h-40v352zM380.8 614.4h40v-352h-40v352z" />
<glyph unicode="&#xe93b;" glyph-name="bin-medium" d="M640 739.2v48h-256v-48h-240v-48h67.2l60.8-584h480l60.8 584h67.2v48h-240zM708.8 155.2h-393.6l-54.4 512h500.8l-52.8-512zM488 611.2h48v-352h-48v352zM600 611.2h48v-352h-48v352zM376 611.2h48v-352h-48v352z" />
<glyph unicode="&#xe93c;" glyph-name="book-bold" d="M320 808c-65.6 0-120-52.8-120-120v-480c0-46.4 25.6-86.4 64-105.6 16-8 35.2-14.4 56-14.4h504v720h-504zM760 152h-440c-30.4 0-56 25.6-56 56v0c0 30.4 25.6 56 56 56h440v-112zM320 328c-20.8 0-40-4.8-56-14.4v374.4c0 30.4 25.6 56 56 56h440v-416h-440z" />
<glyph unicode="&#xe93d;" glyph-name="book-light" d="M320 808c-65.6 0-120-52.8-120-120v-480c0-35.2 16-67.2 40-89.6 20.8-19.2 49.6-30.4 80-30.4h504v720h-504zM784 128h-464c-44.8 0-80 35.2-80 80v0c0 44.8 35.2 80 80 80h464v-160zM320 328c-30.4 0-59.2-11.2-80-30.4v390.4c0 44.8 35.2 80 80 80h464v-440h-464z" />
<glyph unicode="&#xe93e;" glyph-name="book-medium" d="M320 808c-65.6 0-120-52.8-120-120v-480c0-40 19.2-73.6 48-96 20.8-14.4 44.8-24 72-24h504v720h-504zM776 136h-456c-40 0-72 32-72 72v0c0 40 32 72 72 72h456v-144zM320 328c-27.2 0-51.2-9.6-72-24v384c0 40 32 72 72 72h456v-432h-456z" />
<glyph unicode="&#xe93f;" glyph-name="books-bold" d="M163.2 694.4h184v-88h-184v88zM163.2 558.4h184v-272h-184v272zM163.2 238.4h184v-56h-184v56zM419.2 694.4h184v-88h-184v88zM419.2 558.4h184v-272h-184v272zM419.2 238.4h184v-56h-184v56zM609.274 689.539l182.326 24.785 11.854-87.199-182.326-24.785-11.854 87.199zM846.4 310.4l-182.4-25.6-36.8 270.4 182.4 24zM670.728 236.893l182.326 24.785 7.543-55.49-182.326-24.785-7.543 55.49z" />
<glyph unicode="&#xe940;" glyph-name="books-light" d="M163.2 694.4v-512h184v512h-184zM307.2 222.4h-104v20.8h104v-20.8zM307.2 281.6h-104v280h104v-280zM203.2 601.6v52.8h104v-52.8h-104zM419.2 694.4v-512h184v512h-184zM563.2 222.4h-104v20.8h104v-20.8zM563.2 281.6h-104v280h104v-280zM459.2 601.6v52.8h104v-52.8h-104zM852.8 265.6l-4.8 40-38.4 276.8-4.8 40-12.8 91.2-182.4-24 12.8-91.2 4.8-40 36.8-276.8 4.8-40 8-59.2 182.4 24-6.4 59.2zM654.4 654.4l102.4 14.4 6.4-51.2-102.4-14.4-6.4 51.2zM667.2 563.2l102.4 14.4 38.4-276.8-104-14.4-36.8 276.8zM712 227.2l-3.2 20.8 102.4 14.4 3.2-19.2-102.4-16z" />
<glyph unicode="&#xe941;" glyph-name="books-medium" d="M132.8 694.4v-512h184v512h-184zM268.8 230.4h-88v8h88v-8zM268.8 286.4h-88v272h88v-272zM180.8 606.4v40h88v-40h-88zM388.8 694.4v-512h184v512h-184zM524.8 230.4h-88v8h88v-8zM524.8 286.4h-88v272h88v-272zM436.8 606.4v40h88v-40h-88zM822.4 262.4l-6.4 48-36.8 268.8-6.4 48-11.2 88-182.4-24 11.2-88 6.4-48 36.8-270.4 6.4-48 8-56 182.4 24-8 57.6zM632 648l86.4 11.2 4.8-40-84.8-11.2-6.4 40zM644.8 561.6l86.4 11.2 36.8-268.8-88-11.2-35.2 268.8zM688 235.2v8l88 12.8 1.6-8-89.6-12.8z" />
<glyph unicode="&#xe942;" glyph-name="briefcase-bold" d="M684.8 595.2v168h-344v-168h-188.8v-464h720v464h-187.2zM388.8 715.2h248v-120h-248v120z" />
<glyph unicode="&#xe943;" glyph-name="briefcase-light" d="M684.8 595.2v168h-344v-168h-188.8v-464h720v464h-187.2zM380.8 723.2h264v-128h-264v128zM832 171.2h-640v384h640v-384z" />
<glyph unicode="&#xe944;" glyph-name="briefcase-medium" d="M684.8 595.2v168h-344v-168h-188.8v-464h720v464h-187.2zM388.8 715.2h248v-120h-248v120zM824 179.2h-624v368h624v-368z" />
<glyph unicode="&#xe945;" glyph-name="browser-outline-bold" d="M152 808v-235.2h720v235.2h-720zM286.4 643.2c-16 0-30.4 12.8-30.4 30.4 0 16 12.8 30.4 30.4 30.4 16 0 30.4-12.8 30.4-30.4 0-16-14.4-30.4-30.4-30.4zM400 643.2c-16 0-30.4 12.8-30.4 30.4 0 16 12.8 30.4 30.4 30.4s30.4-12.8 30.4-30.4c0-16-14.4-30.4-30.4-30.4zM513.6 643.2c-16 0-30.4 12.8-30.4 30.4 0 16 12.8 30.4 30.4 30.4 16 0 30.4-12.8 30.4-30.4 0-16-12.8-30.4-30.4-30.4zM152 524.8v-436.8h720v436.8h-720z" />
<glyph unicode="&#xe946;" glyph-name="browser-outline-light" d="M152 808v-720h720v720h-720zM192 768h640v-198.4h-640v198.4zM832 128h-640v401.6h640v-401.6zM316.8 657.6c0-16.789-13.611-30.4-30.4-30.4s-30.4 13.611-30.4 30.4c0 16.789 13.611 30.4 30.4 30.4s30.4-13.611 30.4-30.4zM430.4 657.6c0-16.789-13.611-30.4-30.4-30.4s-30.4 13.611-30.4 30.4c0 16.789 13.611 30.4 30.4 30.4s30.4-13.611 30.4-30.4zM544 657.6c0-16.789-13.611-30.4-30.4-30.4s-30.4 13.611-30.4 30.4c0 16.789 13.611 30.4 30.4 30.4s30.4-13.611 30.4-30.4z" />
<glyph unicode="&#xe947;" glyph-name="browser-outline-medium" d="M152 808v-720h720v720h-720zM200 760h624v-187.2h-624v187.2zM824 136h-624v388.8h624v-388.8zM316.8 657.6c0-16.789-13.611-30.4-30.4-30.4s-30.4 13.611-30.4 30.4c0 16.789 13.611 30.4 30.4 30.4s30.4-13.611 30.4-30.4zM430.4 657.6c0-16.789-13.611-30.4-30.4-30.4s-30.4 13.611-30.4 30.4c0 16.789 13.611 30.4 30.4 30.4s30.4-13.611 30.4-30.4zM544 657.6c0-16.789-13.611-30.4-30.4-30.4s-30.4 13.611-30.4 30.4c0 16.789 13.611 30.4 30.4 30.4s30.4-13.611 30.4-30.4z" />
<glyph unicode="&#xe948;" glyph-name="brush-bold-rounded" d="M278.4 177.6c1.6-6.4 9.6-8 14.4-3.2 19.2 22.4 60.8 67.2 104 81.6 0 0 134.4 33.6 132.8 131.2l211.2 211.2c28.8 28.8 28.8 73.6 0 102.4v0c-28.8 28.8-73.6 28.8-102.4 0l-222.4-222.4c-52.8-14.4-204.8-76.8-137.6-300.8z" />
<glyph unicode="&#xe949;" glyph-name="brush-bold" d="M268.8 153.6c0 0 56 75.2 113.6 94.4 0 0 134.4 33.6 132.8 131.2l262.4 262.4-102.4 102.4-273.6-275.2c-54.4-14.4-211.2-80-132.8-315.2z" />
<glyph unicode="&#xe94a;" glyph-name="brush-light-rounded" d="M689.6 683.2c8 0 16-3.2 22.4-9.6 12.8-12.8 12.8-33.6 0-46.4l-222.4-220.8v-17.6c1.6-64-100.8-91.2-102.4-91.2h-3.2c-28.8-9.6-57.6-30.4-80-51.2-6.4 46.4-1.6 86.4 16 118.4 28.8 51.2 83.2 70.4 105.6 76.8l11.2 3.2 8 8 222.4 224c6.4 3.2 14.4 6.4 22.4 6.4zM689.6 723.2c-19.2 0-36.8-6.4-51.2-20.8l-222.4-224c-52.8-14.4-204.8-76.8-137.6-300.8 1.6-3.2 4.8-6.4 8-6.4 1.6 0 4.8 1.6 6.4 3.2 19.2 22.4 60.8 67.2 104 81.6 0 0 134.4 33.6 132.8 131.2l211.2 211.2c28.8 28.8 28.8 73.6 0 102.4v0c-14.4 16-32 22.4-51.2 22.4v0z" />
<glyph unicode="&#xe94b;" glyph-name="brush-light" d="M675.2 688l44.8-44.8-244.8-246.4v-16c0-65.6-102.4-92.8-104-92.8h-3.2c-28.8-9.6-57.6-30.4-80-49.6-6.4 46.4-1.6 84.8 16 115.2 28.8 52.8 84.8 73.6 107.2 80l9.6 3.2 8 8 246.4 243.2zM675.2 742.4l-273.6-273.6c-54.4-14.4-211.2-80-132.8-316.8 0 0 56 75.2 113.6 94.4 0 0 134.4 33.6 132.8 131.2l262.4 262.4-102.4 102.4z" />
<glyph unicode="&#xe94c;" glyph-name="brush-medium-rounded" d="M689.6 675.2c3.2 0 11.2-1.6 17.6-6.4 9.6-9.6 9.6-25.6 0-33.6l-225.6-227.2v-20.8c1.6-57.6-96-83.2-96-83.2h-3.2c-25.6-8-49.6-24-70.4-41.6-3.2 38.4 3.2 72 17.6 97.6 27.2 49.6 78.4 67.2 100.8 72l12.8 3.2 9.6 9.6 222.4 224c3.2 6.4 11.2 6.4 14.4 6.4zM689.6 723.2c-19.2 0-36.8-6.4-51.2-20.8l-222.4-224c-52.8-14.4-204.8-76.8-137.6-300.8 1.6-3.2 4.8-6.4 8-6.4 1.6 0 4.8 1.6 6.4 3.2 19.2 22.4 60.8 67.2 104 81.6 0 0 134.4 33.6 132.8 131.2l211.2 211.2c28.8 28.8 28.8 73.6 0 102.4v0c-14.4 16-32 22.4-51.2 22.4v0z" />
<glyph unicode="&#xe94d;" glyph-name="brush-medium" d="M675.2 675.2l33.6-33.6-241.6-243.2v-19.2c0-59.2-96-84.8-97.6-84.8h-3.2c-25.6-8-49.6-24-70.4-41.6-3.2 36.8 1.6 70.4 16 96 27.2 49.6 80 70.4 102.4 76.8l12.8 3.2 9.6 9.6 238.4 236.8zM675.2 742.4l-273.6-273.6c-54.4-14.4-211.2-80-132.8-316.8 0 0 56 75.2 113.6 94.4 0 0 134.4 33.6 132.8 131.2l262.4 262.4-102.4 102.4z" />
<glyph unicode="&#xe94e;" glyph-name="bubble-chat-bold-2" d="M872 776v-512h-470.4l-145.6-144 1.6 144h-105.6v512z" />
<glyph unicode="&#xe94f;" glyph-name="bubble-chat-bold" d="M864 448c0-168-158.4-304-352-304-81.6 0-156.8 24-217.6 64l-134.4-64 51.2 145.6c-32 46.4-51.2 100.8-51.2 158.4 0 168 156.8 304 352 304 193.6 0 352-136 352-304z" />
<glyph unicode="&#xe950;" glyph-name="bubble-chat-light-2" d="M832 736v-432h-446.4l-88-88v88h-105.6v432h640zM872 776h-720v-512h105.6l-1.6-144 145.6 144h470.4v512z" />
<glyph unicode="&#xe951;" glyph-name="bubble-chat-light" d="M512 712c172.8 0 312-118.4 312-264s-139.2-264-312-264c-72 0-139.2 20.8-195.2 57.6l-19.2 12.8-20.8-9.6-48-22.4 19.2 54.4 6.4 19.2-11.2 17.6c-28.8 40-43.2 88-43.2 134.4 0 145.6 139.2 264 312 264zM512 752c-195.2 0-352-136-352-304 0-57.6 19.2-112 51.2-158.4l-51.2-145.6 134.4 64c59.2-40 134.4-64 217.6-64 193.6 0 352 136 352 304s-158.4 304-352 304v0z" />
<glyph unicode="&#xe952;" glyph-name="bubble-chat-medium-2" d="M824 728v-416h-441.6l-14.4-12.8-64-62.4v76.8h-105.6v416h625.6zM872 776h-720v-512h105.6l-1.6-144 145.6 144h470.4v512z" />
<glyph unicode="&#xe953;" glyph-name="bubble-chat-medium" d="M512 704c168 0 304-115.2 304-256s-136-256-304-256c-70.4 0-136 19.2-190.4 56l-22.4 16-25.6-11.2-30.4-14.4 12.8 36.8 8 24-14.4 20.8c-27.2 36.8-41.6 81.6-41.6 128 0 140.8 136 256 304 256zM512 752c-195.2 0-352-136-352-304 0-57.6 19.2-112 51.2-158.4l-51.2-145.6 134.4 64c59.2-40 134.4-64 217.6-64 193.6 0 352 136 352 304s-158.4 304-352 304v0z" />
<glyph unicode="&#xe954;" glyph-name="bucket-bold" d="M595.2 800h-166.4c-140.8 0-254.4-113.6-254.4-254.4v-9.6h44.8l40-440h505.6l40 440h44.8v9.6c0 140.8-113.6 254.4-254.4 254.4zM428.8 745.6h166.4c94.4 0 174.4-67.2 195.2-155.2h-556.8c20.8 88 100.8 155.2 195.2 155.2z" />
<glyph unicode="&#xe955;" glyph-name="bucket-light" d="M595.2 819.2h-166.4c-152 0-273.6-123.2-273.6-275.2v-28.8h46.4l40-440h542.4l40 440h46.4v28.8c-1.6 153.6-123.2 275.2-275.2 275.2zM428.8 779.2h166.4c124.8 0 225.6-97.6 233.6-219.2h-633.6c8 123.2 108.8 219.2 233.6 219.2zM747.2 115.2h-470.4l-36.8 404.8h544l-36.8-404.8z" />
<glyph unicode="&#xe956;" glyph-name="bucket-medium" d="M595.2 824h-166.4c-153.6 0-278.4-124.8-278.4-278.4v-33.6h46.4l40-440h548.8l41.6 440h46.4v33.6c0 153.6-124.8 278.4-278.4 278.4zM428.8 776h166.4c120 0 219.2-92.8 228.8-211.2h-624c9.6 118.4 108.8 211.2 228.8 211.2zM742.4 120h-460.8l-36.8 396.8h534.4l-36.8-396.8z" />
<glyph unicode="&#xe957;" glyph-name="calendar-bold" d="M728 707.2v96h-64v-96h-120v96h-64v-96h-120v96h-64v-96h-144v-616h720v616h-144zM808 155.2h-592v328h592v-328zM216 547.2v96h80v-48h64v48h120v-48h64v48h120v-48h64v48h80v-96h-592zM480 419.2h64v-52.8h-64v52.8zM664 419.2h64v-52.8h-64v52.8zM296 419.2h64v-52.8h-64v52.8zM480 291.2h64v-52.8h-64v52.8zM664 291.2h64v-52.8h-64v52.8zM296 291.2h64v-52.8h-64v52.8z" />
<glyph unicode="&#xe958;" glyph-name="calendar-light" d="M716.8 707.2v96h-40v-96h-144v96h-40v-96h-144v96h-40v-96h-156.8v-616h720v616h-155.2zM832 131.2h-640v376h640v-376zM192 547.2v120h116.8v-72h40v72h144v-72h40v72h144v-72h40v72h115.2v-120h-640zM492.8 419.2h40v-52.8h-40v52.8zM676.8 419.2h40v-52.8h-40v52.8zM308.8 419.2h40v-52.8h-40v52.8zM492.8 291.2h40v-52.8h-40v52.8zM676.8 291.2h40v-52.8h-40v52.8zM308.8 291.2h40v-52.8h-40v52.8z" />
<glyph unicode="&#xe959;" glyph-name="calendar-medium" d="M720 707.2v96h-48v-96h-136v96h-48v-96h-136v96h-48v-96h-152v-616h720v616h-152zM824 139.2h-624v360h624v-360zM200 547.2v112h104v-64h48v64h136v-64h48v64h136v-64h48v64h104v-112h-624zM488 419.2h48v-52.8h-48v52.8zM672 419.2h48v-52.8h-48v52.8zM304 419.2h48v-52.8h-48v52.8zM488 291.2h48v-52.8h-48v52.8zM672 291.2h48v-52.8h-48v52.8zM304 291.2h48v-52.8h-48v52.8z" />
<glyph unicode="&#xe95a;" glyph-name="camera-bold-rounded" d="M512 456c40 0 72-36.8 62.4-78.4-4.8-22.4-24-41.6-46.4-46.4-43.2-11.2-80 20.8-80 60.8 0 35.2 28.8 64 64 64v0zM512 520c-78.4 0-140.8-72-124.8-153.6 9.6-49.6 49.6-89.6 99.2-99.2 81.6-16 153.6 46.4 153.6 124.8 0 70.4-57.6 128-128 128v0zM668.8 648l-22.4 86.4c-3.2 14.4-17.6 25.6-32 25.6h-198.4c-19.2 0-35.2-12.8-38.4-30.4l-20.8-81.6h-171.2c-17.6 0-33.6-14.4-33.6-33.6v-446.4c0-17.6 14.4-32 32-32h656c17.6 0 32 14.4 32 32v448c0 17.6-14.4 32-32 32h-171.2zM452.8 696h120c11.2 0 20.8-8 24-17.6l8-30.4h-184l8 30.4c3.2 9.6 12.8 17.6 24 17.6zM776 200h-528c-17.6 0-32 14.4-32 32v318.4c0 17.6 14.4 33.6 33.6 33.6h526.4c17.6 0 32-14.4 32-32v-320c0-17.6-14.4-32-32-32zM840 696h-48c-17.6 0-32 14.4-32 32v0c0 17.6 14.4 32 32 32h48c17.6 0 32-14.4 32-32v0c0-17.6-14.4-32-32-32z" />
<glyph unicode="&#xe95b;" glyph-name="camera-bold" d="M512 456c35.2 0 64-28.8 64-64s-28.8-64-64-64-64 28.8-64 64 28.8 64 64 64v0zM512 520c-70.4 0-128-57.6-128-128s57.6-128 128-128 128 57.6 128 128-57.6 128-128 128v0zM668.8 648l-28.8 112h-256l-28.8-112h-203.2v-512h720v512h-203.2zM433.6 696h156.8l12.8-48h-182.4l12.8 48zM808 200h-592v384h592v-384zM760 760h112v-64h-112v64z" />
<glyph unicode="&#xe95c;" glyph-name="camera-light-rounded" d="M668.8 648l-25.6 99.2c-1.6 6.4-8 12.8-16 12.8h-230.4c-8 0-14.4-4.8-16-11.2l-25.6-100.8h-185.6c-9.6 0-17.6-8-17.6-17.6v-478.4c0-9.6 8-16 16-16h686.4c9.6 0 16 8 16 16v480c0 9.6-8 16-16 16h-185.6zM427.2 720h168c8 0 14.4-4.8 16-12.8l16-59.2h-230.4l14.4 59.2c1.6 8 8 12.8 16 12.8zM816 176h-608c-9.6 0-16 8-16 16v398.4c0 9.6 8 17.6 17.6 17.6h622.4v-416c0-8-8-16-16-16zM512 480c57.6 0 102.4-56 83.2-116.8-8-25.6-28.8-46.4-56-56-59.2-19.2-116.8 25.6-116.8 83.2 1.6 49.6 41.6 89.6 89.6 89.6v0zM512 520c-78.4 0-142.4-72-124.8-153.6 9.6-49.6 49.6-89.6 99.2-99.2 81.6-16 153.6 46.4 153.6 124.8 0 70.4-57.6 128-128 128v0zM780.8 763.2h72c11.2 0 20.8-9.6 20.8-19.2v0c0-11.2-9.6-19.2-20.8-19.2h-72c-11.2 0-20.8 9.6-20.8 19.2v0c0 9.6 9.6 19.2 20.8 19.2z" />
<glyph unicode="&#xe95d;" glyph-name="camera-light" d="M668.8 648l-28.8 112h-256l-28.8-112h-203.2v-512h720v512h-203.2zM414.4 720h193.6l19.2-72h-230.4l17.6 72zM832 176h-640v432h640v-432zM512 480c48 0 88-40 88-88s-40-88-88-88-88 40-88 88 40 88 88 88v0zM512 520c-70.4 0-128-57.6-128-128s57.6-128 128-128 128 57.6 128 128-57.6 128-128 128v0zM760 763.2h112v-40h-112v40z" />
<glyph unicode="&#xe95e;" glyph-name="camera-medium-rounded" d="M668.8 648l-22.4 88c-3.2 14.4-16 24-30.4 24h-206.4c-14.4 0-27.2-9.6-30.4-24l-22.4-88h-172.8c-17.6 0-32-14.4-32-32v-448c0-17.6 14.4-32 32-32h656c17.6 0 32 14.4 32 32v448c0 17.6-14.4 32-32 32h-171.2zM446.4 712h129.6c14.4 0 27.2-9.6 30.4-24l9.6-40h-211.2l9.6 40c3.2 14.4 16 24 32 24zM792 184h-560c-17.6 0-32 14.4-32 32v352c0 17.6 14.4 32 32 32h560c17.6 0 32-14.4 32-32v-352c0-17.6-14.4-32-32-32zM512 472c44.8 0 80-35.2 80-80s-35.2-80-80-80-80 35.2-80 80 35.2 80 80 80v0zM512 520c-70.4 0-128-57.6-128-128s57.6-128 128-128 128 57.6 128 128-57.6 128-128 128v0zM784 768h64c12.8 0 24-11.2 24-24v0c0-12.8-11.2-24-24-24h-64c-12.8 0-24 11.2-24 24v0c0 12.8 11.2 24 24 24z" />
<glyph unicode="&#xe95f;" glyph-name="camera-medium" d="M668.8 648l-28.8 112h-256l-28.8-112h-203.2v-512h720v512h-203.2zM420.8 712h180.8l16-64h-212.8l16 64zM824 184h-624v416h624v-416zM512 472c44.8 0 80-35.2 80-80s-35.2-80-80-80-80 35.2-80 80 35.2 80 80 80v0zM512 520c-70.4 0-128-57.6-128-128s57.6-128 128-128 128 57.6 128 128-57.6 128-128 128v0zM760 768h112v-48h-112v48z" />
<glyph unicode="&#xe960;" glyph-name="cancel-1-bold-rounded" d="M692.8 628.8c6.4-6.4 9.6-12.8 9.6-22.4s-3.2-17.6-9.6-22.4l-136-136 136-136c12.8-12.8 12.8-33.6 0-44.8s-33.6-12.8-44.8 0l-136 136-136-136c-12.8-12.8-33.6-12.8-44.8 0-6.4 6.4-9.6 12.8-9.6 22.4s3.2 17.6 9.6 22.4l136 136-136 136c-12.8 12.8-12.8 33.6 0 44.8 6.4 6.4 12.8 9.6 22.4 9.6s17.6-3.2 22.4-9.6l136-136 136 136c12.8 12.8 32 12.8 44.8 0z" />
<glyph unicode="&#xe961;" glyph-name="cancel-1-bold" d="M670.4 651.2l44.8-44.8-158.4-158.4 158.4-158.4-44.8-44.8-158.4 158.4-158.4-158.4-44.8 44.8 158.4 158.4-158.4 158.4 44.8 44.8 158.4-158.4z" />
<glyph unicode="&#xe962;" glyph-name="cancel-1-light-rounded" d="M692.8 628.8c8-8 8-20.8 0-28.8l-152-152 152-152c8-8 8-20.8 0-28.8s-20.8-8-28.8 0l-152 152-152-152c-8-8-20.8-8-28.8 0s-8 20.8 0 28.8l152 152-152 152c-8 8-8 20.8 0 28.8s20.8 8 28.8 0l152-152 152 152c8 6.4 20.8 8 28.8 0z" />
<glyph unicode="&#xe963;" glyph-name="cancel-1-light" d="M678.4 643.2l28.8-28.8-166.4-166.4 166.4-166.4-28.8-28.8-166.4 166.4-166.4-166.4-28.8 27.2 168 168-168 168 28.8 27.2 166.4-166.4z" />
<glyph unicode="&#xe964;" glyph-name="cancel-1-medium-rounded" d="M692.8 628.8c9.6-9.6 9.6-25.6 0-33.6l-147.2-147.2 147.2-147.2c9.6-9.6 9.6-25.6 0-33.6s-25.6-9.6-33.6 0l-147.2 147.2-147.2-147.2c-9.6-9.6-25.6-9.6-33.6 0-9.6 9.6-9.6 25.6 0 33.6l147.2 147.2-147.2 147.2c-9.6 9.6-9.6 25.6 0 33.6 9.6 9.6 25.6 9.6 33.6 0l147.2-147.2 147.2 147.2c9.6 9.6 24 9.6 33.6 0z" />
<glyph unicode="&#xe965;" glyph-name="cancel-1-medium" d="M676.8 646.4l33.6-33.6-164.8-164.8 164.8-164.8-33.6-33.6-164.8 164.8-164.8-164.8-33.6 33.6 164.8 164.8-164.8 164.8 33.6 33.6 164.8-164.8z" />
<glyph unicode="&#xe966;" glyph-name="cancel-bold" d="M512 800c-195.2 0-352-156.8-352-352s156.8-352 352-352 352 156.8 352 352-156.8 352-352 352zM707.2 288l-35.2-35.2-160 160-160-160-35.2 35.2 160 160-160 160 33.6 33.6 160-160 160 160 33.6-33.6-160-160 163.2-160z" />
<glyph unicode="&#xe967;" glyph-name="cancel-light" d="M512 800c-195.2 0-352-156.8-352-352s156.8-352 352-352 352 156.8 352 352-156.8 352-352 352zM512 136c-172.8 0-312 140.8-312 312s140.8 312 312 312 312-140.8 312-312-139.2-312-312-312zM540.8 448l163.2-163.2-28.8-28.8-163.2 163.2-163.2-163.2-28.8 28.8 163.2 163.2-163.2 163.2 28.8 28.8 163.2-163.2 163.2 163.2 28.8-28.8z" />
<glyph unicode="&#xe968;" glyph-name="cancel-medium" d="M512 800c-195.2 0-352-156.8-352-352s156.8-352 352-352 352 156.8 352 352-156.8 352-352 352zM512 144c-168 0-304 136-304 304s136 304 304 304 304-136 304-304-136-304-304-304zM545.6 448l161.6-160-35.2-35.2-160 161.6-160-161.6-35.2 35.2 161.6 160-161.6 160 35.2 35.2 160-161.6 160 161.6 35.2-35.2z" />
<glyph unicode="&#xe969;" glyph-name="car-bold" d="M912 582.4v-212.8l-14.4-14.4c-4.8-4.8-35.2-33.6-78.4-44.8 1.6 6.4 1.6 12.8 1.6 19.2 0 35.2-17.6 65.6-44.8 83.2-16 11.2-35.2 17.6-56 17.6s-40-6.4-56-17.6c-27.2-17.6-44.8-48-44.8-83.2 0-8 1.6-16 3.2-24h-219.2c1.6 8 3.2 16 3.2 24 0 35.2-17.6 65.6-44.8 83.2-16 11.2-35.2 17.6-56 17.6s-40-6.4-56-17.6c-27.2-17.6-44.8-48-44.8-83.2 0-8 1.6-16 3.2-24h-96v139.2c1.6 19.2 24 115.2 241.6 115.2h3.2l107.2 65.6 11.2 6.4h230.4l12.8-9.6 56-41.6h137.6zM864 390.4c0 0 0-1.6 0 0 0-1.6 0 0 0 0zM374.4 331.2c0-6.4 0-11.2-1.6-16s-3.2-8-4.8-12.8c-3.2-6.4-6.4-12.8-11.2-17.6-12.8-14.4-32-22.4-51.2-22.4s-40 9.6-51.2 22.4c-4.8 4.8-8 11.2-11.2 17.6-1.6 3.2-3.2 8-4.8 12.8s-1.6 11.2-1.6 16c0 24 12.8 44.8 30.4 57.6 11.2 8 24 11.2 38.4 11.2s27.2-4.8 38.4-11.2c17.6-12.8 30.4-33.6 30.4-57.6zM790.4 331.2c0-6.4 0-11.2-1.6-16s-3.2-8-4.8-12.8c-3.2-6.4-6.4-12.8-11.2-17.6-12.8-14.4-32-22.4-51.2-22.4-20.8 0-40 9.6-51.2 22.4-4.8 4.8-8 11.2-11.2 17.6-1.6 3.2-3.2 8-4.8 12.8s-1.6 11.2-1.6 16c0 24 12.8 44.8 30.4 57.6 11.2 8 24 11.2 38.4 11.2s27.2-4.8 38.4-11.2c17.6-12.8 30.4-33.6 30.4-57.6z" />
<glyph unicode="&#xe96a;" glyph-name="car-light" d="M372.8 310.4h267.2c-3.2 8-3.2 16-3.2 25.6 0 4.8 0 9.6 1.6 14.4h-262.4c0-3.2 0-4.8 0-8 0 0 0 0 0 0 0-3.2 0-4.8 0-6.4v-1.6c0-8-1.6-16-3.2-24zM771.2 569.6l-57.6 43.2-11.2 8h-225.6l-9.6-6.4-108.8-67.2h-4.8c-211.2 0-232-89.6-233.6-108.8v-129.6h88c-3.2 8-3.2 16-3.2 24v3.2c0 3.2 0 4.8 0 6.4 0 0 0 0 0 0 0 1.6 0 4.8 0 8h-44.8v84.8c0 0 8 72 193.6 72 4.8 0 9.6 0 16 0l120 72h200l68.8-51.2h105.6v-144c0 0-24-24-56-32 0 0-1.6 0-1.6 0 1.6-4.8 1.6-11.2 1.6-17.6 0-8-1.6-16-3.2-24 48 6.4 83.2 40 88 44.8l11.2 11.2v203.2h-132.8zM350.4 336v0c0-6.4-1.6-12.8-3.2-17.6-1.6-3.2-3.2-8-4.8-11.2-9.6-19.2-30.4-32-52.8-32s-43.2 12.8-52.8 32c-1.6 3.2-3.2 8-4.8 11.2-1.6 4.8-3.2 11.2-3.2 17.6v0c0 1.6 0 3.2 0 4.8 0 0 0 0 0 0 3.2 30.4 28.8 56 60.8 56s57.6-24 60.8-56c0 0 0 0 0 0 0-1.6 0-3.2 0-4.8zM782.4 336v0c0-6.4-1.6-12.8-3.2-17.6-1.6-3.2-3.2-8-4.8-11.2-9.6-19.2-30.4-32-52.8-32s-43.2 12.8-52.8 32c-1.6 3.2-3.2 8-4.8 11.2-1.6 4.8-3.2 11.2-3.2 17.6v0c0 1.6 0 3.2 0 4.8 0 0 0 0 0 0 3.2 30.4 28.8 56 60.8 56s57.6-24 60.8-56c0 0 0 0 0 0 0-1.6 0-3.2 0-4.8z" />
<glyph unicode="&#xe96b;" glyph-name="car-medium" d="M772.8 588.8l-56 41.6-11.2 9.6h-230.4l-11.2-8-107.2-65.6h-3.2c-217.6 0-238.4-96-241.6-115.2v-139.2h89.6c-1.6 6.4-1.6 11.2-1.6 17.6v1.6c0 9.6 1.6 19.2 4.8 28.8h-44.8v84.8c0 0 8 72 193.6 72 4.8 0 9.6 0 16 0l120 72h200l68.8-51.2h105.6v-145.6c0 0-24-24-56-32 3.2-9.6 4.8-20.8 4.8-32v-1.6c0-4.8 0-9.6-1.6-14.4 48 8 83.2 41.6 86.4 46.4l14.4 14.4v216h-139.2zM616 332.8c0 9.6 1.6 19.2 4.8 28.8h-228.8c3.2-9.6 4.8-19.2 4.8-28.8v-1.6c0-6.4 0-11.2-1.6-17.6h222.4c-1.6 6.4-1.6 11.2-1.6 17.6v1.6zM374.4 328v0c0-4.8 0-9.6-1.6-14.4-3.2-14.4-9.6-25.6-19.2-35.2-12.8-12.8-30.4-20.8-51.2-20.8s-38.4 8-51.2 20.8c-9.6 9.6-16 22.4-19.2 35.2-1.6 4.8-1.6 8-1.6 12.8v1.6c0 8 1.6 14.4 3.2 20.8 9.6 28.8 36.8 51.2 68.8 51.2s59.2-20.8 68.8-51.2c1.6-6.4 3.2-14.4 3.2-20.8zM790.4 328v0c0-4.8 0-9.6-1.6-14.4-3.2-14.4-9.6-25.6-19.2-35.2-12.8-12.8-30.4-20.8-51.2-20.8s-38.4 8-51.2 20.8c-9.6 9.6-16 22.4-19.2 35.2-1.6 4.8-1.6 8-1.6 12.8v1.6c0 8 1.6 14.4 3.2 20.8 9.6 28.8 36.8 51.2 68.8 51.2s59.2-20.8 68.8-51.2c1.6-6.4 3.2-14.4 3.2-20.8z" />
<glyph unicode="&#xe96c;" glyph-name="chart-bold-rounded" d="M512 192v0c-17.6 0-32 14.4-32 32v296c0 17.6 14.4 32 32 32v0c17.6 0 32-14.4 32-32v-296c0-17.6-14.4-32-32-32zM720 192v0c-17.6 0-32 14.4-32 32v136c0 17.6 14.4 32 32 32v0c17.6 0 32-14.4 32-32v-136c0-17.6-14.4-32-32-32zM304 192v0c-17.6 0-32 14.4-32 32v448c0 17.6 14.4 32 32 32v0c17.6 0 32-14.4 32-32v-448c0-17.6-14.4-32-32-32z" />
<glyph unicode="&#xe96d;" glyph-name="chart-bold" d="M480 552h64v-360h-64v360zM688 392h64v-200h-64v200zM272 704h64v-512h-64v512z" />
<glyph unicode="&#xe96e;" glyph-name="chart-light-rounded" d="M512 552v0c11.2 0 20.8-9.6 20.8-19.2v-320c0-11.2-9.6-20.8-20.8-20.8v0c-11.2 0-19.2 9.6-19.2 20.8v320c0 9.6 8 19.2 19.2 19.2zM720 392v0c11.2 0 20.8-9.6 20.8-20.8v-160c0-11.2-9.6-20.8-20.8-20.8v0c-11.2 0-20.8 9.6-20.8 20.8v160c1.6 11.2 9.6 20.8 20.8 20.8zM304 704v0c11.2 0 20.8-9.6 20.8-19.2v-472c0-11.2-9.6-20.8-19.2-20.8v0c-11.2 0-19.2 9.6-19.2 20.8v472c-1.6 9.6 6.4 19.2 17.6 19.2z" />
<glyph unicode="&#xe96f;" glyph-name="chart-light" d="M492.8 552h40v-360h-40v360zM700.8 392h40v-200h-40v200zM284.8 704h40v-512h-40v512z" />
<glyph unicode="&#xe970;" glyph-name="chart-medium-rounded" d="M512 192v0c-12.8 0-24 11.2-24 24v312c0 12.8 11.2 24 24 24v0c12.8 0 24-11.2 24-24v-312c0-12.8-11.2-24-24-24zM720 192v0c-12.8 0-24 11.2-24 24v152c0 12.8 11.2 24 24 24v0c12.8 0 24-11.2 24-24v-152c0-12.8-11.2-24-24-24zM304 192v0c-12.8 0-24 11.2-24 24v464c0 12.8 11.2 24 24 24v0c12.8 0 24-11.2 24-24v-464c0-12.8-11.2-24-24-24z" />
<glyph unicode="&#xe971;" glyph-name="chart-medium" d="M488 552h48v-360h-48v360zM696 392h48v-200h-48v200zM280 704h48v-512h-48v512z" />
<glyph unicode="&#xe972;" glyph-name="clipboard-bold" d="M772.8 732.8v-624h-520v624h131.2v-112h256v112zM436.8 787.2v-121.6h150.4v121.6h-150.4zM465.6 729.6v28.8h94.4v-28.8h-94.4z" />
<glyph unicode="&#xe973;" glyph-name="clipboard-light" d="M640 728v64h-256v-64h-132.8v-624h520v624h-131.2zM424 752h176v-64h-176v64zM732.8 144h-440v544h91.2v-40h256v40h92.8v-544z" />
<glyph unicode="&#xe974;" glyph-name="clipboard-medium" d="M640 728v64h-256v-64h-132.8v-624h520v624h-131.2zM432 744h160v-48h-160v48zM724.8 152h-424v528h83.2v-32h256v32h84.8v-528z" />
<glyph unicode="&#xe975;" glyph-name="clock-bold" d="M512 800c-195.2 0-352-156.8-352-352s156.8-352 352-352 352 156.8 352 352-156.8 352-352 352zM502.4 352h-33.6v192h48v-110.4l70.4 70.4 33.6-33.6-118.4-118.4z" />
<glyph unicode="&#xe976;" glyph-name="clock-light" d="M512 760c172.8 0 312-139.2 312-312s-139.2-312-312-312-312 139.2-312 312 139.2 312 312 312zM512 800c-195.2 0-352-156.8-352-352s156.8-352 352-352 352 156.8 352 352-156.8 352-352 352v0zM617.6 473.6l-121.6-121.6h-24v192h40v-120l78.4 78.4z" />
<glyph unicode="&#xe977;" glyph-name="clock-medium" d="M512 752c168 0 304-136 304-304s-136-304-304-304-304 136-304 304 136 304 304 304zM512 800c-195.2 0-352-156.8-352-352s156.8-352 352-352 352 156.8 352 352-156.8 352-352 352v0zM620.8 470.4l-118.4-118.4h-33.6v192h48v-110.4l70.4 70.4z" />
<glyph unicode="&#xe978;" glyph-name="closed-eye-bold" d="M715.2 643.2c-59.2 38.4-128 60.8-203.2 60.8s-145.6-22.4-203.2-60.8c-70.4-46.4-123.2-113.6-150.4-195.2 49.6-148.8 188.8-256 353.6-256s304 107.2 353.6 256c-27.2 81.6-80 150.4-150.4 195.2zM512 256c-126.4 0-238.4 76.8-284.8 192 19.2 46.4 49.6 88 88 120 24-86.4 104-150.4 196.8-150.4s172.8 64 196.8 150.4c38.4-32 68.8-73.6 88-120-46.4-115.2-158.4-192-284.8-192z" />
<glyph unicode="&#xe979;" glyph-name="closed-eye-light" d="M715.2 643.2c-59.2 38.4-128 60.8-203.2 60.8s-145.6-22.4-203.2-60.8c-70.4-46.4-123.2-113.6-150.4-195.2 49.6-148.8 188.8-256 353.6-256s304 107.2 353.6 256c-27.2 81.6-80 150.4-150.4 195.2zM512 232c-139.2 0-262.4 86.4-312 216 22.4 57.6 59.2 108.8 108.8 147.2 14.4-99.2 99.2-176 203.2-176s188.8 76.8 203.2 176c49.6-38.4 86.4-89.6 108.8-147.2-49.6-129.6-172.8-216-312-216z" />
<glyph unicode="&#xe97a;" glyph-name="closed-eye-medium" d="M715.2 643.2c-59.2 38.4-128 60.8-203.2 60.8s-145.6-22.4-203.2-60.8c-70.4-46.4-123.2-113.6-150.4-195.2 49.6-148.8 188.8-256 353.6-256s304 107.2 353.6 256c-27.2 81.6-80 150.4-150.4 195.2zM512 240c-136 0-254.4 83.2-302.4 208 20.8 54.4 56 102.4 100.8 137.6 17.6-96 100.8-166.4 201.6-166.4s184 72 201.6 168c44.8-35.2 80-83.2 100.8-137.6-48-126.4-166.4-209.6-302.4-209.6z" />
<glyph unicode="&#xe97b;" glyph-name="cloud-bold-01" d="M872 344c0-35.2-14.4-67.2-36.8-91.2-22.4-22.4-54.4-36.8-91.2-36.8h-464c-70.4 0-128 57.6-128 128 0 35.2 14.4 67.2 36.8 91.2 17.6 17.6 41.6 30.4 67.2 35.2 0 3.2 0 6.4 0 9.6 0 110.4 89.6 200 200 200 67.2 0 126.4-33.6 163.2-83.2 6.4 1.6 12.8 3.2 20.8 3.2 65.6 4.8 123.2-44.8 128-110.4 0-6.4 0-12.8 0-19.2 59.2-11.2 104-64 104-126.4z" />
<glyph unicode="&#xe97c;" glyph-name="cloud-download-bold-rounded" d="M872 384c0-35.2-14.4-67.2-36.8-91.2-22.4-22.4-54.4-36.8-91.2-36.8h-232c3.2 0 6.4 1.6 9.6 4.8l81.6 81.6c6.4 4.8 6.4 14.4 0 19.2-6.4 6.4-14.4 6.4-19.2 0l-57.6-57.6v152c0 8-6.4 14.4-14.4 14.4s-14.4-6.4-14.4-14.4v-152l-57.6 57.6c-4.8 6.4-14.4 6.4-19.2 0-6.4-4.8-6.4-14.4 0-19.2l81.6-81.6c3.2-3.2 6.4-4.8 9.6-4.8h-232c-70.4 0-128 57.6-128 128 0 35.2 14.4 67.2 36.8 91.2 17.6 17.6 41.6 30.4 67.2 35.2 0 3.2 0 6.4 0 9.6 0 110.4 89.6 200 200 200 67.2 0 126.4-33.6 163.2-83.2 6.4 1.6 12.8 3.2 20.8 3.2 65.6 4.8 123.2-44.8 128-110.4 0-6.4 0-12.8 0-19.2 59.2-11.2 104-64 104-126.4z" />
<glyph unicode="&#xe97d;" glyph-name="cloud-download-bold" d="M872 344c0-35.2-14.4-67.2-36.8-91.2-22.4-22.4-54.4-36.8-91.2-36.8h-232l104 104-20.8 20.8-68.8-68.8v168h-28.8v-168l-68.8 68.8-20.8-20.8 104-104h-232c-70.4 0-128 57.6-128 128 0 35.2 14.4 67.2 36.8 91.2 17.6 17.6 41.6 30.4 67.2 35.2 0 3.2 0 6.4 0 9.6 0 110.4 89.6 200 200 200 67.2 0 126.4-33.6 163.2-83.2 6.4 1.6 12.8 3.2 20.8 3.2 65.6 4.8 123.2-44.8 128-110.4 0-6.4 0-12.8 0-19.2 59.2-11.2 104-64 104-126.4z" />
<glyph unicode="&#xe97e;" glyph-name="cloud-download-light-rounded" d="M768 470.4c0 6.4 0 12.8 0 19.2-4.8 62.4-57.6 110.4-120 110.4-3.2 0-6.4 0-9.6 0-6.4 0-14.4-1.6-20.8-3.2-36.8 51.2-96 83.2-163.2 83.2-108.8 0-198.4-89.6-198.4-200 0-3.2 0-6.4 0-9.6-25.6-4.8-49.6-17.6-67.2-35.2-22.4-22.4-36.8-54.4-36.8-91.2 0-70.4 57.6-128 128-128h192l-40 40h-152c-48 0-88 40-88 88 0 24 9.6 44.8 25.6 62.4 12.8 12.8 28.8 20.8 46.4 24l33.6 6.4-1.6 35.2c0 3.2 0 4.8 0 8 0 88 72 160 160 160 51.2 0 100.8-25.6 129.6-67.2l16-22.4 27.2 8c4.8 1.6 8 1.6 12.8 1.6 1.6 0 4.8 0 6.4 0 41.6 0 76.8-32 80-73.6 0-4.8 0-8 0-12.8l-3.2-36.8 36.8-6.4c41.6-8 72-44.8 72-86.4 0-24-9.6-44.8-25.6-62.4-17.6-16-38.4-25.6-62.4-25.6h-153.6l-40-40h192c35.2 0 67.2 14.4 91.2 36.8 22.4 22.4 36.8 54.4 36.8 91.2 0 62.4-44.8 115.2-104 126.4zM603.2 302.4l-81.6-81.6c-4.8-4.8-14.4-4.8-19.2 0l-81.6 81.6c-6.4 4.8-6.4 14.4 0 19.2 4.8 6.4 14.4 6.4 19.2 0l57.6-57.6v152c0 8 6.4 14.4 14.4 14.4s14.4-6.4 14.4-14.4v-152l57.6 57.6c6.4 6.4 14.4 6.4 19.2 0 6.4-4.8 6.4-14.4 0-19.2z" />
<glyph unicode="&#xe97f;" glyph-name="cloud-download-light" d="M768 470.4c0 6.4 0 12.8 0 19.2-4.8 62.4-57.6 110.4-120 110.4-3.2 0-6.4 0-9.6 0-6.4 0-14.4-1.6-20.8-3.2-36.8 51.2-96 83.2-163.2 83.2-108.8 0-198.4-89.6-198.4-200 0-3.2 0-6.4 0-9.6-25.6-4.8-49.6-17.6-67.2-35.2-22.4-22.4-36.8-54.4-36.8-91.2 0-70.4 57.6-128 128-128h192l-40 40h-152c-48 0-88 40-88 88 0 24 9.6 44.8 25.6 62.4 12.8 12.8 28.8 20.8 46.4 24l33.6 6.4-1.6 35.2c0 3.2 0 4.8 0 8 0 88 72 160 160 160 51.2 0 100.8-25.6 129.6-67.2l16-22.4 27.2 8c4.8 1.6 8 1.6 12.8 1.6 1.6 0 4.8 0 6.4 0 41.6 0 76.8-32 80-73.6 0-4.8 0-8 0-12.8l-3.2-36.8 36.8-6.4c41.6-8 72-44.8 72-86.4 0-24-9.6-44.8-25.6-62.4-17.6-16-38.4-25.6-62.4-25.6h-153.6l-40-40h192c35.2 0 67.2 14.4 91.2 36.8 22.4 22.4 36.8 54.4 36.8 91.2 0 62.4-44.8 115.2-104 126.4zM616 320l-104-104-104 104 20.8 20.8 68.8-68.8v168h28.8v-168l68.8 68.8z" />
<glyph unicode="&#xe980;" glyph-name="cloud-download-medium-rounded" d="M768 470.4v19.2c-4.8 62.4-57.6 110.4-120 110.4h-9.6c-6.4 0-14.4-1.6-20.8-3.2-36.8 51.2-96 83.2-163.2 83.2-108.8 0-198.4-89.6-198.4-200v-9.6c-25.6-4.8-49.6-17.6-67.2-35.2-22.4-24-36.8-56-36.8-91.2 0-70.4 57.6-128 128-128h192l-48 48h-144c-44.8 0-80 35.2-80 80 0 20.8 8 41.6 24 56 11.2 11.2 25.6 19.2 41.6 22.4l41.6 8-3.2 41.6v8c0 83.2 68.8 152 152 152 49.6 0 96-24 123.2-64l19.2-27.2 32 8c3.2 1.6 8 1.6 11.2 1.6h6.4c36.8 0 68.8-28.8 72-67.2v-11.2l-4.8-44.8 43.2-8c38.4-6.4 65.6-40 65.6-78.4 0-17.6-8-38.4-24-52.8-16-16-35.2-24-56-24h-144l-48-48h192c35.2 0 67.2 14.4 91.2 36.8 22.4 24 36.8 56 36.8 91.2 0 62.4-44.8 115.2-104 126.4zM603.2 300.8l-81.6-81.6c-6.4-4.8-14.4-4.8-19.2 0l-81.6 81.6c-6.4 6.4-6.4 14.4 0 19.2 6.4 6.4 14.4 6.4 19.2 0l57.6-57.6v152c0 8 6.4 14.4 14.4 14.4s14.4-6.4 14.4-14.4v-152l57.6 57.6c4.8 6.4 14.4 6.4 19.2 0 6.4-4.8 6.4-14.4 0-19.2z" />
<glyph unicode="&#xe981;" glyph-name="cloud-download-medium" d="M768 472v19.2c-4.8 62.4-57.6 110.4-120 110.4h-9.6c-6.4 0-14.4-1.6-20.8-3.2-36.8 51.2-96 83.2-163.2 83.2-108.8-1.6-198.4-91.2-198.4-201.6v-9.6c-25.6-4.8-49.6-17.6-67.2-35.2-22.4-24-36.8-56-36.8-92.8 0-70.4 57.6-128 128-128h192l-48 48h-144c-44.8 0-80 35.2-80 80 0 20.8 8 41.6 24 56 11.2 11.2 25.6 19.2 41.6 22.4l41.6 8-3.2 43.2v8c0 83.2 68.8 152 152 152 49.6 0 96-24 123.2-64l19.2-27.2 32 8c3.2 1.6 8 1.6 11.2 1.6h6.4c36.8 0 68.8-28.8 72-67.2v-11.2l-4.8-43.2 43.2-8c38.4-6.4 65.6-40 65.6-78.4 0-17.6-8-38.4-24-52.8-16-16-35.2-24-56-24h-144l-48-48h192c35.2 0 67.2 14.4 91.2 36.8 22.4 24 36.8 56 36.8 91.2 0 62.4-44.8 113.6-104 126.4zM616 320l-104-104-104 104 20.8 19.2 68.8-67.2v168h28.8v-168l68.8 67.2z" />
<glyph unicode="&#xe982;" glyph-name="cloud-light-01" d="M456 640c51.2 0 100.8-25.6 129.6-67.2l16-22.4 27.2 6.4c4.8 1.6 8 1.6 12.8 1.6 1.6 0 4.8 0 6.4 0 41.6 0 76.8-32 80-73.6 0-4.8 0-8 0-12.8l-3.2-36.8 36.8-6.4c41.6-8 72-44.8 72-86.4 0-24-9.6-46.4-25.6-62.4s-38.4-25.6-62.4-25.6h-464c-48 0-88 40-88 88 0 24 9.6 46.4 25.6 62.4 12.8 12.8 28.8 20.8 46.4 24l33.6 6.4-1.6 35.2c0 3.2 0 4.8 0 8-1.6 89.6 70.4 161.6 158.4 161.6zM456 680c-110.4 0-200-89.6-200-200 0-3.2 0-6.4 0-9.6-25.6-4.8-49.6-17.6-67.2-35.2-22.4-24-36.8-56-36.8-91.2 0-70.4 57.6-128 128-128h464c35.2 0 67.2 14.4 91.2 36.8 22.4 24 36.8 56 36.8 91.2 0 62.4-44.8 115.2-104 126.4 0 6.4 0 12.8 0 19.2-4.8 62.4-57.6 110.4-120 110.4-3.2 0-6.4 0-9.6 0-6.4 0-14.4-1.6-20.8-3.2-35.2 49.6-94.4 83.2-161.6 83.2v0z" />
<glyph unicode="&#xe983;" glyph-name="cloud-medium-01" d="M456 632c49.6 0 94.4-24 123.2-64l19.2-27.2 32 8c3.2 1.6 8 1.6 11.2 1.6 1.6 0 3.2 0 4.8 0 36.8 0 68.8-28.8 72-67.2 0-4.8 0-8 0-11.2l-4.8-44.8 43.2-8c38.4-6.4 65.6-40 65.6-78.4 0-20.8-8-41.6-24-56s-35.2-24-56-24h-464c-44.8 0-80 35.2-80 80 0 20.8 8 41.6 24 56 11.2 11.2 25.6 19.2 41.6 22.4l41.6 8-1.6 44.8c0 3.2 0 4.8 0 8 0 83.2 68.8 152 152 152zM456 680c-110.4 0-200-89.6-200-200 0-3.2 0-6.4 0-9.6-25.6-4.8-49.6-17.6-67.2-35.2-22.4-24-36.8-56-36.8-91.2 0-70.4 57.6-128 128-128h464c35.2 0 67.2 14.4 91.2 36.8 22.4 24 36.8 56 36.8 91.2 0 62.4-44.8 115.2-104 126.4 0 6.4 0 12.8 0 19.2-4.8 62.4-57.6 110.4-120 110.4-3.2 0-6.4 0-9.6 0-6.4 0-14.4-1.6-20.8-3.2-35.2 49.6-94.4 83.2-161.6 83.2v0z" />
<glyph unicode="&#xe984;" glyph-name="cloud-upload-bold-rounded" d="M872 344c0-35.2-14.4-67.2-36.8-91.2-22.4-22.4-54.4-36.8-91.2-36.8h-217.6v150.4l57.6-57.6c4.8-4.8 14.4-4.8 19.2 0 6.4 4.8 6.4 14.4 0 19.2l-81.6 81.6c-6.4 4.8-14.4 4.8-19.2 0l-81.6-81.6c-6.4-6.4-6.4-14.4 0-19.2s14.4-4.8 19.2 0l57.6 57.6v-150.4h-217.6c-70.4 0-128 57.6-128 128 0 35.2 14.4 67.2 36.8 91.2 17.6 17.6 41.6 30.4 67.2 35.2 0 3.2 0 6.4 0 9.6 0 110.4 89.6 200 200 200 67.2 0 126.4-33.6 163.2-83.2 6.4 1.6 12.8 3.2 20.8 3.2 65.6 4.8 123.2-44.8 128-110.4 0-6.4 0-12.8 0-19.2 59.2-11.2 104-64 104-126.4z" />
<glyph unicode="&#xe985;" glyph-name="cloud-upload-bold" d="M872 344c0-35.2-14.4-67.2-36.8-91.2-22.4-22.4-54.4-36.8-91.2-36.8h-217.6v168l68.8-68.8 20.8 20.8-104 104-104-104 20.8-20.8 68.8 68.8v-168h-217.6c-70.4 0-128 57.6-128 128 0 35.2 14.4 67.2 36.8 91.2 17.6 17.6 41.6 30.4 67.2 35.2 0 3.2 0 6.4 0 9.6 0 110.4 89.6 200 200 200 67.2 0 126.4-33.6 163.2-83.2 6.4 1.6 12.8 3.2 20.8 3.2 65.6 4.8 123.2-44.8 128-110.4 0-6.4 0-12.8 0-19.2 59.2-11.2 104-64 104-126.4z" />
<glyph unicode="&#xe986;" glyph-name="cloud-upload-light-rounded" d="M768 470.4v19.2c-4.8 62.4-57.6 110.4-120 110.4h-9.6c-6.4 0-14.4-1.6-20.8-3.2-36.8 51.2-96 83.2-163.2 83.2-108.8 0-198.4-89.6-198.4-200v-9.6c-25.6-4.8-49.6-17.6-67.2-35.2-22.4-24-36.8-56-36.8-91.2 0-70.4 57.6-128 128-128h464c35.2 0 67.2 14.4 91.2 36.8 22.4 24 36.8 56 36.8 91.2 0 62.4-44.8 115.2-104 126.4zM806.4 281.6c-17.6-16-38.4-25.6-62.4-25.6h-217.6v126.4l57.6-57.6c4.8-4.8 14.4-4.8 19.2 0 6.4 4.8 6.4 14.4 0 19.2l-81.6 81.6c-6.4 4.8-14.4 4.8-19.2 0l-81.6-81.6c-6.4-6.4-6.4-14.4 0-19.2s14.4-4.8 19.2 0l57.6 57.6v-126.4h-217.6c-48 0-88 40-88 88 0 24 9.6 46.4 25.6 62.4 12.8 12.8 28.8 20.8 46.4 24l33.6 6.4-1.6 35.2v8c0 88 72 160 160 160 51.2 0 100.8-25.6 129.6-67.2l16-22.4 27.2 6.4c4.8 1.6 8 1.6 12.8 1.6h6.4c41.6 0 76.8-32 80-73.6v-12.8l-3.2-36.8 36.8-6.4c41.6-8 72-44.8 72-86.4-1.6-22.4-11.2-43.2-27.2-60.8z" />
<glyph unicode="&#xe987;" glyph-name="cloud-upload-light" d="M768 470.4v19.2c-4.8 62.4-57.6 110.4-120 110.4h-9.6c-6.4 0-14.4-1.6-20.8-3.2-36.8 51.2-96 83.2-163.2 83.2-108.8 0-198.4-89.6-198.4-200v-9.6c-25.6-4.8-49.6-17.6-67.2-35.2-22.4-24-36.8-56-36.8-91.2 0-70.4 57.6-128 128-128h464c35.2 0 67.2 14.4 91.2 36.8 22.4 24 36.8 56 36.8 91.2 0 62.4-44.8 115.2-104 126.4zM806.4 281.6c-17.6-16-38.4-25.6-62.4-25.6h-217.6v128l68.8-68.8 20.8 20.8-104 104-104-104 20.8-20.8 68.8 68.8v-128h-217.6c-48 0-88 40-88 88 0 24 9.6 46.4 25.6 62.4 12.8 12.8 28.8 20.8 46.4 24l33.6 6.4-1.6 35.2v8c0 88 72 160 160 160 51.2 0 100.8-25.6 129.6-67.2l16-22.4 27.2 6.4c4.8 1.6 8 1.6 12.8 1.6h6.4c41.6 0 76.8-32 80-73.6v-12.8l-3.2-36.8 36.8-6.4c41.6-8 72-44.8 72-86.4-1.6-22.4-11.2-43.2-27.2-60.8z" />
<glyph unicode="&#xe988;" glyph-name="cloud-upload-medium-rounded" d="M768 470.4v19.2c-4.8 62.4-57.6 110.4-120 110.4h-9.6c-6.4 0-14.4-1.6-20.8-3.2-36.8 51.2-96 83.2-163.2 83.2-108.8 0-198.4-89.6-198.4-200v-9.6c-25.6-4.8-49.6-17.6-67.2-35.2-22.4-24-36.8-56-36.8-91.2 0-70.4 57.6-128 128-128h464c35.2 0 67.2 14.4 91.2 36.8 22.4 24 36.8 56 36.8 91.2 0 62.4-44.8 115.2-104 126.4zM800 288c-16-16-35.2-24-56-24h-217.6v118.4l57.6-57.6c4.8-4.8 14.4-4.8 19.2 0 6.4 4.8 6.4 14.4 0 19.2l-81.6 81.6c-6.4 4.8-14.4 4.8-19.2 0l-81.6-81.6c-6.4-6.4-6.4-14.4 0-19.2s14.4-4.8 19.2 0l57.6 57.6v-118.4h-217.6c-44.8 0-80 35.2-80 80 0 20.8 8 41.6 24 56 11.2 11.2 25.6 19.2 41.6 22.4l41.6 8-3.2 41.6v8c0 83.2 68.8 152 152 152 49.6 0 96-24 123.2-64l19.2-27.2 32 8c3.2 1.6 8 1.6 11.2 1.6h6.4c36.8 0 68.8-28.8 72-67.2v-11.2l-4.8-44.8 43.2-8c38.4-6.4 65.6-40 65.6-78.4 0-17.6-8-38.4-24-52.8z" />
<glyph unicode="&#xe989;" glyph-name="cloud-upload-medium" d="M768 470.4v19.2c-4.8 62.4-57.6 110.4-120 110.4h-9.6c-6.4 0-14.4-1.6-20.8-3.2-36.8 51.2-96 83.2-163.2 83.2-108.8 0-198.4-89.6-198.4-200v-9.6c-25.6-4.8-49.6-17.6-67.2-35.2-22.4-24-36.8-56-36.8-91.2 0-70.4 57.6-128 128-128h464c35.2 0 67.2 14.4 91.2 36.8 22.4 24 36.8 56 36.8 91.2 0 62.4-44.8 115.2-104 126.4zM800 288c-16-16-35.2-24-56-24h-217.6v120l68.8-68.8 20.8 20.8-104 104-104-104 20.8-20.8 68.8 68.8v-120h-217.6c-44.8 0-80 35.2-80 80 0 20.8 8 41.6 24 56 11.2 11.2 25.6 19.2 41.6 22.4l41.6 8-3.2 41.6v8c0 83.2 68.8 152 152 152 49.6 0 96-24 123.2-64l19.2-27.2 32 8c3.2 1.6 8 1.6 11.2 1.6h6.4c36.8 0 68.8-28.8 72-67.2v-11.2l-4.8-44.8 43.2-8c38.4-6.4 65.6-40 65.6-78.4 0-17.6-8-38.4-24-52.8z" />
<glyph unicode="&#xe98a;" glyph-name="computer-bold" d="M880 262.4v512h-736v-512h300.8v-100.8h-112v-40h360v40h-112v100.8h299.2zM192 726.4h640v-324.8h-640v324.8z" />
<glyph unicode="&#xe98b;" glyph-name="computer-light" d="M880 262.4v512h-736v-512h300.8v-100.8h-112v-40h360v40h-112v100.8h299.2zM184 734.4h656v-332.8h-656v332.8zM184 302.4v60.8h656v-60.8h-656zM540.8 161.6h-56v100.8h56v-100.8z" />
<glyph unicode="&#xe98c;" glyph-name="computer-medium" d="M880 264v512h-736v-512h296v-96h-108.8v-48h360v48h-108.8v96h297.6zM192 728h640v-320h-640v320zM192 312v48h640v-48h-640zM536 168h-48v96h48v-96z" />
<glyph unicode="&#xe98d;" glyph-name="copy-bold" d="M600 651.2v104h-448v-512h272v-104h448v512h-272zM240 619.2h136v-48h-136v48zM240 534.4h184v-48h-184v48zM240 449.6h184v-48h-184v48zM240 315.2v48h184v-48h-184z" />
<glyph unicode="&#xe98e;" glyph-name="copy-light" d="M600 651.2v104h-448v-512h272v-104h448v512h-272zM192 283.2v432h368v-64h-136v-121.6h-184v-40h184v-44.8h-184v-40h184v-44.8h-184v-40h184v-36.8h-232zM832 179.2h-368v432h368v-432zM240 616h136v-40h-136v40z" />
<glyph unicode="&#xe98f;" glyph-name="copy-medium" d="M600 651.2v104h-448v-512h272v-104h448v512h-272zM200 291.2v416h352v-56h-128v-116.8h-184v-48h184v-36.8h-184v-48h184v-36.8h-184v-48h184v-24h-224zM824 187.2h-352v416h352v-416zM240 619.2h136v-48h-136v48z" />
<glyph unicode="&#xe990;" glyph-name="crop-bold" d="M702.4 640v152h-92.8v-152h-288v-292.8h-153.6v-91.2h153.6v-152h92.8v152h288v292.8h153.6v91.2h-153.6zM609.6 347.2h-195.2v201.6h195.2v-201.6z" />
<glyph unicode="&#xe991;" glyph-name="crop-light" d="M702.4 664v152h-57.6v-152h-323.2v-374.4h-177.6v-57.6h177.6v-152h57.6v152h321.6v374.4h179.2v57.6h-177.6zM644.8 289.6h-265.6v316.8h264v-316.8z" />
<glyph unicode="&#xe992;" glyph-name="crop-medium" d="M692.8 632v168h-65.6v-168h-296v-302.4h-171.2v-65.6h171.2v-168h65.6v168h297.6v302.4h169.6v65.6h-171.2zM627.2 329.6h-230.4v236.8h230.4v-236.8z" />
<glyph unicode="&#xe993;" glyph-name="cursor-bold" d="M337.6 192l-121.6 552 552-121.6-176-94.4 216-214.4-161.6-161.6-214.4 216z" />
<glyph unicode="&#xe994;" glyph-name="cursor-light" d="M268.8 691.2l384-84.8-80-43.2-48-25.6 225.6-225.6-104-104-225.6 225.6-25.6-48-43.2-80-83.2 385.6zM216 744l121.6-552 94.4 176 214.4-214.4 161.6 161.6-216 212.8 176 94.4-552 121.6z" />
<glyph unicode="&#xe995;" glyph-name="cursor-medium" d="M280 680l350.4-76.8-118.4-62.4 227.2-227.2-92.8-92.8-227.2 227.2-30.4-57.6-32-60.8-76.8 350.4zM216 744l121.6-552 94.4 176 214.4-214.4 161.6 161.6-216 212.8 176 94.4-552 121.6z" />
<glyph unicode="&#xe996;" glyph-name="database-bold" d="M867.2 544c8 16 12.8 32 12.8 48 0 100.8-164.8 184-368 184s-368-83.2-368-184c0-16 4.8-32 12.8-48-8-16-12.8-32-12.8-48s4.8-32 12.8-48c-8-16-12.8-32-12.8-48s4.8-32 12.8-48c-8-16-12.8-32-12.8-48 0-100.8 164.8-184 368-184s368 83.2 368 184c0 16-4.8 32-12.8 48 8 16 12.8 32 12.8 48s-4.8 32-12.8 48c8 16 12.8 32 12.8 48s-4.8 32-12.8 48zM192 500.8c1.6-1.6 3.2-3.2 6.4-4.8 12.8-9.6 27.2-19.2 41.6-28.8 12.8-8 27.2-14.4 43.2-20.8 24-9.6 52.8-17.6 81.6-24 44.8-9.6 94.4-16 147.2-16s102.4 4.8 147.2 16c28.8 6.4 56 14.4 81.6 24 16 6.4 30.4 12.8 43.2 20.8 16 8 30.4 17.6 41.6 28.8 1.6 1.6 4.8 3.2 6.4 4.8 0-1.6 0-3.2 0-4.8s0-3.2 0-4.8c-1.6-14.4-9.6-28.8-24-43.2-6.4-6.4-14.4-12.8-24-20.8-14.4-9.6-32-19.2-52.8-28.8-56-24-132.8-40-219.2-40s-163.2 16-219.2 40c-20.8 8-38.4 17.6-52.8 28.8-9.6 6.4-17.6 12.8-24 20.8-14.4 14.4-22.4 28.8-24 43.2 0 1.6 0 3.2 0 4.8s0 3.2 0 4.8zM832 400c0-1.6 0-3.2 0-4.8-1.6-14.4-9.6-28.8-24-43.2-46.4-48-158.4-88-296-88s-249.6 40-296 88c-14.4 14.4-22.4 28.8-24 43.2 0 1.6 0 3.2 0 4.8s0 3.2 0 4.8c1.6-1.6 3.2-3.2 6.4-4.8 12.8-9.6 27.2-19.2 41.6-28.8 67.2-36.8 164.8-60.8 272-60.8s204.8 22.4 272 60.8c16 8 30.4 17.6 41.6 28.8 1.6 1.6 4.8 3.2 6.4 4.8 0-1.6 0-3.2 0-4.8zM512 168c-184 0-320 72-320 136 0 1.6 0 3.2 0 4.8 62.4-56 182.4-92.8 320-92.8s256 36.8 320 92.8c0-1.6 0-3.2 0-4.8 0-64-136-136-320-136z" />
<glyph unicode="&#xe997;" glyph-name="database-light" d="M867.2 544c8 16 12.8 32 12.8 48 0 100.8-164.8 184-368 184s-368-83.2-368-184c0-16 4.8-32 12.8-48-8-16-12.8-32-12.8-48s4.8-32 12.8-48c-8-16-12.8-32-12.8-48s4.8-32 12.8-48c-8-16-12.8-32-12.8-48 0-100.8 164.8-184 368-184s368 83.2 368 184c0 16-4.8 32-12.8 48 8 16 12.8 32 12.8 48s-4.8 32-12.8 48c8 16 12.8 32 12.8 48s-4.8 32-12.8 48zM184 592c0 68.8 134.4 144 328 144s328-75.2 328-144c0-3.2 0-8-1.6-11.2-3.2-12.8-9.6-24-20.8-36.8-8-8-16-16-27.2-24s-24-16-40-24c-20.8-11.2-46.4-20.8-75.2-27.2-46.4-12.8-102.4-20.8-163.2-20.8s-116.8 8-164.8 20.8c-27.2 6.4-52.8 16-75.2 27.2-14.4 8-28.8 16-40 24s-20.8 16-27.2 24c-11.2 12.8-17.6 24-20.8 36.8 0 3.2 0 8 0 11.2zM840 304c0-68.8-134.4-144-328-144s-328 75.2-328 144c0 3.2 0 8 1.6 11.2 60.8-59.2 184-99.2 326.4-99.2s265.6 40 326.4 99.2c1.6-3.2 1.6-8 1.6-11.2zM840 400c0-3.2 0-8-1.6-11.2-3.2-12.8-9.6-24-20.8-36.8-44.8-51.2-158.4-96-307.2-96s-262.4 44.8-307.2 96c-11.2 12.8-17.6 24-20.8 36.8 0 3.2-1.6 8-1.6 11.2s0 8 1.6 11.2c4.8-4.8 8-8 12.8-11.2 9.6-8 22.4-16 35.2-24 67.2-40 168-64 280-64s211.2 25.6 280 64c12.8 6.4 24 14.4 35.2 24 4.8 3.2 8 8 12.8 11.2 1.6-3.2 1.6-8 1.6-11.2zM819.2 448c-8-8-16-16-27.2-24s-24-16-40-24c-57.6-28.8-140.8-48-240-48s-182.4 19.2-240 48c-14.4 8-28.8 16-40 24s-20.8 16-27.2 24c-11.2 12.8-17.6 24-20.8 36.8 0 3.2-1.6 8-1.6 11.2s0 8 1.6 11.2c4.8-4.8 8-8 12.8-11.2 9.6-8 22.4-16 35.2-24 16-9.6 32-17.6 51.2-24 19.2-8 41.6-14.4 64-20.8 49.6-12.8 105.6-19.2 164.8-19.2s115.2 6.4 164.8 19.2c22.4 6.4 44.8 12.8 64 20.8s35.2 16 51.2 24c12.8 6.4 24 14.4 35.2 24 4.8 3.2 8 8 12.8 11.2 0-3.2 1.6-8 1.6-11.2s0-8-1.6-11.2c-3.2-12.8-11.2-25.6-20.8-36.8z" />
<glyph unicode="&#xe998;" glyph-name="database-medium" d="M867.2 544c8 16 12.8 32 12.8 48 0 100.8-164.8 184-368 184s-368-83.2-368-184c0-16 4.8-32 12.8-48-8-16-12.8-32-12.8-48s4.8-32 12.8-48c-8-16-12.8-32-12.8-48s4.8-32 12.8-48c-8-16-12.8-32-12.8-48 0-100.8 164.8-184 368-184s368 83.2 368 184c0 16-4.8 32-12.8 48 8 16 12.8 32 12.8 48s-4.8 32-12.8 48c8 16 12.8 32 12.8 48s-4.8 32-12.8 48zM832 496c0-1.6 0-3.2 0-4.8-1.6-14.4-9.6-28.8-24-43.2-6.4-6.4-14.4-12.8-24-20.8-14.4-9.6-32-19.2-52.8-28.8-56-24-132.8-40-219.2-40s-163.2 16-219.2 40c-20.8 8-38.4 17.6-52.8 28.8-9.6 6.4-17.6 12.8-24 20.8-14.4 14.4-22.4 28.8-24 43.2 0 1.6 0 3.2 0 4.8s0 3.2 0 4.8c1.6-1.6 3.2-3.2 6.4-4.8 12.8-9.6 27.2-19.2 41.6-28.8 12.8-8 27.2-14.4 43.2-20.8 24-9.6 52.8-17.6 81.6-24 44.8-9.6 94.4-16 147.2-16s102.4 4.8 147.2 16c28.8 6.4 56 14.4 81.6 24 16 6.4 30.4 12.8 43.2 20.8 16 8 30.4 17.6 41.6 28.8 1.6 1.6 4.8 3.2 6.4 4.8 0-1.6 0-3.2 0-4.8zM832 400c0-1.6 0-3.2 0-4.8-1.6-14.4-9.6-28.8-24-43.2-46.4-48-158.4-88-296-88s-249.6 40-296 88c-14.4 14.4-22.4 28.8-24 43.2 0 1.6 0 3.2 0 4.8s0 3.2 0 4.8c1.6-1.6 3.2-3.2 6.4-4.8 12.8-9.6 27.2-19.2 41.6-28.8 67.2-36.8 164.8-60.8 272-60.8s204.8 22.4 272 60.8c16 8 30.4 17.6 41.6 28.8 1.6 1.6 4.8 3.2 6.4 4.8 0-1.6 0-3.2 0-4.8zM512 728c184 0 320-72 320-136 0-1.6 0-3.2 0-4.8-1.6-14.4-9.6-28.8-24-43.2-6.4-6.4-14.4-12.8-24-20.8-14.4-9.6-32-19.2-52.8-28.8s-44.8-17.6-72-24c-43.2-9.6-92.8-16-147.2-16s-104 6.4-147.2 16c-27.2 6.4-51.2 14.4-72 24-20.8 8-38.4 17.6-52.8 28.8-9.6 6.4-17.6 12.8-24 20.8-14.4 14.4-22.4 28.8-24 43.2 0 1.6 0 3.2 0 4.8 0 64 136 136 320 136zM512 168c-184 0-320 72-320 136 0 1.6 0 3.2 0 4.8 62.4-56 182.4-92.8 320-92.8s256 36.8 320 92.8c0-1.6 0-3.2 0-4.8 0-64-136-136-320-136z" />
<glyph unicode="&#xe999;" glyph-name="drop-bold" d="M800 382.4c0 158.4-288 419.2-288 419.2s-288-259.2-288-419.2 129.6-288 288-288 288 129.6 288 288z" />
<glyph unicode="&#xe99a;" glyph-name="drop-light" d="M512 747.2c88-84.8 248-260.8 248-364.8 0-136-112-248-248-248s-248 112-248 248c0 104 160 280 248 364.8zM512 801.6c0 0-288-259.2-288-419.2 0-158.4 129.6-288 288-288s288 129.6 288 288c0 160-288 419.2-288 419.2v0z" />
<glyph unicode="&#xe99b;" glyph-name="drop-medium" d="M512 713.6c104-102.4 224-251.2 224-331.2 0-123.2-100.8-224-224-224s-224 100.8-224 224c0 78.4 120 227.2 224 331.2zM512 801.6c0 0-288-259.2-288-419.2s129.6-288 288-288 288 129.6 288 288-288 419.2-288 419.2v0z" />
<glyph unicode="&#xe99c;" glyph-name="dropper-bold-rounded" d="M654.4 488l-11.2-11.2zM643.2 476.8v0 0l30.4-30.4-22.4-22.4-30.4 30.4-235.2-233.6c-30.4-30.4-75.2-44.8-116.8-36.8-9.6 1.6-16 9.6-19.2 17.6-9.6 44.8 4.8 91.2 36.8 123.2l232 232-32 32 22.4 22.4 32-32 113.6 113.6c14.4 14.4 32 22.4 51.2 22.4s36.8-8 51.2-22.4c28.8-28.8 28.8-73.6 0-102.4l-113.6-113.6zM643.2 476.8v0 0z" />
<glyph unicode="&#xe99d;" glyph-name="dropper-bold" d="M646.4 483.2v0l30.4-32-20.8-22.4-32 32-283.2-283.2-83.2 14.4-17.6 86.4 283.2 281.6-32 32 22.4 22.4 32-32 113.6 113.6c14.4 14.4 32 22.4 51.2 22.4s36.8-8 51.2-22.4c28.8-28.8 28.8-73.6 0-102.4l-113.6-113.6-1.6 3.2z" />
<glyph unicode="&#xe99e;" glyph-name="dropper-light-rounded" d="M648 481.6l113.6 113.6c28.8 28.8 28.8 73.6 0 102.4-14.4 14.4-32 22.4-51.2 22.4s-36.8-8-51.2-22.4l-113.6-113.6-32 32-22.4-22.4 32-32-283.2-283.2 16-76.8c1.6-4.8 4.8-9.6 11.2-11.2l73.6-14.4 283.2 283.2 30.4-30.4 22.4 22.4-28.8 30.4zM331.2 211.2l-46.4 8-9.6 48 270.4 272 56-56-270.4-272z" />
<glyph unicode="&#xe99f;" glyph-name="dropper-light" d="M761.6 595.2c28.8 28.8 28.8 73.6 0 102.4-14.4 14.4-32 22.4-51.2 22.4s-36.8-8-51.2-22.4l-113.6-113.6-32 32-22.4-22.4 32-32-283.2-283.2 19.2-86.4 83.2-16 283.2 283.2 30.4-30.4 22.4 22.4-30.4 30.4 113.6 113.6zM331.2 211.2l-46.4 8-9.6 48 270.4 272 56-56-270.4-272z" />
<glyph unicode="&#xe9a0;" glyph-name="dropper-medium-rounded" d="M648 481.6l113.6 113.6c28.8 28.8 28.8 73.6 0 102.4-14.4 14.4-32 22.4-51.2 22.4s-36.8-8-51.2-22.4l-113.6-113.6-32 32-22.4-24 32-32-283.2-281.6 16-75.2c1.6-6.4 6.4-12.8 14.4-12.8l72-12.8 281.6 281.6 30.4-30.4 22.4 22.4-28.8 30.4zM324.8 228.8l-27.2 4.8-6.4 28.8 265.6 264 33.6-33.6-265.6-264z" />
<glyph unicode="&#xe9a1;" glyph-name="dropper-medium" d="M763.2 697.6c-14.4 14.4-32 22.4-51.2 22.4s-36.8-8-51.2-22.4l-113.6-113.6-32 32-22.4-24 32-32-283.2-281.6 19.2-86.4 83.2-16 283.2 283.2 30.4-30.4 22.4 22.4-30.4 30.4 113.6 113.6c28.8 28.8 28.8 73.6 0 102.4zM326.4 228.8l-27.2 4.8-6.4 28.8 265.6 265.6 33.6-33.6-265.6-265.6z" />
<glyph unicode="&#xe9a2;" glyph-name="earth-bold" d="M862.4 472c-3.2 40-11.2 76.8-25.6 112-6.4 16-16 32-24 48-17.6 28.8-38.4 54.4-62.4 76.8 0 0 0 0 0 0-52.8 48-121.6 81.6-196.8 89.6 0 0 0 0 0 0-4.8 0-11.2 1.6-16 1.6-9.6 0-17.6 0-25.6 0s-16 0-24-1.6c-4.8 0-11.2 0-16-1.6-75.2-8-144-41.6-196.8-89.6 0 0 0 0 0 0-24-22.4-44.8-48-62.4-76.8-9.6-16-17.6-32-24-48-14.4-35.2-24-72-25.6-112 0-8-1.6-16-1.6-24s0-16 1.6-24c3.2-40 11.2-76.8 25.6-112 6.4-16 16-32 24-48 17.6-28.8 38.4-52.8 62.4-76.8 0 0 0 0 0 0 52.8-48 121.6-81.6 196.8-89.6 4.8 0 11.2-1.6 16-1.6 8 0 16-1.6 24-1.6s16 0 24 1.6c4.8 0 11.2 0 16 1.6 0 0 0 0 0 0 75.2 8 144 41.6 196.8 89.6 0 0 0 0 0 0 24 22.4 44.8 48 62.4 76.8 9.6 16 17.6 32 24 48 14.4 35.2 24 72 25.6 112 0 8 1.6 16 1.6 24s1.6 17.6 0 25.6zM355.2 707.2c-24-22.4-44.8-48-62.4-76.8h-20.8c20.8 32 49.6 57.6 83.2 76.8zM240 312c-17.6 33.6-28.8 72-32 112h32c3.2-40 11.2-76.8 25.6-112h-25.6zM241.6 472h-32c3.2 40 14.4 78.4 32 112h27.2c-16-35.2-25.6-72-27.2-112zM270.4 264h20.8c17.6-28.8 38.4-52.8 62.4-76.8-32 20.8-60.8 46.4-83.2 76.8zM488 161.6c-54.4 20.8-102.4 56-137.6 102.4h137.6v-102.4zM488 312h-168c-17.6 33.6-28.8 72-32 112h198.4v-112zM488 472h-198.4c3.2 40 14.4 78.4 32 112h168v-112zM488 632h-137.6c35.2 46.4 83.2 81.6 137.6 102.4v-102.4zM536 734.4c54.4-20.8 102.4-56 137.6-102.4h-137.6v102.4zM536 584h168c17.6-33.6 28.8-72 32-112h-200v112zM536 424h198.4c-3.2-40-14.4-78.4-32-112h-166.4v112zM536 161.6v102.4h137.6c-35.2-46.4-83.2-81.6-137.6-102.4zM668.8 187.2c24 22.4 44.8 48 62.4 76.8h20.8c-20.8-30.4-49.6-56-83.2-76.8zM732.8 632c-17.6 28.8-38.4 54.4-62.4 76.8 32-19.2 60.8-46.4 84.8-76.8h-22.4zM784 312h-27.2c14.4 35.2 24 72 25.6 112h32c-1.6-40-12.8-78.4-30.4-112zM782.4 472c-3.2 40-11.2 76.8-25.6 112h27.2c17.6-33.6 28.8-72 32-112h-33.6z" />
<glyph unicode="&#xe9a3;" glyph-name="earth-light" d="M864 464c-1.6 44.8-12.8 88-30.4 128-4.8 11.2-9.6 22.4-16 32-32 54.4-76.8 99.2-131.2 129.6 0 0 0 0 0 0-40 22.4-84.8 38.4-134.4 43.2 0 0 0 0 0 0-8 1.6-16 3.2-24 3.2-4.8 0-11.2 0-16 0s-11.2 0-16 0c-8 0-16 0-24-1.6-48-4.8-94.4-20.8-134.4-44.8-54.4-30.4-99.2-75.2-131.2-129.6-6.4-9.6-11.2-20.8-16-32-17.6-40-28.8-83.2-30.4-128 0-4.8 0-11.2 0-16s0-11.2 0-16c1.6-44.8 12.8-88 30.4-128 4.8-11.2 9.6-20.8 16-32 32-54.4 76.8-99.2 131.2-129.6 40-24 86.4-38.4 134.4-44.8 8-1.6 16-1.6 24-1.6 4.8 0 11.2 0 16 0s11.2 0 16 0c8 0 16 0 24 1.6 0 0 0 0 0 0 48 4.8 94.4 20.8 134.4 43.2 0 0 0 0 0 0 54.4 30.4 99.2 75.2 131.2 129.6 6.4 11.2 11.2 20.8 16 32 17.6 40 28.8 83.2 30.4 128 0 4.8 0 11.2 0 16 0 6.4 0 12.8 0 17.6zM417.6 753.6c-54.4-30.4-99.2-75.2-129.6-129.6h-41.6c38.4 60.8 99.2 107.2 171.2 129.6zM270.4 592c-17.6-40-28.8-83.2-30.4-128h-48c1.6 46.4 14.4 89.6 33.6 128h44.8zM192 432h48c1.6-44.8 12.8-88 30.4-128h-44.8c-19.2 38.4-30.4 81.6-33.6 128zM244.8 272h41.6c32-54.4 76.8-99.2 129.6-129.6-70.4 22.4-131.2 68.8-171.2 129.6zM496 142.4c-70.4 22.4-131.2 68.8-171.2 129.6h171.2v-129.6zM496 304h-190.4c-19.2 38.4-32 81.6-33.6 128h224v-128zM496 464h-224c1.6 46.4 14.4 89.6 33.6 128h190.4v-128zM496 624h-171.2c40 60.8 100.8 107.2 171.2 129.6v-129.6zM779.2 624h-41.6c-32 54.4-76.8 99.2-131.2 129.6 72-22.4 132.8-68.8 172.8-129.6zM528 753.6c70.4-22.4 131.2-68.8 171.2-129.6h-171.2v129.6zM528 592h190.4c19.2-38.4 32-81.6 33.6-128h-224v128zM528 432h224c-1.6-46.4-14.4-89.6-33.6-128h-190.4v128zM528 142.4v129.6h171.2c-40-60.8-100.8-107.2-171.2-129.6zM606.4 142.4c54.4 30.4 99.2 75.2 131.2 129.6h41.6c-40-60.8-100.8-107.2-172.8-129.6zM798.4 304h-44.8c17.6 40 28.8 83.2 30.4 128h48c-3.2-46.4-14.4-89.6-33.6-128zM784 464c-1.6 44.8-12.8 88-30.4 128h44.8c19.2-38.4 32-81.6 33.6-128h-48z" />
<glyph unicode="&#xe9a4;" glyph-name="earth-medium" d="M864 467.2c-1.6 43.2-12.8 83.2-28.8 120-6.4 14.4-12.8 27.2-20.8 40-24 41.6-57.6 76.8-96 105.6-48 35.2-104 57.6-166.4 64-6.4 1.6-12.8 1.6-20.8 1.6-6.4 0-12.8 0-20.8 0s-12.8 0-20.8 0c-6.4 0-12.8 0-20.8-1.6 0 0 0 0 0 0-62.4-6.4-118.4-30.4-166.4-64 0 0 0 0 0 0-38.4-28.8-72-64-96-104-8-12.8-14.4-25.6-20.8-40-16-36.8-25.6-76.8-28.8-120 0-6.4 0-12.8 0-20.8 0-6.4 0-12.8 0-20.8 1.6-43.2 12.8-83.2 28.8-120 6.4-14.4 12.8-27.2 20.8-40 24-41.6 57.6-76.8 96-104 0 0 0 0 0 0 48-35.2 104-57.6 166.4-64 0 0 0 0 0 0 6.4 0 12.8-1.6 20.8-1.6 6.4 0 12.8 0 20.8 0s12.8 0 20.8 0c6.4 0 12.8 0 20.8 1.6 62.4 6.4 118.4 30.4 166.4 64 38.4 28.8 72 64 96 105.6 8 12.8 14.4 25.6 20.8 40 16 36.8 25.6 76.8 28.8 120 0 6.4 0 12.8 0 20.8 0 4.8 0 11.2 0 17.6zM766.4 627.2h-32c-24 41.6-57.6 76.8-96 105.6 51.2-22.4 96-59.2 128-105.6zM744 467.2h-211.2v120h179.2c17.6-35.2 28.8-76.8 32-120zM532.8 427.2h211.2c-3.2-43.2-14.4-83.2-32-120h-179.2v120zM532.8 744c62.4-20.8 116.8-62.4 155.2-115.2h-155.2v115.2zM492.8 744v-115.2h-155.2c36.8 52.8 91.2 92.8 155.2 115.2zM385.6 732.8c-38.4-28.8-72-64-96-105.6h-32c32 46.4 76.8 83.2 128 105.6zM233.6 587.2h35.2c-16-36.8-25.6-76.8-28.8-120h-40c3.2 43.2 14.4 84.8 33.6 120zM233.6 307.2c-19.2 36.8-30.4 76.8-32 120h38.4c1.6-43.2 12.8-83.2 28.8-120h-35.2zM257.6 267.2h32c24-41.6 57.6-76.8 96-105.6-51.2 24-96 60.8-128 105.6zM492.8 152c-62.4 20.8-116.8 62.4-155.2 115.2h155.2v-115.2zM492.8 307.2h-179.2c-19.2 36.8-30.4 76.8-32 120h211.2v-120zM492.8 467.2h-212.8c3.2 43.2 14.4 83.2 32 120h179.2v-120zM532.8 152v115.2h155.2c-38.4-52.8-92.8-92.8-155.2-115.2zM638.4 163.2c38.4 28.8 72 64 96 105.6h32c-32-46.4-76.8-83.2-128-105.6zM790.4 307.2h-35.2c16 36.8 25.6 76.8 28.8 120h40c-3.2-41.6-14.4-83.2-33.6-120zM784 467.2c-1.6 43.2-12.8 83.2-28.8 120h35.2c19.2-36.8 30.4-76.8 32-120h-38.4z" />
<glyph unicode="&#xe9a5;" glyph-name="edit-bold" d="M808 552v-408h-592v608h408l64 64h-536v-736h720v536l-64-64zM504 313.6l-136 136-4.8-4.8v-1.6l-68.8-203.2 203.2 68.8h1.6zM872 680l-80-80-243.2-241.6-134.4 134.4 321.6 323.2 104-104z" />
<glyph unicode="&#xe9a6;" glyph-name="edit-light" d="M832 720l-48 48-49.6 48-372.8-372.8v-1.6l-67.2-201.6 203.2 68.8h1.6l372.8 372.8-40 38.4zM502.4 369.6l-78.4 78.4 312 312 80-80-313.6-310.4zM832 593.6v-473.6h-640v656h454.4l40 40h-534.4v-736h720v553.6l-40-40z" />
<glyph unicode="&#xe9a7;" glyph-name="edit-medium" d="M824 728l-40 40-49.6 48-372.8-372.8v-1.6l-67.2-201.6 203.2 68.8h1.6l372.8 372.8-48 46.4zM502.4 380.8l-67.2 67.2 299.2 299.2 67.2-67.2-299.2-299.2zM824 585.6v-457.6h-624v640h438.4l48 48h-534.4v-736h720v553.6l-48-48z" />
<glyph unicode="&#xe9a8;" glyph-name="envelope-bold-rounded" d="M512 464l-297.6 216h595.2zM864 640v-392c0-17.6-14.4-32-32-32h-640c-17.6 0-32 14.4-32 32v392l352-256 352 256z" />
<glyph unicode="&#xe9a9;" glyph-name="envelope-bold" d="M512 464l-297.6 216h595.2zM864 640v-424h-704v424l352-256z" />
<glyph unicode="&#xe9aa;" glyph-name="envelope-light-rounded" d="M160 648v-400c0-17.6 14.4-32 32-32h640c17.6 0 32 14.4 32 32v400c0 17.6-14.4 32-32 32h-640c-17.6 0-32-14.4-32-32zM784 264h-544c-17.6 0-32 14.4-32 32v304c0 17.6 14.4 32 32 32h544c17.6 0 32-14.4 32-32v-304c0-17.6-14.4-32-32-32zM816 632v-16l-284.8-208c-11.2-8-27.2-8-38.4 0l-284.8 208v16h48c6.4 0 12.8-1.6 19.2-6.4l217.6-158.4c11.2-8 27.2-8 38.4 0l217.6 158.4c4.8 4.8 12.8 6.4 19.2 6.4h48z" />
<glyph unicode="&#xe9ab;" glyph-name="envelope-light" d="M160 680v-464h704v464h-704zM816 264h-608v368h608v-368zM816 632v-16l-304-220.8-304 220.8v16h59.2l244.8-179.2 244.8 179.2z" />
<glyph unicode="&#xe9ac;" glyph-name="envelope-medium-rounded" d="M160 648v-400c0-17.6 14.4-32 32-32h640c17.6 0 32 14.4 32 32v400c0 17.6-14.4 32-32 32h-640c-17.6 0-32-14.4-32-32zM768 280h-512c-17.6 0-32 14.4-32 32v272c0 17.6 14.4 32 32 32h512c17.6 0 32-14.4 32-32v-272c0-17.6-14.4-32-32-32zM800 616v-8c0-8-4.8-16-11.2-22.4l-260.8-188.8c-9.6-6.4-22.4-6.4-32 0l-260.8 188.8c-6.4 4.8-11.2 12.8-11.2 22.4v8h70.4c6.4 0 11.2-1.6 16-4.8l185.6-136c9.6-6.4 22.4-6.4 32 0l187.2 136c4.8 3.2 9.6 4.8 16 4.8h68.8z" />
<glyph unicode="&#xe9ad;" glyph-name="envelope-medium" d="M160 680v-464h704v464h-704zM800 280h-576v336h576v-336zM800 616v-22.4l-288-209.6-288 209.6v22.4h78.4l209.6-152 209.6 152z" />
<glyph unicode="&#xe9ae;" glyph-name="file-add-bold" d="M624 560v256h-464v-736h704v480h-240zM640 424h-104v-104h-48v104h-104v48h104v104h48v-104h104v-48zM864 651.2v-40h-192v204.8h35.2z" />
<glyph unicode="&#xe9af;" glyph-name="file-add-light" d="M667.2 816h-507.2v-736h704v531.2l-196.8 204.8zM824 120h-624v656h424v-216h200v-440zM664 600v161.6l155.2-161.6h-155.2zM640 467.2v-40h-107.2v-107.2h-40v107.2h-108.8v40h108.8v108.8h40v-108.8z" />
<glyph unicode="&#xe9b0;" glyph-name="file-add-medium" d="M672 811.2l-4.8 4.8h-507.2v-736h704v531.2l-192 200zM816 128h-608v640h416v-208h192v-432zM672 608v134.4l128-134.4h-128zM640 472v-48h-104v-104h-48v104h-104v48h104v104h48v-104z" />
<glyph unicode="&#xe9b1;" glyph-name="file-bold" d="M864 560v-480h-704v736h464v-256zM864 651.2v-40h-192v204.8h35.2z" />
<glyph unicode="&#xe9b2;" glyph-name="file-cancel-bold" d="M624 560v256h-464v-736h704v480h-240zM619.2 374.4l-33.6-33.6-73.6 73.6-73.6-73.6-33.6 33.6 73.6 73.6-73.6 73.6 33.6 33.6 73.6-73.6 73.6 73.6 33.6-33.6-73.6-73.6 73.6-73.6zM864 651.2v-40h-192v204.8h35.2z" />
<glyph unicode="&#xe9b3;" glyph-name="file-cancel-light" d="M667.2 816h-507.2v-736h704v531.2l-196.8 204.8zM824 120h-624v656h424v-216h200v-440zM664 600v161.6l155.2-161.6h-155.2zM588.8 552l27.2-28.8-75.2-75.2 75.2-75.2-27.2-28.8-76.8 75.2-76.8-76.8-27.2 28.8 76.8 76.8-76.8 76.8 27.2 28.8 76.8-76.8z" />
<glyph unicode="&#xe9b4;" glyph-name="file-cancel-medium" d="M672 811.2l-4.8 4.8h-507.2v-736h704v531.2l-192 200zM816 128h-608v640h416v-208h192v-432zM672 608v134.4l128-134.4h-128zM585.6 555.2l33.6-33.6-73.6-73.6 73.6-73.6-33.6-33.6-73.6 73.6-73.6-73.6-33.6 33.6 73.6 73.6-73.6 73.6 33.6 33.6 73.6-73.6z" />
<glyph unicode="&#xe9b5;" glyph-name="file-download-bold" d="M864 560v-480h-347.2l115.2 123.2 28.8 30.4-17.6 17.6-17.6 16-14.4-16-44.8-48-30.4-32v219.2h-48v-217.6l-32 30.4-51.2 48-8 8-8-8-25.6-27.2 22.4-20.8 131.2-123.2h-356.8v736h464v-256zM864 651.2v-40h-192v204.8h35.2z" />
<glyph unicode="&#xe9b6;" glyph-name="file-download-light" d="M667.2 816h-507.2v-736h278.4l-43.2 40h-195.2v656h424v-216h200v-440h-204.8l-36.8-40h281.6v531.2l-196.8 204.8zM664 600v161.6l155.2-161.6h-155.2zM657.6 230.4l-20.8-22.4-120-128-136 128-14.4 14.4 24 25.6 3.2 3.2 3.2-3.2 41.6-40 52.8-49.6v225.6h40v-228.8l51.2 52.8 36.8 40 9.6 9.6 11.2-9.6z" />
<glyph unicode="&#xe9b7;" glyph-name="file-download-medium" d="M672 811.2l-4.8 4.8h-507.2v-736h296l-51.2 48h-196.8v640h416v-208h192v-432h-204.8l-44.8-48h297.6v531.2l-192 200zM672 608v134.4l128-134.4h-128zM660.8 233.6l-28.8-30.4-115.2-123.2-131.2 123.2-22.4 20.8 25.6 27.2 8 8 8-8 51.2-48 32-30.4v217.6h48v-219.2l30.4 32 44.8 48 14.4 16 17.6-16z" />
<glyph unicode="&#xe9b8;" glyph-name="file-eye-bold" d="M624 560v256h-464v-736h704v480h-240zM512 160c-113.6 0-209.6 73.6-243.2 176 19.2 56 56 102.4 104 134.4 40 27.2 88 41.6 140.8 41.6s99.2-14.4 140.8-41.6c48-32 84.8-78.4 104-134.4-36.8-102.4-132.8-176-246.4-176zM630.4 436.8c-35.2 22.4-75.2 35.2-118.4 35.2s-83.2-12.8-118.4-35.2c-36.8-24-67.2-59.2-83.2-100.8 32-81.6 112-136 200-136s168 54.4 200 136c-14.4 41.6-43.2 76.8-80 100.8zM512 256c-44.8 0-80 36.8-80 80s36.8 80 80 80 80-36.8 80-80-35.2-80-80-80zM864 651.2v-40h-192v204.8h35.2z" />
<glyph unicode="&#xe9b9;" glyph-name="file-eye-light" d="M667.2 816h-507.2v-736h704v531.2l-196.8 204.8zM824 120h-624v656h424v-216h200v-440zM664 600v161.6l155.2-161.6h-155.2zM512 472c43.2 0 83.2-12.8 118.4-35.2 36.8-24 65.6-59.2 83.2-100.8-32-81.6-112-136-200-136s-169.6 54.4-201.6 136c16 41.6 44.8 76.8 83.2 100.8 33.6 22.4 73.6 35.2 116.8 35.2zM512 512c-51.2 0-99.2-14.4-139.2-41.6-48-32-84.8-78.4-102.4-134.4 33.6-102.4 129.6-176 243.2-176s209.6 73.6 243.2 176c-17.6 56-54.4 102.4-102.4 134.4-43.2 27.2-91.2 41.6-142.4 41.6v0zM592 336c0-44.183-35.817-80-80-80s-80 35.817-80 80c0 44.183 35.817 80 80 80s80-35.817 80-80z" />
<glyph unicode="&#xe9ba;" glyph-name="file-eye-medium" d="M672 811.2l-4.8 4.8h-507.2v-736h704v531.2l-192 200zM816 128h-608v640h416v-208h192v-432zM672 608v134.4l128-134.4h-128zM512 464c41.6 0 80-11.2 113.6-33.6 35.2-22.4 62.4-56 78.4-94.4-32-76.8-107.2-128-192-128s-160 51.2-192 128c16 38.4 43.2 72 78.4 94.4 33.6 22.4 72 33.6 113.6 33.6zM512 512c-51.2 0-99.2-14.4-139.2-41.6-48-32-84.8-78.4-102.4-134.4 33.6-102.4 129.6-176 243.2-176s209.6 73.6 243.2 176c-17.6 56-54.4 102.4-102.4 134.4-43.2 27.2-91.2 41.6-142.4 41.6v0zM592 336c0-44.183-35.817-80-80-80s-80 35.817-80 80c0 44.183 35.817 80 80 80s80-35.817 80-80z" />
<glyph unicode="&#xe9bb;" glyph-name="file-light" d="M667.2 816h-507.2v-736h704v531.2l-196.8 204.8zM824 120h-624v656h424v-216h200v-440zM664 600v161.6l155.2-161.6h-155.2z" />
<glyph unicode="&#xe9bc;" glyph-name="file-medium" d="M672 811.2l-4.8 4.8h-507.2v-736h704v531.2l-192 200zM816 128h-608v640h416v-208h192v-432zM672 608v134.4l128-134.4h-128z" />
<glyph unicode="&#xe9bd;" glyph-name="file-minus-bold" d="M624 560v256h-464v-736h704v480h-240zM640 424h-256v48h256v-48zM864 651.2v-40h-192v204.8h35.2z" />
<glyph unicode="&#xe9be;" glyph-name="file-minus-light" d="M667.2 816h-507.2v-736h704v531.2l-196.8 204.8zM824 120h-624v656h424v-216h200v-440zM664 600v161.6l155.2-161.6h-155.2zM384 467.2h256v-40h-256v40z" />
<glyph unicode="&#xe9bf;" glyph-name="file-minus-medium" d="M672 811.2l-4.8 4.8h-507.2v-736h704v531.2l-192 200zM816 128h-608v640h416v-208h192v-432zM672 608v134.4l128-134.4h-128zM384 472h256v-48h-256v48z" />
<glyph unicode="&#xe9c0;" glyph-name="file-text-bold" d="M624 560v256h-464v-736h704v480h-240zM284.8 464h256v-48h-256v48zM644.8 208h-360v48h360v-48zM644.8 312h-360v48h360v-48zM864 651.2v-40h-192v204.8h35.2z" />
<glyph unicode="&#xe9c1;" glyph-name="file-text-light" d="M667.2 816h-507.2v-736h704v531.2l-196.8 204.8zM824 120h-624v656h424v-216h200v-440zM664 600v161.6l155.2-161.6h-155.2zM284.8 459.2h256v-40h-256v40zM284.8 355.2h360v-40h-360v40zM284.8 251.2h360v-40h-360v40z" />
<glyph unicode="&#xe9c2;" glyph-name="file-text-medium" d="M672 811.2l-4.8 4.8h-507.2v-736h704v531.2l-192 200zM816 128h-608v640h416v-208h192v-432zM672 608v134.4l128-134.4h-128zM284.8 464h256v-48h-256v48zM284.8 360h360v-48h-360v48zM284.8 256h360v-48h-360v48z" />
<glyph unicode="&#xe9c3;" glyph-name="file-upload-bold" d="M864 560v-480h-328v219.2l89.6-96 35.2 33.6-144 153.6-153.6-145.6 33.6-33.6 91.2 84.8v-216h-328v736h464v-256zM864 651.2v-40h-192v204.8h35.2z" />
<glyph unicode="&#xe9c4;" glyph-name="file-upload-light" d="M667.2 816h-507.2v-736h704v531.2l-196.8 204.8zM664 761.6l155.2-161.6h-155.2v161.6zM824 120h-292.8v190.4l97.6-104 28.8 27.2-140.8 150.4-150.4-142.4 27.2-28.8 97.6 92.8v-185.6h-291.2v656h424v-216h200v-440z" />
<glyph unicode="&#xe9c5;" glyph-name="file-upload-medium" d="M672 811.2l-4.8 4.8h-507.2v-736h704v531.2l-192 200zM672 742.4l128-134.4h-128v134.4zM816 128h-280v171.2l91.2-96 35.2 33.6-144 153.6-153.6-144 33.6-35.2 91.2 86.4v-169.6h-281.6v640h416v-208h192v-432z" />
<glyph unicode="&#xe9c6;" glyph-name="file-zip-bold" d="M864 560v-480h-704v736h304l56-24-60.8-25.6-3.2-43.2 75.2-43.2-75.2-43.2 3.2-43.2 67.2-28.8-70.4-40v-41.6l75.2-43.2-75.2-43.2 3.2-43.2 64-27.2-44.8-22.4h-46.4v-176h144v171.2l14.4 8-1.6 43.2-67.2 28.8 70.4 40v41.6l-75.2 43.2 75.2 43.2-3.2 43.2-67.2 28.8 70.4 40v41.6l-70.4 40 67.2 28.8v44.8l-3.2 1.6h38.4v-256zM864 651.2v-40h-192v204.8h35.2z" />
<glyph unicode="&#xe9c7;" glyph-name="file-zip-light" d="M667.2 816h-507.2v-736h704v531.2l-196.8 204.8zM664 761.6l155.2-161.6h-155.2v161.6zM824 120h-624v656h267.2l-1.6-30.4 81.6-46.4-81.6-46.4 1.6-35.2 75.2-32-76.8-44.8v-35.2l81.6-46.4-81.6-46.4 1.6-35.2 72-30.4-44.8-22.4h-67.2v-176h144v168l25.6 12.8-1.6 36.8-75.2 32 76.8 44.8v35.2l-81.6 46.4 81.6 46.4-1.6 35.2-75.2 32 76.8 44.8v35.2l-76.8 44.8 36.8 16h67.2v-219.2h200v-440z" />
<glyph unicode="&#xe9c8;" glyph-name="file-zip-medium" d="M672 811.2l-4.8 4.8h-507.2v-736h704v531.2l-192 200zM672 742.4l128-134.4h-128v134.4zM816 128h-608v640h246.4v-11.2l75.2-43.2-75.2-43.2 1.6-43.2 67.2-28.8-70.4-40v-41.6l75.2-43.2-75.2-43.2 1.6-43.2 64-27.2-44.8-22.4h-43.2v-176h144v172.8l11.2 4.8-1.6 43.2-67.2 28.8 70.4 40v41.6l-75.2 43.2 75.2 43.2-3.2 43.2-67.2 28.8 70.4 40v41.6l-57.6 35.2h94.4v-208h192v-432z" />
<glyph unicode="&#xe9c9;" glyph-name="folder-add-bold" d="M524.8 664l-52.8 80h-312v-592h704v512h-339.2zM640 424h-104v-104h-48v104h-104v48h104v104h48v-104h104v-48z" />
<glyph unicode="&#xe9ca;" glyph-name="folder-add-light" d="M449.6 704l40-62.4 11.2-17.6h323.2v-432h-624v512h249.6zM472 744h-312v-592h704v512h-339.2l-52.8 80zM640 467.2v-40h-107.2v-107.2h-40v107.2h-108.8v40h108.8v108.8h40v-108.8z" />
<glyph unicode="&#xe9cb;" glyph-name="folder-add-medium" d="M446.4 696l38.4-57.6 14.4-22.4h316.8v-416h-608v496h238.4zM472 744h-312v-592h704v512h-339.2l-52.8 80zM640 472v-48h-104v-104h-48v104h-104v48h104v104h48v-104z" />
<glyph unicode="&#xe9cc;" glyph-name="folder-bold" d="M864 664v-512h-704v592h312l52.8-80z" />
<glyph unicode="&#xe9cd;" glyph-name="folder-download-bold" d="M864 664v-512h-347.2l144 153.6-35.2 33.6-89.6-97.6v220.8h-48v-217.6l-91.2 86.4-33.6-35.2 153.6-144h-356.8v592h312l52.8-80z" />
<glyph unicode="&#xe9ce;" glyph-name="folder-download-light" d="M524.8 664l-52.8 80h-312v-592h305.6l-43.2 40h-222.4v512h249.6l40-62.4 11.2-17.6h323.2v-432h-224l-38.4-40h302.4v512h-339.2zM657.6 302.4l-57.6-62.4-38.4-40-44.8-48-51.2 48-43.2 40-56 54.4 27.2 28.8 88-83.2 9.6-9.6v225.6h40v-228.8l12.8 12.8 84.8 89.6z" />
<glyph unicode="&#xe9cf;" glyph-name="folder-download-medium" d="M524.8 664l-52.8 80h-312v-592h305.6l-51.2 48h-206.4v496h238.4l38.4-57.6 14.4-22.4h316.8v-416h-209.6l-44.8-48h302.4v512h-339.2zM660.8 305.6l-54.4-57.6-89.6-96-153.6 144 33.6 35.2 88-83.2 3.2-3.2v217.6h48v-220.8l4.8 6.4 84.8 91.2z" />
<glyph unicode="&#xe9d0;" glyph-name="folder-light" d="M449.6 704l40-62.4 11.2-17.6h323.2v-432h-624v512h249.6zM472 744h-312v-592h704v512h-339.2l-52.8 80z" />
<glyph unicode="&#xe9d1;" glyph-name="folder-medium" d="M446.4 696l38.4-57.6 14.4-22.4h316.8v-416h-608v496h238.4zM472 744h-312v-592h704v512h-339.2l-52.8 80z" />
<glyph unicode="&#xe9d2;" glyph-name="folder-upload-bold" d="M864 664v-512h-328v219.2l89.6-96 35.2 33.6-144 153.6-153.6-145.6 33.6-33.6 91.2 84.8v-216h-328v592h312l52.8-80z" />
<glyph unicode="&#xe9d3;" glyph-name="folder-upload-light" d="M524.8 664l-52.8 80h-312v-592h704v512h-339.2zM824 192h-292.8v190.4l97.6-104 28.8 27.2-142.4 150.4-150.4-142.4 27.2-28.8 97.6 92.8v-185.6h-289.6v512h249.6l40-62.4 11.2-17.6h323.2v-432z" />
<glyph unicode="&#xe9d4;" glyph-name="folder-upload-medium" d="M524.8 664l-52.8 80h-312v-592h704v512h-339.2zM816 200h-280v171.2l91.2-96 35.2 33.6-144 153.6-153.6-144 33.6-35.2 91.2 86.4v-168h-281.6v496h238.4l38.4-57.6 14.4-22.4h316.8v-417.6z" />
<glyph unicode="&#xe9d5;" glyph-name="gift-bold" d="M766.4 640c28.8 78.4 28.8 123.2 0 144-56 40-190.4-60.8-259.2-120-169.6 140.8-224 153.6-254.4 128-32-27.2-9.6-91.2 22.4-150.4h-123.2v-192h48v-352h275.2v528c4.8-4.8 9.6-8 16-12.8l16-12.8 16 12.8c8 8 17.6 14.4 27.2 22.4v-539.2h275.2v352h48v192h-107.2zM328 640c-25.6 46.4-44.8 96-44.8 113.6 11.2-1.6 52.8-14.4 174.4-113.6h-129.6zM737.6 744c0 0 12.8-17.6-22.4-105.6h-161.6c88 72 168 115.2 184 105.6z" />
<glyph unicode="&#xe9d6;" glyph-name="gift-light" d="M761.6 641.6c28.8 76.8 28.8 120 1.6 140.8-52.8 40-188.8-64-257.6-121.6-179.2 148.8-227.2 150.4-251.2 129.6-30.4-25.6-4.8-94.4 24-148.8h-126.4v-182.4h48v-361.6h624v361.6h48v182.4h-110.4zM740.8 748.8c0 0 16-14.4-20.8-108.8h-172.8c86.4 72 174.4 123.2 193.6 108.8zM280 758.4c6.4 1.6 44.8-1.6 184-116.8h-140.8c-27.2 49.6-46.4 102.4-43.2 116.8zM192 499.2v102.4h300.8v-102.4h-300.8zM240 457.6h252.8v-320h-252.8v320zM784 137.6h-251.2v320h251.2v-320zM832 499.2h-299.2v102.4h299.2v-102.4z" />
<glyph unicode="&#xe9d7;" glyph-name="gift-medium" d="M766.4 640c28.8 78.4 28.8 123.2 0 144-56 40-190.4-60.8-259.2-120-169.6 140.8-224 153.6-254.4 128-32-27.2-9.6-91.2 22.4-150.4h-123.2v-192h48v-352h624v350.4h48v192h-105.6zM737.6 744c0 0 12.8-17.6-22.4-105.6h-161.6c88 72 168 115.2 184 105.6zM284.8 752c11.2-1.6 52.8-14.4 174.4-113.6h-131.2c-25.6 48-44.8 96-43.2 113.6zM200 592h288v-96h-288v96zM248 448h240v-304h-240v304zM776 144h-240v304h240v-304zM824 496h-288v96h288v-96z" />
<glyph unicode="&#xe9d8;" glyph-name="grid-bold" d="M144 816h160v-160h-160v160zM432 816h160v-160h-160v160zM720 816h160v-160h-160v160zM144 528h160v-160h-160v160zM432 528h160v-160h-160v160zM720 528h160v-160h-160v160zM144 240h160v-160h-160v160zM432 240h160v-160h-160v160zM720 240h160v-160h-160v160z" />
<glyph unicode="&#xe9d9;" glyph-name="grid-light" d="M288 800v-128h-128v128h128zM304 816h-160v-160h160v160zM576 800v-128h-128v128h128zM592 816h-160v-160h160v160zM864 800v-128h-128v128h128zM880 816h-160v-160h160v160zM288 512v-128h-128v128h128zM304 528h-160v-160h160v160zM576 512v-128h-128v128h128zM592 528h-160v-160h160v160zM864 512v-128h-128v128h128zM880 528h-160v-160h160v160zM288 224v-128h-128v128h128zM304 240h-160v-160h160v160zM576 224v-128h-128v128h128zM592 240h-160v-160h160v160zM864 224v-128h-128v128h128zM880 240h-160v-160h160v160z" />
<glyph unicode="&#xe9da;" glyph-name="grid-medium" d="M272 784v-96h-96v96h96zM304 816h-160v-160h160v160zM560 784v-96h-96v96h96zM592 816h-160v-160h160v160zM848 784v-96h-96v96h96zM880 816h-160v-160h160v160zM272 496v-96h-96v96h96zM304 528h-160v-160h160v160zM560 496v-96h-96v96h96zM592 528h-160v-160h160v160zM848 496v-96h-96v96h96zM880 528h-160v-160h160v160zM272 208v-96h-96v96h96zM304 240h-160v-160h160v160zM560 208v-96h-96v96h96zM592 240h-160v-160h160v160zM848 208v-96h-96v96h96zM880 240h-160v-160h160v160z" />
<glyph unicode="&#xe9db;" glyph-name="headphone-bold" d="M864 403.2v-134.4c0-16-6.4-32-17.6-43.2s-25.6-17.6-43.2-17.6h-22.4c-3.2 0-6.4 0-9.6 1.6-28.8 4.8-49.6 30.4-49.6 59.2v134.4c0 30.4 20.8 54.4 49.6 59.2-48 96-145.6 161.6-259.2 161.6s-211.2-65.6-257.6-161.6c28.8-4.8 49.6-28.8 49.6-59.2v-134.4c0-30.4-20.8-54.4-49.6-59.2-3.2 0-6.4-1.6-9.6-1.6h-22.4c-17.6 0-32 6.4-43.2 17.6s-17.6 25.6-17.6 43.2v134.4c0 16 6.4 32 17.6 43.2v0c44.8 140.8 177.6 241.6 332.8 241.6s288-100.8 334.4-241.6v0c11.2-11.2 17.6-25.6 17.6-43.2z" />
<glyph unicode="&#xe9dc;" glyph-name="headphone-light" d="M864 403.2v-134.4c0-16-6.4-32-17.6-43.2s-25.6-17.6-43.2-17.6h-22.4c-33.6 0-60.8 27.2-60.8 60.8v134.4c0 33.6 27.2 60.8 60.8 60.8h16c-49.6 108.8-158.4 184-284.8 184s-235.2-75.2-284.8-184h16c33.6 0 60.8-27.2 60.8-60.8v-134.4c0-33.6-27.2-60.8-60.8-60.8h-22.4c-17.6 0-32 6.4-43.2 17.6s-17.6 25.6-17.6 43.2v134.4c0 16 6.4 32 17.6 43.2 46.4 140.8 177.6 241.6 334.4 241.6s288-100.8 334.4-241.6c11.2-11.2 17.6-25.6 17.6-43.2z" />
<glyph unicode="&#xe9dd;" glyph-name="headphone-medium" d="M864 403.2v-134.4c0-16-6.4-32-17.6-43.2s-25.6-17.6-43.2-17.6h-22.4c-33.6 0-60.8 27.2-60.8 60.8v134.4c0 33.6 27.2 60.8 60.8 60.8h6.4c-48 104-153.6 176-275.2 176s-227.2-72-275.2-176h6.4c33.6 0 60.8-27.2 60.8-60.8v-134.4c0-33.6-27.2-60.8-60.8-60.8h-22.4c-17.6 0-32 6.4-43.2 17.6s-17.6 25.6-17.6 43.2v134.4c0 16 6.4 32 17.6 43.2 46.4 140.8 177.6 241.6 334.4 241.6s288-100.8 334.4-241.6c11.2-11.2 17.6-25.6 17.6-43.2z" />
<glyph unicode="&#xe9de;" glyph-name="home-bold" d="M864 462.4v-360h-307.2v153.6h-88v-153.6h-308.8v360l361.6 331.2z" />
<glyph unicode="&#xe9df;" glyph-name="home-light" d="M520 739.2l304-292.8v-304h-227.2v153.6h-168v-153.6h-228.8v302.4l320 294.4zM521.6 793.6l-361.6-331.2v-360h308.8v153.6h88v-153.6h307.2v360l-342.4 331.2z" />
<glyph unicode="&#xe9e0;" glyph-name="home-medium" d="M520 728l296-284.8v-292.8h-211.2v153.6h-184v-153.6h-212.8v291.2l312 286.4zM521.6 793.6l-361.6-331.2v-360h308.8v153.6h88v-153.6h307.2v360l-342.4 331.2z" />
<glyph unicode="&#xe9e1;" glyph-name="imag-bold" d="M152 808v-720h720v720h-720zM688 704c44.8 0 80-35.2 80-80s-35.2-80-80-80-80 35.2-80 80 35.2 80 80 80zM254.4 188.8l220.8 382.4 128-222.4 36.8 64 129.6-224h-515.2z" />
<glyph unicode="&#xe9e2;" glyph-name="imag-light" d="M832 768v-640h-640v640h640zM872 808h-720v-720h720v720zM769.6 188.8h-515.2l220.8 382.4 128-220.8 36.8 62.4zM768 624c0-44.183-35.817-80-80-80s-80 35.817-80 80c0 44.183 35.817 80 80 80s80-35.817 80-80z" />
<glyph unicode="&#xe9e3;" glyph-name="imag-medium" d="M824 760v-624h-624v624h624zM872 808h-720v-720h720v720zM769.6 188.8h-515.2l220.8 382.4 128-220.8 36.8 62.4zM768 624c0-44.183-35.817-80-80-80s-80 35.817-80 80c0 44.183 35.817 80 80 80s80-35.817 80-80z" />
<glyph unicode="&#xe9e4;" glyph-name="info-bold" d="M512 800c-195.2 0-352-156.8-352-352s156.8-352 352-352 352 156.8 352 352-156.8 352-352 352zM544 192h-64v384h64v-384zM544 640h-64v64h64v-64z" />
<glyph unicode="&#xe9e5;" glyph-name="info-light" d="M492.8 576h40v-384h-40v384zM492.8 704h40v-64h-40v64zM512 760c172.8 0 312-139.2 312-312s-139.2-312-312-312-312 139.2-312 312 139.2 312 312 312zM512 800c-195.2 0-352-156.8-352-352s156.8-352 352-352 352 156.8 352 352-156.8 352-352 352v0z" />
<glyph unicode="&#xe9e6;" glyph-name="info-medium" d="M488 576h48v-384h-48v384zM488 704h48v-64h-48v64zM512 752c168 0 304-136 304-304s-136-304-304-304-304 136-304 304 136 304 304 304zM512 800c-195.2 0-352-156.8-352-352s156.8-352 352-352 352 156.8 352 352-156.8 352-352 352v0z" />
<glyph unicode="&#xe9e7;" glyph-name="justify-bold" d="M248 707.2h528v-64h-528v64zM248 404.8h528v-64h-528v64zM248 252.8h528v-64h-528v64zM248 555.2h528v-64h-528v64z" />
<glyph unicode="&#xe9e8;" glyph-name="justify-medium" d="M248 699.2h528v-48h-528v48zM248 396.8h528v-48h-528v48zM248 244.8h528v-48h-528v48zM248 547.2h528v-48h-528v48z" />
<glyph unicode="&#xe9e9;" glyph-name="key-bold-rounded" d="M744 692.8c-57.6 56-148.8 57.6-206.4 0-49.6-49.6-56-126.4-19.2-182.4l-273.6-272c-11.2-11.2-11.2-30.4 0-41.6l4.8-4.8c11.2-11.2 28.8-11.2 40 0l14.4 12.8 36.8-36.8c9.6-9.6 24-9.6 33.6 0 4.8 4.8 6.4 11.2 6.4 16s-1.6 12.8-6.4 16l-38.4 40 17.6 17.6 12.8-12.8c9.6-9.6 24-9.6 33.6 0 4.8 4.8 8 11.2 8 16s-3.2 12.8-8 17.6l-12.8 12.8 176 176c57.6-35.2 132.8-28.8 180.8 20.8 56 56 57.6 148.8 0 204.8zM699.2 600c-12.8-12.8-33.6-12.8-46.4 0s-12.8 33.6 0 46.4c12.8 12.8 33.6 12.8 46.4 0s12.8-33.6 0-46.4z" />
<glyph unicode="&#xe9ea;" glyph-name="key-bold" d="M750.4 704c-56 56-148.8 56-206.4 0-49.6-49.6-56-126.4-19.2-182.4l-292.8-292.8 44.8-44.8 22.4 22.4 54.4-54.4 33.6 33.6-54.4 54.4 17.6 17.6 28.8-28.8 33.6 33.6-28.8 27.2 187.2 187.2c57.6-35.2 131.2-28.8 179.2 20.8 57.6 57.6 57.6 150.4 0 206.4zM705.6 609.6c-12.8-12.8-33.6-12.8-46.4 0-12.8 14.4-12.8 35.2 0 46.4 12.8 12.8 33.6 12.8 46.4 0s12.8-33.6 0-46.4z" />
<glyph unicode="&#xe9eb;" glyph-name="key-light-rounded" d="M742.4 697.6c-57.6 57.6-150.4 57.6-206.4 0-54.4-54.4-57.6-137.6-11.2-195.2l-280-280c-6.4-6.4-6.4-16 0-22.4s16-6.4 22.4 0l16 16 54.4-54.4c6.4-6.4 16-6.4 22.4 0 3.2 3.2 4.8 8 4.8 11.2s-1.6 8-4.8 11.2l-54.4 54.4 28.8 28.8 28.8-28.8c6.4-6.4 16-6.4 22.4 0 3.2 3.2 4.8 6.4 4.8 11.2s-1.6 8-4.8 11.2l-28.8 28.8 192 192c57.6-44.8 142.4-43.2 195.2 11.2 54.4 56 54.4 147.2-1.6 204.8zM718.4 513.6c-44.8-44.8-116.8-44.8-161.6 0s-44.8 116.8 0 161.6 118.4 43.2 161.6 0c44.8-44.8 44.8-116.8 0-161.6z" />
<glyph unicode="&#xe9ec;" glyph-name="key-light" d="M745.6 700.8c-57.6 57.6-150.4 57.6-206.4 0-52.8-52.8-57.6-137.6-11.2-193.6l-292.8-292.8 22.4-22.4 27.2 27.2 67.2-67.2 22.4 22.4-67.2 67.2 28.8 28.8 41.6-41.6 22.4 22.4-41.6 41.6 190.4 190.4c57.6-46.4 142.4-43.2 195.2 9.6 57.6 57.6 57.6 150.4 1.6 208zM723.2 516.8c-44.8-44.8-116.8-44.8-161.6 0s-44.8 116.8 0 161.6c43.2 44.8 116.8 44.8 161.6 0s44.8-116.8 0-161.6z" />
<glyph unicode="&#xe9ed;" glyph-name="key-medium-rounded" d="M742.4 697.6c-57.6 57.6-150.4 57.6-206.4 0-52.8-52.8-57.6-132.8-14.4-188.8l-276.8-275.2c-9.6-9.6-9.6-25.6 0-33.6 9.6-9.6 24-9.6 33.6 0l9.6 11.2 48-49.6c6.4-6.4 16-6.4 22.4 0 3.2 3.2 4.8 8 4.8 11.2s-1.6 8-4.8 11.2l-48 48 28.8 30.4 24-24c6.4-6.4 16-6.4 22.4 0 3.2 3.2 4.8 6.4 4.8 11.2s-1.6 8-4.8 11.2l-24 24 192 190.4c57.6-40 137.6-35.2 187.2 16 57.6 57.6 59.2 148.8 1.6 206.4zM708.8 524.8c-38.4-38.4-100.8-38.4-139.2 0s-38.4 100.8 0 139.2c38.4 36.8 100.8 36.8 139.2 0 38.4-38.4 38.4-100.8 0-139.2z" />
<glyph unicode="&#xe9ee;" glyph-name="key-medium" d="M747.2 700.8c-57.6 57.6-150.4 57.6-206.4 0-49.6-51.2-56-132.8-16-188.8l-291.2-291.2 33.6-33.6 27.2 27.2 60.8-60.8 22.4 22.4-60.8 60.8 28.8 28.8 35.2-35.2 22.4 22.4-35.2 35.2 192 190.4c57.6-40 137.6-36.8 187.2 16 57.6 56 57.6 148.8 0 206.4zM713.6 528c-38.4-38.4-100.8-38.4-139.2 0s-38.4 100.8 0 139.2c38.4 38.4 100.8 38.4 139.2 0s38.4-100.8 0-139.2z" />
<glyph unicode="&#xe9ef;" glyph-name="ladder-bold" d="M420.8 798.4l-44.8-44.8 84.8-84.8-169.6-169.6-84.8 84.8-44.8-44.8 441.6-441.6 44.8 44.8-84.8 84.8 169.6 169.6 84.8-84.8 44.8 44.8-441.6 441.6zM505.6 624l68.8-68.8-169.6-169.6-68.8 68.8 169.6 169.6zM518.4 272l-67.2 67.2 169.6 169.6 67.2-67.2-169.6-169.6z" />
<glyph unicode="&#xe9f0;" glyph-name="ladder-light" d="M412.8 790.4l-28.8-28.8 92.8-92.8-185.6-187.2-92.8 94.4-28.8-28.8 441.6-441.6 28.8 28.8-92.8 92.8 187.2 187.2 92.8-92.8 28.8 28.8-443.2 440zM505.6 640l84.8-84.8-185.6-187.2-84.8 86.4 185.6 185.6zM518.4 256l-84.8 84.8 187.2 187.2 84.8-84.8-187.2-187.2z" />
<glyph unicode="&#xe9f1;" glyph-name="ladder-medium" d="M382.4 758.4l91.2-91.2-182.4-179.2-91.2 91.2-33.6-35.2 441.6-441.6 33.6 33.6-91.2 91.2 180.8 180.8 91.2-91.2 33.6 33.6-440 443.2-33.6-35.2zM505.6 635.2l78.4-78.4-179.2-182.4-78.4 78.4 179.2 182.4zM518.4 260.8l-78.4 78.4 180.8 180.8 78.4-78.4-180.8-180.8z" />
<glyph unicode="&#xe9f2;" glyph-name="layer-bold" d="M150.4 568l361.6 240 361.6-240-361.6-272zM788.8 449.6l-276.8-208-276.8 208h-67.2l344-257.6 344 257.6h-67.2zM788.8 345.6l-276.8-208-276.8 208h-67.2l344-257.6 344 257.6h-67.2z" />
<glyph unicode="&#xe9f3;" glyph-name="layer-light" d="M512 760l292.8-193.6-292.8-220.8-292.8 220.8 292.8 193.6zM512 808l-361.6-240 361.6-272 361.6 272-361.6 240zM788.8 449.6l-276.8-208-276.8 208h-67.2l344-257.6 344 257.6h-67.2zM788.8 345.6l-276.8-208-276.8 208h-67.2l344-257.6 344 257.6h-67.2z" />
<glyph unicode="&#xe9f4;" glyph-name="layer-medium" d="M512 782.4l278.4-185.6-278.4-208-278.4 208 278.4 185.6zM512 840l-361.6-240 361.6-272 361.6 272-361.6 240zM788.8 449.6l-276.8-208-276.8 208h-67.2l344-257.6 344 257.6h-67.2zM788.8 313.6l-276.8-208-276.8 208h-67.2l344-257.6 344 257.6h-67.2z" />
<glyph unicode="&#xe9f5;" glyph-name="layout-bold" d="M152 524.8h249.6v-436.8h-249.6v436.8zM152 808h720v-235.2h-720v235.2zM452.8 524.8h419.2v-436.8h-419.2v436.8z" />
<glyph unicode="&#xe9f6;" glyph-name="layout-light" d="M152 808v-720h720v720h-720zM192 529.6h216v-401.6h-216v401.6zM832 128h-384v401.6h384v-401.6zM192 569.6v198.4h640v-198.4h-640z" />
<glyph unicode="&#xe9f7;" glyph-name="layout-medium" d="M152 808v-720h720v720h-720zM200 524.8h203.2v-388.8h-203.2v388.8zM824 136h-372.8v388.8h372.8v-388.8zM200 572.8v187.2h624v-187.2h-624z" />
<glyph unicode="&#xe9f8;" glyph-name="link-bold-rounded" d="M702.4 368c35.2-35.2 30.4-92.8-12.8-121.6-32-20.8-73.6-14.4-100.8 12.8l-54.4 54.4c-17.6 17.6-46.4 17.6-64 0v0c-17.6-17.6-17.6-46.4 0-64l51.2-51.2c64-64 166.4-72 235.2-12.8 38.4 33.6 57.6 80 57.6 128 0 43.2-16 86.4-49.6 120l-56 56c-17.6 17.6-46.4 17.6-64 0v0c-17.6-17.6-17.6-46.4 0-64l57.6-57.6zM241.6 686.4c-52.8-67.2-41.6-166.4 19.2-227.2l51.2-51.2c17.6-17.6 46.4-17.6 64 0v0c17.6 17.6 17.6 46.4 0 64l-54.4 54.4c-27.2 27.2-33.6 68.8-12.8 100.8 28.8 43.2 88 48 121.6 12.8l56-56c17.6-17.6 46.4-17.6 64 0v0c17.6 17.6 17.6 46.4 0 64l-54.4 54.4c-72 70.4-190.4 65.6-254.4-16zM638.4 320v0c-12.8-12.8-35.2-12.8-48 0l-208 208c-12.8 12.8-12.8 35.2 0 48v0c12.8 12.8 35.2 12.8 48 0l208-208c14.4-12.8 14.4-35.2 0-48z" />
<glyph unicode="&#xe9f9;" glyph-name="link-bold" d="M700.8 368c32-32 32-81.6 0-110.4-32-32-81.6-32-110.4 0l-88 88-62.4-62.4 88-88c65.6-65.6 172.8-65.6 238.4 0 33.6 33.6 49.6 76.8 49.6 120s-16 84.8-49.6 118.4l-88 88-62.4-62.4 84.8-91.2zM257.6 700.8c-65.6-65.6-65.6-172.8 0-238.4l88-88 62.4 62.4-88 89.6c-32 32-32 81.6 0 110.4 32 32 81.6 32 110.4 0l88-88 62.4 62.4-88 88c-62.4 67.2-171.2 67.2-235.2 1.6zM359.263 550.517l47.517 47.517 254.556-254.556-47.517-47.517-254.556 254.556z" />
<glyph unicode="&#xe9fa;" glyph-name="link-light-rounded" d="M734.4 400c51.2-51.2 46.4-137.6-9.6-184-49.6-40-123.2-33.6-168 11.2l-83.2 83.2c-9.6 9.6-24 9.6-33.6 0v0c-9.6-9.6-9.6-22.4 0-32l83.2-83.2c62.4-62.4 168-72 235.2-12.8 38.4 33.6 56 80 56 126.4 0 43.2-16 84.8-49.6 118.4l-88 88c-9.6 9.6-22.4 9.6-32 0v0c-9.6-9.6-9.6-22.4 0-32l89.6-83.2zM243.2 686.4c-51.2-67.2-43.2-166.4 17.6-224l83.2-83.2c9.6-9.6 22.4-9.6 32 0v0c9.6 9.6 9.6 22.4 0 32l-83.2 83.2c-44.8 44.8-54.4 118.4-11.2 168 46.4 56 132.8 60.8 184 9.6l88-88c9.6-9.6 22.4-9.6 32 0v0c9.6 9.6 9.6 22.4 0 32l-89.6 84.8c-72 72-190.4 68.8-252.8-14.4zM638.4 353.6c9.6-9.6 9.6-22.4 0-32s-22.4-9.6-32 0l-222.4 222.4c-9.6 9.6-9.6 22.4 0 32s22.4 9.6 32 0l222.4-222.4z" />
<glyph unicode="&#xe9fb;" glyph-name="link-light" d="M734.4 400c48-48 48-126.4 0-176s-126.4-48-176 0l-104 104-32-32 104-104c65.6-65.6 172.8-65.6 238.4 0 33.6 33.6 49.6 76.8 49.6 120s-16 86.4-49.6 120l-104 104-32-32 105.6-104zM257.6 702.4c-65.6-65.6-65.6-172.8 0-238.4l104-104 32 32-105.6 104c-48 48-48 126.4 0 176s126.4 48 176 0l104-104 32 32-104 102.4c-65.6 65.6-174.4 65.6-238.4 0zM368.224 560.211l31.678 31.678 254.556-254.556-31.678-31.678-254.556 254.556z" />
<glyph unicode="&#xe9fc;" glyph-name="link-medium-rounded" d="M720 384c43.2-43.2 38.4-112-6.4-150.4-40-33.6-100.8-27.2-139.2 9.6l-78.4 75.2c-12.8 12.8-33.6 12.8-48 0v0c-12.8-12.8-12.8-33.6 0-48l73.6-73.6c62.4-62.4 166.4-72 233.6-12.8 38.4 33.6 59.2 81.6 59.2 128 0 43.2-16 84.8-49.6 120l-76.8 78.4c-12.8 12.8-33.6 12.8-48 0v0c-12.8-12.8-12.8-33.6 0-48l80-78.4zM241.6 684.8c-51.2-67.2-43.2-166.4 17.6-225.6l76.8-75.2c12.8-12.8 33.6-12.8 48 0v0c12.8 12.8 12.8 33.6 0 48l-76.8 76.8c-38.4 38.4-43.2 99.2-9.6 139.2 38.4 48 108.8 49.6 150.4 6.4l80-78.4c12.8-12.8 33.6-12.8 48 0v0c12.8 12.8 12.8 33.6 0 48l-80 76.8c-72 72-192 68.8-254.4-16zM638.4 320v0c-12.8-12.8-33.6-12.8-48 0l-206.4 208c-12.8 12.8-12.8 33.6 0 48v0c12.8 12.8 33.6 12.8 48 0l208-208c11.2-12.8 11.2-33.6-1.6-48z" />
<glyph unicode="&#xe9fd;" glyph-name="link-medium" d="M720 385.6c40-40 40-104 0-144s-104-40-144 0l-104 104-48-48 104-104c65.6-65.6 174.4-65.6 238.4 0 33.6 33.6 49.6 76.8 49.6 120s-16 86.4-49.6 120l-104 104-48-48 105.6-104zM256 702.4c-64-65.6-64-172.8 0-238.4l104-104 48 48-104 102.4c-40 40-40 104 0 144s104 40 144 0l104-104 48 48-104 104c-65.6 65.6-174.4 65.6-240 0zM360.287 552.274l47.517 47.517 255.687-255.687-47.517-47.517-255.687 255.687z" />
<glyph unicode="&#xe9fe;" glyph-name="list-2-bold" d="M736 176h-336c-17.6 0-32 14.4-32 32s14.4 32 32 32h336c17.6 0 32-14.4 32-32s-14.4-32-32-32zM736 416h-336c-17.6 0-32 14.4-32 32s14.4 32 32 32h336c17.6 0 32-14.4 32-32s-14.4-32-32-32zM736 656h-336c-17.6 0-32 14.4-32 32s14.4 32 32 32h336c17.6 0 32-14.4 32-32s-14.4-32-32-32zM304 176h-16c-17.6 0-32 14.4-32 32s14.4 32 32 32h16c17.6 0 32-14.4 32-32s-14.4-32-32-32zM304 416h-16c-17.6 0-32 14.4-32 32s14.4 32 32 32h16c17.6 0 32-14.4 32-32s-14.4-32-32-32zM304 656h-16c-17.6 0-32 14.4-32 32s14.4 32 32 32h16c17.6 0 32-14.4 32-32s-14.4-32-32-32z" />
<glyph unicode="&#xe9ff;" glyph-name="list-2-light" d="M752 192h-368c-9.6 0-16 6.4-16 16s6.4 16 16 16h368c9.6 0 16-6.4 16-16s-6.4-16-16-16zM752 432h-368c-9.6 0-16 6.4-16 16s6.4 16 16 16h368c9.6 0 16-6.4 16-16s-6.4-16-16-16zM752 672h-368c-9.6 0-16 6.4-16 16s6.4 16 16 16h368c9.6 0 16-6.4 16-16s-6.4-16-16-16zM305.6 192h-33.6c-9.6 0-16 6.4-16 16s6.4 16 16 16h33.6c9.6 0 16-6.4 16-16s-8-16-16-16zM305.6 432h-33.6c-9.6 0-16 6.4-16 16s6.4 16 16 16h33.6c9.6 0 16-6.4 16-16s-8-16-16-16zM305.6 672h-33.6c-9.6 0-16 6.4-16 16s6.4 16 16 16h33.6c9.6 0 16-6.4 16-16s-8-16-16-16z" />
<glyph unicode="&#xea00;" glyph-name="list-2-medium" d="M752 187.2h-368c-11.2 0-20.8 9.6-20.8 20.8s9.6 20.8 20.8 20.8h368c11.2 0 20.8-9.6 20.8-20.8s-9.6-20.8-20.8-20.8zM752 427.2h-368c-11.2 0-20.8 9.6-20.8 20.8s9.6 20.8 20.8 20.8h368c11.2 0 20.8-9.6 20.8-20.8s-9.6-20.8-20.8-20.8zM752 667.2h-368c-11.2 0-20.8 9.6-20.8 20.8s9.6 20.8 20.8 20.8h368c11.2 0 20.8-9.6 20.8-20.8s-9.6-20.8-20.8-20.8zM305.6 187.2h-33.6c-11.2 0-20.8 9.6-20.8 20.8s9.6 20.8 20.8 20.8h33.6c11.2 0 20.8-9.6 20.8-20.8s-9.6-20.8-20.8-20.8zM305.6 427.2h-33.6c-11.2 0-20.8 9.6-20.8 20.8s9.6 20.8 20.8 20.8h33.6c11.2 0 20.8-9.6 20.8-20.8s-9.6-20.8-20.8-20.8zM305.6 667.2h-33.6c-11.2 0-20.8 9.6-20.8 20.8s9.6 20.8 20.8 20.8h33.6c11.2 0 20.8-9.6 20.8-20.8s-9.6-20.8-20.8-20.8z" />
<glyph unicode="&#xea01;" glyph-name="list-bold" d="M369.6 240h396.8v-64h-396.8v64zM369.6 480h396.8v-64h-396.8v64zM369.6 720h396.8v-64h-396.8v64zM257.6 240h48v-64h-48v64zM257.6 480h48v-64h-48v64zM257.6 720h48v-64h-48v64z" />
<glyph unicode="&#xea02;" glyph-name="list-light" d="M369.6 224h396.8v-32h-396.8v32zM369.6 464h396.8v-32h-396.8v32zM369.6 704h396.8v-32h-396.8v32zM257.6 224h48v-32h-48v32zM257.6 464h48v-32h-48v32zM257.6 704h48v-32h-48v32z" />
<glyph unicode="&#xea03;" glyph-name="list-medium" d="M369.6 227.2h396.8v-40h-396.8v40zM369.6 467.2h396.8v-40h-396.8v40zM369.6 707.2h396.8v-40h-396.8v40zM257.6 227.2h48v-40h-48v40zM257.6 467.2h48v-40h-48v40zM257.6 707.2h48v-40h-48v40z" />
<glyph unicode="&#xea04;" glyph-name="list-number-bold" d="M414.4 240h348.8v-64h-348.8v64zM414.4 480h348.8v-64h-348.8v64zM414.4 720h348.8v-64h-348.8v64zM316.8 604.8h-24v75.2l-24-6.4v17.6l44.8 16h1.6v-102.4zM334.4 396.8h-72v16l33.6 35.2c8 9.6 12.8 16 12.8 22.4 0 4.8-1.6 8-3.2 9.6s-4.8 3.2-8 3.2c-3.2 0-6.4-1.6-8-4.8s-3.2-6.4-3.2-11.2h-24c0 6.4 1.6 12.8 4.8 17.6s8 9.6 12.8 12.8 11.2 4.8 19.2 4.8c11.2 0 19.2-3.2 25.6-8s9.6-12.8 9.6-22.4c0-4.8 0-8-1.6-11.2s-3.2-8-6.4-12.8c-3.2-4.8-8-9.6-16-17.6l-12.8-16h40v-17.6zM284.8 249.6h11.2c9.6 0 12.8 4.8 12.8 12.8 0 3.2-1.6 6.4-3.2 8s-4.8 3.2-9.6 3.2c-3.2 0-6.4-1.6-8-3.2s-3.2-4.8-3.2-6.4h-24c0 4.8 1.6 9.6 4.8 14.4s6.4 8 12.8 9.6c4.8 1.6 11.2 3.2 17.6 3.2 11.2 0 20.8-3.2 27.2-8s9.6-12.8 9.6-20.8c0-4.8-1.6-8-4.8-12.8s-6.4-6.4-11.2-9.6c4.8-1.6 9.6-4.8 12.8-9.6s4.8-9.6 4.8-14.4c0-9.6-3.2-16-11.2-22.4-6.4-4.8-16-8-27.2-8-6.4 0-12.8 1.6-19.2 3.2-6.4 3.2-9.6 6.4-12.8 11.2s-4.8 9.6-4.8 16h24c0-3.2 1.6-6.4 3.2-8 3.2-1.6 6.4-3.2 9.6-3.2 4.8 0 8 1.6 9.6 3.2 3.2 1.6 3.2 4.8 3.2 9.6s-1.6 9.6-3.2 11.2-6.4 3.2-11.2 3.2h-11.2v17.6z" />
<glyph unicode="&#xea05;" glyph-name="list-number-light" d="M414.4 224h348.8v-32h-348.8v32zM414.4 464h348.8v-32h-348.8v32zM414.4 704h348.8v-32h-348.8v32zM313.6 604.8h-20.8v78.4l-24-8v16l41.6 14.4h1.6v-100.8zM334.4 396.8h-70.4v14.4l33.6 35.2c4.8 4.8 8 9.6 9.6 12.8s3.2 8 3.2 11.2c0 4.8-1.6 8-3.2 11.2s-4.8 3.2-9.6 3.2c-4.8 0-8-1.6-11.2-4.8s-3.2-8-3.2-12.8h-20.8c0 6.4 1.6 11.2 4.8 17.6 3.2 4.8 6.4 9.6 12.8 12.8 4.8 3.2 11.2 4.8 19.2 4.8 11.2 0 19.2-3.2 24-8 6.4-4.8 8-12.8 8-20.8 0-4.8-1.6-9.6-3.2-16-3.2-4.8-6.4-11.2-12.8-17.6l-24-24h44.8v-19.2zM284.8 249.6h11.2c4.8 0 9.6 1.6 11.2 3.2 3.2 3.2 3.2 6.4 3.2 9.6 0 4.8-1.6 8-3.2 9.6-3.2 1.6-6.4 3.2-9.6 3.2s-6.4-1.6-9.6-3.2c-3.2-1.6-3.2-4.8-3.2-8h-20.8c0 4.8 1.6 9.6 4.8 14.4s6.4 8 12.8 9.6c4.8 3.2 11.2 3.2 17.6 3.2 11.2 0 19.2-3.2 25.6-8s9.6-12.8 9.6-20.8c0-4.8-1.6-9.6-4.8-12.8s-6.4-6.4-11.2-9.6c6.4-1.6 9.6-4.8 12.8-9.6s4.8-9.6 4.8-14.4c0-9.6-3.2-16-9.6-22.4-6.4-4.8-16-8-25.6-8s-19.2 3.2-25.6 8c-6.4 4.8-9.6 12.8-9.6 20.8h20.8c0-3.2 1.6-6.4 4.8-9.6s6.4-3.2 11.2-3.2c4.8 0 8 1.6 11.2 3.2 3.2 3.2 4.8 6.4 4.8 9.6 0 9.6-6.4 16-17.6 16h-11.2v19.2z" />
<glyph unicode="&#xea06;" glyph-name="list-number-medium" d="M414.4 228.8h348.8v-40h-348.8v40zM414.4 468.8h348.8v-40h-348.8v40zM414.4 708.8h348.8v-40h-348.8v40zM313.6 604.8h-20.8v78.4l-24-8v16l41.6 14.4h1.6v-100.8zM334.4 396.8h-70.4v14.4l33.6 35.2c4.8 4.8 8 9.6 9.6 12.8s3.2 8 3.2 11.2c0 4.8-1.6 8-3.2 11.2s-4.8 3.2-9.6 3.2c-4.8 0-8-1.6-11.2-4.8s-3.2-8-3.2-12.8h-20.8c0 6.4 1.6 11.2 4.8 17.6 3.2 4.8 6.4 9.6 12.8 12.8 4.8 3.2 11.2 4.8 19.2 4.8 11.2 0 19.2-3.2 24-8 6.4-4.8 8-12.8 8-20.8 0-4.8-1.6-9.6-3.2-16-3.2-4.8-6.4-11.2-12.8-17.6l-24-24h44.8v-19.2zM284.8 249.6h11.2c4.8 0 9.6 1.6 11.2 3.2 3.2 3.2 3.2 6.4 3.2 9.6 0 4.8-1.6 8-3.2 9.6-3.2 1.6-6.4 3.2-9.6 3.2s-6.4-1.6-9.6-3.2c-3.2-1.6-3.2-4.8-3.2-8h-20.8c0 4.8 1.6 9.6 4.8 14.4s6.4 8 12.8 9.6c4.8 3.2 11.2 3.2 17.6 3.2 11.2 0 19.2-3.2 25.6-8s9.6-12.8 9.6-20.8c0-4.8-1.6-9.6-4.8-12.8s-6.4-6.4-11.2-9.6c6.4-1.6 9.6-4.8 12.8-9.6s4.8-9.6 4.8-14.4c0-9.6-3.2-16-9.6-22.4-6.4-4.8-16-8-25.6-8s-19.2 3.2-25.6 8c-6.4 4.8-9.6 12.8-9.6 20.8h20.8c0-3.2 1.6-6.4 4.8-9.6s6.4-3.2 11.2-3.2c4.8 0 8 1.6 11.2 3.2 3.2 3.2 4.8 6.4 4.8 9.6 0 9.6-6.4 16-17.6 16h-11.2v19.2z" />
<glyph unicode="&#xea07;" glyph-name="location-bold" d="M512 784c-140.8 0-256-115.2-256-256s256-416 256-416 256 275.2 256 416c0 140.8-115.2 256-256 256zM512 400c-70.4 0-128 57.6-128 128s57.6 128 128 128 128-57.6 128-128c0-70.4-57.6-128-128-128z" />
<glyph unicode="&#xea08;" glyph-name="location-light" d="M512 744c118.4 0 216-97.6 216-216 0-83.2-123.2-249.6-216-356.8-92.8 107.2-216 273.6-216 356.8 0 118.4 97.6 216 216 216zM512 360c92.8 0 168 75.2 168 168s-75.2 168-168 168-168-75.2-168-168 75.2-168 168-168zM512 784c-140.8 0-256-115.2-256-256s256-416 256-416 256 275.2 256 416c0 140.8-115.2 256-256 256v0zM512 400c-70.4 0-128 57.6-128 128s57.6 128 128 128 128-57.6 128-128c0-70.4-57.6-128-128-128v0z" />
</font>
</defs>
</svg>
