<?xml version="1.0" encoding="utf-8"?>
<!-- Generator: Adobe Illustrator 23.0.0, SVG Export Plug-In . SVG Version: 6.00 Build 0)  -->
<svg version="1.1" id="Layer_1" xmlns="http://www.w3.org/2000/svg" xmlns:xlink="http://www.w3.org/1999/xlink" x="0px" y="0px"
	 viewBox="0 0 64 64" style="enable-background:new 0 0 64 64;" xml:space="preserve">
<style type="text/css">
	.st0{fill:#606060;}
</style>
<g>
	<path class="st0" d="M48,45V30c0-4.4-1.8-8.4-4.7-11.3c-2.5-2.5-5.7-4.1-9.3-4.5v-1.6c0-1.1-0.9-2-2-2s-2,0.9-2,2v1.6
		c-7.9,1-14,7.7-14,15.9v15l-7,7h21.1c0.2,0.9,1,1.5,1.9,1.5s1.7-0.6,1.9-1.5H55L48,45z M15,49.5l2.7-2.7l0.7-0.7V30
		c0-6.8,5-12.4,11.5-13.3c0.7-0.1,1.3-0.2,2-0.2s1.3,0,2,0.2c2.8,0.4,5.5,1.7,7.5,3.8c2.5,2.6,4,6,4,9.6v16l0.7,0.7l2.7,2.7H15z"/>
</g>
</svg>
