<?xml version="1.0" encoding="utf-8"?>
<!-- Generator: Adobe Illustrator 23.0.0, SVG Export Plug-In . SVG Version: 6.00 Build 0)  -->
<svg version="1.1" id="Layer_1" xmlns="http://www.w3.org/2000/svg" xmlns:xlink="http://www.w3.org/1999/xlink" x="0px" y="0px"
	 viewBox="0 0 64 64" style="enable-background:new 0 0 64 64;" xml:space="preserve">
<style type="text/css">
	.st0{fill:#606060;}
</style>
<g>
	<path class="st0" d="M32,12l16.8,9c0.1,0,0.1,0.1,0.2,0.1v31.3H15V21.1c0.1,0,0.1-0.1,0.2-0.1L32,12 M32,29.5
		c3.6,0,6.5-2.9,6.5-6.5s-2.9-6.5-6.5-6.5s-6.5,2.9-6.5,6.5S28.4,29.5,32,29.5 M32,9.2l-18,9.6c-0.1,0-0.2,0.1-0.2,0.1
		c-0.7,0.3-1.2,1-1.2,1.8v34.2h39V20.7c0-0.8-0.5-1.5-1.2-1.8c-0.1,0-0.2-0.1-0.2-0.1L32,9.2L32,9.2z M32,27c-2.2,0-4-1.8-4-4
		s1.8-4,4-4s4,1.8,4,4S34.2,27,32,27L32,27z"/>
</g>
</svg>
