<?xml version="1.0" encoding="utf-8"?>
<!-- Generator: Adobe Illustrator 23.0.0, SVG Export Plug-In . SVG Version: 6.00 Build 0)  -->
<svg version="1.1" id="Layer_1" xmlns="http://www.w3.org/2000/svg" xmlns:xlink="http://www.w3.org/1999/xlink" x="0px" y="0px"
	 viewBox="0 0 64 64" style="enable-background:new 0 0 64 64;" xml:space="preserve">
<style type="text/css">
	.st0{fill:#606060;}
</style>
<path class="st0" d="M20,9.5c-4.1,0-7.5,3.3-7.5,7.5v30c0,2.2,1,4.2,2.5,5.6c1.3,1.2,3.1,1.9,5,1.9h31.5v-45H20z M49,52H20
	c-2.8,0-5-2.2-5-5v0c0-2.8,2.2-5,5-5h29V52z M20,39.5c-1.9,0-3.7,0.7-5,1.9V17c0-2.8,2.2-5,5-5h29v27.5H20z"/>
</svg>
