<?xml version="1.0" encoding="utf-8"?>
<!-- Generator: Adobe Illustrator 23.0.0, SVG Export Plug-In . SVG Version: 6.00 Build 0)  -->
<svg version="1.1" id="Layer_1" xmlns="http://www.w3.org/2000/svg" xmlns:xlink="http://www.w3.org/1999/xlink" x="0px" y="0px"
	 viewBox="0 0 64 64" style="enable-background:new 0 0 64 64;" xml:space="preserve">
<style type="text/css">
	.st0{fill:#606060;}
</style>
<path class="st0" d="M20,9.5c-4.1,0-7.5,3.3-7.5,7.5v30c0,2.5,1.2,4.6,3,6c1.3,0.9,2.8,1.5,4.5,1.5h31.5v-45H20z M48.5,51.5H20
	c-2.5,0-4.5-2-4.5-4.5v0c0-2.5,2-4.5,4.5-4.5h28.5V51.5z M20,39.5c-1.7,0-3.2,0.6-4.5,1.5V17c0-2.5,2-4.5,4.5-4.5h28.5v27H20z"/>
</svg>
