<?xml version="1.0" encoding="utf-8"?>
<!-- Generator: Adobe Illustrator 23.0.0, SVG Export Plug-In . SVG Version: 6.00 Build 0)  -->
<svg version="1.1" id="Layer_1" xmlns="http://www.w3.org/2000/svg" xmlns:xlink="http://www.w3.org/1999/xlink" x="0px" y="0px"
	 viewBox="0 0 64 64" style="enable-background:new 0 0 64 64;" xml:space="preserve">
<style type="text/css">
	.st0{fill:#606060;}
</style>
<path class="st0" d="M20,9.5c-4.1,0-7.5,3.3-7.5,7.5v30c0,2.9,1.6,5.4,4,6.6c1,0.5,2.2,0.9,3.5,0.9h31.5v-45H20z M47.5,50.5H20
	c-1.9,0-3.5-1.6-3.5-3.5v0c0-1.9,1.6-3.5,3.5-3.5h27.5V50.5z M20,39.5c-1.3,0-2.5,0.3-3.5,0.9V17c0-1.9,1.6-3.5,3.5-3.5h27.5v26H20z
	"/>
</svg>
