<?xml version="1.0" encoding="utf-8"?>
<!-- Generator: Adobe Illustrator 23.0.0, SVG Export Plug-In . SVG Version: 6.00 Build 0)  -->
<svg version="1.1" id="Layer_1" xmlns="http://www.w3.org/2000/svg" xmlns:xlink="http://www.w3.org/1999/xlink" x="0px" y="0px"
	 viewBox="0 0 64 64" style="enable-background:new 0 0 64 64;" xml:space="preserve">
<style type="text/css">
	.st0{fill:#606060;}
</style>
<g>
	<g>
		<path class="st0" d="M46.4,16.4c-3.6-3.6-9.4-3.6-12.9,0c-3.4,3.4-3.6,8.6-0.7,12.2L15.3,46.1c-0.4,0.4-0.4,1,0,1.4
			c0.4,0.4,1,0.4,1.4,0l1-1l3.4,3.4c0.4,0.4,1,0.4,1.4,0c0.2-0.2,0.3-0.5,0.3-0.7s-0.1-0.5-0.3-0.7l-3.4-3.4l1.8-1.8l1.8,1.8
			c0.4,0.4,1,0.4,1.4,0c0.2-0.2,0.3-0.4,0.3-0.7s-0.1-0.5-0.3-0.7l-1.8-1.8l12-12c3.6,2.8,8.9,2.7,12.2-0.7
			C49.9,25.7,49.9,20,46.4,16.4z M44.9,27.9c-2.8,2.8-7.3,2.8-10.1,0c-2.8-2.8-2.8-7.3,0-10.1s7.4-2.7,10.1,0
			C47.7,20.6,47.7,25.1,44.9,27.9z"/>
	</g>
</g>
</svg>
