<?xml version="1.0" encoding="utf-8"?>
<!-- Generator: Adobe Illustrator 23.0.0, SVG Export Plug-In . SVG Version: 6.00 Build 0)  -->
<svg version="1.1" id="Layer_1" xmlns="http://www.w3.org/2000/svg" xmlns:xlink="http://www.w3.org/1999/xlink" x="0px" y="0px"
	 viewBox="0 0 64 64" style="enable-background:new 0 0 64 64;" xml:space="preserve">
<style type="text/css">
	.st0{fill:#606060;}
</style>
<g>
	<g>
		<g>
			<path class="st0" d="M46.6,16.2c-3.6-3.6-9.4-3.6-12.9,0c-3.3,3.3-3.6,8.6-0.7,12.1L14.7,46.6l1.4,1.4l1.7-1.7l4.2,4.2l1.4-1.4
				l-4.2-4.2l1.8-1.8l2.6,2.6l1.4-1.4l-2.6-2.6l11.9-11.9c3.6,2.9,8.9,2.7,12.2-0.6C50.1,25.6,50.1,19.8,46.6,16.2z M45.2,27.7
				c-2.8,2.8-7.3,2.8-10.1,0c-2.8-2.8-2.8-7.3,0-10.1c2.7-2.8,7.3-2.8,10.1,0C48,20.4,48,24.9,45.2,27.7z"/>
		</g>
	</g>
</g>
</svg>
