<?xml version="1.0" encoding="utf-8"?>
<!-- Generator: Adobe Illustrator 23.0.0, SVG Export Plug-In . SVG Version: 6.00 Build 0)  -->
<svg version="1.1" id="Layer_1" xmlns="http://www.w3.org/2000/svg" xmlns:xlink="http://www.w3.org/1999/xlink" x="0px" y="0px"
	 viewBox="0 0 64 64" style="enable-background:new 0 0 64 64;" xml:space="preserve">
<style type="text/css">
	.st0{fill:#606060;}
</style>
<g>
	<path class="st0" d="M46.9,16c-3.5-3.5-9.3-3.5-12.9,0c-3.1,3.1-3.5,7.9-1.2,11.4L14.5,45.7l2.8,2.8l1.4-1.4l3.4,3.4l2.1-2.1
		l-3.4-3.4l1.1-1.1l1.8,1.8l2.1-2.1L24,41.9l11.7-11.7c3.6,2.2,8.2,1.8,11.2-1.3C50.5,25.3,50.5,19.5,46.9,16z M44.1,21.9
		c-0.8,0.8-2.1,0.8-2.9,0c-0.8-0.9-0.8-2.2,0-2.9c0.8-0.8,2.1-0.8,2.9,0C44.9,19.8,44.9,21.1,44.1,21.9z"/>
</g>
</svg>
