<?xml version="1.0" encoding="utf-8"?>
<!-- Generator: Adobe Illustrator 23.0.0, SVG Export Plug-In . SVG Version: 6.00 Build 0)  -->
<svg version="1.1" id="Layer_1" xmlns="http://www.w3.org/2000/svg" xmlns:xlink="http://www.w3.org/1999/xlink" x="0px" y="0px"
	 viewBox="0 0 64 64" style="enable-background:new 0 0 64 64;" xml:space="preserve">
<style type="text/css">
	.st0{fill:#606060;}
</style>
<g>
	<g>
		<path class="st0" d="M46.5,16.7c-3.6-3.5-9.3-3.6-12.9,0c-3.1,3.1-3.5,7.9-1.2,11.4l-17.1,17c-0.7,0.7-0.7,1.9,0,2.6l0.3,0.3
			c0.7,0.7,1.8,0.7,2.5,0l0.9-0.8l2.3,2.3c0.6,0.6,1.5,0.6,2.1,0c0.3-0.3,0.4-0.7,0.4-1s-0.1-0.8-0.4-1L21,45l1.1-1.1l0.8,0.8
			c0.6,0.6,1.5,0.6,2.1,0c0.3-0.3,0.5-0.7,0.5-1s-0.2-0.8-0.5-1.1l-0.8-0.8l11-11c3.6,2.2,8.3,1.8,11.3-1.3
			C50,26,50.1,20.2,46.5,16.7z M43.7,22.5c-0.8,0.8-2.1,0.8-2.9,0s-0.8-2.1,0-2.9c0.8-0.8,2.1-0.8,2.9,0
			C44.5,20.4,44.5,21.7,43.7,22.5z"/>
	</g>
</g>
</svg>
