<?xml version="1.0" encoding="utf-8"?>
<!-- Generator: Adobe Illustrator 23.0.0, SVG Export Plug-In . SVG Version: 6.00 Build 0)  -->
<svg version="1.1" id="Layer_1" xmlns="http://www.w3.org/2000/svg" xmlns:xlink="http://www.w3.org/1999/xlink" x="0px" y="0px"
	 viewBox="0 0 64 64" style="enable-background:new 0 0 64 64;" xml:space="preserve">
<style type="text/css">
	.st0{fill:#606060;}
</style>
<g>
	<g>
		<g>
			<path class="st0" d="M46.7,16.2c-3.6-3.6-9.4-3.6-12.9,0c-3.1,3.2-3.5,8.3-1,11.8L14.6,46.2l2.1,2.1l1.7-1.7l3.8,3.8l1.4-1.4
				l-3.8-3.8l1.8-1.8l2.2,2.2l1.4-1.4L23,42L35,30.1c3.6,2.5,8.6,2.3,11.7-1C50.3,25.6,50.3,19.8,46.7,16.2z M44.6,27
				c-2.4,2.4-6.3,2.4-8.7,0c-2.4-2.4-2.4-6.3,0-8.7c2.4-2.4,6.3-2.4,8.7,0C47,20.7,47,24.6,44.6,27z"/>
		</g>
	</g>
</g>
</svg>
