<?xml version="1.0" encoding="utf-8"?>
<!-- Generator: Adobe Illustrator 23.0.0, SVG Export Plug-In . SVG Version: 6.00 Build 0)  -->
<svg version="1.1" id="Layer_1" xmlns="http://www.w3.org/2000/svg" xmlns:xlink="http://www.w3.org/1999/xlink" x="0px" y="0px"
	 viewBox="0 0 64 64" style="enable-background:new 0 0 64 64;" xml:space="preserve">
<style type="text/css">
	.st0{fill:#606060;}
</style>
<g>
	<g>
		<path class="st0" d="M46.4,16.4c-3.6-3.6-9.4-3.6-12.9,0c-3.3,3.3-3.6,8.3-0.9,11.8L15.3,45.4c-0.6,0.6-0.6,1.6,0,2.1
			c0.6,0.6,1.5,0.6,2.1,0l0.6-0.7l3,3.1c0.4,0.4,1,0.4,1.4,0c0.2-0.2,0.3-0.5,0.3-0.7s-0.1-0.5-0.3-0.7l-3-3l1.8-1.9l1.5,1.5
			c0.4,0.4,1,0.4,1.4,0c0.2-0.2,0.3-0.4,0.3-0.7s-0.1-0.5-0.3-0.7l-1.5-1.5l12-11.9c3.6,2.5,8.6,2.2,11.7-1
			C49.9,25.7,50,20,46.4,16.4z M44.3,27.2c-2.4,2.4-6.3,2.4-8.7,0c-2.4-2.4-2.4-6.3,0-8.7c2.4-2.3,6.3-2.3,8.7,0
			C46.7,20.9,46.7,24.8,44.3,27.2z"/>
	</g>
</g>
</svg>
