<?xml version="1.0" encoding="utf-8"?>
<!-- Generator: Adobe Illustrator 23.0.0, SVG Export Plug-In . SVG Version: 6.00 Build 0)  -->
<svg version="1.1" id="Layer_1" xmlns="http://www.w3.org/2000/svg" xmlns:xlink="http://www.w3.org/1999/xlink" x="0px" y="0px"
	 viewBox="0 0 64 64" style="enable-background:new 0 0 64 64;" xml:space="preserve">
<style type="text/css">
	.st0{fill:#606060;}
</style>
<g>
	<path class="st0" d="M32,11.5c11.3,0,20.5,9.2,20.5,20.5S43.3,52.5,32,52.5S11.5,43.3,11.5,32S20.7,11.5,32,11.5 M32,9
		C19.3,9,9,19.3,9,32s10.3,23,23,23s23-10.3,23-23S44.7,9,32,9L32,9z"/>
	<g>
		<g>
			<polygon class="st0" points="49.1,30.9 32,48 14.9,30.9 16.6,29.1 30.8,43.2 30.8,16 33.3,16 33.3,43.2 47.4,29.1 			"/>
		</g>
	</g>
</g>
</svg>
