<?xml version="1.0" encoding="utf-8"?>
<!-- Generator: Adobe Illustrator 23.0.0, SVG Export Plug-In . SVG Version: 6.00 Build 0)  -->
<svg version="1.1" id="Layer_1" xmlns="http://www.w3.org/2000/svg" xmlns:xlink="http://www.w3.org/1999/xlink" x="0px" y="0px"
	 viewBox="0 0 64 64" style="enable-background:new 0 0 64 64;" xml:space="preserve">
<style type="text/css">
	.st0{fill:#606060;}
</style>
<path class="st0" d="M39.4,19c3.1,0,5.6,2.5,5.6,5.6v14.8c0,3.1-2.5,5.6-5.6,5.6H24.6c-3.1,0-5.6-2.5-5.6-5.6V24.6
	c0-3.1,2.5-5.6,5.6-5.6H39.4 M39.4,16H24.6c-4.8,0-8.6,3.9-8.6,8.6v14.8c0,4.8,3.9,8.6,8.6,8.6h14.8c4.8,0,8.6-3.9,8.6-8.6V24.6
	C48,19.9,44.1,16,39.4,16L39.4,16z"/>
</svg>
