<?xml version="1.0" encoding="utf-8"?>
<!-- Generator: Adobe Illustrator 23.0.0, SVG Export Plug-In . SVG Version: 6.00 Build 0)  -->
<svg version="1.1" id="Layer_1" xmlns="http://www.w3.org/2000/svg" xmlns:xlink="http://www.w3.org/1999/xlink" x="0px" y="0px"
	 viewBox="0 0 64 64" style="enable-background:new 0 0 64 64;" xml:space="preserve">
<style type="text/css">
	.st0{display:none;fill:none;stroke:#606060;stroke-width:3;stroke-miterlimit:10;}
	.st1{fill:#606060;}
</style>
<line class="st0" x1="26" y1="37" x2="23" y2="37"/>
<g>
	<g>
		<path class="st1" d="M37.3,18.6c-0.6-0.8-1.4-1.4-2.3-1.9C34.1,16.2,33.1,16,32,16c-1.1,0-2.1,0.2-2.9,0.7
			c-0.9,0.4-1.7,1.1-2.3,1.9c-0.9,1.1-1.4,2.6-1.4,4.2c0,1.6,0.5,3,1.4,4.2c0.6,0.8,1.4,1.4,2.3,1.9c0.9,0.4,1.9,0.7,2.9,0.7
			c1.1,0,2.1-0.2,2.9-0.7c0.9-0.4,1.7-1.1,2.3-1.9c0.9-1.1,1.4-2.6,1.4-4.2C38.7,21.2,38.2,19.7,37.3,18.6z M32.6,26.9
			c-0.2,0-0.4,0.1-0.6,0.1c-0.2,0-0.4,0-0.6-0.1c-0.9-0.1-1.7-0.5-2.3-1.1c-0.8-0.8-1.3-1.8-1.3-3c0-1.2,0.5-2.2,1.3-3
			c0.6-0.6,1.4-1,2.3-1.1c0.2,0,0.4-0.1,0.6-0.1c0.2,0,0.4,0,0.6,0.1c0.9,0.1,1.7,0.5,2.3,1.1c0.8,0.8,1.3,1.8,1.3,3
			c0,1.2-0.5,2.2-1.3,3C34.3,26.4,33.5,26.8,32.6,26.9z"/>
		<path class="st1" d="M40.2,33.9c-1.5-1.2-3.3-2-5.2-2.5c-1-0.2-1.9-0.3-2.9-0.3s-2,0.1-2.9,0.3h0c-1.9,0.4-3.7,1.3-5.2,2.4
			c0,0,0,0,0,0c-3.2,2.5-5.3,6.3-5.3,10.7V48h26.9v-3.4C45.5,40.3,43.4,36.4,40.2,33.9z M21.1,45.5v-0.8c0-5,3.4-9.3,8-10.5
			c0,0,0,0,0,0c0.2-0.1,0.4-0.1,0.6-0.2c0.7-0.2,1.5-0.2,2.3-0.2c0.8,0,1.5,0.1,2.3,0.2h0c0.2,0,0.4,0.1,0.6,0.2
			c4.6,1.3,8,5.5,8,10.5v0.8H21.1z"/>
	</g>
	<g>
		<path class="st1" d="M26.5,28.8c-0.9,0.4-1.9,0.7-2.9,0.7c-3.7,0-6.7-3-6.7-6.7s3-6.7,6.7-6.7c1.1,0,2.1,0.2,2.9,0.7
			c-0.9,0.4-1.7,1.1-2.3,1.9c-0.2,0-0.4-0.1-0.6-0.1c-2.3,0-4.2,1.9-4.2,4.2s1.9,4.2,4.2,4.2c0.2,0,0.4,0,0.6-0.1
			C24.8,27.7,25.6,28.3,26.5,28.8z"/>
		<path class="st1" d="M26.5,31.5c-1.9,0.4-3.7,1.3-5.2,2.4c0,0,0,0,0,0c-4.9,1.1-8.7,5.4-8.7,10.7v0.8H16V48h-5.9v-3.4
			c0-7.4,6-13.5,13.5-13.5C24.6,31.2,25.6,31.3,26.5,31.5z"/>
	</g>
	<g>
		<path class="st1" d="M47.2,22.7c0,3.7-3,6.7-6.7,6.7c-1.1,0-2.1-0.2-2.9-0.7c0.9-0.4,1.7-1.1,2.3-1.9c0.2,0,0.4,0.1,0.6,0.1
			c2.3,0,4.2-1.9,4.2-4.2s-1.9-4.2-4.2-4.2c-0.2,0-0.4,0-0.6,0.1c-0.6-0.8-1.4-1.4-2.3-1.9c0.9-0.4,1.9-0.7,2.9-0.7
			C44.1,16,47.2,19,47.2,22.7z"/>
		<path class="st1" d="M53.9,44.6V48H48v-2.5h3.4v-0.8c0-5.3-3.7-9.7-8.7-10.7c-1.5-1.2-3.3-2-5.2-2.5c1-0.2,1.9-0.3,2.9-0.3
			C47.9,31.2,53.9,37.2,53.9,44.6z"/>
	</g>
</g>
</svg>
