<?xml version="1.0" encoding="utf-8"?>
<!-- Generator: Adobe Illustrator 23.0.0, SVG Export Plug-In . SVG Version: 6.00 Build 0)  -->
<svg version="1.1" id="Layer_1" xmlns="http://www.w3.org/2000/svg" xmlns:xlink="http://www.w3.org/1999/xlink" x="0px" y="0px"
	 viewBox="0 0 64 64" style="enable-background:new 0 0 64 64;" xml:space="preserve">
<style type="text/css">
	.st0{fill:#606060;}
</style>
<g>
	<path class="st0" d="M32,13c10.5,0,19,8.5,19,19s-8.5,19-19,19s-19-8.5-19-19S21.5,13,32,13 M32,10c-12.2,0-22,9.8-22,22
		s9.8,22,22,22s22-9.8,22-22S44.2,10,32,10L32,10z"/>
	<polygon class="st0" points="38.8,30.6 31.4,38 29.3,38 29.3,38 29.3,26 32.3,26 32.3,32.9 36.7,28.5 	"/>
</g>
</svg>
