<?xml version="1.0" encoding="utf-8"?>
<!-- Generator: Adobe Illustrator 23.0.0, SVG Export Plug-In . SVG Version: 6.00 Build 0)  -->
<svg version="1.1" id="Layer_1" xmlns="http://www.w3.org/2000/svg" xmlns:xlink="http://www.w3.org/1999/xlink" x="0px" y="0px"
	 viewBox="0 0 64 64" style="enable-background:new 0 0 64 64;" xml:space="preserve">
<style type="text/css">
	.st0{fill:#606060;}
</style>
<g>
	<g>
		<g>
			<path class="st0" d="M48,29.9L48,29.9c0,8.2-6.1,15-14,15.9V51h2v4h-8v-4h2v-5.1c-7.9-1-14-7.7-14-15.9v-0.1h4V30
				c0,6.6,5.4,12,12,12s12-5.4,12-12v-0.1H48z"/>
		</g>
	</g>
	<path class="st0" d="M32.6,39h-1.3c-4.1,0-7.4-3.3-7.4-7.4V16.4c0-4.1,3.3-7.4,7.4-7.4h1.3c4.1,0,7.4,3.3,7.4,7.4v15.3
		C40,35.7,36.7,39,32.6,39z"/>
</g>
</svg>
