<?xml version="1.0" encoding="utf-8"?>
<!-- Generator: Adobe Illustrator 23.0.0, SVG Export Plug-In . SVG Version: 6.00 Build 0)  -->
<svg version="1.1" id="Layer_1" xmlns="http://www.w3.org/2000/svg" xmlns:xlink="http://www.w3.org/1999/xlink" x="0px" y="0px"
	 viewBox="0 0 64 64" style="enable-background:new 0 0 64 64;" xml:space="preserve">
<style type="text/css">
	.st0{fill:#606060;}
</style>
<path class="st0" d="M32,14c7.2,0,13,5.8,13,13c0,4.9-7.3,14.9-13,21.5C26.3,41.9,19,31.9,19,27C19,19.8,24.8,14,32,14 M32,38
	c6.1,0,11-4.9,11-11s-4.9-11-11-11s-11,4.9-11,11S25.9,38,32,38 M32,11c-8.8,0-16,7.2-16,16c0,8.8,16,26,16,26s16-17.2,16-26
	C48,18.2,40.8,11,32,11L32,11z M32,35c-4.4,0-8-3.6-8-8c0-4.4,3.6-8,8-8s8,3.6,8,8C40,31.4,36.4,35,32,35L32,35z"/>
</svg>
