<?xml version="1.0" encoding="utf-8"?>
<!-- Generator: Adobe Illustrator 23.0.0, SVG Export Plug-In . SVG Version: 6.00 Build 0)  -->
<svg version="1.1" id="Layer_1" xmlns="http://www.w3.org/2000/svg" xmlns:xlink="http://www.w3.org/1999/xlink" x="0px" y="0px"
	 viewBox="0 0 64 64" style="enable-background:new 0 0 64 64;" xml:space="preserve">
<style type="text/css">
	.st0{fill:#606060;}
</style>
<g>
	<g>
		<g>
			<path class="st0" d="M47.9,20c1.8-4.9,1.8-7.7,0-9c-3.5-2.5-11.9,3.8-16.2,7.5c-10.6-8.8-14-9.6-15.9-8c-2,1.7-0.6,5.7,1.4,9.4
				H9.5v12h3v22h39V32h3V20H47.9z M46.1,13.5c0,0,0.8,1.1-1.4,6.6H34.6C40.1,15.6,45.1,12.9,46.1,13.5z M17.8,13
				c0.7,0.1,3.3,0.9,10.9,7.1h-8.2C18.9,17.1,17.7,14.1,17.8,13z M12.5,23h18v6h-18V23z M15.5,32h15v19h-15V32z M48.5,51h-15V32h15
				V51z M51.5,29h-18v-6h18V29z"/>
		</g>
	</g>
</g>
</svg>
