<?xml version="1.0" encoding="utf-8"?>
<!-- Generator: Adobe Illustrator 23.0.0, SVG Export Plug-In . SVG Version: 6.00 Build 0)  -->
<svg version="1.1" id="Layer_1" xmlns="http://www.w3.org/2000/svg" xmlns:xlink="http://www.w3.org/1999/xlink" x="0px" y="0px"
	 viewBox="0 0 64 64" style="enable-background:new 0 0 64 64;" xml:space="preserve">
<style type="text/css">
	.st0{fill:#606060;}
</style>
<g>
	<path class="st0" d="M48,32c0,0.7-0.6,1.3-1.3,1.3H33.3v13.5c0,0.7-0.6,1.3-1.3,1.3s-1.3-0.6-1.3-1.3V33.3H17.3
		c-0.7,0-1.3-0.6-1.3-1.3s0.6-1.3,1.3-1.3h13.5V17.3c0-0.7,0.6-1.3,1.3-1.3s1.3,0.6,1.3,1.3v13.5h13.5C47.4,30.8,48,31.3,48,32z"/>
</g>
<path class="st0" d="M32,11.5c11.3,0,20.5,9.2,20.5,20.5c0,11.3-9.2,20.5-20.5,20.5c-11.3,0-20.5-9.2-20.5-20.5
	C11.5,20.7,20.7,11.5,32,11.5 M32,9L32,9C19.3,9,9,19.3,9,32v0c0,12.7,10.3,23,23,23h0c12.7,0,23-10.3,23-23v0C55,19.3,44.7,9,32,9
	L32,9z"/>
</svg>
