<?xml version="1.0" encoding="utf-8"?>
<!-- Generator: Adobe Illustrator 23.0.0, SVG Export Plug-In . SVG Version: 6.00 Build 0)  -->
<svg version="1.1" id="Layer_1" xmlns="http://www.w3.org/2000/svg" xmlns:xlink="http://www.w3.org/1999/xlink" x="0px" y="0px"
	 viewBox="0 0 64 64" style="enable-background:new 0 0 64 64;" xml:space="preserve">
<style type="text/css">
	.st0{fill:#606060;}
</style>
<path class="st0" d="M42,9.3L41.7,9H10v46h44V21.8L42,9.3z M42,13.6l8,8.4h-8V13.6z M51,52H13V12h15.4l0,0.7l4.7,2.7l-4.7,2.7
	l0.1,2.7l4.2,1.8l-4.4,2.5v2.6l4.7,2.7l-4.7,2.7l0.1,2.7l4,1.7l-2.8,1.4h-2.7v11h9V39.1l0.7-0.3l-0.1-2.7l-4.2-1.8l4.4-2.5v-2.6
	l-4.7-2.7l4.7-2.7l-0.2-2.7l-4.2-1.8l4.4-2.5v-2.6L33.1,12H39v13h12V52z"/>
</svg>
