<?xml version="1.0" encoding="utf-8"?>
<!-- Generator: Adobe Illustrator 23.0.0, SVG Export Plug-In . SVG Version: 6.00 Build 0)  -->
<svg version="1.1" id="Layer_1" xmlns="http://www.w3.org/2000/svg" xmlns:xlink="http://www.w3.org/1999/xlink" x="0px" y="0px"
	 viewBox="0 0 64 64" style="enable-background:new 0 0 64 64;" xml:space="preserve">
<style type="text/css">
	.st0{fill:#606060;}
</style>
<g>
	<g>
		<polygon class="st0" points="54,25 54,55 10,55 10,9 29,9 32.5,10.5 28.7,12.1 28.5,14.8 33.2,17.5 28.5,20.2 28.7,22.9 
			32.9,24.7 28.5,27.2 28.5,29.8 33.2,32.5 28.5,35.2 28.7,37.9 32.7,39.6 29.9,41 27,41 27,52 36,52 36,41.3 36.9,40.8 36.8,38.1 
			32.6,36.3 37,33.8 37,31.2 32.3,28.5 37,25.8 36.8,23.1 32.6,21.3 37,18.8 37,16.2 32.6,13.7 36.8,11.9 36.8,9.1 36.6,9 39,9 
			39,25 		"/>
	</g>
	<polygon class="st0" points="54,19.3 54,21.8 42,21.8 42,9 44.2,9 	"/>
</g>
</svg>
