<?xml version="1.0" encoding="utf-8"?>
<!-- Generator: Adobe Illustrator 23.0.0, SVG Export Plug-In . SVG Version: 6.00 Build 0)  -->
<svg version="1.1" id="Layer_1" xmlns="http://www.w3.org/2000/svg" xmlns:xlink="http://www.w3.org/1999/xlink" x="0px" y="0px"
	 viewBox="0 0 64 64" style="enable-background:new 0 0 64 64;" xml:space="preserve">
<style type="text/css">
	.st0{fill:#606060;}
</style>
<path class="st0" d="M41.7,9H10v46h44V21.8L41.7,9z M41.5,12.4l9.7,10.1h-9.7V12.4z M51.5,52.5h-39v-41h16.7l-0.1,1.9l5.1,2.9
	l-5.1,2.9l0.1,2.2l4.7,2l-4.8,2.8v2.2l5.1,2.9l-5.1,2.9l0.1,2.2l4.5,1.9l-2.8,1.4h-4.2v11h9V40.2l1.6-0.8l-0.1-2.3l-4.7-2l4.8-2.8
	v-2.2l-5.1-2.9l5.1-2.9l-0.1-2.2l-4.7-2l4.8-2.8v-2.2l-4.8-2.8l2.3-1H39V25h12.5V52.5z"/>
</svg>
