<?xml version="1.0" encoding="utf-8"?>
<!-- Generator: Adobe Illustrator 23.0.0, SVG Export Plug-In . SVG Version: 6.00 Build 0)  -->
<svg version="1.1" id="Layer_1" xmlns="http://www.w3.org/2000/svg" xmlns:xlink="http://www.w3.org/1999/xlink" x="0px" y="0px"
	 viewBox="0 0 64 64" style="enable-background:new 0 0 64 64;" xml:space="preserve">
<style type="text/css">
	.st0{display:none;fill:none;stroke:#606060;stroke-width:3;stroke-miterlimit:10;}
	.st1{fill:#606060;}
</style>
<line class="st0" x1="26" y1="37" x2="23" y2="37"/>
<g>
	<g>
		<path class="st1" d="M38.7,22.7c0,2.7-1.5,5-3.8,6.1c-0.9,0.4-1.9,0.7-2.9,0.7c-1.1,0-2.1-0.2-2.9-0.7c-2.2-1.1-3.8-3.4-3.8-6.1
			s1.5-5,3.8-6.1c0.9-0.4,1.9-0.7,2.9-0.7c1.1,0,2.1,0.2,2.9,0.7C37.2,17.8,38.7,20.1,38.7,22.7z"/>
		<path class="st1" d="M45.5,44.6V48H18.5v-3.4c0-6.4,4.5-11.8,10.5-13.2c1-0.2,1.9-0.3,2.9-0.3s2,0.1,2.9,0.3
			c2.5,0.6,4.8,1.9,6.6,3.6C44,37.5,45.5,40.9,45.5,44.6z"/>
	</g>
	<g>
		<path class="st1" d="M26.5,28.8c-0.9,0.4-1.9,0.7-2.9,0.7c-3.7,0-6.7-3-6.7-6.7s3-6.7,6.7-6.7c1.1,0,2.1,0.2,2.9,0.7
			c-2.2,1.1-3.8,3.4-3.8,6.1S24.3,27.7,26.5,28.8z"/>
		<path class="st1" d="M26.5,31.5c-6,1.3-10.5,6.7-10.5,13.2V48h-5.9v-3.4c0-7.4,6-13.5,13.5-13.5C24.6,31.2,25.6,31.3,26.5,31.5z"
			/>
	</g>
	<g>
		<path class="st1" d="M47.2,22.7c0,3.7-3,6.7-6.7,6.7c-1.1,0-2.1-0.2-2.9-0.7c2.2-1.1,3.8-3.4,3.8-6.1s-1.5-5-3.8-6.1
			c0.9-0.4,1.9-0.7,2.9-0.7C44.1,16,47.2,19,47.2,22.7z"/>
		<path class="st1" d="M53.9,44.6V48H48v-3.4c0-3.7-1.5-7.1-3.9-9.5c-1.8-1.8-4.1-3.1-6.6-3.6c1-0.2,1.9-0.3,2.9-0.3
			c3.7,0,7.1,1.5,9.5,3.9C52.4,37.5,53.9,40.9,53.9,44.6z"/>
	</g>
</g>
</svg>
