<?xml version="1.0" encoding="utf-8"?>
<!-- Generator: Adobe Illustrator 23.0.0, SVG Export Plug-In . SVG Version: 6.00 Build 0)  -->
<svg version="1.1" id="Layer_1" xmlns="http://www.w3.org/2000/svg" xmlns:xlink="http://www.w3.org/1999/xlink" x="0px" y="0px"
	 viewBox="0 0 64 64" style="enable-background:new 0 0 64 64;" xml:space="preserve">
<style type="text/css">
	.st0{display:none;fill:none;stroke:#606060;stroke-width:3;stroke-miterlimit:10;}
	.st1{fill:#606060;}
</style>
<line class="st0" x1="26" y1="37" x2="23" y2="37"/>
<g>
	<g>
		<path class="st1" d="M37,18.2c-0.6-0.6-1.3-1.1-2-1.5C34.1,16.2,33.1,16,32,16c-1.1,0-2.1,0.2-2.9,0.7c-0.8,0.4-1.5,0.9-2,1.5
			c-1.1,1.2-1.8,2.8-1.8,4.5c0,1.8,0.7,3.3,1.8,4.5c0.6,0.6,1.3,1.1,2,1.5c0.9,0.4,1.9,0.7,2.9,0.7c1.1,0,2.1-0.2,2.9-0.7
			c0.8-0.4,1.5-0.9,2-1.5c1.1-1.2,1.8-2.8,1.8-4.5C38.7,21,38.1,19.4,37,18.2z M32.9,27.3c-0.3,0.1-0.6,0.1-0.9,0.1
			c-0.3,0-0.6,0-0.9-0.1c-0.8-0.2-1.4-0.5-2-1c-1-0.9-1.7-2.1-1.7-3.6c0-1.4,0.7-2.7,1.7-3.6c0.6-0.5,1.3-0.8,2-1
			c0.3-0.1,0.6-0.1,0.9-0.1c0.3,0,0.6,0,0.9,0.1c0.8,0.2,1.4,0.5,2,1c1,0.9,1.7,2.1,1.7,3.6c0,1.4-0.7,2.7-1.7,3.6
			C34.4,26.8,33.7,27.1,32.9,27.3z"/>
		<path class="st1" d="M39.4,33.4c-1.3-0.9-2.8-1.5-4.5-1.9c-1-0.2-1.9-0.3-2.9-0.3s-2,0.1-2.9,0.3h0c-1.6,0.4-3.1,1-4.4,1.9
			c0,0,0,0,0,0c-3.6,2.4-6.1,6.6-6.1,11.3V48h26.9v-3.4C45.5,39.9,43.1,35.8,39.4,33.4z M20.6,45.9v-1.3c0-5.2,3.6-9.7,8.4-11h0
			c0.5-0.1,0.9-0.2,1.4-0.3c0.5-0.1,1-0.1,1.5-0.1s1,0,1.5,0.1h0c0.5,0.1,1,0.2,1.4,0.3c4.8,1.3,8.4,5.7,8.4,11v1.3H20.6z"/>
	</g>
	<g>
		<path class="st1" d="M24.5,27.3c0.6,0.6,1.3,1.1,2,1.5c-0.9,0.4-1.9,0.7-2.9,0.7c-3.7,0-6.7-3-6.7-6.7s3-6.7,6.7-6.7
			c1.1,0,2.1,0.2,2.9,0.7c-0.8,0.4-1.5,0.9-2,1.5c-0.3-0.1-0.6-0.1-0.9-0.1c-2.6,0-4.6,2.1-4.6,4.6s2.1,4.6,4.6,4.6
			C23.9,27.4,24.2,27.3,24.5,27.3z"/>
		<path class="st1" d="M26.5,31.5c-1.6,0.4-3.1,1-4.4,1.9c0,0,0,0,0,0c-5.5,0.7-9.9,5.5-9.9,11.3v1.3H16V48h-5.9v-3.4
			c0-7.4,6-13.5,13.5-13.5C24.6,31.2,25.6,31.3,26.5,31.5z"/>
	</g>
	<g>
		<path class="st1" d="M47.2,22.7c0,3.7-3,6.7-6.7,6.7c-1.1,0-2.1-0.2-2.9-0.7c0.8-0.4,1.5-0.9,2-1.5c0.3,0.1,0.6,0.1,0.9,0.1
			c2.6,0,4.6-2.1,4.6-4.6s-2.1-4.6-4.6-4.6c-0.3,0-0.6,0-0.9,0.1c-0.6-0.6-1.3-1.1-2-1.5c0.9-0.4,1.9-0.7,2.9-0.7
			C44.1,16,47.2,19,47.2,22.7z"/>
		<path class="st1" d="M53.9,44.6V48H48v-2.1h3.8v-1.3c0-5.8-4.3-10.5-9.9-11.3c-1.3-0.9-2.8-1.5-4.5-1.9c1-0.2,1.9-0.3,2.9-0.3
			C47.9,31.2,53.9,37.2,53.9,44.6z"/>
	</g>
</g>
</svg>
