<?xml version="1.0" encoding="utf-8"?>
<!-- Generator: Adobe Illustrator 23.0.0, SVG Export Plug-In . SVG Version: 6.00 Build 0)  -->
<svg version="1.1" id="Layer_1" xmlns="http://www.w3.org/2000/svg" xmlns:xlink="http://www.w3.org/1999/xlink" x="0px" y="0px"
	 viewBox="0 0 64 64" style="enable-background:new 0 0 64 64;" xml:space="preserve">
<style type="text/css">
	.st0{fill:#606060;}
</style>
<g>
	<path class="st0" d="M52,32c0,11-9,20-20,20s-20-9-20-20s9-20,20-20S52,21,52,32 M55,32C55,19.3,44.7,9,32,9S9,19.3,9,32
		s10.3,23,23,23S55,44.7,55,32L55,32z"/>
	<g>
		<g>
			<polygon class="st0" points="33.1,49.3 15.8,32 33.1,14.7 35.2,16.8 21.5,30.5 48.2,30.5 48.2,33.5 21.5,33.5 35.2,47.2 			"/>
		</g>
	</g>
</g>
</svg>
