<?xml version="1.0" encoding="utf-8"?>
<!-- Generator: Adobe Illustrator 23.0.0, SVG Export Plug-In . SVG Version: 6.00 Build 0)  -->
<svg version="1.1" id="Layer_1" xmlns="http://www.w3.org/2000/svg" xmlns:xlink="http://www.w3.org/1999/xlink" x="0px" y="0px"
	 viewBox="0 0 64 64" style="enable-background:new 0 0 64 64;" xml:space="preserve">
<style type="text/css">
	.st0{fill:#606060;}
</style>
<g>
	<path class="st0" d="M52.5,32c0,11.3-9.2,20.5-20.5,20.5S11.5,43.3,11.5,32S20.7,11.5,32,11.5S52.5,20.7,52.5,32 M55,32
		C55,19.3,44.7,9,32,9S9,19.3,9,32s10.3,23,23,23S55,44.7,55,32L55,32z"/>
	<g>
		<g>
			<polygon class="st0" points="33.1,49.1 16,32 33.1,14.9 34.9,16.6 20.8,30.8 48,30.8 48,33.3 20.8,33.3 34.9,47.4 			"/>
		</g>
	</g>
</g>
</svg>
