<?xml version="1.0" encoding="utf-8"?>
<!-- Generator: Adobe Illustrator 23.0.0, SVG Export Plug-In . SVG Version: 6.00 Build 0)  -->
<svg version="1.1" id="Layer_1" xmlns="http://www.w3.org/2000/svg" xmlns:xlink="http://www.w3.org/1999/xlink" x="0px" y="0px"
	 viewBox="0 0 64 64" style="enable-background:new 0 0 64 64;" xml:space="preserve">
<style type="text/css">
	.st0{fill:#606060;}
</style>
<g>
	<path class="st0" d="M32,29.6c1.3,0,2.4,1.1,2.4,2.4c0,1.3-1.1,2.4-2.4,2.4c-1.3,0-2.4-1.1-2.4-2.4C29.6,30.7,30.7,29.6,32,29.6
		 M32,26.6c-3,0-5.4,2.4-5.4,5.4s2.4,5.4,5.4,5.4s5.4-2.4,5.4-5.4S35,26.6,32,26.6L32,26.6z"/>
	<path class="st0" d="M32,13c1.3,0,2.4,1.1,2.4,2.4s-1.1,2.4-2.4,2.4c-1.3,0-2.4-1.1-2.4-2.4S30.7,13,32,13 M32,10
		c-3,0-5.4,2.4-5.4,5.4s2.4,5.4,5.4,5.4s5.4-2.4,5.4-5.4S35,10,32,10L32,10z"/>
	<path class="st0" d="M32,46.3c1.3,0,2.4,1.1,2.4,2.4S33.3,51,32,51c-1.3,0-2.4-1.1-2.4-2.4S30.7,46.3,32,46.3 M32,43.3
		c-3,0-5.4,2.4-5.4,5.4S29,54,32,54s5.4-2.4,5.4-5.4S35,43.3,32,43.3L32,43.3z"/>
</g>
</svg>
