<?xml version="1.0" encoding="utf-8"?>
<!-- Generator: Adobe Illustrator 23.0.0, SVG Export Plug-In . SVG Version: 6.00 Build 0)  -->
<svg version="1.1" id="Layer_1" xmlns="http://www.w3.org/2000/svg" xmlns:xlink="http://www.w3.org/1999/xlink" x="0px" y="0px"
	 viewBox="0 0 64 64" style="enable-background:new 0 0 64 64;" xml:space="preserve">
<style type="text/css">
	.st0{fill:#606060;}
</style>
<g>
	<g>
		<g>
			<rect x="25.9" y="46" class="st0" width="21.8" height="2"/>
		</g>
		<g>
			<rect x="25.9" y="31" class="st0" width="21.8" height="2"/>
		</g>
		<g>
			<rect x="25.9" y="16" class="st0" width="21.8" height="2"/>
		</g>
	</g>
	<g>
		<g>
			<path class="st0" d="M19.6,22.2h-1.3v-4.9l-1.5,0.5v-1l2.6-0.9h0.1V22.2z"/>
		</g>
		<g>
			<path class="st0" d="M20.9,35.2h-4.4v-0.9l2.1-2.2c0.3-0.3,0.5-0.6,0.6-0.8c0.1-0.2,0.2-0.5,0.2-0.7c0-0.3-0.1-0.5-0.2-0.7
				c-0.1-0.2-0.3-0.2-0.6-0.2c-0.3,0-0.5,0.1-0.7,0.3c-0.2,0.2-0.2,0.5-0.2,0.8h-1.3c0-0.4,0.1-0.7,0.3-1.1c0.2-0.3,0.4-0.6,0.8-0.8
				c0.3-0.2,0.7-0.3,1.2-0.3c0.7,0,1.2,0.2,1.5,0.5c0.4,0.3,0.5,0.8,0.5,1.3c0,0.3-0.1,0.6-0.2,1c-0.2,0.3-0.4,0.7-0.8,1.1l-1.5,1.5
				h2.8V35.2z"/>
		</g>
		<g>
			<path class="st0" d="M17.8,44.4h0.7c0.3,0,0.6-0.1,0.7-0.2c0.2-0.2,0.2-0.4,0.2-0.6c0-0.3-0.1-0.5-0.2-0.6
				c-0.2-0.1-0.4-0.2-0.6-0.2c-0.2,0-0.4,0.1-0.6,0.2c-0.2,0.1-0.2,0.3-0.2,0.5h-1.3c0-0.3,0.1-0.6,0.3-0.9c0.2-0.3,0.4-0.5,0.8-0.6
				c0.3-0.2,0.7-0.2,1.1-0.2c0.7,0,1.2,0.2,1.6,0.5c0.4,0.3,0.6,0.8,0.6,1.3c0,0.3-0.1,0.6-0.3,0.8s-0.4,0.4-0.7,0.6
				c0.4,0.1,0.6,0.3,0.8,0.6s0.3,0.6,0.3,0.9c0,0.6-0.2,1-0.6,1.4c-0.4,0.3-1,0.5-1.6,0.5c-0.6,0-1.2-0.2-1.6-0.5
				c-0.4-0.3-0.6-0.8-0.6-1.3h1.3c0,0.2,0.1,0.4,0.3,0.6c0.2,0.2,0.4,0.2,0.7,0.2c0.3,0,0.5-0.1,0.7-0.2c0.2-0.2,0.3-0.4,0.3-0.6
				c0-0.6-0.4-1-1.1-1h-0.7V44.4z"/>
		</g>
	</g>
</g>
</svg>
