<?xml version="1.0" encoding="utf-8"?>
<!-- Generator: Adobe Illustrator 23.0.0, SVG Export Plug-In . SVG Version: 6.00 Build 0)  -->
<svg version="1.1" id="Layer_1" xmlns="http://www.w3.org/2000/svg" xmlns:xlink="http://www.w3.org/1999/xlink" x="0px" y="0px"
	 viewBox="0 0 64 64" style="enable-background:new 0 0 64 64;" xml:space="preserve">
<style type="text/css">
	.st0{fill:#606060;}
</style>
<g>
	<g>
		<g>
			<path class="st0" d="M8.3,16.6v32h11.5v-32H8.3z M16.8,45.6h-5.5v-0.5h5.5V45.6z M16.8,42.1h-5.5v-17h5.5V42.1z M11.3,22.1v-2.5
				h5.5v2.5H11.3z"/>
		</g>
	</g>
	<g>
		<g>
			<path class="st0" d="M24.3,16.6v32h11.5v-32H24.3z M32.8,45.6h-5.5v-0.5h5.5V45.6z M32.8,42.1h-5.5v-17h5.5V42.1z M27.3,22.1
				v-2.5h5.5v2.5H27.3z"/>
		</g>
	</g>
	<g>
		<g>
			<path class="st0" d="M51.4,43.6l-0.4-3l-2.3-16.8l-0.4-3l-0.7-5.5l-11.4,1.5l0.7,5.5l0.4,3l2.3,16.9l0.4,3l0.5,3.5l11.4-1.5
				L51.4,43.6z M39.5,19.5l5.4-0.7l0.3,2.5L39.9,22L39.5,19.5z M40.3,24.9l5.4-0.7L48,41l-5.5,0.7L40.3,24.9z M43,45.3L43,44.8
				l5.5-0.8l0.1,0.5L43,45.3z"/>
		</g>
	</g>
</g>
</svg>
