<?xml version="1.0" encoding="utf-8"?>
<!-- Generator: Adobe Illustrator 23.0.0, SVG Export Plug-In . SVG Version: 6.00 Build 0)  -->
<svg version="1.1" id="Layer_1" xmlns="http://www.w3.org/2000/svg" xmlns:xlink="http://www.w3.org/1999/xlink" x="0px" y="0px"
	 viewBox="0 0 64 64" style="enable-background:new 0 0 64 64;" xml:space="preserve">
<style type="text/css">
	.st0{fill:#606060;}
</style>
<g>
	<g>
		<g>
			<path class="st0" d="M45.5,15.8v-6h-4v6H34v-6h-4v6h-7.5v-6h-4v6h-9v38.5h45V15.8H45.5z M50.5,50.3h-37V29.8h37V50.3z M13.5,25.8
				v-6h5v3h4v-3H30v3h4v-3h7.5v3h4v-3h5v6H13.5z"/>
		</g>
	</g>
	<g>
		<g>
			<rect x="30" y="33.8" class="st0" width="4" height="3.3"/>
		</g>
		<g>
			<rect x="41.5" y="33.8" class="st0" width="4" height="3.3"/>
		</g>
		<g>
			<rect x="18.5" y="33.8" class="st0" width="4" height="3.3"/>
		</g>
	</g>
	<g>
		<g>
			<rect x="30" y="41.8" class="st0" width="4" height="3.3"/>
		</g>
		<g>
			<rect x="41.5" y="41.8" class="st0" width="4" height="3.3"/>
		</g>
		<g>
			<rect x="18.5" y="41.8" class="st0" width="4" height="3.3"/>
		</g>
	</g>
</g>
</svg>
