<?xml version="1.0" encoding="utf-8"?>
<!-- Generator: Adobe Illustrator 23.0.0, SVG Export Plug-In . SVG Version: 6.00 Build 0)  -->
<svg version="1.1" id="Layer_1" xmlns="http://www.w3.org/2000/svg" xmlns:xlink="http://www.w3.org/1999/xlink" x="0px" y="0px"
	 viewBox="0 0 64 64" style="enable-background:new 0 0 64 64;" xml:space="preserve">
<style type="text/css">
	.st0{fill:#606060;}
</style>
<g>
	<g>
		<g>
			<path class="st0" d="M45,15.8v-6h-3v6h-8.5v-6h-3v6H22v-6h-3v6H9.5v38.5h45V15.8H45z M51.5,51.3h-39V28.8h39V51.3z M12.5,25.8v-7
				H19v4h3v-4h8.5v4h3v-4H42v4h3v-4h6.5v7H12.5z"/>
		</g>
	</g>
	<g>
		<g>
			<rect x="30.5" y="33.8" class="st0" width="3" height="3.3"/>
		</g>
		<g>
			<rect x="42" y="33.8" class="st0" width="3" height="3.3"/>
		</g>
		<g>
			<rect x="19" y="33.8" class="st0" width="3" height="3.3"/>
		</g>
	</g>
	<g>
		<g>
			<rect x="30.5" y="41.8" class="st0" width="3" height="3.3"/>
		</g>
		<g>
			<rect x="42" y="41.8" class="st0" width="3" height="3.3"/>
		</g>
		<g>
			<rect x="19" y="41.8" class="st0" width="3" height="3.3"/>
		</g>
	</g>
</g>
</svg>
