<?xml version="1.0" encoding="utf-8"?>
<!-- Generator: Adobe Illustrator 23.0.0, SVG Export Plug-In . SVG Version: 6.00 Build 0)  -->
<svg version="1.1" id="Layer_1" xmlns="http://www.w3.org/2000/svg" xmlns:xlink="http://www.w3.org/1999/xlink" x="0px" y="0px"
	 viewBox="0 0 64 64" style="enable-background:new 0 0 64 64;" xml:space="preserve">
<style type="text/css">
	.st0{fill:#606060;}
</style>
<g>
	<path class="st0" d="M54,30.8c-0.1-2.7-0.8-5.2-1.8-7.5c-0.4-0.9-0.8-1.7-1.3-2.5c-1.5-2.6-3.6-4.8-6-6.6c-3-2.2-6.5-3.6-10.4-4
		c-0.4-0.1-0.8-0.1-1.3-0.1c-0.4,0-0.8,0-1.3,0s-0.8,0-1.3,0c-0.4,0-0.8,0-1.3,0.1c0,0,0,0,0,0c-3.9,0.4-7.4,1.9-10.4,4c0,0,0,0,0,0
		c-2.4,1.8-4.5,4-6,6.5c-0.5,0.8-0.9,1.6-1.3,2.5c-1,2.3-1.6,4.8-1.8,7.5c0,0.4,0,0.8,0,1.3c0,0.4,0,0.8,0,1.3
		c0.1,2.7,0.8,5.2,1.8,7.5c0.4,0.9,0.8,1.7,1.3,2.5c1.5,2.6,3.6,4.8,6,6.5c0,0,0,0,0,0c3,2.2,6.5,3.6,10.4,4c0,0,0,0,0,0
		c0.4,0,0.8,0.1,1.3,0.1c0.4,0,0.8,0,1.3,0s0.8,0,1.3,0c0.4,0,0.8,0,1.3-0.1c3.9-0.4,7.4-1.9,10.4-4c2.4-1.8,4.5-4,6-6.6
		c0.5-0.8,0.9-1.6,1.3-2.5c1-2.3,1.6-4.8,1.8-7.5c0-0.4,0-0.8,0-1.3C54,31.6,54,31.2,54,30.8z M47.9,20.8h-2c-1.5-2.6-3.6-4.8-6-6.6
		C43.1,15.6,45.9,17.9,47.9,20.8z M46.5,30.8H33.3v-7.5h11.2C45.6,25.5,46.3,28.1,46.5,30.8z M33.3,33.3h13.2
		c-0.2,2.7-0.9,5.2-2,7.5H33.3V33.3z M33.3,13.5c3.9,1.3,7.3,3.9,9.7,7.2h-9.7V13.5z M30.8,13.5v7.2h-9.7
		C23.4,17.4,26.8,14.9,30.8,13.5z M24.1,14.2c-2.4,1.8-4.5,4-6,6.6h-2C18.1,17.9,20.9,15.6,24.1,14.2z M14.6,23.3h2.2
		c-1,2.3-1.6,4.8-1.8,7.5h-2.5C12.7,28.1,13.4,25.5,14.6,23.3z M14.6,40.8c-1.2-2.3-1.9-4.8-2-7.5H15c0.1,2.7,0.8,5.2,1.8,7.5H14.6z
		 M16.1,43.3h2c1.5,2.6,3.6,4.8,6,6.6C20.9,48.4,18.1,46.1,16.1,43.3z M30.8,50.5c-3.9-1.3-7.3-3.9-9.7-7.2h9.7V50.5z M30.8,40.8
		H19.6c-1.2-2.3-1.9-4.8-2-7.5h13.2V40.8z M30.8,30.8H17.5c0.2-2.7,0.9-5.2,2-7.5h11.2V30.8z M33.3,50.5v-7.2h9.7
		C40.6,46.6,37.2,49.1,33.3,50.5z M39.9,49.8c2.4-1.8,4.5-4,6-6.6h2C45.9,46.1,43.1,48.4,39.9,49.8z M49.4,40.8h-2.2
		c1-2.3,1.6-4.8,1.8-7.5h2.5C51.3,35.9,50.6,38.5,49.4,40.8z M49,30.8c-0.1-2.7-0.8-5.2-1.8-7.5h2.2c1.2,2.3,1.9,4.8,2,7.5H49z"/>
</g>
</svg>
