<?xml version="1.0" encoding="utf-8"?>
<!-- Generator: Adobe Illustrator 23.0.0, SVG Export Plug-In . SVG Version: 6.00 Build 0)  -->
<svg version="1.1" id="Layer_1" xmlns="http://www.w3.org/2000/svg" xmlns:xlink="http://www.w3.org/1999/xlink" x="0px" y="0px"
	 viewBox="0 0 64 64" style="enable-background:new 0 0 64 64;" xml:space="preserve">
<style type="text/css">
	.st0{fill:#606060;}
</style>
<path class="st0" d="M42,9.3L41.7,9H10v46h18.5l-3.2-3H13V12h26v13h12v27H38.2l-2.8,3H54V21.8L42,9.3z M42,22v-8.4l8,8.4H42z"/>
<g>
	<g>
		<polygon class="st0" points="41.3,45.4 39.5,47.3 32.3,55 24.1,47.3 22.7,46 24.3,44.3 24.8,43.8 25.3,44.3 28.5,47.3 30.5,49.2 
			30.5,35.6 33.5,35.6 33.5,49.3 35.4,47.3 38.2,44.3 39.1,43.3 40.2,44.3 		"/>
	</g>
</g>
</svg>
