<?xml version="1.0" encoding="utf-8"?>
<!-- Generator: Adobe Illustrator 23.0.0, SVG Export Plug-In . SVG Version: 6.00 Build 0)  -->
<svg version="1.1" id="Layer_1" xmlns="http://www.w3.org/2000/svg" xmlns:xlink="http://www.w3.org/1999/xlink" x="0px" y="0px"
	 viewBox="0 0 64 64" style="enable-background:new 0 0 64 64;" xml:space="preserve">
<style type="text/css">
	.st0{fill:#606060;}
</style>
<path class="st0" d="M49.3,18.4c-0.1-0.2-0.3-0.3-0.4-0.5c0,0,0,0,0,0C44.8,13,38.8,10,32,10c-12.2,0-22,9.8-22,22
	c0,4.4,1.3,8.4,3.5,11.8c0.4,0.6,0.8,1.1,1.2,1.7c4,5.2,10.3,8.5,17.4,8.5c6.6,0,12.6-2.9,16.6-7.6c1.2-1.4,2.2-2.9,3-4.5
	c1.5-3,2.3-6.3,2.3-9.9C54,26.8,52.2,22.1,49.3,18.4z M32,12c4.6,0,8.8,1.6,12.2,4.2c-4.9-1.4-9.2-1.2-12.7,0.5
	c-5.5,2.7-7.2,8.2-7.4,9c-1.5,3.2-3.5,5.3-5.9,6.1c-2.6,0.9-5.1,0.1-6.2-0.4C12.3,20.6,21.2,12,32,12z M32,52
	c-6.5,0-12.3-3.1-15.9-7.9C19.8,40.7,23.4,39,27,39h0.2c5.6,0.1,9.1,4.3,9.1,4.4l0.1,0.1c2.8,2.4,5.6,3.7,8.4,3.7H45
	C41.5,50.2,37,52,32,52z M47.4,44.8c-0.5,0.2-1.1,0.3-1.7,0.4c-2.5,0.3-5.2-0.7-7.9-3.1c-0.5-0.7-4.4-4.9-10.5-5
	c-4.1-0.1-8.3,1.7-12.3,5.4c-1.6-2.6-2.6-5.7-2.9-8.9c0.9,0.3,2.2,0.6,3.7,0.6c1,0,2-0.1,3.1-0.5c3-1,5.4-3.4,7.1-7.2l0.1-0.2
	c0,0,1.4-5.3,6.4-7.8c3.9-1.9,9.1-1.6,15.2,1C50.3,22.9,52,27.3,52,32C52,36.8,50.3,41.3,47.4,44.8z"/>
</svg>
