<?xml version="1.0" encoding="utf-8"?>
<!-- Generator: Adobe Illustrator 23.0.0, SVG Export Plug-In . SVG Version: 6.00 Build 0)  -->
<svg version="1.1" id="Layer_1" xmlns="http://www.w3.org/2000/svg" xmlns:xlink="http://www.w3.org/1999/xlink" x="0px" y="0px"
	 viewBox="0 0 64 64" style="enable-background:new 0 0 64 64;" xml:space="preserve">
<style type="text/css">
	.st0{fill:#606060;}
</style>
<path class="st0" d="M49.3,18.4c-0.6-0.8-1.3-1.6-2.1-2.3C43.3,12.3,37.9,10,32,10c-12.2,0-22,9.8-22,22c0,0.6,0,1.1,0.1,1.7
	c0,0,0,0.1,0,0.1c0.3,3.3,1.3,6.4,2.8,9.2c0.7,1.2,1.5,2.3,2.3,3.3c4,4.7,10,7.7,16.7,7.7c5.9,0,11.2-2.3,15.2-6.1
	c1.8-1.7,3.3-3.8,4.5-6c1.5-3,2.3-6.3,2.3-9.9C54,26.8,52.2,22.1,49.3,18.4z M32,14c1.3,0,2.5,0.1,3.8,0.4c-1.7,0.2-3.2,0.7-4.7,1.4
	c-5.7,2.8-7.6,8.4-7.9,9.5c-1.4,2.9-3.1,4.8-5.2,5.5c-1.4,0.5-2.8,0.4-3.8,0.2C14.6,21.5,22.4,14,32,14z M14.3,35
	c0.5,0.1,1,0.1,1.5,0.1c1.1,0,2.2-0.1,3.4-0.5c3.3-1.1,5.9-3.7,7.7-7.8l0.1-0.4c0,0,1.3-4.9,5.9-7.1c3.2-1.5,7.3-1.5,12.2,0.2
	c3.1,3.2,5,7.6,5,12.4c0,4.7-1.8,9-4.8,12.2c-2.1,0.1-4.4-0.8-6.7-2.8c-0.8-0.9-4.9-5.2-11.2-5.3c-3.8-0.1-7.6,1.3-11.3,4.2
	C15.2,38.6,14.6,36.9,14.3,35z M32,50c-5.5,0-10.5-2.5-13.8-6.4c3.1-2.4,6-3.6,9-3.5c5.1,0.1,8.3,4,8.4,4l0.3,0.3
	c1.8,1.5,3.5,2.6,5.3,3.2C38.4,49.1,35.3,50,32,50z"/>
</svg>
