<?xml version="1.0" encoding="utf-8"?>
<!-- Generator: Adobe Illustrator 23.0.0, SVG Export Plug-In . SVG Version: 6.00 Build 0)  -->
<svg version="1.1" id="Layer_1" xmlns="http://www.w3.org/2000/svg" xmlns:xlink="http://www.w3.org/1999/xlink" x="0px" y="0px"
	 viewBox="0 0 64 64" style="enable-background:new 0 0 64 64;" xml:space="preserve">
<style type="text/css">
	.st0{display:none;fill:none;stroke:#606060;stroke-width:3;stroke-miterlimit:10;}
	.st1{fill:#606060;}
</style>
<line class="st0" x1="26" y1="37" x2="23" y2="37"/>
<g>
	<g>
		<path class="st1" d="M18,18c-6,6-6,15.7,0,21.6c5.5,5.5,14.1,5.9,20.1,1.3l9.6,9.6l2.8-2.8l-9.6-9.6c4.6-6,4.2-14.6-1.3-20.1
			C33.6,12,24,12,18,18z M36.8,36.8c-4.4,4.4-11.6,4.4-16,0c-4.4-4.4-4.4-11.6,0-16s11.6-4.4,16,0C41.2,25.2,41.2,32.4,36.8,36.8z"
			/>
	</g>
</g>
</svg>
