<?xml version="1.0" encoding="utf-8"?>
<!-- Generator: Adobe Illustrator 23.0.0, SVG Export Plug-In . SVG Version: 6.00 Build 0)  -->
<svg version="1.1" id="Layer_1" xmlns="http://www.w3.org/2000/svg" xmlns:xlink="http://www.w3.org/1999/xlink" x="0px" y="0px"
	 viewBox="0 0 64 64" style="enable-background:new 0 0 64 64;" xml:space="preserve">
<style type="text/css">
	.st0{fill:#606060;}
</style>
<g>
	<g>
		<g>
			<path class="st0" d="M44.8,15.8v-6h-2.5v6h-9v-6h-2.5v6h-9v-6h-2.5v6H9.5v38.5h45V15.8H44.8z M52,51.8H12V28.3h40V51.8z M12,25.8
				v-7.5h7.3v4.5h2.5v-4.5h9v4.5h2.5v-4.5h9v4.5h2.5v-4.5H52v7.5H12z"/>
		</g>
	</g>
	<g>
		<g>
			<rect x="30.8" y="33.8" class="st0" width="2.5" height="3.3"/>
		</g>
		<g>
			<rect x="42.3" y="33.8" class="st0" width="2.5" height="3.3"/>
		</g>
		<g>
			<rect x="19.3" y="33.8" class="st0" width="2.5" height="3.3"/>
		</g>
	</g>
	<g>
		<g>
			<rect x="30.8" y="41.8" class="st0" width="2.5" height="3.3"/>
		</g>
		<g>
			<rect x="42.3" y="41.8" class="st0" width="2.5" height="3.3"/>
		</g>
		<g>
			<rect x="19.3" y="41.8" class="st0" width="2.5" height="3.3"/>
		</g>
	</g>
</g>
</svg>
