<?xml version="1.0" encoding="utf-8"?>
<!-- Generator: Adobe Illustrator 23.0.0, SVG Export Plug-In . SVG Version: 6.00 Build 0)  -->
<svg version="1.1" id="Layer_1" xmlns="http://www.w3.org/2000/svg" xmlns:xlink="http://www.w3.org/1999/xlink" x="0px" y="0px"
	 viewBox="0 0 64 64" style="enable-background:new 0 0 64 64;" xml:space="preserve">
<style type="text/css">
	.st0{fill:#606060;}
</style>
<g>
	<path class="st0" d="M42.7,10H21.3c-2.1,0-3.8,1.7-3.8,3.8v36.4c0,2.1,1.7,3.8,3.8,3.8h21.4c2.1,0,3.8-1.7,3.8-3.8V13.8
		C46.5,11.7,44.8,10,42.7,10z M27.5,13.5h9c0.5,0,1,0.5,1,1s-0.5,1-1,1h-9c-0.5,0-1-0.5-1-1S27,13.5,27.5,13.5z M32,49
		c-1.1,0-2-0.9-2-2s0.9-2,2-2s2,0.9,2,2S33.1,49,32,49z M44.5,41.5h-25v-23h25V41.5z"/>
</g>
</svg>
