<?xml version="1.0" encoding="utf-8"?>
<!-- Generator: Adobe Illustrator 23.0.0, SVG Export Plug-In . SVG Version: 6.00 Build 0)  -->
<svg version="1.1" id="Layer_1" xmlns="http://www.w3.org/2000/svg" xmlns:xlink="http://www.w3.org/1999/xlink" x="0px" y="0px"
	 viewBox="0 0 64 64" style="enable-background:new 0 0 64 64;" xml:space="preserve">
<style type="text/css">
	.st0{fill:#606060;}
</style>
<g>
	<path class="st0" d="M43.9,37c2.2,2.2,1.9,5.8-0.8,7.6c-2,1.3-4.6,0.9-6.3-0.8l-3.4-3.4c-1.1-1.1-2.9-1.1-4,0l0,0
		c-1.1,1.1-1.1,2.9,0,4l3.2,3.2c4,4,10.4,4.5,14.7,0.8c2.4-2.1,3.6-5,3.6-8c0-2.7-1-5.4-3.1-7.5l-3.5-3.5c-1.1-1.1-2.9-1.1-4,0l0,0
		c-1.1,1.1-1.1,2.9,0,4L43.9,37z M15.1,17.1c-3.3,4.2-2.6,10.4,1.2,14.2l3.2,3.2c1.1,1.1,2.9,1.1,4,0l0,0c1.1-1.1,1.1-2.9,0-4
		l-3.4-3.4c-1.7-1.7-2.1-4.3-0.8-6.3c1.8-2.7,5.5-3,7.6-0.8l3.5,3.5c1.1,1.1,2.9,1.1,4,0l0,0c1.1-1.1,1.1-2.9,0-4L31,16.1
		C26.5,11.7,19.1,12,15.1,17.1z"/>
	<g>
		<path class="st0" d="M39.9,40L39.9,40c-0.8,0.8-2.2,0.8-3,0l-13-13c-0.8-0.8-0.8-2.2,0-3l0,0c0.8-0.8,2.2-0.8,3,0l13,13
			C40.8,37.8,40.8,39.2,39.9,40z"/>
	</g>
</g>
</svg>
