<?xml version="1.0" encoding="utf-8"?>
<!-- Generator: Adobe Illustrator 23.0.0, SVG Export Plug-In . SVG Version: 6.00 Build 0)  -->
<svg version="1.1" id="Layer_1" xmlns="http://www.w3.org/2000/svg" xmlns:xlink="http://www.w3.org/1999/xlink" x="0px" y="0px"
	 viewBox="0 0 64 64" style="enable-background:new 0 0 64 64;" xml:space="preserve">
<style type="text/css">
	.st0{fill:#606060;}
</style>
<g>
	<path class="st0" d="M43.8,37c2,2,2,5.1,0,6.9c-2,2-5.1,2-6.9,0l-5.5-5.5l-3.9,3.9l5.5,5.5c4.1,4.1,10.8,4.1,14.9,0
		C50,45.7,51,43,51,40.3s-1-5.3-3.1-7.4l-5.5-5.5l-3.9,3.9L43.8,37z M16.1,16.2C12,20.3,12,27,16.1,31.1l5.5,5.5l3.9-3.9L20,27.1
		c-2-2-2-5.1,0-6.9c2-2,5.1-2,6.9,0l5.5,5.5l3.9-3.9l-5.5-5.5C26.9,12.1,20.1,12.1,16.1,16.2z"/>
	<g>
		
			<rect x="29.8" y="20.8" transform="matrix(0.7071 -0.7071 0.7071 0.7071 -13.3253 31.9566)" class="st0" width="4.2" height="22.5"/>
	</g>
</g>
</svg>
