<?xml version="1.0" encoding="utf-8"?>
<!-- Generator: Adobe Illustrator 23.0.0, SVG Export Plug-In . SVG Version: 6.00 Build 0)  -->
<svg version="1.1" id="Layer_1" xmlns="http://www.w3.org/2000/svg" xmlns:xlink="http://www.w3.org/1999/xlink" x="0px" y="0px"
	 viewBox="0 0 64 64" style="enable-background:new 0 0 64 64;" xml:space="preserve">
<style type="text/css">
	.st0{fill:#606060;}
</style>
<g>
	<path class="st0" d="M45.9,35c3.2,3.2,2.9,8.6-0.6,11.5c-3.1,2.5-7.7,2.1-10.5-0.7l-5.2-5.2c-0.6-0.6-1.5-0.6-2.1,0l0,0
		c-0.6,0.6-0.6,1.4,0,2l5.2,5.2c3.9,3.9,10.5,4.5,14.7,0.8c2.4-2.1,3.5-5,3.5-7.9c0-2.7-1-5.3-3.1-7.4l-5.5-5.5
		c-0.6-0.6-1.4-0.6-2,0l0,0c-0.6,0.6-0.6,1.4,0,2L45.9,35z M15.2,17.1c-3.2,4.2-2.7,10.4,1.1,14l5.2,5.2c0.6,0.6,1.4,0.6,2,0l0,0
		c0.6-0.6,0.6-1.4,0-2l-5.2-5.2c-2.8-2.8-3.4-7.4-0.7-10.5c2.9-3.5,8.3-3.8,11.5-0.6l5.5,5.5c0.6,0.6,1.4,0.6,2,0l0,0
		c0.6-0.6,0.6-1.4,0-2L31,16.2C26.5,11.7,19.1,11.9,15.2,17.1z"/>
	<g>
		<g>
			<g>
				<path class="st0" d="M39.9,37.9c0.6,0.6,0.6,1.4,0,2c-0.6,0.6-1.4,0.6-2,0L24,26c-0.6-0.6-0.6-1.4,0-2s1.4-0.6,2,0L39.9,37.9z"
					/>
			</g>
		</g>
	</g>
</g>
</svg>
