<?xml version="1.0" encoding="utf-8"?>
<!-- Generator: Adobe Illustrator 23.0.0, SVG Export Plug-In . SVG Version: 6.00 Build 0)  -->
<svg version="1.1" id="Layer_1" xmlns="http://www.w3.org/2000/svg" xmlns:xlink="http://www.w3.org/1999/xlink" x="0px" y="0px"
	 viewBox="0 0 64 64" style="enable-background:new 0 0 64 64;" xml:space="preserve">
<style type="text/css">
	.st0{fill:#606060;}
</style>
<g>
	<path class="st0" d="M45.9,35c3,3,3,7.9,0,11c-3,3.1-7.9,3-11,0l-6.5-6.5l-2,2l6.5,6.5c4.1,4.1,10.8,4.1,14.9,0
		c2.1-2.1,3.1-4.8,3.1-7.5s-1-5.4-3.1-7.5l-6.5-6.5l-2,2L45.9,35z M16.1,16.1C12,20.2,12,26.9,16.1,31l6.5,6.5l2-2L18,29
		c-3-3-3-7.9,0-11s7.9-3,11,0l6.5,6.5l2-2L31,16.1C26.9,12,20.1,12,16.1,16.1z"/>
	<g>
		
			<rect x="30.6" y="20.7" transform="matrix(0.7071 -0.7071 0.7071 0.7071 -13.2602 31.9871)" class="st0" width="2.8" height="22.5"/>
	</g>
</g>
</svg>
