<?xml version="1.0" encoding="utf-8"?>
<!-- Generator: Adobe Illustrator 23.0.0, SVG Export Plug-In . SVG Version: 6.00 Build 0)  -->
<svg version="1.1" id="Layer_1" xmlns="http://www.w3.org/2000/svg" xmlns:xlink="http://www.w3.org/1999/xlink" x="0px" y="0px"
	 viewBox="0 0 64 64" style="enable-background:new 0 0 64 64;" xml:space="preserve">
<style type="text/css">
	.st0{fill:#606060;}
	.st1{fill-rule:evenodd;clip-rule:evenodd;fill:#606060;}
</style>
<g>
	<path class="st0" d="M41.7,9H10v46h44V21.8L41.7,9z M51.5,52.5h-39v-41H39V25h12.5V52.5z M41.5,22.5V12.4l9.7,10.1H41.5z"/>
	<g>
		<path class="st0" d="M32,30.5c2.7,0,5.2,0.8,7.4,2.2c2.3,1.5,4.1,3.7,5.2,6.3c-2,5.1-7,8.5-12.5,8.5S21.5,44.1,19.5,39
			c1-2.6,2.8-4.8,5.2-6.3C26.8,31.3,29.3,30.5,32,30.5 M32,28c-3.2,0-6.2,0.9-8.7,2.6c-3,2-5.3,4.9-6.4,8.4c2.1,6.4,8.1,11,15.2,11
			s13.1-4.6,15.2-11c-1.1-3.5-3.4-6.4-6.4-8.4C38.2,28.9,35.2,28,32,28L32,28z"/>
		<circle class="st1" cx="32" cy="39" r="5"/>
	</g>
</g>
</svg>
