<?xml version="1.0" encoding="utf-8"?>
<!-- Generator: Adobe Illustrator 23.0.0, SVG Export Plug-In . SVG Version: 6.00 Build 0)  -->
<svg version="1.1" id="Layer_1" xmlns="http://www.w3.org/2000/svg" xmlns:xlink="http://www.w3.org/1999/xlink" x="0px" y="0px"
	 viewBox="0 0 64 64" style="enable-background:new 0 0 64 64;" xml:space="preserve">
<style type="text/css">
	.st0{fill:#606060;}
	.st1{fill-rule:evenodd;clip-rule:evenodd;fill:#606060;}
</style>
<path class="st0" d="M32,18.5c4.1,0,8,1.2,11.4,3.4c3.7,2.4,6.6,6,8.1,10.1c-3,8.1-10.7,13.5-19.5,13.5S15.6,40.1,12.5,32
	c1.5-4.1,4.4-7.7,8.1-10.1C24,19.7,27.9,18.5,32,18.5 M32,16c-4.7,0-9.1,1.4-12.7,3.8c-4.4,2.9-7.7,7.1-9.4,12.2
	c3.1,9.3,11.8,16,22.1,16s19.1-6.7,22.1-16c-1.7-5.1-5-9.4-9.4-12.2C41.1,17.4,36.7,16,32,16L32,16z"/>
<circle class="st1" cx="32" cy="32" r="7.3"/>
</svg>
