<?xml version="1.0" encoding="utf-8"?>
<!-- Generator: Adobe Illustrator 23.0.0, SVG Export Plug-In . SVG Version: 6.00 Build 0)  -->
<svg version="1.1" id="Layer_1" xmlns="http://www.w3.org/2000/svg" xmlns:xlink="http://www.w3.org/1999/xlink" x="0px" y="0px"
	 viewBox="0 0 64 64" style="enable-background:new 0 0 64 64;" xml:space="preserve">
<style type="text/css">
	.st0{fill:#606060;}
	.st1{fill-rule:evenodd;clip-rule:evenodd;fill:#606060;}
</style>
<path class="st0" d="M32,19c4,0,7.8,1.1,11.1,3.3c3.6,2.3,6.3,5.7,7.8,9.7c-3,7.8-10.5,13-18.9,13s-15.9-5.2-18.9-13
	c1.5-4,4.3-7.4,7.8-9.7C24.2,20.1,28,19,32,19 M32,16c-4.7,0-9.1,1.4-12.7,3.8c-4.4,2.9-7.7,7.1-9.4,12.2c3.1,9.3,11.8,16,22.1,16
	c10.3,0,19.1-6.7,22.1-16c-1.7-5.1-5-9.4-9.4-12.2C41.1,17.4,36.7,16,32,16L32,16z"/>
<circle class="st1" cx="32" cy="32" r="7.3"/>
</svg>
