<?xml version="1.0" encoding="utf-8"?>
<!-- Generator: Adobe Illustrator 23.0.0, SVG Export Plug-In . SVG Version: 6.00 Build 0)  -->
<svg version="1.1" id="Layer_1" xmlns="http://www.w3.org/2000/svg" xmlns:xlink="http://www.w3.org/1999/xlink" x="0px" y="0px"
	 viewBox="0 0 64 64" style="enable-background:new 0 0 64 64;" xml:space="preserve">
<style type="text/css">
	.st0{fill:#606060;}
</style>
<g>
	<g>
		<path class="st0" d="M32,9C19.3,9,9,19.3,9,32s10.3,23,23,23s23-10.3,23-23S44.7,9,32,9z M32,52c-11,0-20-9-20-20s9-20,20-20
			s20,9,20,20S43,52,32,52z"/>
	</g>
	<g>
		<path class="st0" d="M32,15.9c-0.9,0-1.7,0.8-1.7,1.7s0.8,1.7,1.7,1.7c0.9,0,1.7-0.8,1.7-1.7S32.9,15.9,32,15.9L32,15.9z"/>
	</g>
	<g>
		<path class="st0" d="M17.7,30.3c-0.9,0-1.7,0.8-1.7,1.7s0.8,1.7,1.7,1.7s1.7-0.8,1.7-1.7S18.6,30.3,17.7,30.3L17.7,30.3z"/>
	</g>
	<g>
		<path class="st0" d="M21.2,20.4c-0.9,0-1.7,0.8-1.7,1.7s0.8,1.7,1.7,1.7s1.7-0.8,1.7-1.7S22.1,20.4,21.2,20.4L21.2,20.4z"/>
	</g>
	<g>
		<path class="st0" d="M42.8,20.4c-0.9,0-1.7,0.8-1.7,1.7s0.8,1.7,1.7,1.7s1.7-0.8,1.7-1.7S43.7,20.4,42.8,20.4L42.8,20.4z"/>
	</g>
	<g>
		<path class="st0" d="M46.3,30.3c-0.9,0-1.7,0.8-1.7,1.7s0.8,1.7,1.7,1.7S48,32.9,48,32S47.2,30.3,46.3,30.3L46.3,30.3z"/>
	</g>
	<path class="st0" d="M36.5,43.5c0,2-1.3,3.6-3,4.2C33,47.9,32.5,48,32,48s-1-0.1-1.5-0.3c-1.8-0.6-3-2.3-3-4.2s1.3-3.6,3-4.2V24h3
		v15.3C35.3,39.9,36.5,41.5,36.5,43.5z"/>
</g>
</svg>
