<?xml version="1.0" encoding="utf-8"?>
<!-- Generator: Adobe Illustrator 23.0.0, SVG Export Plug-In . SVG Version: 6.00 Build 0)  -->
<svg version="1.1" id="Layer_1" xmlns="http://www.w3.org/2000/svg" xmlns:xlink="http://www.w3.org/1999/xlink" x="0px" y="0px"
	 viewBox="0 0 64 64" style="enable-background:new 0 0 64 64;" xml:space="preserve">
<style type="text/css">
	.st0{fill:#606060;}
</style>
<g>
	<path class="st0" d="M32,9C19.3,9,9,19.3,9,32s10.3,23,23,23s23-10.3,23-23S44.7,9,32,9z M32,15.9c0.9,0,1.7,0.8,1.7,1.7
		c0,0.9-0.8,1.7-1.7,1.7s-1.7-0.8-1.7-1.7C30.3,16.7,31.1,15.9,32,15.9z M17.7,33.7c-0.9,0-1.7-0.8-1.7-1.7s0.8-1.7,1.7-1.7
		s1.7,0.8,1.7,1.7S18.6,33.7,17.7,33.7z M21.2,23.8c-0.9,0-1.7-0.8-1.7-1.7c0-0.9,0.8-1.7,1.7-1.7s1.7,0.8,1.7,1.7
		C22.9,23,22.1,23.8,21.2,23.8z M34,47.5c-0.6,0.3-1.3,0.5-2,0.5s-1.4-0.2-2-0.5c-1.5-0.7-2.5-2.3-2.5-4s1-3.3,2.5-4V24h4v15.5
		c1.5,0.7,2.5,2.3,2.5,4S35.5,46.8,34,47.5z M42.8,23.8c-0.9,0-1.7-0.8-1.7-1.7c0-0.9,0.8-1.7,1.7-1.7s1.7,0.8,1.7,1.7
		C44.5,23,43.7,23.8,42.8,23.8z M46.3,33.7c-0.9,0-1.7-0.8-1.7-1.7s0.8-1.7,1.7-1.7S48,31.1,48,32S47.2,33.7,46.3,33.7z"/>
</g>
</svg>
