<?xml version="1.0" encoding="utf-8"?>
<!-- Generator: Adobe Illustrator 23.0.0, SVG Export Plug-In . SVG Version: 6.00 Build 0)  -->
<svg version="1.1" id="Layer_1" xmlns="http://www.w3.org/2000/svg" xmlns:xlink="http://www.w3.org/1999/xlink" x="0px" y="0px"
	 viewBox="0 0 64 64" style="enable-background:new 0 0 64 64;" xml:space="preserve">
<style type="text/css">
	.st0{display:none;fill:none;stroke:#606060;stroke-width:3;stroke-miterlimit:10;}
	.st1{fill:#606060;}
</style>
<line class="st0" x1="26" y1="37" x2="23" y2="37"/>
<g>
	<path class="st1" d="M54.5,35v-6h-6.8c-0.4-2.2-1.3-4.2-2.5-6l4.8-4.8L45.8,14L41,18.8c-1.8-1.2-3.8-2.1-6-2.5V9.5h-6v6.8
		c-2.2,0.4-4.2,1.3-5.9,2.5l-4.9-4.9L14,18.1l4.8,4.8c0,0,0,0,0,0.1c-1.2,1.8-2.1,3.8-2.5,6H9.5v6h6.8c0.4,2.2,1.3,4.2,2.5,6
		L14,45.8l4.2,4.3l4.9-4.9c1.8,1.2,3.8,2.1,5.9,2.5v6.8h6v-6.8c2.2-0.4,4.2-1.3,6-2.5l4.8,4.8l4.2-4.2L45.2,41
		c1.2-1.8,2.1-3.8,2.5-6H54.5z M35.1,41.5c-1,0.3-2,0.5-3,0.5s-2-0.2-3-0.5c-0.6-0.2-1.1-0.4-1.6-0.7c-1.8-0.9-3.3-2.4-4.2-4.2
		c-0.3-0.5-0.5-1.1-0.7-1.6c-0.3-1-0.5-2-0.5-3c0-1,0.2-2,0.5-3c0.2-0.6,0.4-1.1,0.7-1.6c0.9-1.8,2.4-3.3,4.2-4.2
		c0.5-0.3,1.1-0.5,1.6-0.7c1-0.3,2-0.5,3-0.5c1,0,2,0.2,3,0.5c0.6,0.2,1.1,0.4,1.6,0.7c1.8,0.9,3.3,2.4,4.2,4.2
		c0.3,0.5,0.5,1.1,0.7,1.6c0.3,1,0.5,2,0.5,3c0,1-0.2,2-0.5,3c-0.2,0.6-0.5,1.1-0.7,1.6c-0.9,1.8-2.4,3.3-4.2,4.2
		C36.2,41.1,35.6,41.3,35.1,41.5z"/>
</g>
</svg>
