<?xml version="1.0" encoding="utf-8"?>
<!-- Generator: Adobe Illustrator 23.0.0, SVG Export Plug-In . SVG Version: 6.00 Build 0)  -->
<svg version="1.1" id="Layer_1" xmlns="http://www.w3.org/2000/svg" xmlns:xlink="http://www.w3.org/1999/xlink" x="0px" y="0px"
	 viewBox="0 0 64 64" style="enable-background:new 0 0 64 64;" xml:space="preserve">
<style type="text/css">
	.st0{fill:#606060;}
</style>
<g>
	<g>
		<path class="st0" d="M18,10v8h-8v-8H18 M19,9H9v10h10V9L19,9z"/>
		<path class="st0" d="M36,10v8h-8v-8H36 M37,9H27v10h10V9L37,9z"/>
		<path class="st0" d="M54,10v8h-8v-8H54 M55,9H45v10h10V9L55,9z"/>
	</g>
	<g>
		<path class="st0" d="M18,28v8h-8v-8H18 M19,27H9v10h10V27L19,27z"/>
		<path class="st0" d="M36,28v8h-8v-8H36 M37,27H27v10h10V27L37,27z"/>
		<path class="st0" d="M54,28v8h-8v-8H54 M55,27H45v10h10V27L55,27z"/>
	</g>
	<g>
		<path class="st0" d="M18,46v8h-8v-8H18 M19,45H9v10h10V45L19,45z"/>
		<path class="st0" d="M36,46v8h-8v-8H36 M37,45H27v10h10V45L37,45z"/>
		<path class="st0" d="M54,46v8h-8v-8H54 M55,45H45v10h10V45L55,45z"/>
	</g>
</g>
</svg>
