<?xml version="1.0" encoding="utf-8"?>
<!-- Generator: Adobe Illustrator 23.0.0, SVG Export Plug-In . SVG Version: 6.00 Build 0)  -->
<svg version="1.1" id="Layer_1" xmlns="http://www.w3.org/2000/svg" xmlns:xlink="http://www.w3.org/1999/xlink" x="0px" y="0px"
	 viewBox="0 0 64 64" style="enable-background:new 0 0 64 64;" xml:space="preserve">
<style type="text/css">
	.st0{fill:#606060;}
</style>
<g>
	<path class="st0" d="M32,9C19.3,9,9,19.3,9,32s10.3,23,23,23s23-10.3,23-23S44.7,9,32,9z M32,52.5c-11.3,0-20.5-9.2-20.5-20.5
		S20.7,11.5,32,11.5S52.5,20.7,52.5,32S43.3,52.5,32,52.5z"/>
	<path class="st0" d="M32,15.9c-0.9,0-1.7,0.8-1.7,1.7s0.8,1.7,1.7,1.7s1.7-0.8,1.7-1.7S32.9,15.9,32,15.9L32,15.9z"/>
	<path class="st0" d="M17.7,30.3c-0.9,0-1.7,0.8-1.7,1.7s0.8,1.7,1.7,1.7s1.7-0.8,1.7-1.7S18.6,30.3,17.7,30.3L17.7,30.3z"/>
	<path class="st0" d="M21.2,20.4c-0.9,0-1.7,0.8-1.7,1.7s0.8,1.7,1.7,1.7s1.7-0.8,1.7-1.7S22.1,20.4,21.2,20.4L21.2,20.4z"/>
	<path class="st0" d="M42.8,20.4c-0.9,0-1.7,0.8-1.7,1.7s0.8,1.7,1.7,1.7s1.7-0.8,1.7-1.7S43.7,20.4,42.8,20.4L42.8,20.4z"/>
	<path class="st0" d="M46.3,30.3c-0.9,0-1.7,0.8-1.7,1.7s0.8,1.7,1.7,1.7S48,32.9,48,32S47.2,30.3,46.3,30.3L46.3,30.3z"/>
	<path class="st0" d="M36.5,43.5c0,2.1-1.4,3.8-3.3,4.3C32.8,47.9,32.4,48,32,48s-0.8-0.1-1.3-0.2c-1.9-0.5-3.3-2.3-3.3-4.3
		s1.4-3.8,3.3-4.3V24h2.5v15.2C35.1,39.7,36.5,41.4,36.5,43.5z"/>
</g>
</svg>
