<?xml version="1.0" encoding="utf-8"?>
<!-- Generator: Adobe Illustrator 23.0.0, SVG Export Plug-In . SVG Version: 6.00 Build 0)  -->
<svg version="1.1" id="Layer_1" xmlns="http://www.w3.org/2000/svg" xmlns:xlink="http://www.w3.org/1999/xlink" x="0px" y="0px"
	 viewBox="0 0 64 64" style="enable-background:new 0 0 64 64;" xml:space="preserve">
<style type="text/css">
	.st0{fill:#606060;}
</style>
<g>
	<path class="st0" d="M48.3,23.2l-3.5-2.6L44.1,20H29.7L29,20.5l-6.7,4.1h-0.2c-13.6,0-14.9,6-15.1,7.2l0,0.2v8.5h5.6
		c-0.1-0.4-0.1-0.7-0.1-1.1v-0.1c0-0.6,0.1-1.2,0.3-1.8H10v-5.3c0,0,0.5-4.5,12.1-4.5c0.3,0,0.6,0,1,0l7.5-4.5h12.5l4.3,3.2H54v9.1
		c0,0-1.5,1.5-3.5,2c0.2,0.6,0.3,1.3,0.3,2v0.1c0,0.3,0,0.6-0.1,0.9c3-0.5,5.2-2.6,5.4-2.9l0.9-0.9V23.2H48.3z M38.5,39.2
		c0-0.6,0.1-1.2,0.3-1.8H24.5c0.2,0.6,0.3,1.2,0.3,1.8v0.1c0,0.4,0,0.7-0.1,1.1h13.9c-0.1-0.4-0.1-0.7-0.1-1.1V39.2z"/>
	<path class="st0" d="M23.4,39.5L23.4,39.5c0,0.3,0,0.6-0.1,0.9c-0.2,0.9-0.6,1.6-1.2,2.2c-0.8,0.8-1.9,1.3-3.2,1.3
		c-1.3,0-2.4-0.5-3.2-1.3c-0.6-0.6-1-1.4-1.2-2.2c-0.1-0.3-0.1-0.5-0.1-0.8v-0.1c0-0.5,0.1-0.9,0.2-1.3c0.6-1.8,2.3-3.2,4.3-3.2
		s3.7,1.3,4.3,3.2C23.3,38.6,23.4,39.1,23.4,39.5z"/>
	<path class="st0" d="M49.4,39.5L49.4,39.5c0,0.3,0,0.6-0.1,0.9c-0.2,0.9-0.6,1.6-1.2,2.2c-0.8,0.8-1.9,1.3-3.2,1.3
		s-2.4-0.5-3.2-1.3c-0.6-0.6-1-1.4-1.2-2.2c-0.1-0.3-0.1-0.5-0.1-0.8v-0.1c0-0.5,0.1-0.9,0.2-1.3c0.6-1.8,2.3-3.2,4.3-3.2
		s3.7,1.3,4.3,3.2C49.3,38.6,49.4,39.1,49.4,39.5z"/>
</g>
</svg>
