<?xml version="1.0" encoding="utf-8"?>
<!-- Generator: Adobe Illustrator 23.0.0, SVG Export Plug-In . SVG Version: 6.00 Build 0)  -->
<svg version="1.1" id="Layer_1" xmlns="http://www.w3.org/2000/svg" xmlns:xlink="http://www.w3.org/1999/xlink" x="0px" y="0px"
	 viewBox="0 0 64 64" style="enable-background:new 0 0 64 64;" xml:space="preserve">
<style type="text/css">
	.st0{fill:#606060;}
</style>
<g>
	<path class="st0" d="M57,23.6v13.3l-0.9,0.9c-0.3,0.3-2.2,2.1-4.9,2.8c0.1-0.4,0.1-0.8,0.1-1.2c0-2.2-1.1-4.1-2.8-5.2
		c-1-0.7-2.2-1.1-3.5-1.1c-1.3,0-2.5,0.4-3.5,1.1c-1.7,1.1-2.8,3-2.8,5.2c0,0.5,0.1,1,0.2,1.5H25.2c0.1-0.5,0.2-1,0.2-1.5
		c0-2.2-1.1-4.1-2.8-5.2c-1-0.7-2.2-1.1-3.5-1.1c-1.3,0-2.5,0.4-3.5,1.1c-1.7,1.1-2.8,3-2.8,5.2c0,0.5,0.1,1,0.2,1.5H7v-8.5l0-0.2
		c0.1-1.2,1.5-7.2,15.1-7.2h0.2l6.7-4.1l0.7-0.4h14.4l0.8,0.6l3.5,2.6H57z"/>
	<path class="st0" d="M54,35.6C54,35.6,54,35.7,54,35.6C54,35.7,54,35.6,54,35.6z"/>
	<path class="st0" d="M23.4,39.3c0,0.4,0,0.7-0.1,1c-0.1,0.3-0.2,0.5-0.3,0.8c-0.2,0.4-0.4,0.8-0.7,1.1c-0.8,0.9-2,1.4-3.2,1.4
		s-2.5-0.6-3.2-1.4c-0.3-0.3-0.5-0.7-0.7-1.1c-0.1-0.2-0.2-0.5-0.3-0.8c-0.1-0.3-0.1-0.7-0.1-1c0-1.5,0.8-2.8,1.9-3.6
		c0.7-0.5,1.5-0.7,2.4-0.7c0.9,0,1.7,0.3,2.4,0.7C22.6,36.5,23.4,37.8,23.4,39.3z"/>
	<path class="st0" d="M49.4,39.3c0,0.4,0,0.7-0.1,1c-0.1,0.3-0.2,0.5-0.3,0.8c-0.2,0.4-0.4,0.8-0.7,1.1c-0.8,0.9-2,1.4-3.2,1.4
		c-1.3,0-2.5-0.6-3.2-1.4c-0.3-0.3-0.5-0.7-0.7-1.1c-0.1-0.2-0.2-0.5-0.3-0.8c-0.1-0.3-0.1-0.7-0.1-1c0-1.5,0.8-2.8,1.9-3.6
		c0.7-0.5,1.5-0.7,2.4-0.7c0.9,0,1.7,0.3,2.4,0.7C48.6,36.5,49.4,37.8,49.4,39.3z"/>
</g>
</svg>
