<?xml version="1.0" encoding="utf-8"?>
<!-- Generator: Adobe Illustrator 23.0.0, SVG Export Plug-In . SVG Version: 6.00 Build 0)  -->
<svg version="1.1" id="Layer_1" xmlns="http://www.w3.org/2000/svg" xmlns:xlink="http://www.w3.org/1999/xlink" x="0px" y="0px"
	 viewBox="0 0 64 64" style="enable-background:new 0 0 64 64;" xml:space="preserve">
<style type="text/css">
	.st0{fill:#606060;}
</style>
<g>
	<g>
		<g>
			<path class="st0" d="M46,49H25c-1.1,0-2-0.9-2-2s0.9-2,2-2h21c1.1,0,2,0.9,2,2S47.1,49,46,49z"/>
		</g>
		<g>
			<path class="st0" d="M46,34H25c-1.1,0-2-0.9-2-2s0.9-2,2-2h21c1.1,0,2,0.9,2,2S47.1,34,46,34z"/>
		</g>
		<g>
			<path class="st0" d="M46,19H25c-1.1,0-2-0.9-2-2s0.9-2,2-2h21c1.1,0,2,0.9,2,2S47.1,19,46,19z"/>
		</g>
	</g>
	<g>
		<g>
			<path class="st0" d="M19,49h-1c-1.1,0-2-0.9-2-2s0.9-2,2-2h1c1.1,0,2,0.9,2,2S20.1,49,19,49z"/>
		</g>
		<g>
			<path class="st0" d="M19,34h-1c-1.1,0-2-0.9-2-2s0.9-2,2-2h1c1.1,0,2,0.9,2,2S20.1,34,19,34z"/>
		</g>
		<g>
			<path class="st0" d="M19,19h-1c-1.1,0-2-0.9-2-2s0.9-2,2-2h1c1.1,0,2,0.9,2,2S20.1,19,19,19z"/>
		</g>
	</g>
</g>
</svg>
