<?xml version="1.0" encoding="utf-8"?>
<!-- Generator: Adobe Illustrator 23.0.0, SVG Export Plug-In . SVG Version: 6.00 Build 0)  -->
<svg version="1.1" id="Layer_1" xmlns="http://www.w3.org/2000/svg" xmlns:xlink="http://www.w3.org/1999/xlink" x="0px" y="0px"
	 viewBox="0 0 64 64" style="enable-background:new 0 0 64 64;" xml:space="preserve">
<style type="text/css">
	.st0{fill:#606060;}
</style>
<g>
	<g>
		<g>
			<path class="st0" d="M47,48.3H24c-0.7,0-1.3-0.6-1.3-1.3s0.6-1.3,1.3-1.3h23c0.7,0,1.3,0.6,1.3,1.3S47.7,48.3,47,48.3z"/>
		</g>
		<g>
			<path class="st0" d="M47,33.3H24c-0.7,0-1.3-0.6-1.3-1.3s0.6-1.3,1.3-1.3h23c0.7,0,1.3,0.6,1.3,1.3S47.7,33.3,47,33.3z"/>
		</g>
		<g>
			<path class="st0" d="M47,18.3H24c-0.7,0-1.3-0.6-1.3-1.3s0.6-1.3,1.3-1.3h23c0.7,0,1.3,0.6,1.3,1.3S47.7,18.3,47,18.3z"/>
		</g>
	</g>
	<g>
		<g>
			<path class="st0" d="M19.1,48.3H17c-0.7,0-1.3-0.6-1.3-1.3s0.6-1.3,1.3-1.3h2.1c0.7,0,1.3,0.6,1.3,1.3S19.8,48.3,19.1,48.3z"/>
		</g>
		<g>
			<path class="st0" d="M19.1,33.3H17c-0.7,0-1.3-0.6-1.3-1.3s0.6-1.3,1.3-1.3h2.1c0.7,0,1.3,0.6,1.3,1.3S19.8,33.3,19.1,33.3z"/>
		</g>
		<g>
			<path class="st0" d="M19.1,18.3H17c-0.7,0-1.3-0.6-1.3-1.3s0.6-1.3,1.3-1.3h2.1c0.7,0,1.3,0.6,1.3,1.3S19.8,18.3,19.1,18.3z"/>
		</g>
	</g>
</g>
</svg>
