<?xml version="1.0" encoding="utf-8"?>
<!-- Generator: Adobe Illustrator 23.0.0, SVG Export Plug-In . SVG Version: 6.00 Build 0)  -->
<svg version="1.1" id="Layer_1" xmlns="http://www.w3.org/2000/svg" xmlns:xlink="http://www.w3.org/1999/xlink" x="0px" y="0px"
	 viewBox="0 0 64 64" style="enable-background:new 0 0 64 64;" xml:space="preserve">
<style type="text/css">
	.st0{display:none;}
	.st1{display:inline;fill:#606060;}
	.st2{fill:#606060;}
</style>
<g>
</g>
<g class="st0">
	<path class="st1" d="M32,15v1c3.9,0,7.7,1.4,10.6,4c3.2,2.8,5.1,6.7,5.4,11s-1.2,8.4-4,11.6c-3,3.4-7.4,5.4-12,5.4
		c-3.9,0-7.7-1.4-10.6-4c-6.6-5.8-7.2-16-1.4-22.6c3-3.4,7.4-5.4,12-5.4L32,15 M32,15c-4.7,0-9.4,1.9-12.7,5.7
		c-6.2,7-5.6,17.8,1.5,24C24,47.6,28,49,32,49c4.7,0,9.4-1.9,12.7-5.7c6.2-7,5.6-17.8-1.5-24C40,16.4,36,15,32,15L32,15z"/>
</g>
<g>
	<path class="st2" d="M32,24.1c7,0,13.6,2.7,18.6,7.7c0,0,0.1,0.1,0.1,0.1l0,0l0,0c1.7,1.9,1.6,4.7-0.2,6.5c-0.4,0.4-0.9,0.7-1.4,1
		c-0.6,0.3-1.3,0.4-1.9,0.4c-1.3,0-2.4-0.5-3.3-1.4c-1.4-1.4-1.8-3.5-1-5.3l1-2.3l-2.2-1.1c-2.9-1.4-6.2-2.1-9.5-2.1
		c-3.5,0-7,0.8-10.1,2.4l-2.1,1l0.9,2.1c0.7,1.8,0.3,3.8-1,5.1c-0.9,0.9-2.1,1.4-3.3,1.4c-0.5,0-1.1-0.1-1.6-0.3
		c-0.6-0.2-1.2-0.6-1.7-1.1c-1.8-1.8-1.8-4.8,0-6.6C18.4,26.9,25,24.1,32,24.1 M32,21.6c-7.4,0-14.7,2.8-20.4,8.4
		c-2.8,2.8-2.8,7.4,0,10.2c0.8,0.8,1.7,1.3,2.6,1.7c0.8,0.3,1.6,0.4,2.4,0.4c1.8,0,3.7-0.7,5.1-2.1c2.1-2.1,2.6-5.2,1.6-7.8
		c2.8-1.4,5.9-2.1,8.9-2.1c2.9,0,5.7,0.6,8.4,1.9c-1.2,2.7-0.7,5.9,1.5,8.1c1.4,1.4,3.2,2.1,5.1,2.1c1,0,2-0.2,3-0.7
		c0.8-0.3,1.5-0.8,2.1-1.5c2.7-2.7,2.8-7.1,0.3-9.9c-0.1-0.1-0.2-0.2-0.3-0.3C46.7,24.4,39.4,21.6,32,21.6L32,21.6z"/>
</g>
</svg>
