<?xml version="1.0" encoding="utf-8"?>
<!-- Generator: Adobe Illustrator 23.0.0, SVG Export Plug-In . SVG Version: 6.00 Build 0)  -->
<svg version="1.1" id="Layer_1" xmlns="http://www.w3.org/2000/svg" xmlns:xlink="http://www.w3.org/1999/xlink" x="0px" y="0px"
	 viewBox="0 0 64 64" style="enable-background:new 0 0 64 64;" xml:space="preserve">
<style type="text/css">
	.st0{display:none;}
	.st1{display:inline;fill:#606060;}
	.st2{fill:#606060;}
</style>
<g class="st0">
	<path class="st1" d="M32,15v1c3.9,0,7.7,1.4,10.6,4c3.2,2.8,5.1,6.7,5.4,11s-1.2,8.4-4,11.6c-3,3.4-7.4,5.4-12,5.4
		c-3.9,0-7.7-1.4-10.6-4c-6.6-5.8-7.2-16-1.4-22.6c3-3.4,7.4-5.4,12-5.4L32,15 M32,15c-4.7,0-9.4,1.9-12.7,5.7
		c-6.2,7-5.6,17.8,1.5,24C24,47.6,28,49,32,49c4.7,0,9.4-1.9,12.7-5.7c6.2-7,5.6-17.8-1.5-24C40,16.4,36,15,32,15L32,15z"/>
</g>
<g>
	<path class="st2" d="M32,24.6c6.9,0,13.4,2.7,18.2,7.6c0,0,0.1,0.1,0.1,0.1l0,0l0,0c1.5,1.7,1.4,4.2-0.2,5.8
		c-0.4,0.4-0.8,0.6-1.2,0.9c-0.5,0.2-1.1,0.4-1.7,0.4c-1.1,0-2.2-0.4-3-1.2c-1.2-1.2-1.6-3.1-0.9-4.7l1.2-2.7L42,29.5
		c-3-1.4-6.3-2.1-9.7-2.1c-3.6,0-7.1,0.8-10.3,2.4L19.6,31l1,2.6c0.6,1.6,0.3,3.4-0.9,4.6c-0.8,0.8-1.8,1.2-3,1.2
		c-0.5,0-1-0.1-1.4-0.3c-0.6-0.2-1.1-0.5-1.5-1c-0.8-0.8-1.2-1.8-1.2-3c0-1.1,0.4-2.2,1.2-3C18.6,27.3,25.1,24.6,32,24.6 M32,21.6
		c-7.4,0-14.7,2.8-20.4,8.4c-2.8,2.8-2.8,7.4,0,10.2c0.8,0.8,1.7,1.3,2.6,1.7c0.8,0.3,1.6,0.4,2.4,0.4c1.8,0,3.7-0.7,5.1-2.1
		c2.1-2.1,2.6-5.2,1.6-7.8c2.8-1.4,5.9-2.1,8.9-2.1c2.9,0,5.7,0.6,8.4,1.9c-1.2,2.7-0.7,5.9,1.5,8.1c1.4,1.4,3.2,2.1,5.1,2.1
		c1,0,2-0.2,3-0.7c0.8-0.3,1.5-0.8,2.1-1.5c2.7-2.7,2.8-7.1,0.3-9.9c-0.1-0.1-0.2-0.2-0.3-0.3C46.7,24.4,39.4,21.6,32,21.6L32,21.6z
		"/>
</g>
</svg>
