<?xml version="1.0" encoding="utf-8"?>
<!-- Generator: Adobe Illustrator 23.0.0, SVG Export Plug-In . SVG Version: 6.00 Build 0)  -->
<svg version="1.1" id="Layer_1" xmlns="http://www.w3.org/2000/svg" xmlns:xlink="http://www.w3.org/1999/xlink" x="0px" y="0px"
	 viewBox="0 0 64 64" style="enable-background:new 0 0 64 64;" xml:space="preserve">
<style type="text/css">
	.st0{display:none;}
	.st1{display:inline;fill:#606060;}
	.st2{fill:#606060;}
</style>
<g class="st0">
	<path class="st1" d="M32,15v1c3.9,0,7.7,1.4,10.6,4c3.2,2.8,5.1,6.7,5.4,11s-1.2,8.4-4,11.6c-3,3.4-7.4,5.4-12,5.4
		c-3.9,0-7.7-1.4-10.6-4c-6.6-5.8-7.2-16-1.4-22.6c3-3.4,7.4-5.4,12-5.4L32,15 M32,15c-4.7,0-9.4,1.9-12.7,5.7
		c-6.2,7-5.6,17.8,1.5,24C24,47.6,28,49,32,49c4.7,0,9.4-1.9,12.7-5.7c6.2-7,5.6-17.8-1.5-24C40,16.4,36,15,32,15L32,15z"/>
</g>
<g>
	<path class="st2" d="M11.6,40.3c-2.8-2.8-2.8-7.4,0-10.2c11.2-11.2,29.5-11.2,40.7,0c0.1,0.1,0.2,0.2,0.3,0.3
		c2.6,2.8,2.5,7.2-0.3,9.9c-0.6,0.6-1.3,1.1-2.1,1.5c-2.7,1.2-5.9,0.7-8.1-1.5c-2.2-2.2-2.7-5.4-1.5-8.1c-5.5-2.6-11.9-2.5-17.3,0.3
		c1.1,2.6,0.5,5.7-1.6,7.8c-2,2-5,2.6-7.5,1.7C13.3,41.6,12.4,41,11.6,40.3z"/>
</g>
</svg>
