<?xml version="1.0" encoding="utf-8"?>
<!-- Generator: Adobe Illustrator 23.0.0, SVG Export Plug-In . SVG Version: 6.00 Build 0)  -->
<svg version="1.1" id="Layer_1" xmlns="http://www.w3.org/2000/svg" xmlns:xlink="http://www.w3.org/1999/xlink" x="0px" y="0px"
	 viewBox="0 0 64 64" style="enable-background:new 0 0 64 64;" xml:space="preserve">
<style type="text/css">
	.st0{fill:#606060;}
</style>
<g>
	<g>
		<path class="st0" d="M48,30.6v-1.2c-0.3-3.9-3.6-6.9-7.5-6.9h-0.6c-0.4,0-0.9,0.1-1.3,0.2c-2.3-3.2-6-5.2-10.2-5.2
			C21.6,17.5,16,23.1,16,30v0.6c-1.6,0.3-3.1,1.1-4.2,2.2c-1.4,1.5-2.3,3.5-2.3,5.7c0,4.4,3.6,8,8,8h29c2.2,0,4.2-0.9,5.7-2.3
			c1.4-1.5,2.3-3.5,2.3-5.7C54.5,34.6,51.7,31.3,48,30.6z M50.4,42.4c-1.1,1-2.4,1.6-3.9,1.6H32.9v-8l4.3,4.3l1.3-1.3L32,32.5
			L25.5,39l1.3,1.3l4.3-4.3v8H17.5c-3,0-5.5-2.5-5.5-5.5c0-1.5,0.6-2.9,1.6-3.9c0.8-0.8,1.8-1.3,2.9-1.5l2.1-0.4l-0.1-2.2V30
			c0-5.5,4.5-10,10-10c3.2,0,6.3,1.6,8.1,4.2l1,1.4l1.7-0.4c0.3-0.1,0.5-0.1,0.8-0.1h0.4c2.6,0,4.8,2,5,4.6v0.8l-0.2,2.3l2.3,0.4
			c2.6,0.5,4.5,2.8,4.5,5.4C52,40,51.4,41.3,50.4,42.4z"/>
	</g>
</g>
</svg>
