<?xml version="1.0" encoding="utf-8"?>
<!-- Generator: Adobe Illustrator 23.0.0, SVG Export Plug-In . SVG Version: 6.00 Build 0)  -->
<svg version="1.1" id="Layer_1" xmlns="http://www.w3.org/2000/svg" xmlns:xlink="http://www.w3.org/1999/xlink" x="0px" y="0px"
	 viewBox="0 0 64 64" style="enable-background:new 0 0 64 64;" xml:space="preserve">
<style type="text/css">
	.st0{fill:#606060;}
</style>
<g>
	<g>
		<path class="st0" d="M42.2,17l2.8,2.8L30.4,34.5l-0.7,0.7v1c0,4.1-6.4,5.8-6.5,5.8h-0.1H23c-1.8,0.6-3.6,1.9-5,3.1
			c-0.4-2.9-0.1-5.3,1-7.2c1.8-3.3,5.3-4.6,6.7-5l0.6-0.2l0.5-0.5L42.2,17 M42.2,13.6L25.1,30.7c-3.4,0.9-13.2,5-8.3,19.8
			c0,0,3.5-4.7,7.1-5.9c0,0,8.4-2.1,8.3-8.2l16.4-16.4L42.2,13.6L42.2,13.6z"/>
	</g>
</g>
</svg>
