<?xml version="1.0" encoding="utf-8"?>
<!-- Generator: Adobe Illustrator 23.0.0, SVG Export Plug-In . SVG Version: 6.00 Build 0)  -->
<svg version="1.1" id="Layer_1" xmlns="http://www.w3.org/2000/svg" xmlns:xlink="http://www.w3.org/1999/xlink" x="0px" y="0px"
	 viewBox="0 0 64 64" style="enable-background:new 0 0 64 64;" xml:space="preserve">
<style type="text/css">
	.st0{fill:#606060;}
</style>
<g>
	<path class="st0" d="M54.5,36c0,2.2-0.9,4.2-2.3,5.7c-1.4,1.4-3.4,2.3-5.7,2.3H32c0.2,0,0.4-0.1,0.6-0.3l5.1-5.1
		c0.4-0.3,0.4-0.9,0-1.2c-0.4-0.4-0.9-0.4-1.2,0L32.9,41v-9.5c0-0.5-0.4-0.9-0.9-0.9s-0.9,0.4-0.9,0.9V41l-3.6-3.6
		c-0.3-0.4-0.9-0.4-1.2,0c-0.4,0.3-0.4,0.9,0,1.2l5.1,5.1c0.2,0.2,0.4,0.3,0.6,0.3H17.5c-4.4,0-8-3.6-8-8c0-2.2,0.9-4.2,2.3-5.7
		c1.1-1.1,2.6-1.9,4.2-2.2c0-0.2,0-0.4,0-0.6C16,20.6,21.6,15,28.5,15c4.2,0,7.9,2.1,10.2,5.2c0.4-0.1,0.8-0.2,1.3-0.2
		c4.1-0.3,7.7,2.8,8,6.9c0,0.4,0,0.8,0,1.2C51.7,28.8,54.5,32.1,54.5,36z"/>
</g>
</svg>
