<?xml version="1.0" encoding="utf-8"?>
<!-- Generator: Adobe Illustrator 23.0.0, SVG Export Plug-In . SVG Version: 6.00 Build 0)  -->
<svg version="1.1" id="Layer_1" xmlns="http://www.w3.org/2000/svg" xmlns:xlink="http://www.w3.org/1999/xlink" x="0px" y="0px"
	 viewBox="0 0 64 64" style="enable-background:new 0 0 64 64;" xml:space="preserve">
<style type="text/css">
	.st0{fill:#606060;}
</style>
<g>
	<path class="st0" d="M40,16.4c-0.1-4-3.3-7.1-7.3-7.1h-1.3c-4,0-7.2,3.2-7.3,7.1c0,0.1,0,0.2,0,0.2v15.3c0,4.1,3.3,7.3,7.3,7.3h1.3
		c4.1,0,7.3-3.3,7.3-7.3V16.6C40,16.5,40,16.5,40,16.4z M37,31.9c0,2.4-2,4.3-4.3,4.3h-1.3c-2.4,0-4.3-2-4.3-4.3V16.6
		c0-0.6,0.1-1.1,0.3-1.7c0.6-1.6,2.2-2.7,4-2.7h1.3c1.8,0,3.4,1.1,4,2.7c0.2,0.5,0.3,1.1,0.3,1.7V31.9z"/>
	<g>
		<path class="st0" d="M48,30.1v0.1c0,8.3-6.4,15.2-14.5,15.9v5.6H36v3h-8v-3h2.5v-5.6C22.4,45.4,16,38.6,16,30.3v-0.1h3v0.1
			c0,6.7,5,12.2,11.5,12.9c0.5,0.1,1,0.1,1.5,0.1s1,0,1.5-0.1C40,42.4,45,36.9,45,30.3v-0.1H48z"/>
	</g>
</g>
</svg>
