<?xml version="1.0" encoding="utf-8"?>
<!-- Generator: Adobe Illustrator 23.0.0, SVG Export Plug-In . SVG Version: 6.00 Build 0)  -->
<svg version="1.1" id="Layer_1" xmlns="http://www.w3.org/2000/svg" xmlns:xlink="http://www.w3.org/1999/xlink" x="0px" y="0px"
	 viewBox="0 0 64 64" style="enable-background:new 0 0 64 64;" xml:space="preserve">
<style type="text/css">
	.st0{fill:#606060;}
</style>
<g>
	<path class="st0" d="M40,16.5c-0.1-4-3.4-7.1-7.3-7.1h-1.3c-4,0-7.2,3.2-7.4,7.1c0,0.1,0,0.1,0,0.2V32c0,4.1,3.3,7.4,7.4,7.4h1.3
		c4.1,0,7.3-3.3,7.3-7.4V16.7C40,16.7,40,16.6,40,16.5z M37.5,32c0,2.7-2.2,4.9-4.8,4.9h-1.3c-2.7,0-4.9-2.2-4.9-4.9V16.7
		c0-0.5,0.1-1,0.2-1.5c0.6-2,2.5-3.4,4.6-3.4h1.3c2.2,0,4,1.4,4.6,3.4c0.2,0.5,0.2,1,0.2,1.5V32z"/>
	<g>
		<path class="st0" d="M48,30.3L48,30.3c0,8.5-6.5,15.4-14.8,16v5.8H36v2.5h-8v-2.5h2.8v-5.8c-8.3-0.6-14.8-7.5-14.8-16v-0.1h2.5
			v0.1c0,7,5.4,12.8,12.3,13.4c0.4,0,0.8,0.1,1.3,0.1c0.4,0,0.8,0,1.3-0.1c6.9-0.6,12.3-6.4,12.3-13.4v-0.1H48z"/>
	</g>
</g>
</svg>
