<?xml version="1.0" encoding="utf-8"?>
<!-- Generator: Adobe Illustrator 23.0.0, SVG Export Plug-In . SVG Version: 6.00 Build 0)  -->
<svg version="1.1" id="Layer_1" xmlns="http://www.w3.org/2000/svg" xmlns:xlink="http://www.w3.org/1999/xlink" x="0px" y="0px"
	 viewBox="0 0 64 64" style="enable-background:new 0 0 64 64;" xml:space="preserve">
<style type="text/css">
	.st0{fill:#606060;}
</style>
<g>
	<g>
		<path class="st0" d="M32,25.5L32,25.5c0.7,0,1.3,0.6,1.3,1.2v20c0,0.7-0.6,1.3-1.3,1.3h0c-0.7,0-1.2-0.6-1.2-1.3v-20
			C30.8,26.1,31.3,25.5,32,25.5z"/>
	</g>
	<g>
		<path class="st0" d="M45,35.5L45,35.5c0.7,0,1.3,0.6,1.3,1.3v10c0,0.7-0.6,1.3-1.3,1.3l0,0c-0.7,0-1.3-0.6-1.3-1.3v-10
			C43.8,36.1,44.3,35.5,45,35.5z"/>
	</g>
	<g>
		<path class="st0" d="M19,16L19,16c0.7,0,1.3,0.6,1.3,1.2v29.5c0,0.7-0.6,1.3-1.2,1.3h0c-0.7,0-1.2-0.6-1.2-1.3V17.2
			C17.8,16.6,18.3,16,19,16z"/>
	</g>
</g>
</svg>
