<?xml version="1.0" encoding="utf-8"?>
<!-- Generator: Adobe Illustrator 23.0.0, SVG Export Plug-In . SVG Version: 6.00 Build 0)  -->
<svg version="1.1" id="Layer_1" xmlns="http://www.w3.org/2000/svg" xmlns:xlink="http://www.w3.org/1999/xlink" x="0px" y="0px"
	 viewBox="0 0 64 64" style="enable-background:new 0 0 64 64;" xml:space="preserve">
<style type="text/css">
	.st0{fill:#606060;}
</style>
<path class="st0" d="M32,12.3c0,0,6,1,4,12l15,8v3l-16-4l-1,12l5,5v2l-7-3l-7,3v-3l5-4l-1-12l-16,5v-3l15-9C28,24.3,26,14.3,32,12.3
	 M31.8,9.2l-0.7,0.2c-5.8,1.9-6.7,8.5-6.3,13.3l-13.3,8L10,31.6v1.7v3v4.1l3.9-1.2l12.4-3.9l0.6,6.7l-3.8,3L22,45.8v1.4v3v4.5
	l4.2-1.8l5.8-2.5l5.8,2.5l4.2,1.8v-4.5v-2V47l-0.9-0.9l-4-4l0.6-7.1l12.6,3.1l3.7,0.9v-3.8v-3v-1.8l-1.6-0.8l-13.1-7
	c0.4-4.2-0.2-7.5-1.9-10c-1.9-2.7-4.4-3.2-4.9-3.3L31.8,9.2L31.8,9.2z"/>
</svg>
