<?xml version="1.0" encoding="utf-8"?>
<!-- Generator: Adobe Illustrator 23.0.0, SVG Export Plug-In . SVG Version: 6.00 Build 0)  -->
<svg version="1.1" id="Layer_1" xmlns="http://www.w3.org/2000/svg" xmlns:xlink="http://www.w3.org/1999/xlink" x="0px" y="0px"
	 viewBox="0 0 64 64" style="enable-background:new 0 0 64 64;" xml:space="preserve">
<style type="text/css">
	.st0{fill:#606060;}
</style>
<g>
	<g>
		<path class="st0" d="M47.6,19.9c1.8-4.8,1.8-7.5,0.1-8.8c-3.3-2.5-11.8,4-16.1,7.6c-11.2-9.3-14.2-9.4-15.7-8.1
			c-1.9,1.6-0.3,5.9,1.5,9.3H9.5v11.4h3v22.6h39V31.3h3V19.9H47.6z M46.3,13.2c0,0,1,0.9-1.3,6.8H34.2
			C39.6,15.5,45.1,12.3,46.3,13.2z M17.5,12.6c0.4-0.1,2.8,0.1,11.5,7.3h-8.8C18.5,16.8,17.3,13.5,17.5,12.6z M12,28.8v-6.4h18.8
			v6.4H12z M15,31.4h15.8v20H15V31.4z M49,51.4H33.3v-20H49V51.4z M52,28.8H33.3v-6.4H52V28.8z"/>
	</g>
</g>
</svg>
