<?xml version="1.0" encoding="utf-8"?>
<!-- Generator: Adobe Illustrator 23.0.0, SVG Export Plug-In . SVG Version: 6.00 Build 0)  -->
<svg version="1.1" id="Layer_1" xmlns="http://www.w3.org/2000/svg" xmlns:xlink="http://www.w3.org/1999/xlink" x="0px" y="0px"
	 viewBox="0 0 64 64" style="enable-background:new 0 0 64 64;" xml:space="preserve">
<style type="text/css">
	.st0{display:none;}
	.st1{display:inline;fill:#606060;}
	.st2{fill:#606060;}
</style>
<g class="st0">
	<path class="st1" d="M32,15v1c3.9,0,7.7,1.4,10.6,4c3.2,2.8,5.1,6.7,5.4,11s-1.2,8.4-4,11.6C41,46,36.6,48,32,48
		c-3.9,0-7.7-1.4-10.6-4c-6.6-5.8-7.2-16-1.4-22.6C23,18,27.4,16,32,16V15 M32,15c-4.7,0-9.4,1.9-12.7,5.7c-6.2,7-5.6,17.8,1.5,24
		C24,47.6,28,49,32,49c4.7,0,9.4-1.9,12.7-5.7c6.2-7,5.6-17.8-1.5-24C40,16.4,36,15,32,15L32,15z"/>
</g>
<g>
	<path class="st2" d="M28,14.8v18.6V36h2.5h18.6c-1.2,9.2-9.1,16.3-18.6,16.3c-10.4,0-18.8-8.4-18.8-18.8C11.8,23.9,18.9,16,28,14.8
		 M30.5,12.2c-11.8,0-21.3,9.5-21.3,21.3s9.5,21.3,21.3,21.3s21.3-9.5,21.3-21.3H30.5V12.2L30.5,12.2z"/>
	<path class="st2" d="M36,11.9C44.3,13,51,19.7,52.1,28H36V11.9 M33.5,9.3v21.3h21.3C54.7,18.8,45.2,9.3,33.5,9.3L33.5,9.3z"/>
</g>
</svg>
