<?xml version="1.0" encoding="utf-8"?>
<!-- Generator: Adobe Illustrator 23.0.0, SVG Export Plug-In . SVG Version: 6.00 Build 0)  -->
<svg version="1.1" id="Layer_1" xmlns="http://www.w3.org/2000/svg" xmlns:xlink="http://www.w3.org/1999/xlink" x="0px" y="0px"
	 viewBox="0 0 64 64" style="enable-background:new 0 0 64 64;" xml:space="preserve">
<style type="text/css">
	.st0{fill:#606060;}
</style>
<g>
	<g>
		<path class="st0" d="M32,48L32,48c-0.8,0-1.5-0.7-1.5-1.5V27c0-0.8,0.7-1.5,1.5-1.5h0c0.8,0,1.5,0.7,1.5,1.5v19.5
			C33.5,47.3,32.8,48,32,48z"/>
	</g>
	<g>
		<path class="st0" d="M45,48L45,48c-0.8,0-1.5-0.7-1.5-1.5V37c0-0.8,0.7-1.5,1.5-1.5l0,0c0.8,0,1.5,0.7,1.5,1.5v9.5
			C46.5,47.3,45.8,48,45,48z"/>
	</g>
	<g>
		<path class="st0" d="M19,48L19,48c-0.8,0-1.5-0.7-1.5-1.5v-29c0-0.8,0.7-1.5,1.5-1.5h0c0.8,0,1.5,0.7,1.5,1.5v29
			C20.5,47.3,19.8,48,19,48z"/>
	</g>
</g>
</svg>
