<?xml version="1.0" encoding="utf-8"?>
<!-- Generator: Adobe Illustrator 23.0.0, SVG Export Plug-In . SVG Version: 6.00 Build 0)  -->
<svg version="1.1" id="Layer_1" xmlns="http://www.w3.org/2000/svg" xmlns:xlink="http://www.w3.org/1999/xlink" x="0px" y="0px"
	 viewBox="0 0 64 64" style="enable-background:new 0 0 64 64;" xml:space="preserve">
<style type="text/css">
	.st0{fill:#606060;}
</style>
<g>
	<g>
		<path class="st0" d="M32,48L32,48c-1.1,0-2-0.9-2-2V27.5c0-1.1,0.9-2,2-2h0c1.1,0,2,0.9,2,2V46C34,47.1,33.1,48,32,48z"/>
	</g>
	<g>
		<path class="st0" d="M45,48L45,48c-1.1,0-2-0.9-2-2v-8.5c0-1.1,0.9-2,2-2h0c1.1,0,2,0.9,2,2V46C47,47.1,46.1,48,45,48z"/>
	</g>
	<g>
		<path class="st0" d="M19,48L19,48c-1.1,0-2-0.9-2-2V18c0-1.1,0.9-2,2-2h0c1.1,0,2,0.9,2,2v28C21,47.1,20.1,48,19,48z"/>
	</g>
</g>
</svg>
