<?xml version="1.0" encoding="utf-8"?>
<!-- Generator: Adobe Illustrator 23.0.0, SVG Export Plug-In . SVG Version: 6.00 Build 0)  -->
<svg version="1.1" id="Layer_1" xmlns="http://www.w3.org/2000/svg" xmlns:xlink="http://www.w3.org/1999/xlink" x="0px" y="0px"
	 viewBox="0 0 64 64" style="enable-background:new 0 0 64 64;" xml:space="preserve">
<style type="text/css">
	.st0{fill:#606060;}
	.st1{fill-rule:evenodd;clip-rule:evenodd;fill:#606060;}
</style>
<g>
	<g>
		<path class="st0" d="M36.5,17.5h-9c-0.6,0-1-0.4-1-1s0.4-1,1-1h9c0.6,0,1,0.4,1,1S37.1,17.5,36.5,17.5z"/>
	</g>
	<g>
		<path class="st0" d="M42.7,10H21.3c-2.1,0-3.8,1.7-3.8,3.8v36.4c0,2.1,1.7,3.8,3.8,3.8h21.4c2.1,0,3.8-1.7,3.8-3.8V13.8
			C46.5,11.7,44.8,10,42.7,10z M20.5,13.8c0-0.4,0.4-0.8,0.8-0.8h21.4c0.4,0,0.8,0.4,0.8,0.8v6.7h-23V13.8z M43.5,41.5h-23v-19h23
			V41.5z M43.5,50.2c0,0.4-0.4,0.8-0.8,0.8H21.3c-0.4,0-0.8-0.4-0.8-0.8v-6.7h23V50.2z"/>
	</g>
	<g>
		<circle class="st1" cx="32" cy="47" r="2"/>
	</g>
</g>
</svg>
