<?xml version="1.0" encoding="utf-8"?>
<!-- Generator: Adobe Illustrator 23.0.0, SVG Export Plug-In . SVG Version: 6.00 Build 0)  -->
<svg version="1.1" id="Layer_1" xmlns="http://www.w3.org/2000/svg" xmlns:xlink="http://www.w3.org/1999/xlink" x="0px" y="0px"
	 viewBox="0 0 64 64" style="enable-background:new 0 0 64 64;" xml:space="preserve">
<style type="text/css">
	.st0{display:none;fill:none;stroke:#606060;stroke-width:3;stroke-miterlimit:10;}
	.st1{fill:#606060;}
</style>
<line class="st0" x1="26" y1="37" x2="23" y2="37"/>
<g>
	<g>
		<g>
			<path class="st1" d="M25.3,15.5c3,0,5.5,2.5,5.5,5.5s-2.5,5.5-5.5,5.5S19.8,24,19.8,21S22.2,15.5,25.3,15.5 M25.3,13
				c-4.4,0-8,3.6-8,8s3.6,8,8,8s8-3.6,8-8S29.7,13,25.3,13L25.3,13z"/>
		</g>
		<g>
			<path class="st1" d="M25.3,33.5c7.4,0,13.5,6.1,13.5,13.5v1.5h-27V47C11.8,39.6,17.8,33.5,25.3,33.5 M25.3,31L25.3,31
				c-8.8,0-16,7.2-16,16v4h32v-4C41.3,38.2,34.1,31,25.3,31L25.3,31z"/>
		</g>
	</g>
	<g>
		<rect x="39.8" y="30.8" class="st1" width="15" height="2.5"/>
	</g>
</g>
</svg>
