<?xml version="1.0" encoding="utf-8"?>
<!-- Generator: Adobe Illustrator 23.0.0, SVG Export Plug-In . SVG Version: 6.00 Build 0)  -->
<svg version="1.1" id="Layer_1" xmlns="http://www.w3.org/2000/svg" xmlns:xlink="http://www.w3.org/1999/xlink" x="0px" y="0px"
	 viewBox="0 0 64 64" style="enable-background:new 0 0 64 64;" xml:space="preserve">
<style type="text/css">
	.st0{display:none;fill:none;stroke:#606060;stroke-width:3;stroke-miterlimit:10;}
	.st1{fill:#606060;}
</style>
<line class="st0" x1="26" y1="37" x2="23" y2="37"/>
<g>
	<g>
		<g>
			<path class="st1" d="M25.3,16c2.8,0,5,2.2,5,5s-2.2,5-5,5s-5-2.2-5-5S22.5,16,25.3,16 M25.3,13c-4.4,0-8,3.6-8,8s3.6,8,8,8
				s8-3.6,8-8S29.7,13,25.3,13L25.3,13z"/>
		</g>
		<g>
			<path class="st1" d="M25.3,34c7.2,0,13,5.8,13,13v1h-26v-1C12.3,39.8,18.1,34,25.3,34 M25.3,31L25.3,31c-8.8,0-16,7.2-16,16v4h32
				v-4C41.3,38.2,34.1,31,25.3,31L25.3,31z"/>
		</g>
	</g>
	<g>
		<rect x="39.8" y="30.5" class="st1" width="15" height="3"/>
	</g>
</g>
</svg>
