<?xml version="1.0" encoding="utf-8"?>
<!-- Generator: Adobe Illustrator 23.0.0, SVG Export Plug-In . SVG Version: 6.00 Build 0)  -->
<svg version="1.1" id="Layer_1" xmlns="http://www.w3.org/2000/svg" xmlns:xlink="http://www.w3.org/1999/xlink" x="0px" y="0px"
	 viewBox="0 0 64 64" style="enable-background:new 0 0 64 64;" xml:space="preserve">
<style type="text/css">
	.st0{fill:#606060;}
</style>
<g>
	<g>
		<path class="st0" d="M9.2,25c0,6.2,2.5,11.9,6.6,16l3-3c-3.3-3.3-5.4-7.9-5.4-13s2.1-9.7,5.4-13l-3-3C11.7,13.1,9.2,18.8,9.2,25z"
			/>
		<path class="st0" d="M17.5,25c0,3.1,1.3,6,3.3,8l3-3c-1.3-1.3-2.1-3.1-2.1-5s0.8-3.7,2.1-5l-3-3C18.8,19.1,17.5,21.9,17.5,25z"/>
	</g>
	<g>
		<path class="st0" d="M48.2,9l-3,3c3.3,3.3,5.4,7.9,5.4,13s-2.1,9.7-5.4,13l3,3c4.1-4.1,6.6-9.8,6.6-16S52.3,13.1,48.2,9z"/>
		<path class="st0" d="M43.2,17l-3,3c1.3,1.3,2.1,3.1,2.1,5s-0.8,3.7-2.1,5l3,3c2-2.1,3.3-4.9,3.3-8S45.2,19.1,43.2,17z"/>
	</g>
	<path class="st0" d="M47.8,55L33.5,27.4c0.8-0.5,1.2-1.4,1.2-2.4c0-1.7-1.3-3-3-3s-3,1.3-3,3c0,1,0.5,1.9,1.2,2.4L15.8,55H47.8z
		 M20.7,52l1.8-3.5H41l1.8,3.5H20.7z M31.8,30.5l3.1,6h-6.2L31.8,30.5z M27.1,39.5h9.3l3.1,6H24L27.1,39.5z"/>
</g>
</svg>
