<?xml version="1.0" encoding="utf-8"?>
<!-- Generator: Adobe Illustrator 23.0.0, SVG Export Plug-In . SVG Version: 6.00 Build 0)  -->
<svg version="1.1" id="Layer_1" xmlns="http://www.w3.org/2000/svg" xmlns:xlink="http://www.w3.org/1999/xlink" x="0px" y="0px"
	 viewBox="0 0 64 64" style="enable-background:new 0 0 64 64;" xml:space="preserve">
<style type="text/css">
	.st0{fill:#606060;}
</style>
<g>
	<g>
		<path class="st0" d="M8.9,25.8c0,6.5,2.6,12.3,6.8,16.5l4.1-4.1c-3.2-3.2-5.1-7.6-5.1-12.4s2-9.2,5.1-12.4l-4.1-4.1
			C11.5,13.5,8.9,19.3,8.9,25.8z"/>
		<path class="st0" d="M17.6,25.8c0,3.2,1.3,6.1,3.4,8.3l4.1-4.1c-1.1-1.1-1.7-2.5-1.7-4.1c0-1.6,0.7-3.1,1.7-4.1L21,17.5
			C18.9,19.6,17.6,22.5,17.6,25.8z"/>
	</g>
	<g>
		<path class="st0" d="M48.3,9.2l-4.1,4.1c3.2,3.2,5.1,7.6,5.1,12.4s-2,9.2-5.1,12.4l4.1,4.1c4.2-4.2,6.8-10.1,6.8-16.5
			S52.5,13.5,48.3,9.2z"/>
		<path class="st0" d="M43,17.5l-4.1,4.1c1.1,1.1,1.7,2.5,1.7,4.1c0,1.6-0.7,3.1-1.7,4.1L43,34c2.1-2.1,3.4-5,3.4-8.3
			S45.1,19.6,43,17.5z"/>
	</g>
	<path class="st0" d="M43.1,45.1L43,44.8l-9.1-17.6c0.8-0.5,1.2-1.4,1.2-2.4c0-1.7-1.3-3-3-3s-3,1.3-3,3c0,1,0.5,1.9,1.2,2.4
		l-9.1,17.6l-0.2,0.3l-5,9.7h32L43.1,45.1z M33.8,35.8h-3.4l1.7-3.3L33.8,35.8z M28.4,39.8h7.5l2.6,5H25.8L28.4,39.8z M22.7,50.8
		l1-2h16.8l1,2H22.7z"/>
</g>
</svg>
