<?xml version="1.0" encoding="utf-8"?>
<!-- Generator: Adobe Illustrator 23.0.0, SVG Export Plug-In . SVG Version: 6.00 Build 0)  -->
<svg version="1.1" id="Layer_1" xmlns="http://www.w3.org/2000/svg" xmlns:xlink="http://www.w3.org/1999/xlink" x="0px" y="0px"
	 viewBox="0 0 64 64" style="enable-background:new 0 0 64 64;" xml:space="preserve">
<style type="text/css">
	.st0{fill:#606060;}
</style>
<g>
	<g>
		<path class="st0" d="M9.8,25.2c0,6.3,2.6,12.1,6.7,16.2l2.5-2.5c-3.5-3.5-5.7-8.4-5.7-13.7c0-5.4,2.2-10.2,5.7-13.7L16.5,9
			C12.4,13.1,9.8,18.9,9.8,25.2z"/>
		<path class="st0" d="M18.3,25.2c0,3.2,1.3,6,3.4,8.1l2.5-2.5c-1.4-1.4-2.3-3.4-2.3-5.6s0.9-4.1,2.3-5.6l-2.5-2.5
			C19.6,19.2,18.3,22.1,18.3,25.2z"/>
	</g>
	<g>
		<path class="st0" d="M47.5,9L45,11.5c3.5,3.5,5.7,8.3,5.7,13.7c0,5.3-2.2,10.2-5.7,13.7l2.5,2.5c4.2-4.2,6.7-9.9,6.7-16.2
			S51.6,13.1,47.5,9z"/>
		<path class="st0" d="M42.3,17.1l-2.5,2.5c1.4,1.4,2.3,3.4,2.3,5.6s-0.9,4.1-2.3,5.6l2.5,2.5c2.1-2.1,3.4-4.9,3.4-8.1
			C45.7,22.1,44.4,19.2,42.3,17.1z"/>
	</g>
	<path class="st0" d="M48,55L33.8,27.4C34.5,26.9,35,26,35,25c0-1.7-1.3-3-3-3s-3,1.3-3,3c0,1,0.5,1.9,1.2,2.4L16,55H48z M20.1,52.5
		l2.2-4.3h19.4l2.2,4.3H20.1z M32,29.5l3.8,7.3h-7.5L32,29.5z M26.9,39.3H37l3.4,6.5H23.6L26.9,39.3z"/>
</g>
</svg>
