<?xml version="1.0" encoding="utf-8"?>
<!-- Generator: Adobe Illustrator 23.0.0, SVG Export Plug-In . SVG Version: 6.00 Build 0)  -->
<svg version="1.1" id="Layer_1" xmlns="http://www.w3.org/2000/svg" xmlns:xlink="http://www.w3.org/1999/xlink" x="0px" y="0px"
	 viewBox="0 0 64 64" style="enable-background:new 0 0 64 64;" xml:space="preserve">
<g>
	<path d="M32,31.5c2.2,0,4,1.8,4,4s-1.8,4-4,4s-4-1.8-4-4S29.8,31.5,32,31.5L32,31.5z M32,27.5c-4.4,0-8,3.6-8,8s3.6,8,8,8
		s8-3.6,8-8S36.4,27.5,32,27.5L32,27.5z"/>
	<path d="M41.8,19.5l-1.8-7H24l-1.8,7H9.5v32h45v-32H41.8z M27.1,16.5h9.8l0.8,3H26.3L27.1,16.5z M50.5,47.5h-37v-24h37V47.5z"/>
	<g>
		<rect x="47.5" y="12.5" width="7" height="4"/>
	</g>
</g>
</svg>
