<?xml version="1.0" encoding="utf-8"?>
<!-- Generator: Adobe Illustrator 23.0.0, SVG Export Plug-In . SVG Version: 6.00 Build 0)  -->
<svg version="1.1" id="Layer_1" xmlns="http://www.w3.org/2000/svg" xmlns:xlink="http://www.w3.org/1999/xlink" x="0px" y="0px"
	 viewBox="0 0 64 64" style="enable-background:new 0 0 64 64;" xml:space="preserve">
<g>
	<path d="M32,31.5c2.5,0,4.5,2.3,3.9,4.9c-0.3,1.4-1.5,2.6-2.9,2.9C30.3,40,28,38,28,35.5C28,33.3,29.8,31.5,32,31.5L32,31.5z
		 M32,27.5c-4.9,0-8.8,4.5-7.8,9.6c0.6,3.1,3.1,5.6,6.2,6.2c5.1,1,9.6-2.9,9.6-7.8C40,31.1,36.4,27.5,32,27.5L32,27.5z"/>
	<path d="M41.8,19.5l-1.4-5.4c-0.2-0.9-1.1-1.6-2-1.6H26c-1.2,0-2.2,0.8-2.4,1.9l-1.3,5.1H11.6c-1.1,0-2.1,0.9-2.1,2.1v27.9
		c0,1.1,0.9,2,2,2h41c1.1,0,2-0.9,2-2v-28c0-1.1-0.9-2-2-2H41.8z M28.3,16.5h7.5c0.7,0,1.3,0.5,1.5,1.1l0.5,1.9H26.3l0.5-1.9
		C27,17,27.6,16.5,28.3,16.5z M48.5,47.5h-33c-1.1,0-2-0.9-2-2V25.6c0-1.1,0.9-2.1,2.1-2.1h32.9c1.1,0,2,0.9,2,2v20
		C50.5,46.6,49.6,47.5,48.5,47.5z"/>
	<g>
		<path d="M52.5,16.5h-3c-1.1,0-2-0.9-2-2v0c0-1.1,0.9-2,2-2h3c1.1,0,2,0.9,2,2v0C54.5,15.6,53.6,16.5,52.5,16.5z"/>
	</g>
</g>
</svg>
