<?xml version="1.0" encoding="utf-8"?>
<!-- Generator: Adobe Illustrator 23.0.0, SVG Export Plug-In . SVG Version: 6.00 Build 0)  -->
<svg version="1.1" id="Layer_1" xmlns="http://www.w3.org/2000/svg" xmlns:xlink="http://www.w3.org/1999/xlink" x="0px" y="0px"
	 viewBox="0 0 64 64" style="enable-background:new 0 0 64 64;" xml:space="preserve">
<g>
	<path d="M41.8,19.5L40.4,14c-0.2-0.9-1-1.5-1.9-1.5H25.6c-0.9,0-1.7,0.6-1.9,1.5l-1.4,5.5H11.5c-1.1,0-2,0.9-2,2v28
		c0,1.1,0.9,2,2,2h41c1.1,0,2-0.9,2-2v-28c0-1.1-0.9-2-2-2H41.8z M27.9,15.5H36c0.9,0,1.7,0.6,1.9,1.5l0.6,2.5H25.3l0.6-2.5
		C26.1,16.1,26.9,15.5,27.9,15.5z M49.5,48.5h-35c-1.1,0-2-0.9-2-2v-22c0-1.1,0.9-2,2-2h35c1.1,0,2,0.9,2,2v22
		C51.5,47.6,50.6,48.5,49.5,48.5z"/>
	<path d="M32,30.5c2.8,0,5,2.2,5,5s-2.2,5-5,5s-5-2.2-5-5S29.2,30.5,32,30.5L32,30.5z M32,27.5c-4.4,0-8,3.6-8,8s3.6,8,8,8
		s8-3.6,8-8S36.4,27.5,32,27.5L32,27.5z"/>
	<g>
		<path d="M49,12h4c0.8,0,1.5,0.7,1.5,1.5v0c0,0.8-0.7,1.5-1.5,1.5h-4c-0.8,0-1.5-0.7-1.5-1.5v0C47.5,12.7,48.2,12,49,12z"/>
	</g>
</g>
</svg>
