<?xml version="1.0" encoding="utf-8"?>
<!-- Generator: Adobe Illustrator 23.0.0, SVG Export Plug-In . SVG Version: 6.00 Build 0)  -->
<svg version="1.1" id="Layer_1" xmlns="http://www.w3.org/2000/svg" xmlns:xlink="http://www.w3.org/1999/xlink" x="0px" y="0px"
	 viewBox="0 0 64 64" style="enable-background:new 0 0 64 64;" xml:space="preserve">
<g>
	<path d="M41.8,19.5l-1.6-6.2c-0.1-0.4-0.5-0.8-1-0.8H24.8c-0.5,0-0.9,0.3-1,0.7l-1.6,6.3H10.6c-0.6,0-1.1,0.5-1.1,1.1v29.9
		c0,0.6,0.5,1,1,1h42.9c0.6,0,1-0.5,1-1V20.5c0-0.6-0.5-1-1-1H41.8z M26.7,15h10.5c0.5,0,0.9,0.3,1,0.8l1,3.7H24.8l0.9-3.7
		C25.8,15.3,26.2,15,26.7,15z M51,49H13c-0.6,0-1-0.5-1-1V23.1c0-0.6,0.5-1.1,1.1-1.1H52v26C52,48.5,51.5,49,51,49z"/>
	<path d="M32,30c3.6,0,6.4,3.5,5.2,7.3c-0.5,1.6-1.8,2.9-3.5,3.5c-3.7,1.2-7.3-1.6-7.3-5.2C26.5,32.5,29,30,32,30L32,30z M32,27.5
		c-4.9,0-8.9,4.5-7.8,9.6c0.6,3.1,3.1,5.6,6.2,6.2c5.1,1,9.6-2.9,9.6-7.8C40,31.1,36.4,27.5,32,27.5L32,27.5z"/>
	<g>
		<path d="M48.8,12.3h4.5c0.7,0,1.3,0.6,1.3,1.2v0c0,0.7-0.6,1.2-1.3,1.2h-4.5c-0.7,0-1.3-0.6-1.3-1.2v0
			C47.5,12.9,48.1,12.3,48.8,12.3z"/>
	</g>
</g>
</svg>
