<?xml version="1.0" encoding="utf-8"?>
<!-- Generator: Adobe Illustrator 23.0.0, SVG Export Plug-In . SVG Version: 6.00 Build 0)  -->
<svg version="1.1" id="Layer_1" xmlns="http://www.w3.org/2000/svg" xmlns:xlink="http://www.w3.org/1999/xlink" x="0px" y="0px"
	 viewBox="0 0 64 64" style="enable-background:new 0 0 64 64;" xml:space="preserve">
<style type="text/css">
	.st0{fill:#606060;}
</style>
<g>
	<path class="st0" d="M43.3,20.7c0.5,0.5,0.5,1.3,0,1.8L33.8,32l9.5,9.5c0.5,0.5,0.5,1.3,0,1.8s-1.3,0.5-1.8,0L32,33.8l-9.5,9.5
		c-0.5,0.5-1.3,0.5-1.8,0s-0.5-1.3,0-1.8l9.5-9.5l-9.5-9.5c-0.5-0.5-0.5-1.3,0-1.8c0.5-0.5,1.3-0.5,1.8,0l9.5,9.5l9.5-9.5
		C42,20.3,42.8,20.2,43.3,20.7z"/>
</g>
</svg>
