<?xml version="1.0" encoding="utf-8"?>
<!-- Generator: Adobe Illustrator 23.0.0, SVG Export Plug-In . SVG Version: 6.00 Build 0)  -->
<svg version="1.1" id="Layer_1" xmlns="http://www.w3.org/2000/svg" xmlns:xlink="http://www.w3.org/1999/xlink" x="0px" y="0px"
	 viewBox="0 0 64 64" style="enable-background:new 0 0 64 64;" xml:space="preserve">
<style type="text/css">
	.st0{fill:#606060;}
</style>
<g>
	<path class="st0" d="M43.3,20.7c0.6,0.6,0.6,1.6,0,2.1L34.1,32l9.2,9.2c0.6,0.6,0.6,1.6,0,2.1s-1.6,0.6-2.1,0L32,34.1l-9.2,9.2
		c-0.6,0.6-1.6,0.6-2.1,0c-0.6-0.6-0.6-1.6,0-2.1l9.2-9.2l-9.2-9.2c-0.6-0.6-0.6-1.6,0-2.1c0.6-0.6,1.6-0.6,2.1,0l9.2,9.2l9.2-9.2
		C41.8,20.1,42.7,20.1,43.3,20.7z"/>
</g>
</svg>
