<?xml version="1.0" encoding="utf-8"?>
<!-- Generator: Adobe Illustrator 23.0.0, SVG Export Plug-In . SVG Version: 6.00 Build 0)  -->
<svg version="1.1" id="Layer_1" xmlns="http://www.w3.org/2000/svg" xmlns:xlink="http://www.w3.org/1999/xlink" x="0px" y="0px"
	 viewBox="0 0 64 64" style="enable-background:new 0 0 64 64;" xml:space="preserve">
<style type="text/css">
	.st0{fill:#606060;}
</style>
<g>
	<g>
		<path class="st0" d="M32,26.1c-6.2,0-11.9,2.5-16,6.6l3,3c3.3-3.3,7.9-5.4,13-5.4s9.7,2.1,13,5.4l3-3C43.9,28.7,38.2,26.1,32,26.1
			z"/>
		<path class="st0" d="M32,16.2c-8.6,0-16.4,3.5-22,9.1l3,3c4.9-4.9,11.6-7.9,19-7.9s14.1,3,19,7.9l3-3C48.4,19.7,40.6,16.2,32,16.2
			z"/>
		<path class="st0" d="M32,36c-3.1,0-6,1.3-8,3.3l3,3c1.3-1.3,3.1-2.1,5-2.1c1.9,0,3.7,0.8,5,2.1l3-3C38,37.3,35.1,36,32,36z"/>
	</g>
	<polygon class="st0" points="34,45.8 32,47.8 30,45.8 	"/>
</g>
</svg>
