<?xml version="1.0" encoding="utf-8"?>
<!-- Generator: Adobe Illustrator 23.0.0, SVG Export Plug-In . SVG Version: 6.00 Build 0)  -->
<svg version="1.1" id="Layer_1" xmlns="http://www.w3.org/2000/svg" xmlns:xlink="http://www.w3.org/1999/xlink" x="0px" y="0px"
	 viewBox="0 0 64 64" style="enable-background:new 0 0 64 64;" xml:space="preserve">
<style type="text/css">
	.st0{fill:#606060;}
</style>
<g>
	<g>
		<path class="st0" d="M32,26.1c-6.5,0-12.3,2.6-16.5,6.8l4.1,4.1c3.2-3.2,7.6-5.1,12.4-5.1c4.8,0,9.2,2,12.4,5.1l4.1-4.1
			C44.3,28.7,38.5,26.1,32,26.1z"/>
		<path class="st0" d="M32,15.9c-8.9,0-16.9,3.6-22.7,9.4l4.1,4.1c4.8-4.8,11.3-7.7,18.6-7.7s13.8,3,18.6,7.7l4.1-4.1
			C48.9,19.5,40.9,15.9,32,15.9z"/>
		<path class="st0" d="M32,36.3c-3.2,0-6.1,1.3-8.3,3.4l4.1,4.1c1.1-1.1,2.5-1.7,4.1-1.7c1.6,0,3.1,0.7,4.1,1.7l4.1-4.1
			C38.1,37.7,35.2,36.3,32,36.3z"/>
	</g>
	<polygon class="st0" points="34,46.1 32,48.1 30,46.1 	"/>
</g>
</svg>
