<?xml version="1.0" encoding="utf-8"?>
<!-- Generator: Adobe Illustrator 23.0.0, SVG Export Plug-In . SVG Version: 6.00 Build 0)  -->
<svg version="1.1" id="Layer_1" xmlns="http://www.w3.org/2000/svg" xmlns:xlink="http://www.w3.org/1999/xlink" x="0px" y="0px"
	 viewBox="0 0 64 64" style="enable-background:new 0 0 64 64;" xml:space="preserve">
<path d="M41.8,19.5l-1.8-7H24l-1.8,7H9.5v32h45v-32H41.8z M25.9,15h12.1l1.2,4.5H24.8L25.9,15z M52,49H12V22h40V49z"/>
<path d="M32,30c3,0,5.5,2.5,5.5,5.5S35,41,32,41s-5.5-2.5-5.5-5.5S29,30,32,30L32,30z M32,27.5c-4.4,0-8,3.6-8,8s3.6,8,8,8
	s8-3.6,8-8S36.4,27.5,32,27.5L32,27.5z"/>
<g>
	<rect x="47.5" y="12.3" width="7" height="2.5"/>
</g>
</svg>
