<?xml version="1.0" encoding="utf-8"?>
<!-- Generator: Adobe Illustrator 23.0.0, SVG Export Plug-In . SVG Version: 6.00 Build 0)  -->
<svg version="1.1" id="Layer_1" xmlns="http://www.w3.org/2000/svg" xmlns:xlink="http://www.w3.org/1999/xlink" x="0px" y="0px"
	 viewBox="0 0 64 64" style="enable-background:new 0 0 64 64;" xml:space="preserve">
<g>
	<path d="M41.8,19.5l-1.8-7H24l-1.8,7H9.5v32h45v-32H41.8z M26.3,15.5h11.3l1,4H25.3L26.3,15.5z M51.5,48.5h-39v-26h39V48.5z"/>
	<path d="M32,30.5c2.8,0,5,2.2,5,5s-2.2,5-5,5s-5-2.2-5-5S29.2,30.5,32,30.5L32,30.5z M32,27.5c-4.4,0-8,3.6-8,8s3.6,8,8,8
		s8-3.6,8-8S36.4,27.5,32,27.5L32,27.5z"/>
	<g>
		<rect x="47.5" y="12" width="7" height="3"/>
	</g>
</g>
</svg>
