<?xml version="1.0" encoding="utf-8"?>
<!-- Generator: Adobe Illustrator 23.0.0, SVG Export Plug-In . SVG Version: 6.00 Build 0)  -->
<svg version="1.1" id="Layer_1" xmlns="http://www.w3.org/2000/svg" xmlns:xlink="http://www.w3.org/1999/xlink" x="0px" y="0px"
	 viewBox="0 0 64 64" style="enable-background:new 0 0 64 64;" xml:space="preserve">
<style type="text/css">
	.st0{fill:#606060;}
</style>
<path class="st0" d="M28.5,20c3.2,0,6.3,1.6,8.1,4.2l1,1.4l1.7-0.4c0.3-0.1,0.5-0.1,0.8-0.1c0.1,0,0.3,0,0.4,0c2.6,0,4.8,2,5,4.6
	c0,0.3,0,0.5,0,0.8l-0.2,2.3l2.3,0.4c2.6,0.5,4.5,2.8,4.5,5.4c0,1.5-0.6,2.9-1.6,3.9c-1,1-2.4,1.6-3.9,1.6h-29c-3,0-5.5-2.5-5.5-5.5
	c0-1.5,0.6-2.9,1.6-3.9c0.8-0.8,1.8-1.3,2.9-1.5l2.1-0.4l-0.1-2.2c0-0.2,0-0.3,0-0.5C18.5,24.5,23,20,28.5,20 M28.5,17.5
	C21.6,17.5,16,23.1,16,30c0,0.2,0,0.4,0,0.6c-1.6,0.3-3.1,1.1-4.2,2.2c-1.4,1.5-2.3,3.5-2.3,5.7c0,4.4,3.6,8,8,8h29
	c2.2,0,4.2-0.9,5.7-2.3c1.4-1.5,2.3-3.5,2.3-5.7c0-3.9-2.8-7.2-6.5-7.9c0-0.4,0-0.8,0-1.2c-0.3-3.9-3.6-6.9-7.5-6.9
	c-0.2,0-0.4,0-0.6,0c-0.4,0-0.9,0.1-1.3,0.2C36.4,19.6,32.7,17.5,28.5,17.5L28.5,17.5z"/>
</svg>
