<?xml version="1.0" encoding="utf-8"?>
<!-- Generator: Adobe Illustrator 23.0.0, SVG Export Plug-In . SVG Version: 6.00 Build 0)  -->
<svg version="1.1" id="Layer_1" xmlns="http://www.w3.org/2000/svg" xmlns:xlink="http://www.w3.org/1999/xlink" x="0px" y="0px"
	 viewBox="0 0 64 64" style="enable-background:new 0 0 64 64;" xml:space="preserve">
<style type="text/css">
	.st0{fill:#606060;}
</style>
<g>
	<g>
		<path class="st0" d="M40.5,29.9l7.1-7.1c1.8-1.8,1.8-4.6,0-6.4c-0.9-0.9-2-1.4-3.2-1.4s-2.3,0.5-3.2,1.4l-7.1,7.1l-2-2l-1.4,1.4
			l2,2L15,42.6l1,4.8c0.1,0.3,0.3,0.6,0.7,0.7l4.6,0.9L39,31.3l1.9,1.9l1.4-1.4L40.5,29.9L40.5,29.9L40.5,29.9z M20.7,46.8l-2.9-0.5
			l-0.6-3l16.9-17l3.5,3.5L20.7,46.8z"/>
	</g>
</g>
</svg>
