<?xml version="1.0" encoding="utf-8"?>
<!-- Generator: Adobe Illustrator 23.0.0, SVG Export Plug-In . SVG Version: 6.00 Build 0)  -->
<svg version="1.1" id="Layer_1" xmlns="http://www.w3.org/2000/svg" xmlns:xlink="http://www.w3.org/1999/xlink" x="0px" y="0px"
	 viewBox="0 0 64 64" style="enable-background:new 0 0 64 64;" xml:space="preserve">
<style type="text/css">
	.st0{fill:#606060;}
</style>
<g>
	<g>
		<path class="st0" d="M40.5,29.9l7.1-7.1c1.8-1.8,1.8-4.6,0-6.4c-0.9-0.9-2-1.4-3.2-1.4s-2.3,0.5-3.2,1.4l-7.1,7.1l-2-2L30.7,23
			l2,2L15,42.6l1,4.7c0.1,0.4,0.4,0.8,0.9,0.8l4.5,0.8L39,31.3l1.9,1.9l1.4-1.4L40.5,29.9L40.5,29.9L40.5,29.9z M20.3,45.7l-1.7-0.3
			l-0.4-1.8l16.6-16.5l2.1,2.1L20.3,45.7z"/>
	</g>
</g>
</svg>
