<?xml version="1.0" encoding="utf-8"?>
<!-- Generator: Adobe Illustrator 23.0.0, SVG Export Plug-In . SVG Version: 6.00 Build 0)  -->
<svg version="1.1" id="Layer_1" xmlns="http://www.w3.org/2000/svg" xmlns:xlink="http://www.w3.org/1999/xlink" x="0px" y="0px"
	 viewBox="0 0 64 64" style="enable-background:new 0 0 64 64;" xml:space="preserve">
<style type="text/css">
	.st0{fill:#606060;}
</style>
<g>
	<path class="st0" d="M54.2,26c0.5-1,0.8-2,0.8-3c0-6.3-10.3-11.5-23-11.5S9,16.7,9,23c0,1,0.3,2,0.8,3C9.3,27,9,28,9,29
		s0.3,2,0.8,3C9.3,33,9,34,9,35s0.3,2,0.8,3C9.3,39,9,40,9,41c0,6.3,10.3,11.5,23,11.5S55,47.3,55,41c0-1-0.3-2-0.8-3
		c0.5-1,0.8-2,0.8-3s-0.3-2-0.8-3c0.5-1,0.8-2,0.8-3S54.7,27,54.2,26z M11.5,23c0-4.3,8.4-9,20.5-9s20.5,4.7,20.5,9
		c0,0.2,0,0.5-0.1,0.7c-0.2,0.8-0.6,1.5-1.3,2.3c-0.5,0.5-1,1-1.7,1.5c-0.7,0.5-1.5,1-2.5,1.5c-1.3,0.7-2.9,1.3-4.7,1.7
		C39.3,31.5,35.8,32,32,32s-7.3-0.5-10.3-1.3C20,30.3,18.4,29.7,17,29c-0.9-0.5-1.8-1-2.5-1.5c-0.7-0.5-1.3-1-1.7-1.5
		c-0.7-0.8-1.1-1.5-1.3-2.3C11.5,23.5,11.5,23.2,11.5,23z M52.5,41c0,4.3-8.4,9-20.5,9s-20.5-4.7-20.5-9c0-0.2,0-0.5,0.1-0.7
		c3.8,3.7,11.5,6.2,20.4,6.2s16.6-2.5,20.4-6.2C52.5,40.5,52.5,40.8,52.5,41z M52.5,35c0,0.2,0,0.5-0.1,0.7
		c-0.2,0.8-0.6,1.5-1.3,2.3c-2.8,3.2-9.9,6-19.2,6s-16.4-2.8-19.2-6c-0.7-0.8-1.1-1.5-1.3-2.3c0-0.2-0.1-0.5-0.1-0.7s0-0.5,0.1-0.7
		c0.3,0.3,0.5,0.5,0.8,0.7c0.6,0.5,1.4,1,2.2,1.5c4.2,2.5,10.5,4,17.5,4s13.2-1.6,17.5-4c0.8-0.4,1.5-0.9,2.2-1.5
		c0.3-0.2,0.5-0.5,0.8-0.7C52.5,34.5,52.5,34.8,52.5,35z M51.2,32c-0.5,0.5-1,1-1.7,1.5c-0.7,0.5-1.5,1-2.5,1.5c-3.6,1.8-8.8,3-15,3
		s-11.4-1.2-15-3c-0.9-0.5-1.8-1-2.5-1.5c-0.7-0.5-1.3-1-1.7-1.5c-0.7-0.8-1.1-1.5-1.3-2.3c0-0.2-0.1-0.5-0.1-0.7s0-0.5,0.1-0.7
		c0.3,0.3,0.5,0.5,0.8,0.7c0.6,0.5,1.4,1,2.2,1.5c1,0.6,2,1.1,3.2,1.5c1.2,0.5,2.6,0.9,4,1.3c3.1,0.8,6.6,1.2,10.3,1.2
		s7.2-0.4,10.3-1.2c1.4-0.4,2.8-0.8,4-1.3c1.2-0.5,2.2-1,3.2-1.5c0.8-0.4,1.5-0.9,2.2-1.5c0.3-0.2,0.5-0.5,0.8-0.7
		c0,0.2,0.1,0.5,0.1,0.7s0,0.5-0.1,0.7C52.3,30.5,51.8,31.3,51.2,32z"/>
</g>
</svg>
