<?xml version="1.0" encoding="utf-8"?>
<!-- Generator: Adobe Illustrator 23.0.0, SVG Export Plug-In . SVG Version: 6.00 Build 0)  -->
<svg version="1.1" id="Layer_1" xmlns="http://www.w3.org/2000/svg" xmlns:xlink="http://www.w3.org/1999/xlink" x="0px" y="0px"
	 viewBox="0 0 64 64" style="enable-background:new 0 0 64 64;" xml:space="preserve">
<style type="text/css">
	.st0{fill:#606060;}
</style>
<g>
	<path class="st0" d="M32.7,9.4h-1.3c-4,0-7.2,3.2-7.4,7.1c0,0.1,0,0.1,0,0.2v5.5l2.5,2.5v-8c0-0.5,0.1-1,0.2-1.5
		c0.6-2,2.5-3.4,4.6-3.4h1.3c2.2,0,4,1.4,4.6,3.4c0.2,0.5,0.2,1,0.2,1.5V32h0.1c0,1-0.3,2-0.9,2.8l1.8,1.8c1-1.3,1.6-2.9,1.6-4.6
		V16.7c0,0,0-0.1,0-0.2C39.9,12.5,36.6,9.4,32.7,9.4z"/>
	<g>
		<path class="st0" d="M48,30.2L48,30.2c0,4.5-1.8,8.5-4.6,11.4l-1.7-1.7c2.5-2.5,4-5.9,4-9.6v-0.1C45.7,30.2,48,30.2,48,30.2z"/>
	</g>
</g>
<g>
	<path class="st0" d="M43.4,44.6l-1.7-1.7L21.6,22.8l-1.8,1.8l4.2,4.2V32c0,4.1,3.3,7.4,7.4,7.4h1.3c0.6,0,1.2-0.1,1.7-0.2l3.4,3.4
		c-1.4,0.6-2.8,1-4.4,1.1c-0.5,0.1-0.9,0.1-1.3,0.1c-0.5,0-0.9-0.1-1.3-0.1c-6.9-0.6-12.3-6.4-12.3-13.4v-0.1H16v0.1
		c0,8.5,6.5,15.4,14.8,16v5.8H28v2.5h8v-2.5h-2.8v-5.8c2.3-0.1,4.5-0.8,6.5-1.8l2.8,2.8l1.8-1.8L43.4,44.6z M31.4,36.9
		c-2.7,0-4.9-2.2-4.9-4.9v-0.7l5.6,5.6H31.4z"/>
</g>
</svg>
