<?xml version="1.0" encoding="utf-8"?>
<!-- Generator: Adobe Illustrator 23.0.0, SVG Export Plug-In . SVG Version: 6.00 Build 0)  -->
<svg version="1.1" id="Layer_1" xmlns="http://www.w3.org/2000/svg" xmlns:xlink="http://www.w3.org/1999/xlink" x="0px" y="0px"
	 viewBox="0 0 64 64" style="enable-background:new 0 0 64 64;" xml:space="preserve">
<style type="text/css">
	.st0{fill:#606060;}
</style>
<g>
	<path class="st0" d="M10,19.5v25c0,1.1,0.9,2,2,2h40c1.1,0,2-0.9,2-2v-25c0-1.1-0.9-2-2-2H12C10.9,17.5,10,18.4,10,19.5z M49,43.5
		H15c-1.1,0-2-0.9-2-2v-19c0-1.1,0.9-2,2-2h34c1.1,0,2,0.9,2,2v19C51,42.6,50.1,43.5,49,43.5z"/>
	<path class="st0" d="M51,20.5v1l-17.8,13c-0.7,0.5-1.7,0.5-2.4,0L13,21.5v-1h3c0.4,0,0.8,0.1,1.2,0.4l13.6,9.9
		c0.7,0.5,1.7,0.5,2.4,0l13.6-9.9c0.3-0.3,0.8-0.4,1.2-0.4H51z"/>
</g>
</svg>
