<?xml version="1.0" encoding="utf-8"?>
<!-- Generator: Adobe Illustrator 23.0.0, SVG Export Plug-In . SVG Version: 6.00 Build 0)  -->
<svg version="1.1" id="Layer_1" xmlns="http://www.w3.org/2000/svg" xmlns:xlink="http://www.w3.org/1999/xlink" x="0px" y="0px"
	 viewBox="0 0 64 64" style="enable-background:new 0 0 64 64;" xml:space="preserve">
<style type="text/css">
	.st0{fill:#606060;}
</style>
<g>
	<path class="st0" d="M10,19.5v25c0,1.1,0.9,2,2,2h40c1.1,0,2-0.9,2-2v-25c0-1.1-0.9-2-2-2H12C10.9,17.5,10,18.4,10,19.5z M48,42.5
		H16c-1.1,0-2-0.9-2-2v-17c0-1.1,0.9-2,2-2h32c1.1,0,2,0.9,2,2v17C50,41.6,49.1,42.5,48,42.5z"/>
	<path class="st0" d="M50,21.5V22c0,0.5-0.3,1-0.7,1.4L33,35.2c-0.6,0.4-1.4,0.4-2,0L14.7,23.4C14.3,23.1,14,22.6,14,22v-0.5h4.4
		c0.4,0,0.7,0.1,1,0.3L31,30.3c0.6,0.4,1.4,0.4,2,0l11.7-8.5c0.3-0.2,0.6-0.3,1-0.3H50z"/>
</g>
</svg>
