<?xml version="1.0" encoding="utf-8"?>
<!-- Generator: Adobe Illustrator 23.0.0, SVG Export Plug-In . SVG Version: 6.00 Build 0)  -->
<svg version="1.1" id="Layer_1" xmlns="http://www.w3.org/2000/svg" xmlns:xlink="http://www.w3.org/1999/xlink" x="0px" y="0px"
	 viewBox="0 0 64 64" style="enable-background:new 0 0 64 64;" xml:space="preserve">
<style type="text/css">
	.st0{fill:#606060;}
</style>
<g>
	<path class="st0" d="M48,32c0,0.5-0.2,1-0.6,1.4C47,33.8,46.5,34,46,34H34v12c0,1.1-0.9,2-2,2s-2-0.9-2-2V34H18c-1.1,0-2-0.9-2-2
		c0-0.5,0.2-1,0.6-1.4C17,30.2,17.5,30,18,30h12V18c0-1.1,0.9-2,2-2c0.5,0,1,0.2,1.4,0.6C33.8,17,34,17.5,34,18v12h12
		C47.1,30,48,30.9,48,32z"/>
</g>
</svg>
