<?xml version="1.0" encoding="utf-8"?>
<!-- Generator: Adobe Illustrator 23.0.0, SVG Export Plug-In . SVG Version: 6.00 Build 0)  -->
<svg version="1.1" id="Layer_1" xmlns="http://www.w3.org/2000/svg" xmlns:xlink="http://www.w3.org/1999/xlink" x="0px" y="0px"
	 viewBox="0 0 64 64" style="enable-background:new 0 0 64 64;" xml:space="preserve">
<style type="text/css">
	.st0{fill:#606060;}
</style>
<g>
	<path class="st0" d="M29.1,32c0-1.6,1.3-2.9,2.9-2.9c1.6,0,2.9,1.3,2.9,2.9s-1.3,2.9-2.9,2.9S29.1,33.6,29.1,32 M26.6,32
		c0,3,2.4,5.4,5.4,5.4s5.4-2.4,5.4-5.4S35,26.6,32,26.6S26.6,29,26.6,32L26.6,32z"/>
	<path class="st0" d="M12.5,32c0-1.6,1.3-2.9,2.9-2.9s2.9,1.3,2.9,2.9s-1.3,2.9-2.9,2.9S12.5,33.6,12.5,32 M10,32
		c0,3,2.4,5.4,5.4,5.4s5.4-2.4,5.4-5.4s-2.4-5.4-5.4-5.4S10,29,10,32L10,32z"/>
	<path class="st0" d="M45.8,32c0-1.6,1.3-2.9,2.9-2.9s2.9,1.3,2.9,2.9s-1.3,2.9-2.9,2.9S45.8,33.6,45.8,32 M43.3,32
		c0,3,2.4,5.4,5.4,5.4S54,35,54,32s-2.4-5.4-5.4-5.4S43.3,29,43.3,32L43.3,32z"/>
</g>
</svg>
