<?xml version="1.0" encoding="utf-8"?>
<!-- Generator: Adobe Illustrator 23.0.0, SVG Export Plug-In . SVG Version: 6.00 Build 0)  -->
<svg version="1.1" id="Layer_1" xmlns="http://www.w3.org/2000/svg" xmlns:xlink="http://www.w3.org/1999/xlink" x="0px" y="0px"
	 viewBox="0 0 64 64" style="enable-background:new 0 0 64 64;" xml:space="preserve">
<style type="text/css">
	.st0{fill:#606060;}
</style>
<g>
	<g>
		<g>
			<rect x="25.9" y="45" class="st0" width="21.8" height="4"/>
		</g>
		<g>
			<rect x="25.9" y="30" class="st0" width="21.8" height="4"/>
		</g>
		<g>
			<rect x="25.9" y="15" class="st0" width="21.8" height="4"/>
		</g>
	</g>
	<g>
		<g>
			<path class="st0" d="M19.8,22.2h-1.5v-4.7l-1.5,0.4v-1.1l2.8-1h0.1V22.2z"/>
		</g>
		<g>
			<path class="st0" d="M20.9,35.2h-4.5v-1l2.1-2.2c0.5-0.6,0.8-1,0.8-1.4c0-0.3-0.1-0.5-0.2-0.6s-0.3-0.2-0.5-0.2
				c-0.2,0-0.4,0.1-0.5,0.3c-0.1,0.2-0.2,0.4-0.2,0.7h-1.5c0-0.4,0.1-0.8,0.3-1.1c0.2-0.3,0.5-0.6,0.8-0.8s0.7-0.3,1.2-0.3
				c0.7,0,1.2,0.2,1.6,0.5c0.4,0.3,0.6,0.8,0.6,1.4c0,0.3,0,0.5-0.1,0.7c-0.1,0.2-0.2,0.5-0.4,0.8c-0.2,0.3-0.5,0.6-1,1.1l-0.8,1
				h2.5V35.2z"/>
		</g>
		<g>
			<path class="st0" d="M17.8,44.4h0.7c0.6,0,0.8-0.3,0.8-0.8c0-0.2-0.1-0.4-0.2-0.5s-0.3-0.2-0.6-0.2c-0.2,0-0.4,0.1-0.5,0.2
				c-0.1,0.1-0.2,0.3-0.2,0.4h-1.5c0-0.3,0.1-0.6,0.3-0.9s0.4-0.5,0.8-0.6c0.3-0.1,0.7-0.2,1.1-0.2c0.7,0,1.3,0.2,1.7,0.5
				c0.4,0.3,0.6,0.8,0.6,1.3c0,0.3-0.1,0.5-0.3,0.8s-0.4,0.4-0.7,0.6c0.3,0.1,0.6,0.3,0.8,0.6c0.2,0.3,0.3,0.6,0.3,0.9
				c0,0.6-0.2,1-0.7,1.4c-0.4,0.3-1,0.5-1.7,0.5c-0.4,0-0.8-0.1-1.2-0.2c-0.4-0.2-0.6-0.4-0.8-0.7c-0.2-0.3-0.3-0.6-0.3-1h1.5
				c0,0.2,0.1,0.4,0.2,0.5c0.2,0.1,0.4,0.2,0.6,0.2c0.3,0,0.5-0.1,0.6-0.2c0.2-0.1,0.2-0.3,0.2-0.6c0-0.3-0.1-0.6-0.2-0.7
				s-0.4-0.2-0.7-0.2h-0.7V44.4z"/>
		</g>
	</g>
</g>
</svg>
