<?xml version="1.0" encoding="utf-8"?>
<!-- Generator: Adobe Illustrator 23.0.0, SVG Export Plug-In . SVG Version: 6.00 Build 0)  -->
<svg version="1.1" id="Layer_1" xmlns="http://www.w3.org/2000/svg" xmlns:xlink="http://www.w3.org/1999/xlink" x="0px" y="0px"
	 viewBox="0 0 64 64" style="enable-background:new 0 0 64 64;" xml:space="preserve">
<style type="text/css">
	.st0{fill:#606060;}
</style>
<g>
	<path class="st0" d="M28.9,33c-4,0.5-7.6,2.2-10.3,5l-4.1-4.1c2.6-2.6,5.9-4.6,9.5-5.8L28.9,33z"/>
	<path class="st0" d="M33,21.6c-2.5,0-4.9,0.3-7.2,1l3.7,3.7c1.2-0.2,2.3-0.3,3.5-0.3c6.5,0,12.3,2.6,16.5,6.8l-4.1,4.1
		c-2.7-2.6-6.3-4.5-10.2-5L50,46.8l-2.1,2.1L35.5,36.5L30.9,32L26,27.1l-10-10l2.1-2.1l3.1,3.1c3.6-1.4,7.6-2.2,11.8-2.2
		c8.9,0,16.9,3.6,22.7,9.4l-4.1,4.1C46.8,24.6,40.3,21.6,33,21.6z"/>
	<path class="st0" d="M20.7,24.7c-3.1,1.3-5.9,3.2-8.3,5.6l-4.1-4.1c2.3-2.3,5-4.3,8-5.9L20.7,24.7z"/>
	<path class="st0" d="M37.8,41.9L35,44.7c-1-1-2.5-1.7-4.1-1.7c-1.6,0-3,0.6-4.1,1.7l-4.1-4.1c2.2-2.1,5.1-3.4,8.3-3.4
		c0.8,0,1.7,0.1,2.5,0.3L37.8,41.9z"/>
	<polygon class="st0" points="33,47 31,49 29,47 	"/>
</g>
</svg>
