<?xml version="1.0" encoding="utf-8"?>
<!-- Generator: Adobe Illustrator 23.0.0, SVG Export Plug-In . SVG Version: 6.00 Build 0)  -->
<svg version="1.1" id="Layer_1" xmlns="http://www.w3.org/2000/svg" xmlns:xlink="http://www.w3.org/1999/xlink" x="0px" y="0px"
	 viewBox="0 0 64 64" style="enable-background:new 0 0 64 64;" xml:space="preserve">
<style type="text/css">
	.st0{fill:#606060;}
</style>
<g>
	<g>
		<g>
			<path class="st0" d="M27.3,31.2c-3.9,0.7-7.4,2.7-10.1,5.3L14.7,34c2.6-2.6,6-4.7,9.7-5.8L27.3,31.2z"/>
			<path class="st0" d="M19.6,23.4c-3.1,1.4-5.9,3.3-8.3,5.7l-2.6-2.6c2.4-2.4,5.1-4.4,8.2-5.9L19.6,23.4z"/>
			<path class="st0" d="M38,41.8l-1.5,1.5C35,41.9,33.1,41,30.9,41s-4.2,0.9-5.6,2.3l-2.5-2.5c2.1-2.1,4.9-3.4,8.1-3.4
				c1.1,0,2.1,0.1,3,0.4L38,41.8z"/>
		</g>
		<polygon class="st0" points="32.9,46.7 30.9,48.7 28.9,46.7 		"/>
	</g>
	<path class="st0" d="M33,19.9c-3.1,0-6.1,0.5-9,1.5l5.2,5.2c1.2-0.2,2.4-0.3,3.6-0.3c6.3,0,12,2.6,16.2,6.7l-2.5,2.5
		c-3.5-3.5-8.3-5.7-13.7-5.7c-0.1,0-0.3,0-0.4,0L49.7,47L48,48.8l-8-8L18.8,19.6L16.2,17l1.8-1.8l3.3,3.3c3.6-1.4,7.6-2.2,11.7-2.2
		c8.7,0,16.5,3.5,22.4,9.2l-2.5,2.6C47.7,23,40.7,19.9,33,19.9z"/>
</g>
</svg>
