<?xml version="1.0" encoding="utf-8"?>
<!-- Generator: Adobe Illustrator 23.0.0, SVG Export Plug-In . SVG Version: 6.00 Build 0)  -->
<svg version="1.1" id="Layer_1" xmlns="http://www.w3.org/2000/svg" xmlns:xlink="http://www.w3.org/1999/xlink" x="0px" y="0px"
	 viewBox="0 0 64 64" style="enable-background:new 0 0 64 64;" xml:space="preserve">
<style type="text/css">
	.st0{fill:#606060;}
</style>
<g>
	<g>
		<path class="st0" d="M27.5,31.6c-3.7,0.7-7,2.5-9.5,5.1l-3-3c2.5-2.5,5.6-4.4,9.1-5.5L27.5,31.6z"/>
		<path class="st0" d="M19.8,23.9c-2.9,1.3-5.5,3.2-7.8,5.4l-3-3c2.2-2.2,4.8-4.1,7.6-5.6L19.8,23.9z"/>
		<path class="st0" d="M37.6,41.7L36,43.3c-1.3-1.3-3.1-2.1-5-2.1s-3.7,0.8-5,2.1l-3-3c2-2,4.9-3.3,8-3.3c0.7,0,1.4,0.1,2.1,0.2
			L37.6,41.7z"/>
	</g>
	<polygon class="st0" points="33,46.8 31,48.8 29,46.8 	"/>
	<path class="st0" d="M33,20.4c-2.9,0-5.6,0.4-8.2,1.3l4.7,4.7c1.2-0.2,2.3-0.3,3.5-0.3c6.2,0,11.9,2.6,16,6.6l-3,3
		c-3.2-3.2-7.6-5.3-12.6-5.4L50,46.8L47.8,49L16,17.2l2.1-2.1l3.4,3.4c3.5-1.4,7.4-2.2,11.5-2.2c8.6,0,16.4,3.5,22,9.1l-3,3
		C47.1,23.4,40.4,20.4,33,20.4z"/>
</g>
</svg>
