<?xml version="1.0" encoding="utf-8"?>
<!-- Generator: Adobe Illustrator 23.0.0, SVG Export Plug-In . SVG Version: 6.00 Build 0)  -->
<svg version="1.1" id="Layer_1" xmlns="http://www.w3.org/2000/svg" xmlns:xlink="http://www.w3.org/1999/xlink" x="0px" y="0px"
	 viewBox="0 0 64 64" style="enable-background:new 0 0 64 64;" xml:space="preserve">
<style type="text/css">
	.st0{fill-rule:evenodd;clip-rule:evenodd;fill:#606060;}
</style>
<path class="st0" d="M44.7,19.8c-3.7-2.4-8-3.8-12.7-3.8s-9.1,1.4-12.7,3.8c-4.4,2.9-7.7,7.1-9.4,12.2C13,41.3,21.7,48,32,48
	s19-6.7,22.1-16C52.4,26.9,49.1,22.6,44.7,19.8z M32,45.5c-8.7,0-16.4-5.4-19.5-13.5c1.4-3.6,3.7-6.8,6.8-9.2
	c0.9,6.2,6.2,11,12.7,11s11.8-4.8,12.7-11c3.1,2.4,5.4,5.6,6.8,9.2C48.4,40.1,40.7,45.5,32,45.5z"/>
</svg>
