<?xml version="1.0" encoding="utf-8"?>
<!-- Generator: Adobe Illustrator 23.0.0, SVG Export Plug-In . SVG Version: 6.00 Build 0)  -->
<svg version="1.1" id="Layer_1" xmlns="http://www.w3.org/2000/svg" xmlns:xlink="http://www.w3.org/1999/xlink" x="0px" y="0px"
	 viewBox="0 0 64 64" style="enable-background:new 0 0 64 64;" xml:space="preserve">
<style type="text/css">
	.st0{fill-rule:evenodd;clip-rule:evenodd;fill:#606060;}
</style>
<path class="st0" d="M44.7,19.8c-3.7-2.4-8-3.8-12.7-3.8s-9.1,1.4-12.7,3.8c-4.4,2.9-7.7,7.1-9.4,12.2C13,41.3,21.7,48,32,48
	s19-6.7,22.1-16C52.4,26.9,49.1,22.6,44.7,19.8z M32,45c-8.5,0-15.9-5.2-18.9-13c1.3-3.4,3.5-6.4,6.3-8.6c1.1,6,6.3,10.4,12.6,10.4
	c6.3,0,11.5-4.5,12.6-10.5c2.8,2.2,5,5.2,6.3,8.6C47.9,39.8,40.5,45,32,45z"/>
</svg>
