<?xml version="1.0" encoding="utf-8"?>
<!-- Generator: Adobe Illustrator 23.0.0, SVG Export Plug-In . SVG Version: 6.00 Build 0)  -->
<svg version="1.1" id="Layer_1" xmlns="http://www.w3.org/2000/svg" xmlns:xlink="http://www.w3.org/1999/xlink" x="0px" y="0px"
	 viewBox="0 0 64 64" style="enable-background:new 0 0 64 64;" xml:space="preserve">
<style type="text/css">
	.st0{fill:#606060;}
</style>
<g>
	<g>
		<path class="st0" d="M43.1,17.8c0.2,0,0.7,0.1,1.1,0.4c0.6,0.6,0.6,1.6,0,2.1L31,33.6l-0.9,0.9l0,1.3c0.1,3.6-6,5.2-6,5.2L24,41
			l-0.1,0c-1.6,0.5-3.1,1.5-4.4,2.6c-0.2-2.4,0.2-4.5,1.1-6.1c1.7-3.1,4.9-4.2,6.3-4.5l0.8-0.2l0.6-0.6l13.9-14
			C42.4,17.8,42.9,17.8,43.1,17.8 M43.1,14.8c-1.2,0-2.3,0.4-3.2,1.3L26,30.1c-3.3,0.9-12.8,4.8-8.6,18.8c0.1,0.2,0.3,0.4,0.5,0.4
			c0.1,0,0.3-0.1,0.4-0.2c1.2-1.4,3.8-4.2,6.5-5.1c0,0,8.4-2.1,8.3-8.2l13.2-13.2c1.8-1.8,1.8-4.6,0-6.4h0
			C45.4,15.2,44.3,14.8,43.1,14.8L43.1,14.8z"/>
	</g>
</g>
</svg>
