<?xml version="1.0" encoding="utf-8"?>
<!-- Generator: Adobe Illustrator 23.0.0, SVG Export Plug-In . SVG Version: 6.00 Build 0)  -->
<svg version="1.1" id="Layer_1" xmlns="http://www.w3.org/2000/svg" xmlns:xlink="http://www.w3.org/1999/xlink" x="0px" y="0px"
	 viewBox="0 0 64 64" style="enable-background:new 0 0 64 64;" xml:space="preserve">
<style type="text/css">
	.st0{fill:#606060;}
</style>
<g>
	<g>
		<path class="st0" d="M43.1,17.3c0.5,0,1,0.2,1.4,0.6c0.8,0.8,0.8,2.1,0,2.9L31.3,33.9l-0.7,0.7l0,1.1c0.1,4-6.3,5.7-6.4,5.7
			l-0.1,0l-0.1,0c-1.8,0.6-3.6,1.9-5,3.2c-0.4-2.9-0.1-5.4,1-7.4c1.8-3.2,5.2-4.4,6.6-4.8l0.7-0.2l0.5-0.5l13.9-14
			C42.1,17.5,42.6,17.3,43.1,17.3 M43.1,14.8c-1.2,0-2.3,0.4-3.2,1.3L26,30.1c-3.3,0.9-12.8,4.8-8.6,18.8c0.1,0.2,0.3,0.4,0.5,0.4
			c0.1,0,0.3-0.1,0.4-0.2c1.2-1.4,3.8-4.2,6.5-5.1c0,0,8.4-2.1,8.3-8.2l13.2-13.2c1.8-1.8,1.8-4.6,0-6.4l0,0
			C45.4,15.2,44.3,14.8,43.1,14.8L43.1,14.8z"/>
	</g>
</g>
</svg>
