<?xml version="1.0" encoding="utf-8"?>
<!-- Generator: Adobe Illustrator 23.0.0, SVG Export Plug-In . SVG Version: 6.00 Build 0)  -->
<svg version="1.1" id="Layer_1" xmlns="http://www.w3.org/2000/svg" xmlns:xlink="http://www.w3.org/1999/xlink" x="0px" y="0px"
	 viewBox="0 0 64 64" style="enable-background:new 0 0 64 64;" xml:space="preserve">
<style type="text/css">
	.st0{fill:#606060;}
</style>
<g>
	<g>
		<path class="st0" d="M42.2,17.8l2.1,2.1L30.1,34.2l-0.9,0.9v1.2c0,3.7-6,5.3-6.1,5.3H23h-0.1c-1.6,0.5-3.1,1.5-4.4,2.6
			c-0.2-2.3,0.1-4.4,1-6c1.7-3.1,5-4.4,6.4-4.8l0.8-0.2l0.6-0.6L42.2,17.8 M42.2,13.6L25.1,30.7c-3.4,0.9-13.2,5-8.3,19.8
			c0,0,3.5-4.7,7.1-5.9c0,0,8.4-2.1,8.3-8.2l16.4-16.4L42.2,13.6L42.2,13.6z"/>
	</g>
</g>
</svg>
