<?xml version="1.0" encoding="utf-8"?>
<!-- Generator: Adobe Illustrator 23.0.0, SVG Export Plug-In . SVG Version: 6.00 Build 0)  -->
<svg version="1.1" id="Layer_1" xmlns="http://www.w3.org/2000/svg" xmlns:xlink="http://www.w3.org/1999/xlink" x="0px" y="0px"
	 viewBox="0 0 64 64" style="enable-background:new 0 0 64 64;" xml:space="preserve">
<style type="text/css">
	.st0{fill:#606060;}
</style>
<g>
	<path class="st0" d="M12,32c0-11,9-20,20-20s20,9,20,20s-9,20-20,20S12,43,12,32 M9,32c0,12.7,10.3,23,23,23s23-10.3,23-23
		S44.7,9,32,9S9,19.3,9,32L9,32z"/>
	<g>
		<g>
			<polygon class="st0" points="28.8,47.2 42.5,33.5 15.8,33.5 15.8,30.5 42.5,30.5 28.8,16.8 30.9,14.7 48.2,32 30.9,49.3 			"/>
		</g>
	</g>
</g>
</svg>
