<?xml version="1.0" encoding="utf-8"?>
<!-- Generator: Adobe Illustrator 23.0.0, SVG Export Plug-In . SVG Version: 6.00 Build 0)  -->
<svg version="1.1" id="Layer_1" xmlns="http://www.w3.org/2000/svg" xmlns:xlink="http://www.w3.org/1999/xlink" x="0px" y="0px"
	 viewBox="0 0 64 64" style="enable-background:new 0 0 64 64;" xml:space="preserve">
<style type="text/css">
	.st0{fill:#606060;}
</style>
<g>
	<g>
		<path class="st0" d="M46.5,33.5h-29c-0.8,0-1.5-0.7-1.5-1.5v0c0-0.8,0.7-1.5,1.5-1.5h29c0.8,0,1.5,0.7,1.5,1.5v0
			C48,32.8,47.3,33.5,46.5,33.5z"/>
	</g>
	<g>
		<path class="st0" d="M46.5,24h-29c-0.8,0-1.5-0.7-1.5-1.5v0c0-0.8,0.7-1.5,1.5-1.5h29c0.8,0,1.5,0.7,1.5,1.5v0
			C48,23.3,47.3,24,46.5,24z"/>
	</g>
	<g>
		<path class="st0" d="M46.5,43h-29c-0.8,0-1.5-0.7-1.5-1.5l0,0c0-0.8,0.7-1.5,1.5-1.5h29c0.8,0,1.5,0.7,1.5,1.5l0,0
			C48,42.3,47.3,43,46.5,43z"/>
	</g>
</g>
</svg>
