<?xml version="1.0" encoding="utf-8"?>
<!-- Generator: Adobe Illustrator 23.0.0, SVG Export Plug-In . SVG Version: 6.00 Build 0)  -->
<svg version="1.1" id="Layer_1" xmlns="http://www.w3.org/2000/svg" xmlns:xlink="http://www.w3.org/1999/xlink" x="0px" y="0px"
	 viewBox="0 0 64 64" style="enable-background:new 0 0 64 64;" xml:space="preserve">
<style type="text/css">
	.st0{fill:#606060;}
</style>
<g>
	<g>
		<path class="st0" d="M46,34H18c-1.1,0-2-0.9-2-2v0c0-1.1,0.9-2,2-2h28c1.1,0,2,0.9,2,2v0C48,33.1,47.1,34,46,34z"/>
	</g>
	<g>
		<path class="st0" d="M46,24.5H18c-1.1,0-2-0.9-2-2v0c0-1.1,0.9-2,2-2h28c1.1,0,2,0.9,2,2v0C48,23.6,47.1,24.5,46,24.5z"/>
	</g>
	<g>
		<path class="st0" d="M46,43.5H18c-1.1,0-2-0.9-2-2v0c0-1.1,0.9-2,2-2h28c1.1,0,2,0.9,2,2v0C48,42.6,47.1,43.5,46,43.5z"/>
	</g>
</g>
</svg>
