<?xml version="1.0" encoding="utf-8"?>
<!-- Generator: Adobe Illustrator 23.0.0, SVG Export Plug-In . SVG Version: 6.00 Build 0)  -->
<svg version="1.1" id="Layer_1" xmlns="http://www.w3.org/2000/svg" xmlns:xlink="http://www.w3.org/1999/xlink" x="0px" y="0px"
	 viewBox="0 0 64 64" style="enable-background:new 0 0 64 64;" xml:space="preserve">
<style type="text/css">
	.st0{fill:#606060;}
</style>
<path class="st0" d="M32,13.5c7.4,0,13.5,6.1,13.5,13.5c0,5.2-7.7,15.6-13.5,22.3C26.2,42.6,18.5,32.2,18.5,27
	C18.5,19.6,24.6,13.5,32,13.5 M32,37.5c5.8,0,10.5-4.7,10.5-10.5S37.8,16.5,32,16.5S21.5,21.2,21.5,27S26.2,37.5,32,37.5 M32,11
	c-8.8,0-16,7.2-16,16c0,8.8,16,26,16,26s16-17.2,16-26C48,18.2,40.8,11,32,11L32,11z M32,35c-4.4,0-8-3.6-8-8c0-4.4,3.6-8,8-8
	s8,3.6,8,8C40,31.4,36.4,35,32,35L32,35z"/>
</svg>
