<?xml version="1.0" encoding="utf-8"?>
<!-- Generator: Adobe Illustrator 23.0.0, SVG Export Plug-In . SVG Version: 6.00 Build 0)  -->
<svg version="1.1" id="Layer_1" xmlns="http://www.w3.org/2000/svg" xmlns:xlink="http://www.w3.org/1999/xlink" x="0px" y="0px"
	 viewBox="0 0 64 64" style="enable-background:new 0 0 64 64;" xml:space="preserve">
<style type="text/css">
	.st0{fill:#606060;}
</style>
<g>
	<path class="st0" d="M48,32c0,0.8-0.7,1.5-1.5,1.5h-13v13c0,0.8-0.7,1.5-1.5,1.5s-1.5-0.7-1.5-1.5v-13h-13c-0.8,0-1.5-0.7-1.5-1.5
		s0.7-1.5,1.5-1.5h13v-13c0-0.8,0.7-1.5,1.5-1.5s1.5,0.7,1.5,1.5v13h13C47.3,30.5,48,31.2,48,32z"/>
</g>
<path class="st0" d="M32,12c11,0,20,9,20,20c0,11-9,20-20,20c-11,0-20-9-20-20C12,21,21,12,32,12 M32,9L32,9C19.3,9,9,19.3,9,32v0
	c0,12.7,10.3,23,23,23h0c12.7,0,23-10.3,23-23v0C55,19.3,44.7,9,32,9L32,9z"/>
</svg>
