<?xml version="1.0" encoding="utf-8"?>
<!-- Generator: Adobe Illustrator 23.0.0, SVG Export Plug-In . SVG Version: 6.00 Build 0)  -->
<svg version="1.1" id="Layer_1" xmlns="http://www.w3.org/2000/svg" xmlns:xlink="http://www.w3.org/1999/xlink" x="0px" y="0px"
	 viewBox="0 0 64 64" style="enable-background:new 0 0 64 64;" xml:space="preserve">
<style type="text/css">
	.st0{fill:#606060;}
</style>
<g>
	<path class="st0" d="M48.3,15.7C44.1,11.6,38.3,9,32,9C19.3,9,9,19.3,9,32c0,6.3,2.6,12.1,6.7,16.3C19.9,52.4,25.7,55,32,55
		s12.1-2.6,16.3-6.7C52.4,44.1,55,38.3,55,32S52.4,19.9,48.3,15.7z M46.5,33.5h-13v13c0,0.8-0.7,1.5-1.5,1.5s-1.5-0.7-1.5-1.5v-13
		h-13c-0.8,0-1.5-0.7-1.5-1.5s0.7-1.5,1.5-1.5h13v-13c0-0.8,0.7-1.5,1.5-1.5s1.5,0.7,1.5,1.5v13h13c0.8,0,1.5,0.7,1.5,1.5
		S47.3,33.5,46.5,33.5z"/>
</g>
</svg>
