<?xml version="1.0" encoding="utf-8"?>
<!-- Generator: Adobe Illustrator 23.0.0, SVG Export Plug-In . SVG Version: 6.00 Build 0)  -->
<svg version="1.1" id="Layer_1" xmlns="http://www.w3.org/2000/svg" xmlns:xlink="http://www.w3.org/1999/xlink" x="0px" y="0px"
	 viewBox="0 0 64 64" style="enable-background:new 0 0 64 64;" xml:space="preserve">
<style type="text/css">
	.st0{fill:#606060;}
</style>
<g>
	<g>
		<polygon class="st0" points="40.9,29.5 40.2,30.2 40.2,30.2 40.2,30.2 		"/>
	</g>
	<g>
		<path class="st0" d="M40.2,30.2L40.2,30.2L40.2,30.2l1.9,1.9l-1.4,1.4l-1.9-1.9L24.1,46.2c-1.9,1.9-4.7,2.8-7.3,2.3
			c-0.6-0.1-1-0.6-1.2-1.1c-0.6-2.8,0.3-5.7,2.3-7.7l14.5-14.5l-2-2l1.4-1.4l2,2l0.7-0.7l6.4-6.4c0.9-0.9,2-1.4,3.2-1.4
			c1.2,0,2.3,0.5,3.2,1.4c1.8,1.8,1.8,4.6,0,6.4l-6.4,6.4L40.2,30.2z"/>
		<polygon class="st0" points="40.2,30.2 40.2,30.2 40.2,30.2 		"/>
	</g>
</g>
</svg>
