<?xml version="1.0" encoding="utf-8"?>
<!-- Generator: Adobe Illustrator 23.0.0, SVG Export Plug-In . SVG Version: 6.00 Build 0)  -->
<svg version="1.1" id="Layer_1" xmlns="http://www.w3.org/2000/svg" xmlns:xlink="http://www.w3.org/1999/xlink" x="0px" y="0px"
	 viewBox="0 0 64 64" style="enable-background:new 0 0 64 64;" xml:space="preserve">
<style type="text/css">
	.st0{fill:#606060;}
</style>
<path class="st0" d="M32,10.8l0,3h0c0.8,0,1.5,0,2.3,0.1c9.2,1,16.6,8.4,17.6,17.6c0.7,6.6-1.7,12.9-6.6,17.3
	c-0.3,0.2-0.6,0.4-0.9,0.4c-0.6,0-1.3-0.4-1.5-1.3l0-0.2c-0.8-4.4-4.3-7.8-8.7-8.7c-0.7-0.1-1.4-0.2-2.1-0.2c-2.9,0-5.7,1.1-7.8,3.2
	c-2.1,2.1-3.2,4.8-3.2,7.8l0,0.1c0,0.1,0,0.2-0.1,0.3c-0.1,0.1-0.1,0.1-0.2,0.1c0,0-0.1,0-0.1-0.1c-5.4-3.7-8.6-9.9-8.6-16.4
	c0-11,9-20,20-20L32,10.8 M32,10.8c-12.7,0-23,10.3-23,23c0,7.8,3.9,14.7,9.9,18.9c0.6,0.4,1.2,0.6,1.9,0.6c1.7,0,3.3-1.4,3.3-3.4
	c0,0,0-0.1,0-0.1c0-4.4,3.6-8,8-8c0.5,0,1,0,1.6,0.2c3.1,0.6,5.7,3.1,6.3,6.3c0,0,0,0.1,0,0.1c0.4,2.3,2.4,3.8,4.4,3.8
	c1,0,2-0.4,2.9-1.1c5.4-4.7,8.5-12,7.6-19.9c-1.2-10.6-9.7-19.1-20.2-20.2C33.7,10.8,32.9,10.8,32,10.8L32,10.8z"/>
<g>
	<circle class="st0" cx="42.6" cy="29.4" r="2.4"/>
	<circle class="st0" cx="26.3" cy="31.9" r="4.1"/>
	<circle class="st0" cx="35.7" cy="20.9" r="2"/>
	<circle class="st0" cx="27.1" cy="19.7" r="1.6"/>
	<circle class="st0" cx="20.2" cy="23.3" r="1.2"/>
</g>
</svg>
