<?xml version="1.0" encoding="utf-8"?>
<!-- Generator: Adobe Illustrator 23.0.0, SVG Export Plug-In . SVG Version: 6.00 Build 0)  -->
<svg version="1.1" id="Layer_1" xmlns="http://www.w3.org/2000/svg" xmlns:xlink="http://www.w3.org/1999/xlink" x="0px" y="0px"
	 viewBox="0 0 64 64" style="enable-background:new 0 0 64 64;" xml:space="preserve">
<style type="text/css">
	.st0{fill:#606060;}
</style>
<path class="st0" d="M41.7,9H10v46h17.4l-2.7-2.5H12.5v-41H39V25h12.5v27.5H38.7L36.4,55H54V21.8L41.7,9z M41.5,22.5V12.4l9.7,10.1
	H41.5z"/>
<g>
	<g>
		<polygon class="st0" points="41.1,45.6 39.8,47 32.3,55 23.8,47 22.9,46.1 24.4,44.5 24.6,44.3 24.8,44.5 27.4,47 30.7,50.1 
			30.7,36 33.2,36 33.2,50.3 36.4,47 38.7,44.5 39.3,43.9 40,44.5 		"/>
	</g>
</g>
</svg>
