<?xml version="1.0" encoding="utf-8"?>
<!-- Generator: Adobe Illustrator 23.0.0, SVG Export Plug-In . SVG Version: 6.00 Build 0)  -->
<svg version="1.1" id="Layer_1" xmlns="http://www.w3.org/2000/svg" xmlns:xlink="http://www.w3.org/1999/xlink" x="0px" y="0px"
	 viewBox="0 0 64 64" style="enable-background:new 0 0 64 64;" xml:space="preserve">
<style type="text/css">
	.st0{fill:#606060;}
</style>
<g>
	<path class="st0" d="M48,30.6c0-0.4,0-0.8,0-1.2c-0.3-3.9-3.6-6.9-7.5-6.9c-0.2,0-0.4,0-0.6,0c-0.4,0-0.9,0.1-1.3,0.2
		c-2.3-3.2-6-5.2-10.2-5.2C21.6,17.5,16,23.1,16,30c0,0.2,0,0.4,0,0.6c-1.6,0.3-3.1,1.1-4.2,2.2c-1.4,1.4-2.3,3.4-2.3,5.7
		c0,4.4,3.6,8,8,8h12L27,44h-9.5c-3,0-5.5-2.5-5.5-5.5c0-1.5,0.6-2.8,1.6-3.9c0.8-0.8,1.8-1.3,2.9-1.5l2.1-0.4l-0.1-2.2
		c0-0.2,0-0.3,0-0.5c0-5.5,4.5-10,10-10c3.2,0,6.3,1.6,8.1,4.2l1,1.4l1.7-0.5c0.3-0.1,0.5-0.1,0.8-0.1c0.1,0,0.3,0,0.4,0
		c2.6,0,4.8,2,5,4.6c0,0.3,0,0.5,0,0.8l-0.2,2.3l2.3,0.4c2.6,0.5,4.5,2.8,4.5,5.4c0,1.5-0.6,2.8-1.6,3.9c-1.1,1-2.4,1.6-3.9,1.6H37
		l-2.5,2.5h12c2.2,0,4.2-0.9,5.7-2.3c1.4-1.4,2.3-3.4,2.3-5.7C54.5,34.6,51.7,31.3,48,30.6z"/>
	<g>
		<g>
			<polygon class="st0" points="38.5,40 32,46.5 25.5,40 26.8,38.7 31.1,43 31.1,32.5 32.9,32.5 32.9,43 37.2,38.7 			"/>
		</g>
	</g>
</g>
</svg>
