<?xml version="1.0" encoding="utf-8"?>
<!-- Generator: Adobe Illustrator 23.0.0, SVG Export Plug-In . SVG Version: 6.00 Build 0)  -->
<svg version="1.1" id="Layer_1" xmlns="http://www.w3.org/2000/svg" xmlns:xlink="http://www.w3.org/1999/xlink" x="0px" y="0px"
	 viewBox="0 0 64 64" style="enable-background:new 0 0 64 64;" xml:space="preserve">
<style type="text/css">
	.st0{fill:#606060;}
</style>
<g>
	<path class="st0" d="M23.3,40.6H40c-0.2-0.5-0.2-1-0.2-1.6c0-0.3,0-0.6,0.1-0.9H23.5c0,0.2,0,0.3,0,0.5c0,0,0,0,0,0
		c0,0.2,0,0.3,0,0.4v0.1C23.5,39.6,23.4,40.1,23.3,40.6z M48.2,24.4l-3.6-2.7l-0.7-0.5H29.8l-0.6,0.4l-6.8,4.2h-0.3
		c-13.2,0-14.5,5.6-14.6,6.8l0,0.1v8H13c-0.2-0.5-0.2-1-0.2-1.5V39c0-0.2,0-0.3,0-0.4c0,0,0,0,0,0c0-0.1,0-0.3,0-0.5H10v-5.3
		c0,0,0.5-4.5,12.1-4.5c0.3,0,0.6,0,1,0l7.5-4.5h12.5l4.3,3.2H54V36c0,0-1.5,1.5-3.5,2c0,0-0.1,0-0.1,0c0.1,0.3,0.1,0.7,0.1,1.1
		c0,0.5-0.1,1-0.2,1.5c3-0.4,5.2-2.5,5.5-2.8l0.7-0.7V24.4H48.2z"/>
	<path class="st0" d="M21.9,39L21.9,39c0,0.4-0.1,0.8-0.2,1.1c-0.1,0.2-0.2,0.5-0.3,0.7c-0.6,1.2-1.9,2-3.3,2c-1.4,0-2.7-0.8-3.3-2
		c-0.1-0.2-0.2-0.5-0.3-0.7c-0.1-0.3-0.2-0.7-0.2-1.1V39c0-0.1,0-0.2,0-0.3c0,0,0,0,0,0c0.2-1.9,1.8-3.5,3.8-3.5s3.6,1.5,3.8,3.5
		c0,0,0,0,0,0C21.9,38.8,21.9,38.9,21.9,39z"/>
	<path class="st0" d="M48.9,39L48.9,39c0,0.4-0.1,0.8-0.2,1.1c-0.1,0.2-0.2,0.5-0.3,0.7c-0.6,1.2-1.9,2-3.3,2s-2.7-0.8-3.3-2
		c-0.1-0.2-0.2-0.5-0.3-0.7c-0.1-0.3-0.2-0.7-0.2-1.1V39c0-0.1,0-0.2,0-0.3c0,0,0,0,0,0c0.2-1.9,1.8-3.5,3.8-3.5s3.6,1.5,3.8,3.5
		c0,0,0,0,0,0C48.9,38.8,48.9,38.9,48.9,39z"/>
</g>
</svg>
