<?xml version="1.0" encoding="utf-8"?>
<!-- Generator: Adobe Illustrator 23.0.0, SVG Export Plug-In . SVG Version: 6.00 Build 0)  -->
<svg version="1.1" id="Layer_1" xmlns="http://www.w3.org/2000/svg" xmlns:xlink="http://www.w3.org/1999/xlink" x="0px" y="0px"
	 viewBox="0 0 64 64" style="enable-background:new 0 0 64 64;" xml:space="preserve">
<style type="text/css">
	.st0{display:none;}
	.st1{display:inline;fill:#606060;}
	.st2{fill:#606060;}
</style>
<g class="st0">
	<path class="st1" d="M32,15v1c3.9,0,7.7,1.4,10.6,4c3.2,2.8,5.1,6.7,5.4,11s-1.2,8.4-4,11.6C41,46,36.6,48,32,48
		c-3.9,0-7.7-1.4-10.6-4c-6.6-5.8-7.2-16-1.4-22.6C23,18,27.4,16,32,16V15 M32,15c-4.7,0-9.4,1.9-12.7,5.7c-6.2,7-5.6,17.8,1.5,24
		C24,47.6,28,49,32,49c4.7,0,9.4-1.9,12.7-5.7c6.2-7,5.6-17.8-1.5-24C40,16.4,36,15,32,15L32,15z"/>
</g>
<g>
	<path class="st2" d="M51.8,33.5c0,11.8-9.5,21.3-21.3,21.3S9.3,45.2,9.3,33.5s9.5-21.3,21.3-21.3v21.3H51.8z"/>
	<path class="st2" d="M54.8,30.5H33.5V9.3C45.2,9.3,54.8,18.8,54.8,30.5z"/>
</g>
</svg>
