<?xml version="1.0" encoding="utf-8"?>
<!-- Generator: Adobe Illustrator 23.0.0, SVG Export Plug-In . SVG Version: 6.00 Build 0)  -->
<svg version="1.1" id="Layer_1" xmlns="http://www.w3.org/2000/svg" xmlns:xlink="http://www.w3.org/1999/xlink" x="0px" y="0px"
	 viewBox="0 0 64 64" style="enable-background:new 0 0 64 64;" xml:space="preserve">
<style type="text/css">
	.st0{fill:#606060;}
</style>
<g>
	<path class="st0" d="M52,27.5v8.4c0,1-0.4,2-1.1,2.7l0,0c-2,6.2-6.8,11.2-12.9,13.6c-2.2,0.8-4.5,1.4-7,1.5
		c-0.2,0.1-0.4,0.1-0.6,0.1l-4.4,0.5c-1.4,0.1-2.6-0.8-2.7-2.2c0-0.1,0-0.2,0-0.3c0-1.3,0.9-2.3,2.2-2.4l4.4-0.5
		c0.8-0.1,1.5,0.2,2,0.7c0.3,0,0.7-0.1,1-0.1c5.8-0.9,10.7-4.7,13.2-9.8c-1.8-0.3-3.1-1.8-3.1-3.7v-8.4c0-1.9,1.3-3.4,3.1-3.7
		c-2.9-6-9.1-10.1-16.1-10.1s-13.2,4.1-16.1,10.1c1.8,0.3,3.1,1.8,3.1,3.7v8.4c0,1.9-1.3,3.4-3.1,3.7c-0.2,0-0.4,0.1-0.6,0.1h-1.4
		c-1.1,0-2-0.4-2.7-1.1C8.4,37.9,8,37,8,35.9v-8.4c0-1,0.4-2,1.1-2.7l0,0C12,16,20.3,9.7,30,9.7S48,16,50.9,24.8l0,0
		C51.6,25.5,52,26.4,52,27.5z"/>
</g>
</svg>
