<?xml version="1.0" encoding="utf-8"?>
<!-- Generator: Adobe Illustrator 23.0.0, SVG Export Plug-In . SVG Version: 6.00 Build 0)  -->
<svg version="1.1" id="Layer_1" xmlns="http://www.w3.org/2000/svg" xmlns:xlink="http://www.w3.org/1999/xlink" x="0px" y="0px"
	 viewBox="0 0 64 64" style="enable-background:new 0 0 64 64;" xml:space="preserve">
<style type="text/css">
	.st0{fill:#606060;}
</style>
<g>
	<path class="st0" d="M54,27.1v8.4c0,1-0.4,2-1.1,2.7l0,0c-2.1,6.2-6.8,11.2-12.9,13.6c-0.7,0.3-1.4,0.5-2.2,0.7
		c-0.2,0.8-0.8,1.3-1.6,1.5l-4,0.6c-1.1,0.2-2.1-0.6-2.3-1.7c0-0.1,0-0.2,0-0.3c0-1,0.7-1.8,1.7-2l4-0.6c0.4-0.1,0.8,0,1.2,0.2
		c0.9-0.2,1.8-0.5,2.7-0.9c4.6-1.9,8.3-5.5,10.3-10h-1c-2.1,0-3.8-1.7-3.8-3.8v-8.4c0-2.1,1.7-3.8,3.8-3.8h1
		c-3.1-6.8-9.9-11.5-17.8-11.5s-14.7,4.7-17.8,11.5h1c2.1,0,3.8,1.7,3.8,3.8v8.4c0,2.1-1.7,3.8-3.8,3.8h-1.4c-1,0-2-0.4-2.7-1.1
		c-0.7-0.7-1.1-1.6-1.1-2.7v-8.4c0-1,0.4-2,1.1-2.7l0,0C14,15.7,22.3,9.3,32,9.3s18,6.3,20.9,15.1l0,0C53.6,25.2,54,26.1,54,27.1z"
		/>
</g>
</svg>
