<?xml version="1.0" encoding="utf-8"?>
<!-- Generator: Adobe Illustrator 23.0.0, SVG Export Plug-In . SVG Version: 6.00 Build 0)  -->
<svg version="1.1" id="Layer_1" xmlns="http://www.w3.org/2000/svg" xmlns:xlink="http://www.w3.org/1999/xlink" x="0px" y="0px"
	 viewBox="0 0 64 64" style="enable-background:new 0 0 64 64;" xml:space="preserve">
<style type="text/css">
	.st0{fill:#606060;}
</style>
<path class="st0" d="M54,27.4v8.4c0,1-0.4,2-1.1,2.7l0,0c-2,6.2-6.8,11.2-12.9,13.6c-1.5,0.6-3,1-4.6,1.2c-0.3,0.3-0.7,0.5-1.2,0.6
	l-4,0.5c-1.1,0.1-2.1-0.6-2.2-1.7c0-0.1,0-0.2,0-0.3c0-1,0.7-1.9,1.8-2l4-0.5c0.5-0.1,1,0.1,1.4,0.4c1-0.2,2-0.4,2.9-0.7
	c4.9-1.7,9-5.3,11.1-10h-0.4c-2.1,0-3.8-1.7-3.8-3.8v-8.4c0-2.1,1.7-3.8,3.8-3.8h0.4c-3-6.5-9.6-11-17.2-11s-14.2,4.5-17.2,11h0.4
	c2.1,0,3.8,1.7,3.8,3.8v8.4c0,2.1-1.7,3.8-3.8,3.8h-1.4c-1.1,0-2-0.4-2.7-1.1c-0.7-0.7-1.1-1.6-1.1-2.7v-8.4c0-1,0.4-2,1.1-2.7l0,0
	C14,15.9,22.3,9.6,32,9.6s18,6.3,20.9,15.1l0,0C53.6,25.4,54,26.3,54,27.4z"/>
</svg>
