<?xml version="1.0" encoding="utf-8"?>
<!-- Generator: Adobe Illustrator 23.0.0, SVG Export Plug-In . SVG Version: 6.00 Build 0)  -->
<svg version="1.1" id="Layer_1" xmlns="http://www.w3.org/2000/svg" xmlns:xlink="http://www.w3.org/1999/xlink" x="0px" y="0px"
	 viewBox="0 0 64 64" style="enable-background:new 0 0 64 64;" xml:space="preserve">
<style type="text/css">
	.st0{fill:#606060;}
</style>
<path class="st0" d="M54.9,31.1c-1.2-10.6-9.7-19.1-20.2-20.2C20.7,9.4,9,20.2,9,33.8c0,7.8,3.9,14.7,9.9,18.9
	c2.2,1.5,5.2-0.1,5.1-2.8v-0.1c0-4.9,4.5-8.8,9.6-7.9c3.1,0.6,5.7,3.1,6.3,6.3c0,0,0,0.1,0,0.1c0.6,3.5,4.7,5,7.3,2.7
	C52.6,46.2,55.7,39,54.9,31.1z M27.1,18.1c0.9,0,1.6,0.7,1.6,1.6c0,0.9-0.7,1.6-1.6,1.6c-0.9,0-1.6-0.7-1.6-1.6
	C25.5,18.8,26.2,18.1,27.1,18.1z M20.2,24.6c-0.7,0-1.2-0.5-1.2-1.2c0-0.7,0.5-1.2,1.2-1.2c0.7,0,1.2,0.5,1.2,1.2
	C21.4,24,20.9,24.6,20.2,24.6z M26.3,35.9c-2.2,0-4.1-1.8-4.1-4.1c0-2.3,1.8-4.1,4.1-4.1c2.3,0,4.1,1.8,4.1,4.1
	C30.4,34.1,28.6,35.9,26.3,35.9z M35.7,22.9c-1.1,0-2-0.9-2-2c0-1.1,0.9-2,2-2c1.1,0,2,0.9,2,2C37.7,22,36.8,22.9,35.7,22.9z
	 M42.6,31.9c-1.3,0-2.4-1.1-2.4-2.4c0-1.3,1.1-2.4,2.4-2.4c1.3,0,2.4,1.1,2.4,2.4C45,30.8,43.9,31.9,42.6,31.9z"/>
</svg>
