<?xml version="1.0" encoding="utf-8"?>
<!-- Generator: Adobe Illustrator 23.0.0, SVG Export Plug-In . SVG Version: 6.00 Build 0)  -->
<svg version="1.1" id="Layer_1" xmlns="http://www.w3.org/2000/svg" xmlns:xlink="http://www.w3.org/1999/xlink" x="0px" y="0px"
	 viewBox="0 0 64 64" style="enable-background:new 0 0 64 64;" xml:space="preserve">
<style type="text/css">
	.st0{fill:#606060;}
</style>
<g>
	<path class="st0" d="M32,12.6l16.5,8.8v30.5h-33V21.4L32,12.6 M32,30c3.9,0,7-3.1,7-7s-3.1-7-7-7s-7,3.1-7,7S28.1,30,32,30 M32,9.2
		l-18,9.6c-0.1,0-0.2,0.1-0.2,0.1c-0.7,0.3-1.2,1-1.2,1.8v34.2h39V20.7c0-0.8-0.5-1.5-1.2-1.8c-0.1,0-0.2-0.1-0.2-0.1L32,9.2L32,9.2
		z M32,27c-2.2,0-4-1.8-4-4s1.8-4,4-4s4,1.8,4,4S34.2,27,32,27L32,27z"/>
</g>
</svg>
