<?xml version="1.0" encoding="utf-8"?>
<!-- Generator: Adobe Illustrator 23.0.0, SVG Export Plug-In . SVG Version: 6.00 Build 0)  -->
<svg version="1.1" id="Layer_1" xmlns="http://www.w3.org/2000/svg" xmlns:xlink="http://www.w3.org/1999/xlink" x="0px" y="0px"
	 viewBox="0 0 64 64" style="enable-background:new 0 0 64 64;" xml:space="preserve">
<style type="text/css">
	.st0{fill:#606060;}
</style>
<g>
	<g>
		<g>
			<path class="st0" d="M47,48H24c-0.6,0-1-0.4-1-1s0.4-1,1-1h23c0.6,0,1,0.4,1,1S47.6,48,47,48z"/>
		</g>
		<g>
			<path class="st0" d="M47,33H24c-0.6,0-1-0.4-1-1s0.4-1,1-1h23c0.6,0,1,0.4,1,1S47.6,33,47,33z"/>
		</g>
		<g>
			<path class="st0" d="M47,18H24c-0.6,0-1-0.4-1-1s0.4-1,1-1h23c0.6,0,1,0.4,1,1S47.6,18,47,18z"/>
		</g>
	</g>
	<g>
		<g>
			<path class="st0" d="M19.1,48H17c-0.6,0-1-0.4-1-1s0.4-1,1-1h2.1c0.6,0,1,0.4,1,1S19.6,48,19.1,48z"/>
		</g>
		<g>
			<path class="st0" d="M19.1,33H17c-0.6,0-1-0.4-1-1s0.4-1,1-1h2.1c0.6,0,1,0.4,1,1S19.6,33,19.1,33z"/>
		</g>
		<g>
			<path class="st0" d="M19.1,18H17c-0.6,0-1-0.4-1-1s0.4-1,1-1h2.1c0.6,0,1,0.4,1,1S19.6,18,19.1,18z"/>
		</g>
	</g>
</g>
</svg>
