<?xml version="1.0" encoding="utf-8"?>
<!-- Generator: Adobe Illustrator 23.0.0, SVG Export Plug-In . SVG Version: 6.00 Build 0)  -->
<svg version="1.1" id="Layer_1" xmlns="http://www.w3.org/2000/svg" xmlns:xlink="http://www.w3.org/1999/xlink" x="0px" y="0px"
	 viewBox="0 0 64 64" style="enable-background:new 0 0 64 64;" xml:space="preserve">
<style type="text/css">
	.st0{fill:#606060;}
</style>
<g>
	<g>
		<g>
			<path class="st0" d="M10.2,16.6v32h11.5v-32H10.2z M19.2,46.1h-6.5v-1.3h6.5V46.1z M19.2,42.4h-6.5V24.9h6.5V42.4z M12.7,22.4
				v-3.3h6.5v3.3H12.7z"/>
		</g>
	</g>
	<g>
		<g>
			<path class="st0" d="M26.2,16.6v32h11.5v-32H26.2z M35.2,46.1h-6.5v-1.3h6.5V46.1z M35.2,42.4h-6.5V24.9h6.5V42.4z M28.7,22.4
				v-3.3h6.5v3.3H28.7z"/>
		</g>
	</g>
	<g>
		<g>
			<path class="st0" d="M53.3,43.4L53,40.9l-2.4-17.3l-0.3-2.5l-0.8-5.7l-11.4,1.5l0.8,5.7l0.3,2.5l2.3,17.3l0.3,2.5l0.5,3.7
				l11.4-1.5L53.3,43.4z M40.9,19.1l6.4-0.9l0.4,3.2l-6.4,0.9L40.9,19.1z M41.7,24.8l6.4-0.9l2.4,17.3L44,42.1L41.7,24.8z
				 M44.5,45.8l-0.2-1.3l6.4-0.9l0.2,1.2L44.5,45.8z"/>
		</g>
	</g>
</g>
</svg>
