<?xml version="1.0" encoding="utf-8"?>
<!-- Generator: Adobe Illustrator 23.0.0, SVG Export Plug-In . SVG Version: 6.00 Build 0)  -->
<svg version="1.1" id="Layer_1" xmlns="http://www.w3.org/2000/svg" xmlns:xlink="http://www.w3.org/1999/xlink" x="0px" y="0px"
	 viewBox="0 0 64 64" style="enable-background:new 0 0 64 64;" xml:space="preserve">
<style type="text/css">
	.st0{fill:#606060;}
</style>
<path class="st0" d="M31.6,15.3l5.4,10l0.5,0.9l1.1,0.1l11.2,1.3l-7.9,8.1l-0.7,0.8l0.1,1.2l2.3,11.1l-10.2-5l-0.9-0.4l-0.9,0.5
	l-9.8,5.6l1.5-11.2l0.2-1l-0.8-0.7l-8.5-7.7l11.2-2l1-0.2l0.4-0.9L31.6,15.3 M31.4,10.8L31.4,10.8L31.4,10.8z M31.4,10.8l-6.3,14
	L9.9,27.5l11.4,10.4l-2.1,15.3l13.4-7.7l13.8,6.7l-3.1-15.1l10.7-11.1l-15.4-1.7L31.4,10.8L31.4,10.8z"/>
</svg>
