<?xml version="1.0" encoding="utf-8"?>
<!-- Generator: Adobe Illustrator 23.0.0, SVG Export Plug-In . SVG Version: 6.00 Build 0)  -->
<svg version="1.1" id="Layer_1" xmlns="http://www.w3.org/2000/svg" xmlns:xlink="http://www.w3.org/1999/xlink" x="0px" y="0px"
	 viewBox="0 0 64 64" style="enable-background:new 0 0 64 64;" xml:space="preserve">
<style type="text/css">
	.st0{fill:#606060;}
</style>
<path class="st0" d="M54.2,26c0.5-1,0.8-2,0.8-3c0-6.3-10.3-11.5-23-11.5S9,16.7,9,23c0,1,0.3,2,0.8,3C9.3,27,9,28,9,29s0.3,2,0.8,3
	C9.3,33,9,34,9,35s0.3,2,0.8,3C9.3,39,9,40,9,41c0,6.3,10.3,11.5,23,11.5S55,47.3,55,41c0-1-0.3-2-0.8-3c0.5-1,0.8-2,0.8-3
	s-0.3-2-0.8-3c0.5-1,0.8-2,0.8-3S54.7,27,54.2,26z M12,28.7c0.1,0.1,0.2,0.2,0.4,0.3c0.8,0.6,1.7,1.2,2.6,1.8
	c0.8,0.5,1.7,0.9,2.7,1.3c1.5,0.6,3.3,1.1,5.1,1.5c2.8,0.6,5.9,1,9.2,1s6.4-0.3,9.2-1c1.8-0.4,3.5-0.9,5.1-1.5
	c1-0.4,1.9-0.8,2.7-1.3c1-0.5,1.9-1.1,2.6-1.8c0.1-0.1,0.3-0.2,0.4-0.3c0,0.1,0,0.2,0,0.3s0,0.2,0,0.3c-0.1,0.9-0.6,1.8-1.5,2.7
	c-0.4,0.4-0.9,0.8-1.5,1.3c-0.9,0.6-2,1.2-3.3,1.8c-3.5,1.5-8.3,2.5-13.7,2.5s-10.2-1-13.7-2.5c-1.3-0.5-2.4-1.1-3.3-1.8
	c-0.6-0.4-1.1-0.8-1.5-1.3c-0.9-0.9-1.4-1.8-1.5-2.7c0-0.1,0-0.2,0-0.3S12,28.8,12,28.7z M52,35c0,0.1,0,0.2,0,0.3
	c-0.1,0.9-0.6,1.8-1.5,2.7c-2.9,3-9.9,5.5-18.5,5.5S16.4,41,13.5,38c-0.9-0.9-1.4-1.8-1.5-2.7c0-0.1,0-0.2,0-0.3s0-0.2,0-0.3
	c0.1,0.1,0.2,0.2,0.4,0.3c0.8,0.6,1.7,1.2,2.6,1.8c4.2,2.3,10.3,3.8,17,3.8s12.8-1.4,17-3.8c1-0.5,1.9-1.1,2.6-1.8
	c0.1-0.1,0.3-0.2,0.4-0.3C52,34.8,52,34.9,52,35z M32,49.5c-11.5,0-20-4.5-20-8.5c0-0.1,0-0.2,0-0.3c3.9,3.5,11.4,5.8,20,5.8
	s16-2.3,20-5.8c0,0.1,0,0.2,0,0.3C52,45,43.5,49.5,32,49.5z"/>
</svg>
