<?xml version="1.0" encoding="utf-8"?>
<!-- Generator: Adobe Illustrator 23.0.0, SVG Export Plug-In . SVG Version: 6.00 Build 0)  -->
<svg version="1.1" id="Layer_1" xmlns="http://www.w3.org/2000/svg" xmlns:xlink="http://www.w3.org/1999/xlink" x="0px" y="0px"
	 viewBox="0 0 64 64" style="enable-background:new 0 0 64 64;" xml:space="preserve">
<style type="text/css">
	.st0{display:none;fill:none;stroke:#606060;stroke-width:3;stroke-miterlimit:10;}
	.st1{fill:#606060;}
</style>
<line class="st0" x1="26" y1="37" x2="23" y2="37"/>
<g>
	<path class="st1" d="M32,17c2.2,0,4,1.8,4,4s-1.8,4-4,4s-4-1.8-4-4S29.8,17,32,17 M32,13c-4.4,0-8,3.6-8,8s3.6,8,8,8s8-3.6,8-8
		S36.4,13,32,13L32,13z"/>
	<path class="st1" d="M32,35c3.2,0,6.2,1.2,8.5,3.5c1.1,1.1,2,2.5,2.6,4c0.5,1.1,0.7,2.3,0.8,3.6c0,0.1,0,0.1,0,0.2
		c0,0.1,0,0.2,0,0.3c0,0.3-0.3,0.4-0.5,0.4H20.6c-0.2,0-0.4-0.1-0.4-0.2c0-0.3-0.1-0.5-0.1-0.8c0.1-1.2,0.4-2.4,0.8-3.5
		C22.7,37.9,27.1,35,32,35 M32,31c-6.7,0-12.5,4.1-14.8,10c-0.6,1.6-1,3.2-1.1,5c0,0.1,0,0.1,0,0.2c0,0.6,0.1,1.2,0.2,1.7
		c0.6,1.8,2.3,3.1,4.3,3.1h22.9c2.4,0,4.4-1.9,4.5-4.3c0-0.2,0-0.5,0-0.7c0,0,0-0.1,0-0.1c-0.1-1.7-0.5-3.3-1.1-4.9
		c-0.8-2-2-3.8-3.5-5.3C40.4,32.8,36.4,31,32,31L32,31z"/>
</g>
</svg>
