<?xml version="1.0" encoding="utf-8"?>
<!-- Generator: Adobe Illustrator 23.0.0, SVG Export Plug-In . SVG Version: 6.00 Build 0)  -->
<svg version="1.1" id="Layer_1" xmlns="http://www.w3.org/2000/svg" xmlns:xlink="http://www.w3.org/1999/xlink" x="0px" y="0px"
	 viewBox="0 0 64 64" style="enable-background:new 0 0 64 64;" xml:space="preserve">
<style type="text/css">
	.st0{fill:#606060;}
</style>
<g>
	<path class="st0" d="M11.5,32c0-11.3,9.2-20.5,20.5-20.5S52.5,20.7,52.5,32S43.3,52.5,32,52.5S11.5,43.3,11.5,32 M9,32
		c0,12.7,10.3,23,23,23s23-10.3,23-23S44.7,9,32,9S9,19.3,9,32L9,32z"/>
	<g>
		<g>
			<polygon class="st0" points="29.1,47.4 43.2,33.3 16,33.3 16,30.8 43.2,30.8 29.1,16.6 30.9,14.9 48,32 30.9,49.1 			"/>
		</g>
	</g>
</g>
</svg>
