<?xml version="1.0" encoding="utf-8"?>
<!-- Generator: Adobe Illustrator 23.0.0, SVG Export Plug-In . SVG Version: 6.00 Build 0)  -->
<svg version="1.1" id="Layer_1" xmlns="http://www.w3.org/2000/svg" xmlns:xlink="http://www.w3.org/1999/xlink" x="0px" y="0px"
	 viewBox="0 0 64 64" style="enable-background:new 0 0 64 64;" xml:space="preserve">
<style type="text/css">
	.st0{fill:#606060;}
</style>
<g>
	<path class="st0" d="M32,9.5c-6.6,0-12,5.4-12,12v6h4v-6c0-4.4,3.6-8,8-8s8,3.6,8,8v6h4v-6C44,14.9,38.6,9.5,32,9.5z"/>
	<path class="st0" d="M16,27.5v23c0,2.2,1.8,4,4,4h24c2.2,0,4-1.8,4-4v-23H16z M33.8,41.4c-0.2,0.4-0.5,0.7-0.8,0.9v4.3h-2v-4.3
		c-0.3-0.2-0.6-0.5-0.8-0.9c-0.1-0.3-0.2-0.5-0.2-0.9c0-1.1,0.9-2,2-2s2,0.9,2,2C34,40.8,33.9,41.1,33.8,41.4z"/>
</g>
</svg>
