<?xml version="1.0" encoding="utf-8"?>
<!-- Generator: Adobe Illustrator 23.0.0, SVG Export Plug-In . SVG Version: 6.00 Build 0)  -->
<svg version="1.1" id="Layer_1" xmlns="http://www.w3.org/2000/svg" xmlns:xlink="http://www.w3.org/1999/xlink" x="0px" y="0px"
	 viewBox="0 0 64 64" style="enable-background:new 0 0 64 64;" xml:space="preserve">
<style type="text/css">
	.st0{fill:#606060;}
</style>
<g>
	<g>
		<path class="st0" d="M32,36c-1.1,0-2,0.9-2,2s0.9,2,2,2c1.1,0,2-0.9,2-2S33.1,36,32,36L32,36z"/>
		<polygon class="st0" points="33,38 31,38 31,44 33,44 		"/>
	</g>
	<g>
		<path class="st0" d="M32,9.5c-6.6,0-12,5.4-12,12v8c0,0.7,0.1,1.3,0.2,2h4.1c-0.2-0.6-0.3-1.3-0.3-2v-8c0-4.4,3.6-8,8-8s8,3.6,8,8
			v8c0,0.7-0.1,1.4-0.3,2h4.1c0.1-0.7,0.2-1.3,0.2-2v-8C44,14.9,38.6,9.5,32,9.5z"/>
		<path class="st0" d="M16,27.5v23c0,2.2,1.8,4,4,4h24c2.2,0,4-1.8,4-4v-23H16z M40,50.5H24c-2.2,0-4-1.8-4-4v-15h24v15
			C44,48.7,42.2,50.5,40,50.5z"/>
	</g>
</g>
</svg>
