<?xml version="1.0" encoding="utf-8"?>
<!-- Generator: Adobe Illustrator 23.0.0, SVG Export Plug-In . SVG Version: 6.00 Build 0)  -->
<svg version="1.1" id="Layer_1" xmlns="http://www.w3.org/2000/svg" xmlns:xlink="http://www.w3.org/1999/xlink" x="0px" y="0px"
	 viewBox="0 0 64 64" style="enable-background:new 0 0 64 64;" xml:space="preserve">
<style type="text/css">
	.st0{fill:#606060;}
</style>
<path class="st0" d="M28.5,20.5c3.1,0,5.9,1.5,7.7,4l1.2,1.7l2-0.5c0.2-0.1,0.5-0.1,0.7-0.1c0.1,0,0.2,0,0.3,0
	c2.3,0,4.3,1.8,4.5,4.2c0,0.3,0,0.5,0,0.7l-0.3,2.8l2.7,0.5c2.4,0.4,4.1,2.5,4.1,4.9c0,1.3-0.5,2.6-1.5,3.5c-1,0.9-2.2,1.5-3.5,1.5
	h-29c-2.8,0-5-2.2-5-5c0-1.3,0.5-2.6,1.5-3.5c0.7-0.7,1.6-1.2,2.6-1.4l2.6-0.5L19,30.5c0-0.2,0-0.3,0-0.5
	C19,24.8,23.3,20.5,28.5,20.5 M28.5,17.5C21.6,17.5,16,23.1,16,30c0,0.2,0,0.4,0,0.6c-1.6,0.3-3.1,1.1-4.2,2.2
	c-1.4,1.5-2.3,3.5-2.3,5.7c0,4.4,3.6,8,8,8h29c2.2,0,4.2-0.9,5.7-2.3c1.4-1.5,2.3-3.5,2.3-5.7c0-3.9-2.8-7.2-6.5-7.9
	c0-0.4,0-0.8,0-1.2c-0.3-3.9-3.6-6.9-7.5-6.9c-0.2,0-0.4,0-0.6,0c-0.4,0-0.9,0.1-1.3,0.2C36.4,19.6,32.7,17.5,28.5,17.5L28.5,17.5z"
	/>
</svg>
