<?xml version="1.0" encoding="utf-8"?>
<!-- Generator: Adobe Illustrator 23.0.0, SVG Export Plug-In . SVG Version: 6.00 Build 0)  -->
<svg version="1.1" id="Layer_1" xmlns="http://www.w3.org/2000/svg" xmlns:xlink="http://www.w3.org/1999/xlink" x="0px" y="0px"
	 viewBox="0 0 64 64" style="enable-background:new 0 0 64 64;" xml:space="preserve">
<style type="text/css">
	.st0{fill:#606060;}
</style>
<g>
	<path class="st0" d="M54,31c-0.1-2.8-0.8-5.5-1.9-8c-0.3-0.7-0.6-1.4-1-2c-2-3.4-4.8-6.2-8.2-8.1c0,0,0,0,0,0
		c-2.5-1.4-5.3-2.4-8.4-2.7c0,0,0,0,0,0C34,10.1,33.5,10,33,10c-0.3,0-0.7,0-1,0s-0.7,0-1,0c-0.5,0-1,0-1.5,0.1
		c-3,0.3-5.9,1.3-8.4,2.8c-3.4,1.9-6.2,4.7-8.2,8.1c-0.4,0.6-0.7,1.3-1,2c-1.1,2.5-1.8,5.2-1.9,8c0,0.3,0,0.7,0,1c0,0.3,0,0.7,0,1
		c0.1,2.8,0.8,5.5,1.9,8c0.3,0.7,0.6,1.3,1,2c2,3.4,4.8,6.2,8.2,8.1c2.5,1.5,5.4,2.4,8.4,2.8c0.5,0.1,1,0.1,1.5,0.1c0.3,0,0.7,0,1,0
		s0.7,0,1,0c0.5,0,1,0,1.5-0.1c0,0,0,0,0,0c3-0.3,5.9-1.3,8.4-2.7c0,0,0,0,0,0c3.4-1.9,6.2-4.7,8.2-8.1c0.4-0.7,0.7-1.3,1-2
		c1.1-2.5,1.8-5.2,1.9-8c0-0.3,0-0.7,0-1C54,31.7,54,31.3,54,31z M26.1,12.9c-3.4,1.9-6.2,4.7-8.1,8.1h-2.6
		C17.8,17.2,21.6,14.3,26.1,12.9z M16.9,23c-1.1,2.5-1.8,5.2-1.9,8h-3c0.1-2.9,0.9-5.6,2.1-8H16.9z M12,33h3c0.1,2.8,0.8,5.5,1.9,8
		h-2.8C12.9,38.6,12.2,35.9,12,33z M15.3,43h2.6c2,3.4,4.8,6.2,8.1,8.1C21.6,49.7,17.8,46.8,15.3,43z M31,51.1
		c-4.4-1.4-8.2-4.3-10.7-8.1H31V51.1z M31,41H19.1c-1.2-2.4-2-5.1-2.1-8h14V41z M31,31H17c0.1-2.9,0.9-5.6,2.1-8H31V31z M31,21H20.3
		c2.5-3.8,6.3-6.7,10.7-8.1V21z M48.7,21h-2.6c-2-3.4-4.8-6.2-8.2-8.1C42.4,14.3,46.2,17.2,48.7,21z M33,12.9
		c4.4,1.4,8.2,4.3,10.7,8.1H33V12.9z M33,23h11.9c1.2,2.4,2,5.1,2.1,8H33V23z M33,33h14c-0.1,2.9-0.9,5.6-2.1,8H33V33z M33,51.1V43
		h10.7C41.2,46.8,37.4,49.7,33,51.1z M37.9,51.1c3.4-1.9,6.2-4.7,8.2-8.1h2.6C46.2,46.8,42.4,49.7,37.9,51.1z M49.9,41h-2.8
		c1.1-2.5,1.8-5.2,1.9-8h3C51.8,35.9,51.1,38.6,49.9,41z M49,31c-0.1-2.8-0.8-5.5-1.9-8h2.8c1.2,2.4,2,5.1,2.1,8H49z"/>
</g>
</svg>
