<?xml version="1.0" encoding="utf-8"?>
<!-- Generator: Adobe Illustrator 23.0.0, SVG Export Plug-In . SVG Version: 6.00 Build 0)  -->
<svg version="1.1" id="Layer_1" xmlns="http://www.w3.org/2000/svg" xmlns:xlink="http://www.w3.org/1999/xlink" x="0px" y="0px"
	 viewBox="0 0 64 64" style="enable-background:new 0 0 64 64;" xml:space="preserve">
<style type="text/css">
	.st0{fill:#606060;}
</style>
<g>
	<g>
		<path class="st0" d="M54,34.8v8.4c0,1-0.4,2-1.1,2.7c-0.7,0.7-1.6,1.1-2.7,1.1h-1.4c-2.1,0-3.8-1.7-3.8-3.8v-8.4
			c0-2.1,1.7-3.8,3.8-3.8h1c-3.1-6.8-9.9-11.5-17.8-11.5S17.3,24.2,14.2,31h1c2.1,0,3.8,1.7,3.8,3.8v8.4c0,2.1-1.7,3.8-3.8,3.8h-1.4
			c-1.1,0-2-0.4-2.7-1.1c-0.7-0.7-1.1-1.6-1.1-2.7v-8.4c0-1,0.4-2,1.1-2.7C14,23.3,22.2,17,32,17s18,6.3,20.9,15.1
			C53.6,32.8,54,33.7,54,34.8z"/>
	</g>
</g>
</svg>
